<?xml version="1.0" encoding="UTF-8"?>
<!DOCTYPE svg PUBLIC "-//W3C//DTD SVG 1.1//EN" "http://www.w3.org/Graphics/SVG/1.1/DTD/svg11.dtd">
<svg xmlns="http://www.w3.org/2000/svg" version="1.1" width="250px" height="250px" style="shape-rendering:geometricPrecision; text-rendering:geometricPrecision; image-rendering:optimizeQuality; fill-rule:evenodd; clip-rule:evenodd" xmlns:xlink="http://www.w3.org/1999/xlink">
<g><path style="opacity:0.278" fill="#e5eacc" d="M 145.5,21.5 C 147.035,20.2121 148.701,20.2121 150.5,21.5C 151.374,23.7466 151.708,26.0799 151.5,28.5C 151.167,28.5 150.833,28.5 150.5,28.5C 149.781,26.2362 149.448,23.9029 149.5,21.5C 148.167,21.5 146.833,21.5 145.5,21.5 Z"/></g>
<g><path style="opacity:0.282" fill="#eaf0ce" d="M 145.5,21.5 C 141.167,25.5 136.833,29.5 132.5,33.5C 130.589,34.075 128.922,35.075 127.5,36.5C 127.511,34.9826 128.177,33.8159 129.5,33C 134.73,28.9231 140.064,25.0897 145.5,21.5 Z"/></g>
<g><path style="opacity:0.957" fill="#c2ce8d" d="M 145.5,21.5 C 146.833,21.5 148.167,21.5 149.5,21.5C 149.448,23.9029 149.781,26.2362 150.5,28.5C 149.185,27.5244 147.852,26.5244 146.5,25.5C 144.78,26.934 142.78,27.7674 140.5,28C 139.619,28.7083 138.953,29.5416 138.5,30.5C 136.5,31.5 134.5,32.5 132.5,33.5C 136.833,29.5 141.167,25.5 145.5,21.5 Z"/></g>
<g><path style="opacity:0.357" fill="#dee8c2" d="M 78.5,43.5 C 72.4963,37.313 65.8296,31.813 58.5,27C 57.2068,26.51 55.8734,26.3433 54.5,26.5C 54.3433,27.8734 54.51,29.2068 55,30.5C 56.8119,32.3003 58.6452,33.9669 60.5,35.5C 56.8391,34.3522 53.8391,32.1855 51.5,29C 52.6731,25.4719 55.0064,24.1386 58.5,25C 61.3265,28.8272 64.9932,31.4939 69.5,33C 72.4168,36.7366 75.4168,40.2366 78.5,43.5 Z"/></g>
<g><path style="opacity:1" fill="#9bb25b" d="M 78.5,43.5 C 78.7376,45.4044 79.7376,46.7377 81.5,47.5C 81.5,48.1667 81.5,48.8333 81.5,49.5C 80.5,48.8333 79.5,48.1667 78.5,47.5C 76.1928,44.3619 73.3594,41.6952 70,39.5C 69.5045,41.4727 69.3379,43.4727 69.5,45.5C 69.5,48.1667 69.5,50.8333 69.5,53.5C 68.6367,48.9813 67.8034,44.3146 67,39.5C 66.1841,38.1772 65.0174,37.5106 63.5,37.5C 63.0269,36.0937 62.0269,35.427 60.5,35.5C 58.6452,33.9669 56.8119,32.3003 55,30.5C 54.51,29.2068 54.3433,27.8734 54.5,26.5C 55.8734,26.3433 57.2068,26.51 58.5,27C 65.8296,31.813 72.4963,37.313 78.5,43.5 Z"/></g>
<g><path style="opacity:1" fill="#bbca72" d="M 132.5,33.5 C 131.542,34.9616 130.376,36.2949 129,37.5C 128.821,41.0252 128.321,44.3586 127.5,47.5C 127.5,43.8333 127.5,40.1667 127.5,36.5C 128.922,35.075 130.589,34.075 132.5,33.5 Z"/></g>
<g><path style="opacity:1" fill="#c9d78c" d="M 150.5,28.5 C 150.833,28.5 151.167,28.5 151.5,28.5C 152.833,33.5 152.833,38.5 151.5,43.5C 149.806,44.5274 148.473,45.8608 147.5,47.5C 148.252,44.9097 149.252,42.4097 150.5,40C 150.333,39.1667 150.167,38.3333 150,37.5C 148.898,38.949 147.731,40.2823 146.5,41.5C 144.824,40.8166 144.157,39.4832 144.5,37.5C 144.414,36.5041 144.748,35.6708 145.5,35C 149.04,34.6713 150.206,32.838 149,29.5C 146.395,28.1857 143.895,28.1857 141.5,29.5C 140.609,30.1098 139.609,30.4431 138.5,30.5C 138.953,29.5416 139.619,28.7083 140.5,28C 142.78,27.7674 144.78,26.934 146.5,25.5C 147.852,26.5244 149.185,27.5244 150.5,28.5 Z"/></g>
<g><path style="opacity:0.278" fill="#e9f0d2" d="M 192.5,33.5 C 190.5,36.1667 188.167,38.5 185.5,40.5C 186.833,37.1667 189.167,34.8333 192.5,33.5 Z"/></g>
<g><path style="opacity:1" fill="#98b549" d="M 199.5,31.5 C 200.497,31.4701 201.164,31.9701 201.5,33C 200.368,34.7645 199.368,36.5979 198.5,38.5C 198.167,38.5 197.833,38.5 197.5,38.5C 197.5,37.5 197.5,36.5 197.5,35.5C 196.448,35.3505 195.448,35.5172 194.5,36C 191.964,38.705 189.297,41.205 186.5,43.5C 188.865,39.1353 192.198,35.802 196.5,33.5C 196.973,32.0937 197.973,31.427 199.5,31.5 Z"/></g>
<g><path style="opacity:0.922" fill="#aabe77" d="M 198.5,38.5 C 199.368,36.5979 200.368,34.7645 201.5,33C 201.164,31.9701 200.497,31.4701 199.5,31.5C 200.659,29.6231 202.326,29.1231 204.5,30C 204.549,34.3589 202.549,37.1922 198.5,38.5 Z"/></g>
<g><path style="opacity:0.184" fill="#ecf3cf" d="M 60.5,35.5 C 62.0269,35.427 63.0269,36.0937 63.5,37.5C 61.9731,37.573 60.9731,36.9063 60.5,35.5 Z"/></g>
<g><path style="opacity:1" fill="#aec739" d="M 141.5,29.5 C 145.14,31.1019 145.473,33.4352 142.5,36.5C 139.296,37.2036 136.129,37.8702 133,38.5C 133.689,42.8688 133.523,47.2021 132.5,51.5C 131.662,51.8417 131.328,52.5084 131.5,53.5C 130.18,54.9418 128.514,55.6085 126.5,55.5C 126.993,53.1944 127.326,50.861 127.5,48.5C 127.5,48.1667 127.5,47.8333 127.5,47.5C 128.321,44.3586 128.821,41.0252 129,37.5C 130.376,36.2949 131.542,34.9616 132.5,33.5C 134.5,32.5 136.5,31.5 138.5,30.5C 139.609,30.4431 140.609,30.1098 141.5,29.5 Z"/></g>
<g><path style="opacity:0.973" fill="#a2b66f" d="M 192.5,33.5 C 193.833,33.5 195.167,33.5 196.5,33.5C 192.198,35.802 188.865,39.1353 186.5,43.5C 185.833,43.8333 185.167,44.1667 184.5,44.5C 184.833,43.1667 185.167,41.8333 185.5,40.5C 188.167,38.5 190.5,36.1667 192.5,33.5 Z"/></g>
<g><path style="opacity:1" fill="#bccf60" d="M 141.5,29.5 C 143.895,28.1857 146.395,28.1857 149,29.5C 150.206,32.838 149.04,34.6713 145.5,35C 144.748,35.6708 144.414,36.5041 144.5,37.5C 143.596,38.209 143.263,39.209 143.5,40.5C 142.167,40.5 140.833,40.5 139.5,40.5C 139.5,42.8333 139.5,45.1667 139.5,47.5C 137.177,48.7501 134.844,50.0834 132.5,51.5C 133.523,47.2021 133.689,42.8688 133,38.5C 136.129,37.8702 139.296,37.2036 142.5,36.5C 145.473,33.4352 145.14,31.1019 141.5,29.5 Z"/></g>
<g><path style="opacity:0.333" fill="#d1ddc5" d="M 78.5,43.5 C 80.2624,44.2623 81.2624,45.5956 81.5,47.5C 79.7376,46.7377 78.7376,45.4044 78.5,43.5 Z"/></g>
<g><path style="opacity:0.153" fill="#dde9c2" d="M 204.5,61.5 C 200.404,60.8094 196.404,59.8094 192.5,58.5C 192.5,54.8333 192.5,51.1667 192.5,47.5C 195.389,45.7226 196.722,43.0559 196.5,39.5C 197.167,39.5 197.5,39.1667 197.5,38.5C 197.833,38.5 198.167,38.5 198.5,38.5C 202.549,37.1922 204.549,34.3589 204.5,30C 202.326,29.1231 200.659,29.6231 199.5,31.5C 197.973,31.427 196.973,32.0937 196.5,33.5C 195.167,33.5 193.833,33.5 192.5,33.5C 196.542,30.8298 200.876,28.4964 205.5,26.5C 209.328,28.2486 209.161,29.9153 205,31.5C 205.237,36.0344 203.237,39.0344 199,40.5C 198.317,43.4242 196.817,45.7575 194.5,47.5C 193.599,50.795 193.599,54.1283 194.5,57.5C 198.137,58.2635 201.47,59.5968 204.5,61.5 Z"/></g>
<g><path style="opacity:0.408" fill="#e2ebcd" d="M 185.5,40.5 C 185.167,41.8333 184.833,43.1667 184.5,44.5C 184.027,45.9063 183.027,46.573 181.5,46.5C 177.082,47.8299 175.415,50.8299 176.5,55.5C 175.609,56.1098 174.609,56.4431 173.5,56.5C 173.333,50.1686 176.333,46.3353 182.5,45C 183.053,43.1222 184.053,41.6222 185.5,40.5 Z"/></g>
<g><path style="opacity:1" fill="#7e9f35" d="M 196.5,39.5 C 196.722,43.0559 195.389,45.7226 192.5,47.5C 191.833,50.5 191.167,53.5 190.5,56.5C 190.335,52.8183 190.501,49.1516 191,45.5C 193.418,44.5669 195.252,42.5669 196.5,39.5 Z"/></g>
<g><path style="opacity:1" fill="#a9c248" d="M 147.5,47.5 C 146.167,47.5 145.5,48.1667 145.5,49.5C 144.073,51.1484 143.24,53.1484 143,55.5C 142.209,54.255 141.709,52.9217 141.5,51.5C 143.167,48.1605 144.834,44.8272 146.5,41.5C 147.731,40.2823 148.898,38.949 150,37.5C 150.167,38.3333 150.333,39.1667 150.5,40C 149.252,42.4097 148.252,44.9097 147.5,47.5 Z"/></g>
<g><path style="opacity:1" fill="#6f8f2e" d="M 78.5,47.5 C 79.5,48.1667 80.5,48.8333 81.5,49.5C 85.3872,52.3347 89.0539,55.3347 92.5,58.5C 93.3382,58.8417 93.6716,59.5084 93.5,60.5C 93.3531,65.2142 93.6864,69.8809 94.5,74.5C 96.2915,74.366 97.9582,74.6993 99.5,75.5C 99.5,76.8333 99.5,78.1667 99.5,79.5C 100.5,79.5 101.5,79.5 102.5,79.5C 102.263,78.209 102.596,77.209 103.5,76.5C 104.167,76.5 104.5,76.8333 104.5,77.5C 104.5,77.8333 104.5,78.1667 104.5,78.5C 103.566,79.5676 103.232,80.901 103.5,82.5C 102.209,82.2627 101.209,82.596 100.5,83.5C 98.262,79.5842 95.5954,75.9176 92.5,72.5C 91.8337,68.6475 91.167,64.6475 90.5,60.5C 88.1667,59.5 86.5,57.8333 85.5,55.5C 84.675,54.6143 83.675,54.281 82.5,54.5C 82.5,53.5 82.5,52.5 82.5,51.5C 81.1667,51.5 79.8333,51.5 78.5,51.5C 78.5,50.1667 78.5,48.8333 78.5,47.5 Z"/></g>
<g><path style="opacity:0.463" fill="#cadab1" d="M 81.5,47.5 C 86.1667,50.1667 89.8333,53.8333 92.5,58.5C 89.0539,55.3347 85.3872,52.3347 81.5,49.5C 81.5,48.8333 81.5,48.1667 81.5,47.5 Z"/></g>
<g><path style="opacity:0.251" fill="#e7f0cc" d="M 127.5,36.5 C 127.5,40.1667 127.5,43.8333 127.5,47.5C 127.5,47.8333 127.5,48.1667 127.5,48.5C 126.326,49.5137 125.66,50.847 125.5,52.5C 123.833,53.8333 122.167,55.1667 120.5,56.5C 121.75,54.0676 123.25,51.7343 125,49.5C 125.966,45.06 126.799,40.7267 127.5,36.5 Z"/></g>
<g><path style="opacity:0.765" fill="#a8b771" d="M 147.5,47.5 C 146.698,55.4987 146.364,63.4987 146.5,71.5C 146.167,71.5 145.833,71.5 145.5,71.5C 144.532,64.1882 144.532,56.8548 145.5,49.5C 145.5,48.1667 146.167,47.5 147.5,47.5 Z"/></g>
<g><path style="opacity:1" fill="#a5bc7b" d="M 181.5,46.5 C 180.376,49.0417 179.542,51.7084 179,54.5C 178.329,55.2524 177.496,55.5858 176.5,55.5C 175.415,50.8299 177.082,47.8299 181.5,46.5 Z"/></g>
<g><path style="opacity:1" fill="#669209" d="M 78.5,47.5 C 78.5,48.8333 78.5,50.1667 78.5,51.5C 79.8333,51.5 81.1667,51.5 82.5,51.5C 82.5,52.5 82.5,53.5 82.5,54.5C 83.675,54.281 84.675,54.6143 85.5,55.5C 86.5,57.8333 88.1667,59.5 90.5,60.5C 91.167,64.6475 91.8337,68.6475 92.5,72.5C 91.7565,75.5885 90.0898,76.2551 87.5,74.5C 87.5858,73.5041 87.2524,72.6708 86.5,72C 82.511,69.7329 78.511,67.5662 74.5,65.5C 75.3897,63.2181 75.5564,60.8848 75,58.5C 73.6455,53.8107 71.8122,49.4773 69.5,45.5C 69.3379,43.4727 69.5045,41.4727 70,39.5C 73.3594,41.6952 76.1928,44.3619 78.5,47.5 Z"/></g>
<g><path style="opacity:1" fill="#9db349" d="M 145.5,49.5 C 144.532,56.8548 144.532,64.1882 145.5,71.5C 144.964,74.6981 145.631,77.3647 147.5,79.5C 146.855,80.8118 145.855,81.8118 144.5,82.5C 143.669,75.5236 143.169,68.5236 143,61.5C 142.292,60.6195 141.458,59.9528 140.5,59.5C 140.726,56.7508 140.393,54.0841 139.5,51.5C 140.257,50.2267 140.923,50.2267 141.5,51.5C 141.709,52.9217 142.209,54.255 143,55.5C 143.24,53.1484 144.073,51.1484 145.5,49.5 Z"/></g>
<g><path style="opacity:1" fill="#a8c169" d="M 69.5,53.5 C 71.4023,56.3373 72.069,59.6707 71.5,63.5C 70.4192,60.3733 69.7526,57.0399 69.5,53.5 Z"/></g>
<g><path style="opacity:1" fill="#81a91d" d="M 197.5,38.5 C 197.5,39.1667 197.167,39.5 196.5,39.5C 195.252,42.5669 193.418,44.5669 191,45.5C 190.501,49.1516 190.335,52.8183 190.5,56.5C 187.333,56.4001 184.333,57.0668 181.5,58.5C 180.817,58.1373 180.15,57.8039 179.5,57.5C 180.174,54.4741 181.007,51.4741 182,48.5C 184.415,47.5887 185.915,45.922 186.5,43.5C 189.297,41.205 191.964,38.705 194.5,36C 195.448,35.5172 196.448,35.3505 197.5,35.5C 197.5,36.5 197.5,37.5 197.5,38.5 Z"/></g>
<g><path style="opacity:1" fill="#7fa622" d="M 69.5,45.5 C 71.8122,49.4773 73.6455,53.8107 75,58.5C 75.5564,60.8848 75.3897,63.2181 74.5,65.5C 73.8333,64.8333 73.1667,64.1667 72.5,63.5C 72.1667,63.5 71.8333,63.5 71.5,63.5C 72.069,59.6707 71.4023,56.3373 69.5,53.5C 69.5,50.8333 69.5,48.1667 69.5,45.5 Z"/></g>
<g><path style="opacity:0.118" fill="#e7ebce" d="M 65.5,61.5 C 61.019,60.771 56.519,60.1043 52,59.5C 47.7004,59.9897 43.5338,60.9897 39.5,62.5C 42.9386,59.2993 47.1053,57.966 52,58.5C 55.8878,58.5939 59.7212,59.0939 63.5,60C 64.4158,60.2784 65.0825,60.7784 65.5,61.5 Z"/></g>
<g><path style="opacity:1" fill="#bed071" d="M 144.5,37.5 C 144.157,39.4832 144.824,40.8166 146.5,41.5C 144.834,44.8272 143.167,48.1605 141.5,51.5C 140.923,50.2267 140.257,50.2267 139.5,51.5C 140.393,54.0841 140.726,56.7508 140.5,59.5C 140.34,61.153 139.674,62.4863 138.5,63.5C 138.664,60.8127 138.497,58.146 138,55.5C 137.532,59.4029 136.366,63.0696 134.5,66.5C 133.432,64.8125 133.599,63.1459 135,61.5C 135.667,58.8333 135.667,56.1667 135,53.5C 133.855,52.3157 132.688,52.3157 131.5,53.5C 131.328,52.5084 131.662,51.8417 132.5,51.5C 134.844,50.0834 137.177,48.7501 139.5,47.5C 139.5,45.1667 139.5,42.8333 139.5,40.5C 140.833,40.5 142.167,40.5 143.5,40.5C 143.263,39.209 143.596,38.209 144.5,37.5 Z"/></g>
<g><path style="opacity:1" fill="#adbf77" d="M 192.5,47.5 C 192.5,51.1667 192.5,54.8333 192.5,58.5C 196.404,59.8094 200.404,60.8094 204.5,61.5C 205.905,63.4526 205.239,64.4526 202.5,64.5C 200.793,64.2716 199.126,63.9383 197.5,63.5C 197.918,62.7784 198.584,62.2784 199.5,62C 197.212,61.1779 194.878,60.5112 192.5,60C 191.177,59.1841 190.511,58.0174 190.5,56.5C 191.167,53.5 191.833,50.5 192.5,47.5 Z"/></g>
<g><path style="opacity:0.196" fill="#f5f9d8" d="M 173.5,56.5 C 171.833,58.8333 169.833,60.8333 167.5,62.5C 168.5,59.5 170.5,57.5 173.5,56.5 Z"/></g>
<g><path style="opacity:1" fill="#c9d783" d="M 138.5,63.5 C 138.5,63.8333 138.5,64.1667 138.5,64.5C 136.883,66.1209 135.716,68.1209 135,70.5C 133.989,71.3366 132.822,71.67 131.5,71.5C 131.5,69.8333 131.5,68.1667 131.5,66.5C 130.849,64.1743 130.182,61.8409 129.5,59.5C 129.719,57.3069 130.385,55.3069 131.5,53.5C 132.688,52.3157 133.855,52.3157 135,53.5C 135.667,56.1667 135.667,58.8333 135,61.5C 133.599,63.1459 133.432,64.8125 134.5,66.5C 136.366,63.0696 137.532,59.4029 138,55.5C 138.497,58.146 138.664,60.8127 138.5,63.5 Z"/></g>
<g><path style="opacity:1" fill="#9dbc3c" d="M 190.5,56.5 C 190.511,58.0174 191.177,59.1841 192.5,60C 194.878,60.5112 197.212,61.1779 199.5,62C 198.584,62.2784 197.918,62.7784 197.5,63.5C 195.5,63.5 193.5,63.5 191.5,63.5C 190.508,63.3284 189.842,63.6618 189.5,64.5C 188.778,65.5511 187.778,66.2178 186.5,66.5C 186.5,64.8333 186.5,63.1667 186.5,61.5C 185.127,61.3433 183.793,61.51 182.5,62C 180.273,64.5641 178.439,67.3974 177,70.5C 177.046,68.6874 176.88,67.0207 176.5,65.5C 174.925,66.4565 173.258,67.1231 171.5,67.5C 171.461,66.4168 171.127,65.4168 170.5,64.5C 173.144,63.6042 175.81,62.7709 178.5,62C 179.38,60.6439 179.714,59.1439 179.5,57.5C 180.15,57.8039 180.817,58.1373 181.5,58.5C 184.333,57.0668 187.333,56.4001 190.5,56.5 Z"/></g>
<g><path style="opacity:1" fill="#b0c65f" d="M 186.5,43.5 C 185.915,45.922 184.415,47.5887 182,48.5C 181.007,51.4741 180.174,54.4741 179.5,57.5C 179.714,59.1439 179.38,60.6439 178.5,62C 175.81,62.7709 173.144,63.6042 170.5,64.5C 171.127,65.4168 171.461,66.4168 171.5,67.5C 169.94,69.1561 168.94,71.1561 168.5,73.5C 168.5,71.8333 168.5,70.1667 168.5,68.5C 167.167,68.5 165.833,68.5 164.5,68.5C 164.088,66.0274 165.088,64.6941 167.5,64.5C 171.182,62.0902 174.182,59.0902 176.5,55.5C 177.496,55.5858 178.329,55.2524 179,54.5C 179.542,51.7084 180.376,49.0417 181.5,46.5C 183.027,46.573 184.027,45.9063 184.5,44.5C 185.167,44.1667 185.833,43.8333 186.5,43.5 Z"/></g>
<g><path style="opacity:1" fill="#c1cd82" d="M 176.5,55.5 C 174.182,59.0902 171.182,62.0902 167.5,64.5C 167.5,63.8333 167.5,63.1667 167.5,62.5C 169.833,60.8333 171.833,58.8333 173.5,56.5C 174.609,56.4431 175.609,56.1098 176.5,55.5 Z"/></g>
<g><path style="opacity:0.075" fill="#ebf1ce" d="M 204.5,61.5 C 206.027,61.427 207.027,62.0937 207.5,63.5C 207.179,65.0481 206.179,65.7148 204.5,65.5C 201.468,65.495 198.468,65.1616 195.5,64.5C 193.307,64.7705 191.641,65.7705 190.5,67.5C 190.433,66.0413 190.766,64.7079 191.5,63.5C 193.5,63.5 195.5,63.5 197.5,63.5C 199.126,63.9383 200.793,64.2716 202.5,64.5C 205.239,64.4526 205.905,63.4526 204.5,61.5 Z"/></g>
<g><path style="opacity:0.99" fill="#cbd5a7" d="M 63.5,37.5 C 65.0174,37.5106 66.1841,38.1772 67,39.5C 67.8034,44.3146 68.6367,48.9813 69.5,53.5C 69.7526,57.0399 70.4192,60.3733 71.5,63.5C 71.8333,63.5 72.1667,63.5 72.5,63.5C 72.5,64.8333 72.5,66.1667 72.5,67.5C 73.1667,74.1667 73.8333,80.8333 74.5,87.5C 72.125,82.9111 71.125,77.9111 71.5,72.5C 71.5,70.5 71.5,68.5 71.5,66.5C 67.5,66.5 63.5,66.5 59.5,66.5C 54.816,65.4858 50.1493,64.4858 45.5,63.5C 42.383,63.6423 39.883,64.9756 38,67.5C 37.3872,65.5048 37.8872,63.8381 39.5,62.5C 43.5338,60.9897 47.7004,59.9897 52,59.5C 56.519,60.1043 61.019,60.771 65.5,61.5C 66.5,61.5 67.5,61.5 68.5,61.5C 67.9966,54.4639 67.1633,47.4639 66,40.5C 64.955,39.6266 64.1217,38.6266 63.5,37.5 Z"/></g>
<g><path style="opacity:1" fill="#b3bf77" d="M 51.5,62.5 C 52.7933,61.8418 54.2933,61.5085 56,61.5C 58.4697,61.3403 60.6364,62.0069 62.5,63.5C 58.6448,64.8922 54.9781,64.5588 51.5,62.5 Z"/></g>
<g><path style="opacity:0.09" fill="#edf3d6" d="M 151.5,43.5 C 147.05,51.1264 146.383,59.1264 149.5,67.5C 148.484,70.2821 147.484,72.9487 146.5,75.5C 146.5,74.1667 146.5,72.8333 146.5,71.5C 146.364,63.4987 146.698,55.4987 147.5,47.5C 148.473,45.8608 149.806,44.5274 151.5,43.5 Z"/></g>
<g><path style="opacity:0.102" fill="#ecf1d2" d="M 39.5,62.5 C 37.8872,63.8381 37.3872,65.5048 38,67.5C 39.883,64.9756 42.383,63.6423 45.5,63.5C 42.2358,65.0941 39.5691,67.4275 37.5,70.5C 35.0586,68.4718 34.892,66.1384 37,63.5C 37.6708,62.7476 38.5041,62.4142 39.5,62.5 Z"/></g>
<g><path style="opacity:0.153" fill="#f2f8e3" d="M 59.5,66.5 C 63.5,66.5 67.5,66.5 71.5,66.5C 71.5,68.5 71.5,70.5 71.5,72.5C 70.7656,71.1225 70.0989,69.6225 69.5,68C 65.9748,67.8213 62.6414,67.3213 59.5,66.5 Z"/></g>
<g><path style="opacity:1" fill="#b4ca4e" d="M 127.5,48.5 C 127.326,50.861 126.993,53.1944 126.5,55.5C 128.514,55.6085 130.18,54.9418 131.5,53.5C 130.385,55.3069 129.719,57.3069 129.5,59.5C 130.182,61.8409 130.849,64.1743 131.5,66.5C 128.683,70.2258 129.517,73.2258 134,75.5C 134.497,77.8098 134.663,80.1432 134.5,82.5C 136.685,82.2964 138.685,81.6298 140.5,80.5C 140.586,81.4959 140.252,82.3292 139.5,83C 132.359,85.6408 129.359,90.8075 130.5,98.5C 130.5,98.8333 130.5,99.1667 130.5,99.5C 129.5,99.5 128.5,99.5 127.5,99.5C 128.587,90.872 129.254,82.2054 129.5,73.5C 127.5,73.5 125.5,73.5 123.5,73.5C 124.643,76.6839 125.309,80.0173 125.5,83.5C 123.708,83.634 122.042,83.3007 120.5,82.5C 119.833,82.5 119.5,82.1667 119.5,81.5C 120.992,80.3926 121.992,78.8926 122.5,77C 121.433,70.5266 121.266,64.0266 122,57.5C 123.802,56.2107 124.969,54.5441 125.5,52.5C 125.66,50.847 126.326,49.5137 127.5,48.5 Z"/></g>
<g><path style="opacity:0.286" fill="#cfe2ab" d="M 191.5,63.5 C 190.766,64.7079 190.433,66.0413 190.5,67.5C 185.378,68.9537 182.378,72.287 181.5,77.5C 180.223,71.4872 182.89,68.1539 189.5,67.5C 189.5,66.5 189.5,65.5 189.5,64.5C 189.842,63.6618 190.508,63.3284 191.5,63.5 Z"/></g>
<g><path style="opacity:0.122" fill="#ebede8" d="M 207.5,63.5 C 209.5,64.643 210.167,66.143 209.5,68C 207.541,67.9031 205.875,67.0698 204.5,65.5C 206.179,65.7148 207.179,65.0481 207.5,63.5 Z"/></g>
<g><path style="opacity:1" fill="#7ea13b" d="M 189.5,64.5 C 189.5,65.5 189.5,66.5 189.5,67.5C 182.89,68.1539 180.223,71.4872 181.5,77.5C 181.5,79.8333 181.5,82.1667 181.5,84.5C 178.922,86.427 176.922,88.7603 175.5,91.5C 175.146,88.5794 176.146,86.2461 178.5,84.5C 179.491,80.5546 179.824,76.5546 179.5,72.5C 179.731,68.0316 182.065,66.0316 186.5,66.5C 187.778,66.2178 188.778,65.5511 189.5,64.5 Z"/></g>
<g><path style="opacity:1" fill="#aec574" d="M 72.5,63.5 C 73.1667,64.1667 73.8333,64.8333 74.5,65.5C 78.511,67.5662 82.511,69.7329 86.5,72C 87.2524,72.6708 87.5858,73.5041 87.5,74.5C 88.8333,76.1667 90.1667,77.8333 91.5,79.5C 91.44,80.0431 91.1067,80.3764 90.5,80.5C 89.0488,78.4411 87.0488,77.4411 84.5,77.5C 82.0878,73.7618 78.7544,71.0951 74.5,69.5C 74.1667,68.5 73.5,67.8333 72.5,67.5C 72.5,66.1667 72.5,64.8333 72.5,63.5 Z"/></g>
<g><path style="opacity:0.122" fill="#d5e4be" d="M 93.5,60.5 C 94.3195,63.3054 94.8195,66.3054 95,69.5C 96.3878,71.7024 97.8878,73.7024 99.5,75.5C 97.9582,74.6993 96.2915,74.366 94.5,74.5C 93.6864,69.8809 93.3531,65.2142 93.5,60.5 Z"/></g>
<g><path style="opacity:1" fill="#bfd16d" d="M 138.5,64.5 C 138.5,67.1667 138.5,69.8333 138.5,72.5C 139.5,72.5 140.5,72.5 141.5,72.5C 141.721,75.2788 141.388,77.9455 140.5,80.5C 138.685,81.6298 136.685,82.2964 134.5,82.5C 134.663,80.1432 134.497,77.8098 134,75.5C 129.517,73.2258 128.683,70.2258 131.5,66.5C 131.5,68.1667 131.5,69.8333 131.5,71.5C 132.822,71.67 133.989,71.3366 135,70.5C 135.716,68.1209 136.883,66.1209 138.5,64.5 Z"/></g>
<g><path style="opacity:0.278" fill="#e0ebbe" d="M 120.5,56.5 C 120.118,64.3387 119.451,72.0054 118.5,79.5C 117.065,78.0867 116.065,76.42 115.5,74.5C 112.991,73.3176 111.657,71.3176 111.5,68.5C 109.585,68.2155 107.919,68.5489 106.5,69.5C 105.323,71.6794 104.323,74.0128 103.5,76.5C 102.596,77.209 102.263,78.209 102.5,79.5C 101.5,79.5 100.5,79.5 99.5,79.5C 99.5,78.1667 99.5,76.8333 99.5,75.5C 100.222,75.9175 100.722,76.5842 101,77.5C 102.908,74.7846 104.241,71.7846 105,68.5C 109.945,63.5914 113.112,64.5914 114.5,71.5C 115.5,72.1667 116.5,72.8333 117.5,73.5C 118.203,67.6421 119.203,61.9754 120.5,56.5 Z"/></g>
<g><path style="opacity:1" fill="#b5c76d" d="M 125.5,52.5 C 124.969,54.5441 123.802,56.2107 122,57.5C 121.266,64.0266 121.433,70.5266 122.5,77C 121.992,78.8926 120.992,80.3926 119.5,81.5C 118.662,81.1583 118.328,80.4916 118.5,79.5C 119.451,72.0054 120.118,64.3387 120.5,56.5C 122.167,55.1667 123.833,53.8333 125.5,52.5 Z"/></g>
<g><path style="opacity:1" fill="#bbc960" d="M 106.5,69.5 C 106.629,71.2161 106.962,72.8828 107.5,74.5C 107.5,75.5 107.5,76.5 107.5,77.5C 106.5,77.5 105.5,77.5 104.5,77.5C 104.5,76.8333 104.167,76.5 103.5,76.5C 104.323,74.0128 105.323,71.6794 106.5,69.5 Z"/></g>
<g><path style="opacity:1" fill="#abc24a" d="M 106.5,69.5 C 107.919,68.5489 109.585,68.2155 111.5,68.5C 111.657,71.3176 112.991,73.3176 115.5,74.5C 114.448,74.3505 113.448,74.5172 112.5,75C 114.155,76.4443 114.822,78.2776 114.5,80.5C 113.839,81.7175 113.172,83.0508 112.5,84.5C 111.83,82.7086 111.163,81.0419 110.5,79.5C 110.613,76.9512 109.946,74.6179 108.5,72.5C 110.924,70.2864 110.257,69.2864 106.5,69.5 Z"/></g>
<g><path style="opacity:0.349" fill="#d3e1aa" d="M 167.5,62.5 C 167.5,63.1667 167.5,63.8333 167.5,64.5C 165.088,64.6941 164.088,66.0274 164.5,68.5C 165.833,68.5 167.167,68.5 168.5,68.5C 168.5,70.1667 168.5,71.8333 168.5,73.5C 168.771,75.3797 168.104,76.713 166.5,77.5C 165.888,80.6973 163.888,82.0306 160.5,81.5C 160.833,78.8333 161.167,76.1667 161.5,73.5C 162.626,72.1417 162.626,70.8084 161.5,69.5C 156.804,72.8428 152.137,76.1762 147.5,79.5C 145.631,77.3647 144.964,74.6981 145.5,71.5C 145.833,71.5 146.167,71.5 146.5,71.5C 146.5,72.8333 146.5,74.1667 146.5,75.5C 146.369,76.3764 146.702,77.0431 147.5,77.5C 154.554,72.9776 161.221,67.9776 167.5,62.5 Z M 166.5,77.5 C 165.518,78.1408 164.518,78.8075 163.5,79.5C 161.908,75.6107 162.908,72.6107 166.5,70.5C 167.363,72.7713 167.363,75.1046 166.5,77.5 Z"/></g>
<g><path style="opacity:1" fill="#83a422" d="M 74.5,69.5 C 78.7544,71.0951 82.0878,73.7618 84.5,77.5C 85.3414,79.3792 85.6747,81.3792 85.5,83.5C 78.8979,81.2222 75.2312,76.5556 74.5,69.5 Z"/></g>
<g><path style="opacity:1" fill="#72a10b" d="M 186.5,66.5 C 182.065,66.0316 179.731,68.0316 179.5,72.5C 178.883,72.3893 178.383,72.056 178,71.5C 173.848,77.4418 170.348,83.7752 167.5,90.5C 165.833,91.8333 164.167,91.8333 162.5,90.5C 163.333,88.8333 164.167,87.1667 165,85.5C 165.915,86.3279 166.581,87.3279 167,88.5C 167.56,84.2482 168.727,80.2482 170.5,76.5C 170.368,73.4299 170.701,70.4299 171.5,67.5C 173.258,67.1231 174.925,66.4565 176.5,65.5C 176.88,67.0207 177.046,68.6874 177,70.5C 178.439,67.3974 180.273,64.5641 182.5,62C 183.793,61.51 185.127,61.3433 186.5,61.5C 186.5,63.1667 186.5,64.8333 186.5,66.5 Z"/></g>
<g><path style="opacity:1" fill="#618d11" d="M 72.5,67.5 C 73.5,67.8333 74.1667,68.5 74.5,69.5C 75.2312,76.5556 78.8979,81.2222 85.5,83.5C 86.1667,83.5 86.5,83.8333 86.5,84.5C 85.5,84.5 84.5,84.5 83.5,84.5C 84.4788,89.9944 82.4788,91.9944 77.5,90.5C 76.7281,89.3065 75.7281,88.3065 74.5,87.5C 73.8333,80.8333 73.1667,74.1667 72.5,67.5 Z"/></g>
<g><path style="opacity:1" fill="#688d0f" d="M 171.5,67.5 C 170.701,70.4299 170.368,73.4299 170.5,76.5C 168.205,78.4864 166.539,80.9864 165.5,84C 163.775,83.5913 162.108,83.7579 160.5,84.5C 159.826,86.1955 159.159,87.8621 158.5,89.5C 157.522,91.4561 156.522,93.4561 155.5,95.5C 153.856,95.2865 152.356,95.6198 151,96.5C 150.692,95.6919 150.192,95.0253 149.5,94.5C 148.494,94.9377 148.494,95.6043 149.5,96.5C 148.675,97.3857 147.675,97.719 146.5,97.5C 146.247,93.5854 146.913,89.9187 148.5,86.5C 147.5,86.5 146.5,86.5 145.5,86.5C 142.479,90.8959 140.812,95.8959 140.5,101.5C 140.167,101.5 139.833,101.5 139.5,101.5C 138.957,101.44 138.624,101.107 138.5,100.5C 139.074,98.9411 139.74,97.4411 140.5,96C 137.898,95.065 136.398,93.2317 136,90.5C 134.641,91.365 133.474,92.365 132.5,93.5C 132.328,91.5082 132.995,89.8415 134.5,88.5C 140.24,87.257 145.906,85.757 151.5,84C 153.67,82.4138 156.004,81.0804 158.5,80C 159.132,77.5848 160.132,75.4181 161.5,73.5C 161.167,76.1667 160.833,78.8333 160.5,81.5C 163.888,82.0306 165.888,80.6973 166.5,77.5C 168.104,76.713 168.771,75.3797 168.5,73.5C 168.94,71.1561 169.94,69.1561 171.5,67.5 Z"/></g>
<g><path style="opacity:1" fill="#578410" d="M 92.5,72.5 C 95.5954,75.9176 98.262,79.5842 100.5,83.5C 101.573,84.2506 101.74,85.2506 101,86.5C 99.984,85.3659 99.3173,85.6992 99,87.5C 97.9609,86.2899 96.7942,85.2899 95.5,84.5C 94.396,82.6115 93.0627,80.9448 91.5,79.5C 90.1667,77.8333 88.8333,76.1667 87.5,74.5C 90.0898,76.2551 91.7565,75.5885 92.5,72.5 Z"/></g>
<g><path style="opacity:1" fill="#9db938" d="M 140.5,59.5 C 141.458,59.9528 142.292,60.6195 143,61.5C 143.169,68.5236 143.669,75.5236 144.5,82.5C 145.855,81.8118 146.855,80.8118 147.5,79.5C 152.137,76.1762 156.804,72.8428 161.5,69.5C 162.626,70.8084 162.626,72.1417 161.5,73.5C 160.132,75.4181 159.132,77.5848 158.5,80C 156.004,81.0804 153.67,82.4138 151.5,84C 145.906,85.757 140.24,87.257 134.5,88.5C 132.995,89.8415 132.328,91.5082 132.5,93.5C 132.204,95.403 131.537,97.0697 130.5,98.5C 129.359,90.8075 132.359,85.6408 139.5,83C 140.252,82.3292 140.586,81.4959 140.5,80.5C 141.388,77.9455 141.721,75.2788 141.5,72.5C 140.5,72.5 139.5,72.5 138.5,72.5C 138.5,69.8333 138.5,67.1667 138.5,64.5C 138.5,64.1667 138.5,63.8333 138.5,63.5C 139.674,62.4863 140.34,61.153 140.5,59.5 Z"/></g>
<g><path style="opacity:1" fill="#98b348" d="M 84.5,77.5 C 87.0488,77.4411 89.0488,78.4411 90.5,80.5C 91.1067,80.3764 91.44,80.0431 91.5,79.5C 93.0627,80.9448 94.396,82.6115 95.5,84.5C 94.9159,87.9828 95.7492,90.9828 98,93.5C 98.2414,96.2889 98.908,98.9556 100,101.5C 101.049,100.483 102.216,100.316 103.5,101C 104.664,103.328 106.33,105.162 108.5,106.5C 108.5,107.167 108.5,107.833 108.5,108.5C 108.202,116.048 107.368,115.715 106,107.5C 104.86,110.102 104.027,112.769 103.5,115.5C 102.596,114.791 102.263,113.791 102.5,112.5C 101.766,111.292 101.433,109.959 101.5,108.5C 99.6096,108.703 98.1096,108.037 97,106.5C 95.0205,101.364 93.6871,96.0307 93,90.5C 92.5776,88.5743 91.4109,87.5743 89.5,87.5C 88.1667,86.8333 87.1667,85.8333 86.5,84.5C 86.5,83.8333 86.1667,83.5 85.5,83.5C 85.6747,81.3792 85.3414,79.3792 84.5,77.5 Z"/></g>
<g><path style="opacity:1" fill="#8cb025" d="M 107.5,74.5 C 108.139,75.0968 108.472,75.9302 108.5,77C 107.231,82.7843 106.231,88.6176 105.5,94.5C 102.915,97.4386 101.248,96.9386 100.5,93C 101.258,88.6027 102.425,88.436 104,92.5C 104.333,92.1667 104.667,91.8333 105,91.5C 105.415,87.152 105.249,82.8187 104.5,78.5C 104.5,78.1667 104.5,77.8333 104.5,77.5C 105.5,77.5 106.5,77.5 107.5,77.5C 107.5,76.5 107.5,75.5 107.5,74.5 Z"/></g>
<g><path style="opacity:1" fill="#3a6c09" d="M 86.5,84.5 C 87.1667,85.8333 88.1667,86.8333 89.5,87.5C 89.7716,94.4829 91.1049,101.15 93.5,107.5C 91.7541,105.748 89.7541,104.415 87.5,103.5C 86.7377,101.738 85.4044,100.738 83.5,100.5C 82.0145,96.863 80.0145,93.5296 77.5,90.5C 82.4788,91.9944 84.4788,89.9944 83.5,84.5C 84.5,84.5 85.5,84.5 86.5,84.5 Z"/></g>
<g><path style="opacity:0.212" fill="#dfedd1" d="M 181.5,77.5 C 182.641,80.6399 182.808,83.9733 182,87.5C 181.303,89.5844 180.136,91.2511 178.5,92.5C 179.5,89.8333 180.5,87.1667 181.5,84.5C 181.5,82.1667 181.5,79.8333 181.5,77.5 Z"/></g>
<g><path style="opacity:1" fill="#9cba1b" d="M 130.5,99.5 C 130.774,103.202 129.108,105.535 125.5,106.5C 122.685,98.9868 121.019,90.9868 120.5,82.5C 122.042,83.3007 123.708,83.634 125.5,83.5C 125.309,80.0173 124.643,76.6839 123.5,73.5C 125.5,73.5 127.5,73.5 129.5,73.5C 129.254,82.2054 128.587,90.872 127.5,99.5C 128.5,99.5 129.5,99.5 130.5,99.5 Z"/></g>
<g><path style="opacity:0.859" fill="#97af6a" d="M 181.5,84.5 C 180.5,87.1667 179.5,89.8333 178.5,92.5C 177.391,92.5569 176.391,92.8902 175.5,93.5C 175.5,93.1667 175.5,92.8333 175.5,92.5C 175.5,92.1667 175.5,91.8333 175.5,91.5C 176.922,88.7603 178.922,86.427 181.5,84.5 Z"/></g>
<g><path style="opacity:0.035" fill="#dbe7bc" d="M 74.5,87.5 C 75.7281,88.3065 76.7281,89.3065 77.5,90.5C 80.0145,93.5296 82.0145,96.863 83.5,100.5C 82.6236,100.631 81.9569,100.298 81.5,99.5C 79.1116,95.4656 76.7783,91.4656 74.5,87.5 Z"/></g>
<g><path style="opacity:1" fill="#5c8d0c" d="M 158.5,89.5 C 159.449,91.8976 160.783,94.0643 162.5,96C 160.339,98.1487 159.172,100.649 159,103.5C 159.833,102.5 160.667,101.5 161.5,100.5C 162.761,103.82 164.428,104.154 166.5,101.5C 166.081,95.4518 169.081,92.4518 175.5,92.5C 175.5,92.8333 175.5,93.1667 175.5,93.5C 171.269,93.4378 168.935,95.4378 168.5,99.5C 167.76,104.981 165.426,109.648 161.5,113.5C 160.833,113.5 160.167,113.5 159.5,113.5C 157.738,113.643 156.071,113.309 154.5,112.5C 153.522,112.977 152.689,113.643 152,114.5C 151.833,114 151.667,113.5 151.5,113C 153.218,109.351 155.218,105.851 157.5,102.5C 157.137,101.817 156.804,101.15 156.5,100.5C 155.962,98.8828 155.629,97.2161 155.5,95.5C 156.522,93.4561 157.522,91.4561 158.5,89.5 Z"/></g>
<g><path style="opacity:1" fill="#67970d" d="M 179.5,72.5 C 179.824,76.5546 179.491,80.5546 178.5,84.5C 176.146,86.2461 175.146,88.5794 175.5,91.5C 175.5,91.8333 175.5,92.1667 175.5,92.5C 169.081,92.4518 166.081,95.4518 166.5,101.5C 164.428,104.154 162.761,103.82 161.5,100.5C 160.667,101.5 159.833,102.5 159,103.5C 159.172,100.649 160.339,98.1487 162.5,96C 160.783,94.0643 159.449,91.8976 158.5,89.5C 159.159,87.8621 159.826,86.1955 160.5,84.5C 162.108,83.7579 163.775,83.5913 165.5,84C 166.539,80.9864 168.205,78.4864 170.5,76.5C 168.727,80.2482 167.56,84.2482 167,88.5C 166.581,87.3279 165.915,86.3279 165,85.5C 164.167,87.1667 163.333,88.8333 162.5,90.5C 164.167,91.8333 165.833,91.8333 167.5,90.5C 170.348,83.7752 173.848,77.4418 178,71.5C 178.383,72.056 178.883,72.3893 179.5,72.5 Z"/></g>
<g><path style="opacity:1" fill="#7a9934" d="M 155.5,95.5 C 155.629,97.2161 155.962,98.8828 156.5,100.5C 154.349,103.744 151.349,105.744 147.5,106.5C 151.636,104.2 153.636,100.867 153.5,96.5C 152.148,97.5244 150.815,98.5244 149.5,99.5C 146.215,99.2104 143.215,99.877 140.5,101.5C 140.812,95.8959 142.479,90.8959 145.5,86.5C 146.5,86.5 147.5,86.5 148.5,86.5C 146.913,89.9187 146.247,93.5854 146.5,97.5C 147.675,97.719 148.675,97.3857 149.5,96.5C 148.494,95.6043 148.494,94.9377 149.5,94.5C 150.192,95.0253 150.692,95.6919 151,96.5C 152.356,95.6198 153.856,95.2865 155.5,95.5 Z"/></g>
<g><path style="opacity:0.361" fill="#c8dfa3" d="M 178.5,92.5 C 176.465,94.1947 174.132,95.528 171.5,96.5C 169.519,97.1054 169.185,98.1054 170.5,99.5C 169.833,99.5 169.167,99.5 168.5,99.5C 168.935,95.4378 171.269,93.4378 175.5,93.5C 176.391,92.8902 177.391,92.5569 178.5,92.5 Z"/></g>
<g><path style="opacity:1" fill="#789c12" d="M 115.5,74.5 C 116.065,76.42 117.065,78.0867 118.5,79.5C 118.328,80.4916 118.662,81.1583 119.5,81.5C 119.5,82.1667 119.833,82.5 120.5,82.5C 121.019,90.9868 122.685,98.9868 125.5,106.5C 124.886,110.135 124.552,113.802 124.5,117.5C 124.573,119.027 123.906,120.027 122.5,120.5C 122.666,115.489 122.499,110.489 122,105.5C 121.902,102.478 121.068,99.8109 119.5,97.5C 119.551,93.0948 118.551,88.9281 116.5,85C 118.136,82.4392 117.469,80.9392 114.5,80.5C 114.822,78.2776 114.155,76.4443 112.5,75C 113.448,74.5172 114.448,74.3505 115.5,74.5 Z"/></g>
<g><path style="opacity:0.851" fill="#aab985" d="M 49.5,98.5 C 58.5739,99.1579 67.5739,100.325 76.5,102C 77.0527,103.878 78.0527,105.378 79.5,106.5C 79.5,107.167 79.5,107.833 79.5,108.5C 77.4676,107.439 76.1342,105.772 75.5,103.5C 74.2638,102.754 72.9305,102.421 71.5,102.5C 68.1351,102.745 64.9684,102.078 62,100.5C 60.8319,101.509 59.6652,102.509 58.5,103.5C 57.3264,101.766 55.6597,100.766 53.5,100.5C 51.9704,100.64 50.9704,101.307 50.5,102.5C 49.8333,102.5 49.5,102.167 49.5,101.5C 49.5,100.5 49.5,99.5 49.5,98.5 Z"/></g>
<g><path style="opacity:0.388" fill="#cbdaaa" d="M 83.5,100.5 C 85.4044,100.738 86.7377,101.738 87.5,103.5C 85.5956,103.262 84.2623,102.262 83.5,100.5 Z"/></g>
<g><path style="opacity:1" fill="#96b42e" d="M 110.5,79.5 C 111.163,81.0419 111.83,82.7086 112.5,84.5C 113.172,83.0508 113.839,81.7175 114.5,80.5C 117.469,80.9392 118.136,82.4392 116.5,85C 118.551,88.9281 119.551,93.0948 119.5,97.5C 120.056,101.666 119.056,105.332 116.5,108.5C 113.422,99.1708 111.422,89.5041 110.5,79.5 Z"/></g>
<g><path style="opacity:0.255" fill="#eaf0db" d="M 79.5,106.5 C 78.0527,105.378 77.0527,103.878 76.5,102C 67.5739,100.325 58.5739,99.1579 49.5,98.5C 46.7131,97.5233 43.7131,97.19 40.5,97.5C 39.1667,97.5 37.8333,97.5 36.5,97.5C 35.7691,99.5988 35.7691,101.599 36.5,103.5C 37.9397,102.048 39.6064,101.048 41.5,100.5C 42.8333,100.5 44.1667,100.5 45.5,100.5C 42.1543,101.344 39.1543,103.011 36.5,105.5C 34.0377,102.78 33.871,99.7795 36,96.5C 39.2609,96.6086 42.5942,96.2753 46,95.5C 54.4014,96.7301 62.7347,98.3967 71,100.5C 76.3593,98.6735 79.1926,100.674 79.5,106.5 Z"/></g>
<g><path style="opacity:0.927" fill="#a4b485" d="M 40.5,97.5 C 41.1098,98.391 41.4431,99.391 41.5,100.5C 39.6064,101.048 37.9397,102.048 36.5,103.5C 35.7691,101.599 35.7691,99.5988 36.5,97.5C 37.8333,97.5 39.1667,97.5 40.5,97.5 Z"/></g>
<g><path style="opacity:0.905" fill="#c3ccb2" d="M 40.5,97.5 C 43.7131,97.19 46.7131,97.5233 49.5,98.5C 49.5,99.5 49.5,100.5 49.5,101.5C 49.1667,101.5 48.8333,101.5 48.5,101.5C 47.391,101.443 46.391,101.11 45.5,100.5C 44.1667,100.5 42.8333,100.5 41.5,100.5C 41.4431,99.391 41.1098,98.391 40.5,97.5 Z"/></g>
<g><path style="opacity:1" fill="#9db168" d="M 71.5,102.5 C 71.178,104.722 71.8446,106.556 73.5,108C 70.9369,108.918 68.7702,108.418 67,106.5C 65.1079,107.617 64.2746,109.284 64.5,111.5C 63.5655,110.432 63.2322,109.099 63.5,107.5C 60.1501,107.665 56.8168,107.498 53.5,107C 52.1175,105.729 51.1175,104.229 50.5,102.5C 50.9704,101.307 51.9704,100.64 53.5,100.5C 55.6597,100.766 57.3264,101.766 58.5,103.5C 59.6652,102.509 60.8319,101.509 62,100.5C 64.9684,102.078 68.1351,102.745 71.5,102.5 Z"/></g>
<g><path style="opacity:1" fill="#5d850a" d="M 139.5,101.5 C 138.254,106.83 136.254,111.83 133.5,116.5C 133.244,114.208 133.577,112.041 134.5,110C 133.975,109.308 133.308,108.808 132.5,108.5C 129.037,110.953 126.37,113.953 124.5,117.5C 124.552,113.802 124.886,110.135 125.5,106.5C 129.108,105.535 130.774,103.202 130.5,99.5C 130.5,99.1667 130.5,98.8333 130.5,98.5C 131.537,97.0697 132.204,95.403 132.5,93.5C 133.474,92.365 134.641,91.365 136,90.5C 136.398,93.2317 137.898,95.065 140.5,96C 139.74,97.4411 139.074,98.9411 138.5,100.5C 138.624,101.107 138.957,101.44 139.5,101.5 Z"/></g>
<g><path style="opacity:1" fill="#6e950b" d="M 106.5,69.5 C 110.257,69.2864 110.924,70.2864 108.5,72.5C 109.946,74.6179 110.613,76.9512 110.5,79.5C 111.422,89.5041 113.422,99.1708 116.5,108.5C 116.697,112.622 117.53,116.622 119,120.5C 119.986,119.829 121.153,119.829 122.5,120.5C 121.833,122.167 121.167,123.833 120.5,125.5C 118.574,124.758 116.741,123.758 115,122.5C 113.458,115.787 111.791,109.12 110,102.5C 109.667,102.167 109.333,101.833 109,101.5C 108.506,103.134 108.34,104.801 108.5,106.5C 106.33,105.162 104.664,103.328 103.5,101C 102.216,100.316 101.049,100.483 100,101.5C 98.908,98.9556 98.2414,96.2889 98,93.5C 95.7492,90.9828 94.9159,87.9828 95.5,84.5C 96.7942,85.2899 97.9609,86.2899 99,87.5C 99.3173,85.6992 99.984,85.3659 101,86.5C 101.74,85.2506 101.573,84.2506 100.5,83.5C 101.209,82.596 102.209,82.2627 103.5,82.5C 103.232,80.901 103.566,79.5676 104.5,78.5C 105.249,82.8187 105.415,87.152 105,91.5C 104.667,91.8333 104.333,92.1667 104,92.5C 102.425,88.436 101.258,88.6027 100.5,93C 101.248,96.9386 102.915,97.4386 105.5,94.5C 106.231,88.6176 107.231,82.7843 108.5,77C 108.472,75.9302 108.139,75.0968 107.5,74.5C 106.962,72.8828 106.629,71.2161 106.5,69.5 Z"/></g>
<g><path style="opacity:0.255" fill="#c3d4bb" d="M 171.5,96.5 C 173.698,97.1653 176.031,97.8319 178.5,98.5C 178.859,103.786 177.526,108.786 174.5,113.5C 173.423,114.705 172.09,115.372 170.5,115.5C 174.44,110.945 176.774,105.612 177.5,99.5C 175.5,99.5 173.5,99.5 171.5,99.5C 171.167,99.5 170.833,99.5 170.5,99.5C 169.185,98.1054 169.519,97.1054 171.5,96.5 Z"/></g>
<g><path style="opacity:0.063" fill="#dbe8bc" d="M 147.5,106.5 C 143.412,108.254 140.745,111.254 139.5,115.5C 138.338,109.498 140.672,105.164 146.5,102.5C 147.1,101.1 148.1,100.1 149.5,99.5C 150.815,98.5244 152.148,97.5244 153.5,96.5C 153.636,100.867 151.636,104.2 147.5,106.5 Z M 150.5,101.5 C 148.719,104.046 146.386,105.546 143.5,106C 144.71,104.961 145.71,103.794 146.5,102.5C 147.833,102.167 149.167,101.833 150.5,101.5 Z"/></g>
<g><path style="opacity:0.075" fill="#e8f1d7" d="M 48.5,101.5 C 48.8333,101.5 49.1667,101.5 49.5,101.5C 49.5,102.167 49.8333,102.5 50.5,102.5C 51.1175,104.229 52.1175,105.729 53.5,107C 56.8168,107.498 60.1501,107.665 63.5,107.5C 63.2322,109.099 63.5655,110.432 64.5,111.5C 64.5,112.5 64.5,113.5 64.5,114.5C 62.9261,112.898 62.2594,110.898 62.5,108.5C 55.4176,110.394 50.7509,108.061 48.5,101.5 Z"/></g>
<g><path style="opacity:1" fill="#5c830c" d="M 89.5,87.5 C 91.4109,87.5743 92.5776,88.5743 93,90.5C 93.6871,96.0307 95.0205,101.364 97,106.5C 98.1096,108.037 99.6096,108.703 101.5,108.5C 101.433,109.959 101.766,111.292 102.5,112.5C 101.698,113.952 101.198,115.618 101,117.5C 100.411,115.137 98.9115,114.137 96.5,114.5C 96.7709,112.62 96.1042,111.287 94.5,110.5C 94.7373,109.209 94.404,108.209 93.5,107.5C 91.1049,101.15 89.7716,94.4829 89.5,87.5 Z"/></g>
<g><path style="opacity:1" fill="#255e05" d="M 168.5,99.5 C 169.167,99.5 169.833,99.5 170.5,99.5C 170.833,99.5 171.167,99.5 171.5,99.5C 172.568,100.434 173.901,100.768 175.5,100.5C 173.1,104.113 171.767,108.113 171.5,112.5C 169.535,113.129 167.535,113.796 165.5,114.5C 164.075,114.377 162.742,114.043 161.5,113.5C 165.426,109.648 167.76,104.981 168.5,99.5 Z"/></g>
<g><path style="opacity:1" fill="#93ab56" d="M 71.5,102.5 C 72.9305,102.421 74.2638,102.754 75.5,103.5C 76.1342,105.772 77.4676,107.439 79.5,108.5C 81.5,108.5 83.5,108.5 85.5,108.5C 85.5,110.167 85.5,111.833 85.5,113.5C 84.3,116.698 84.3,120.031 85.5,123.5C 82.0246,121.593 78.6912,119.426 75.5,117C 72.8832,116.178 70.2165,115.678 67.5,115.5C 66.391,115.443 65.391,115.11 64.5,114.5C 64.5,113.5 64.5,112.5 64.5,111.5C 64.2746,109.284 65.1079,107.617 67,106.5C 68.7702,108.418 70.9369,108.918 73.5,108C 71.8446,106.556 71.178,104.722 71.5,102.5 Z"/></g>
<g><path style="opacity:0.918" fill="#849b4c" d="M 149.5,99.5 C 148.1,100.1 147.1,101.1 146.5,102.5C 140.672,105.164 138.338,109.498 139.5,115.5C 139.5,116.167 139.167,116.5 138.5,116.5C 136.659,118.849 135.326,121.515 134.5,124.5C 133.527,122.052 133.194,119.385 133.5,116.5C 136.254,111.83 138.254,106.83 139.5,101.5C 139.833,101.5 140.167,101.5 140.5,101.5C 143.215,99.877 146.215,99.2104 149.5,99.5 Z"/></g>
<g><path style="opacity:1" fill="#4b7a0f" d="M 156.5,100.5 C 156.804,101.15 157.137,101.817 157.5,102.5C 155.218,105.851 153.218,109.351 151.5,113C 151.667,113.5 151.833,114 152,114.5C 152.689,113.643 153.522,112.977 154.5,112.5C 156.071,113.309 157.738,113.643 159.5,113.5C 156.206,114.608 153.539,116.608 151.5,119.5C 148.189,120.811 145.855,123.145 144.5,126.5C 143.199,125.116 143.199,123.616 144.5,122C 143.551,121.383 142.718,121.549 142,122.5C 140.514,121.302 139.347,119.969 138.5,118.5C 138.5,117.833 138.5,117.167 138.5,116.5C 139.167,116.5 139.5,116.167 139.5,115.5C 140.745,111.254 143.412,108.254 147.5,106.5C 151.349,105.744 154.349,103.744 156.5,100.5 Z"/></g>
<g><path style="opacity:0.318" fill="#d2debe" d="M 79.5,106.5 C 81.6945,107.123 83.8611,107.457 86,107.5C 86.696,110.478 87.196,113.478 87.5,116.5C 86.5987,115.71 85.9321,114.71 85.5,113.5C 85.5,111.833 85.5,110.167 85.5,108.5C 83.5,108.5 81.5,108.5 79.5,108.5C 79.5,107.833 79.5,107.167 79.5,106.5 Z"/></g>
<g><path style="opacity:1" fill="#396b02" d="M 133.5,116.5 C 132.883,116.611 132.383,116.944 132,117.5C 130.598,123.063 128.764,128.397 126.5,133.5C 125.5,133.5 124.5,133.5 123.5,133.5C 123.854,136.421 122.854,138.754 120.5,140.5C 119.614,136.524 118.948,132.524 118.5,128.5C 119.117,128.611 119.617,128.944 120,129.5C 120.49,128.207 120.657,126.873 120.5,125.5C 121.167,123.833 121.833,122.167 122.5,120.5C 123.906,120.027 124.573,119.027 124.5,117.5C 126.37,113.953 129.037,110.953 132.5,108.5C 133.308,108.808 133.975,109.308 134.5,110C 133.577,112.041 133.244,114.208 133.5,116.5 Z"/></g>
<g><path style="opacity:1" fill="#74991c" d="M 108.5,108.5 C 109.925,111.717 110.258,115.051 109.5,118.5C 107.738,118.357 106.071,118.691 104.5,119.5C 103.571,118.311 103.238,116.978 103.5,115.5C 104.027,112.769 104.86,110.102 106,107.5C 107.368,115.715 108.202,116.048 108.5,108.5 Z"/></g>
<g><path style="opacity:0.176" fill="#dae9c5" d="M 196.5,120.5 C 195.833,120.5 195.167,120.5 194.5,120.5C 193.609,119.89 192.609,119.557 191.5,119.5C 189.906,119.08 188.406,118.414 187,117.5C 184.747,118.377 182.581,119.377 180.5,120.5C 177.673,121.108 175.007,122.108 172.5,123.5C 171.833,123.5 171.167,123.5 170.5,123.5C 175.634,120.522 181.134,118.189 187,116.5C 190.622,116.978 193.788,118.311 196.5,120.5 Z"/></g>
<g><path style="opacity:1" fill="#4f701d" d="M 85.5,113.5 C 85.9321,114.71 86.5987,115.71 87.5,116.5C 87.427,118.027 88.0937,119.027 89.5,119.5C 90.0798,121.749 91.4131,123.415 93.5,124.5C 93.5,124.833 93.5,125.167 93.5,125.5C 91.5648,124.85 89.5648,124.517 87.5,124.5C 86.8333,124.167 86.1667,123.833 85.5,123.5C 84.3,120.031 84.3,116.698 85.5,113.5 Z"/></g>
<g><path style="opacity:1" fill="#87a912" d="M 119.5,97.5 C 121.068,99.8109 121.902,102.478 122,105.5C 122.499,110.489 122.666,115.489 122.5,120.5C 121.153,119.829 119.986,119.829 119,120.5C 117.53,116.622 116.697,112.622 116.5,108.5C 119.056,105.332 120.056,101.666 119.5,97.5 Z"/></g>
<g><path style="opacity:0.192" fill="#dde5c0" d="M 64.5,114.5 C 65.391,115.11 66.391,115.443 67.5,115.5C 70.2658,116.711 72.9325,118.044 75.5,119.5C 72.1351,118.86 68.8017,118.026 65.5,117C 64.7476,116.329 64.4142,115.496 64.5,114.5 Z"/></g>
<g><path style="opacity:0.224" fill="#d0e5c3" d="M 87.5,116.5 C 88.9063,116.973 89.573,117.973 89.5,119.5C 88.0937,119.027 87.427,118.027 87.5,116.5 Z"/></g>
<g><path style="opacity:1" fill="#2c5814" d="M 171.5,99.5 C 173.5,99.5 175.5,99.5 177.5,99.5C 176.774,105.612 174.44,110.945 170.5,115.5C 163.825,115.847 159.492,119.18 157.5,125.5C 156.662,125.842 156.328,126.508 156.5,127.5C 156.5,128.833 155.833,129.5 154.5,129.5C 153.833,129.5 153.5,129.167 153.5,128.5C 154.117,128.389 154.617,128.056 155,127.5C 156.421,123.532 155.254,120.865 151.5,119.5C 153.539,116.608 156.206,114.608 159.5,113.5C 160.167,113.5 160.833,113.5 161.5,113.5C 162.742,114.043 164.075,114.377 165.5,114.5C 167.535,113.796 169.535,113.129 171.5,112.5C 171.767,108.113 173.1,104.113 175.5,100.5C 173.901,100.768 172.568,100.434 171.5,99.5 Z"/></g>
<g><path style="opacity:0.318" fill="#d3e3bc" d="M 87.5,103.5 C 89.7541,104.415 91.7541,105.748 93.5,107.5C 94.404,108.209 94.7373,109.209 94.5,110.5C 92.7263,114.177 93.7263,116.844 97.5,118.5C 99.8504,120.213 100.85,122.547 100.5,125.5C 98.2646,125.795 96.2646,125.461 94.5,124.5C 96.4286,124.769 98.0953,124.269 99.5,123C 97.3333,120.833 95.1667,118.667 93,116.5C 92.6667,113.833 92.3333,111.167 92,108.5C 90.2927,106.963 88.7927,105.296 87.5,103.5 Z"/></g>
<g><path style="opacity:0.478" fill="#cadaa8" d="M 89.5,119.5 C 91.5,120.833 93.1667,122.5 94.5,124.5C 94.1667,124.5 93.8333,124.5 93.5,124.5C 91.4131,123.415 90.0798,121.749 89.5,119.5 Z"/></g>
<g><path style="opacity:0.286" fill="#b4d28d" d="M 138.5,116.5 C 138.5,117.167 138.5,117.833 138.5,118.5C 138.025,120.784 137.025,122.784 135.5,124.5C 135.167,124.5 134.833,124.5 134.5,124.5C 135.326,121.515 136.659,118.849 138.5,116.5 Z"/></g>
<g><path style="opacity:1" fill="#5d8806" d="M 120.5,125.5 C 120.657,126.873 120.49,128.207 120,129.5C 119.617,128.944 119.117,128.611 118.5,128.5C 116.841,125.861 115.008,125.861 113,128.5C 111.473,126.542 109.973,125.375 108.5,125C 110.075,123.88 111.075,122.38 111.5,120.5C 111.253,119.287 110.586,118.62 109.5,118.5C 110.258,115.051 109.925,111.717 108.5,108.5C 108.5,107.833 108.5,107.167 108.5,106.5C 108.34,104.801 108.506,103.134 109,101.5C 109.333,101.833 109.667,102.167 110,102.5C 111.791,109.12 113.458,115.787 115,122.5C 116.741,123.758 118.574,124.758 120.5,125.5 Z"/></g>
<g><path style="opacity:1" fill="#88a766" d="M 180.5,120.5 C 177.307,122.682 173.974,124.682 170.5,126.5C 171.167,125.5 171.833,124.5 172.5,123.5C 175.007,122.108 177.673,121.108 180.5,120.5 Z"/></g>
<g><path style="opacity:0.933" fill="#a9b982" d="M 67.5,115.5 C 70.2165,115.678 72.8832,116.178 75.5,117C 78.6912,119.426 82.0246,121.593 85.5,123.5C 86.1667,123.833 86.8333,124.167 87.5,124.5C 87.5,125.167 87.5,125.833 87.5,126.5C 87.1667,126.5 86.8333,126.5 86.5,126.5C 82.5606,124.554 78.894,122.221 75.5,119.5C 72.9325,118.044 70.2658,116.711 67.5,115.5 Z"/></g>
<g><path style="opacity:1" fill="#71972f" d="M 191.5,119.5 C 192.896,124.266 191.062,125.6 186,123.5C 183.163,124.581 180.663,125.914 178.5,127.5C 175.872,127.95 173.539,128.95 171.5,130.5C 171.737,129.209 171.404,128.209 170.5,127.5C 170.5,127.167 170.5,126.833 170.5,126.5C 173.974,124.682 177.307,122.682 180.5,120.5C 182.581,119.377 184.747,118.377 187,117.5C 188.406,118.414 189.906,119.08 191.5,119.5 Z"/></g>
<g><path style="opacity:0.529" fill="#cfddbc" d="M 196.5,120.5 C 200.787,121.232 204.787,122.565 208.5,124.5C 203.87,124.706 199.87,123.373 196.5,120.5 Z"/></g>
<g><path style="opacity:1" fill="#88a550" d="M 191.5,119.5 C 192.609,119.557 193.609,119.89 194.5,120.5C 195.749,122.136 197.416,123.303 199.5,124C 198.429,124.852 197.429,125.685 196.5,126.5C 190.545,127.363 184.545,127.697 178.5,127.5C 180.663,125.914 183.163,124.581 186,123.5C 191.062,125.6 192.896,124.266 191.5,119.5 Z"/></g>
<g><path style="opacity:0.931" fill="#9aad7f" d="M 194.5,120.5 C 195.167,120.5 195.833,120.5 196.5,120.5C 199.87,123.373 203.87,124.706 208.5,124.5C 208.5,125.5 208.5,126.5 208.5,127.5C 204.548,126.728 200.548,126.395 196.5,126.5C 197.429,125.685 198.429,124.852 199.5,124C 197.416,123.303 195.749,122.136 194.5,120.5 Z"/></g>
<g><path style="opacity:0.729" fill="#859b51" d="M 97.5,118.5 C 98.2389,118.369 98.9056,118.536 99.5,119C 100.977,120.812 102.31,122.645 103.5,124.5C 104.441,126.05 105.107,127.716 105.5,129.5C 104.069,128.918 102.736,128.085 101.5,127C 98.6353,126.817 95.9686,126.317 93.5,125.5C 93.5,125.167 93.5,124.833 93.5,124.5C 93.8333,124.5 94.1667,124.5 94.5,124.5C 96.2646,125.461 98.2646,125.795 100.5,125.5C 100.85,122.547 99.8504,120.213 97.5,118.5 Z"/></g>
<g><path style="opacity:0.212" fill="#d1e2c8" d="M 170.5,115.5 C 168.115,117.263 165.448,118.763 162.5,120C 160.579,121.241 160.246,122.741 161.5,124.5C 164.373,124.725 167.373,124.391 170.5,123.5C 166.966,125.106 163.133,126.106 159,126.5C 158.235,126.43 157.735,126.097 157.5,125.5C 159.492,119.18 163.825,115.847 170.5,115.5 Z"/></g>
<g><path style="opacity:0.973" fill="#94a984" d="M 170.5,123.5 C 171.167,123.5 171.833,123.5 172.5,123.5C 171.833,124.5 171.167,125.5 170.5,126.5C 165.859,127.127 161.193,127.46 156.5,127.5C 156.328,126.508 156.662,125.842 157.5,125.5C 157.735,126.097 158.235,126.43 159,126.5C 163.133,126.106 166.966,125.106 170.5,123.5 Z"/></g>
<g><path style="opacity:0.518" fill="#cbd8b1" d="M 86.5,126.5 C 86.8333,126.5 87.1667,126.5 87.5,126.5C 90.5,129.167 93.5,131.833 96.5,134.5C 97.925,135.922 98.925,137.589 99.5,139.5C 98.234,138.91 96.9007,138.41 95.5,138C 93.0766,133.74 90.0766,129.907 86.5,126.5 Z"/></g>
<g><path style="opacity:0.584" fill="#dbe7cd" d="M 72.5,128.5 C 67.3529,129.159 62.3529,129.493 57.5,129.5C 53.7852,129.423 50.1185,129.756 46.5,130.5C 48.7254,127.569 51.5588,126.903 55,128.5C 56.6667,127.833 58.3333,127.167 60,126.5C 64.3164,127.08 68.4831,127.747 72.5,128.5 Z"/></g>
<g><path style="opacity:1" fill="#255c05" d="M 138.5,118.5 C 139.347,119.969 140.514,121.302 142,122.5C 142.718,121.549 143.551,121.383 144.5,122C 143.199,123.616 143.199,125.116 144.5,126.5C 140.435,131.901 136.768,137.567 133.5,143.5C 132.12,143.038 131.453,142.038 131.5,140.5C 132.652,135.364 133.985,130.364 135.5,125.5C 135.5,125.167 135.5,124.833 135.5,124.5C 137.025,122.784 138.025,120.784 138.5,118.5 Z"/></g>
<g><path style="opacity:0.09" fill="#dde6cc" d="M 208.5,124.5 C 210.809,125.388 212.476,127.054 213.5,129.5C 213.167,130.5 212.5,131.167 211.5,131.5C 204.427,126.919 196.927,126.253 189,129.5C 184.133,128.188 179.299,128.354 174.5,130C 173.181,133.155 170.848,134.988 167.5,135.5C 167.5,135.167 167.5,134.833 167.5,134.5C 168.71,134.068 169.71,133.401 170.5,132.5C 171.338,132.158 171.672,131.492 171.5,130.5C 173.539,128.95 175.872,127.95 178.5,127.5C 184.545,127.697 190.545,127.363 196.5,126.5C 200.548,126.395 204.548,126.728 208.5,127.5C 208.5,126.5 208.5,125.5 208.5,124.5 Z"/></g>
<g><path style="opacity:1" fill="#4d7409" d="M 94.5,110.5 C 96.1042,111.287 96.7709,112.62 96.5,114.5C 98.9115,114.137 100.411,115.137 101,117.5C 101.198,115.618 101.698,113.952 102.5,112.5C 102.263,113.791 102.596,114.791 103.5,115.5C 103.238,116.978 103.571,118.311 104.5,119.5C 106.071,118.691 107.738,118.357 109.5,118.5C 110.586,118.62 111.253,119.287 111.5,120.5C 111.075,122.38 110.075,123.88 108.5,125C 109.973,125.375 111.473,126.542 113,128.5C 115.008,125.861 116.841,125.861 118.5,128.5C 115.52,128.241 113.687,129.574 113,132.5C 112.167,131.5 111.333,130.5 110.5,129.5C 109.575,130.641 108.741,130.641 108,129.5C 106.853,126.382 105.52,123.382 104,120.5C 103.51,121.793 103.343,123.127 103.5,124.5C 102.31,122.645 100.977,120.812 99.5,119C 98.9056,118.536 98.2389,118.369 97.5,118.5C 93.7263,116.844 92.7263,114.177 94.5,110.5 Z"/></g>
<g><path style="opacity:0.886" fill="#9ab085" d="M 57.5,129.5 C 62.3529,129.493 67.3529,129.159 72.5,128.5C 73.1667,129.167 73.8333,129.833 74.5,130.5C 72.9253,132.786 70.9253,133.119 68.5,131.5C 64.7674,131.13 61.1007,130.463 57.5,129.5 Z"/></g>
<g><path style="opacity:0.094" fill="#e3f1da" d="M 72.5,128.5 C 75.089,128.461 77.089,129.461 78.5,131.5C 77.1667,131.167 75.8333,130.833 74.5,130.5C 73.8333,129.833 73.1667,129.167 72.5,128.5 Z"/></g>
<g><path style="opacity:1" fill="#88a969" d="M 57.5,129.5 C 55.3144,130.27 53.1477,131.27 51,132.5C 49.5603,131.852 48.0603,131.519 46.5,131.5C 46.5,131.167 46.5,130.833 46.5,130.5C 50.1185,129.756 53.7852,129.423 57.5,129.5 Z"/></g>
<g><path style="opacity:1" fill="#6b9337" d="M 57.5,129.5 C 61.1007,130.463 64.7674,131.13 68.5,131.5C 70.0808,133.142 70.7475,135.142 70.5,137.5C 69.8333,137.5 69.5,137.833 69.5,138.5C 68.8333,138.5 68.1667,138.5 67.5,138.5C 69.1429,136.292 68.8096,134.459 66.5,133C 63.6891,132.371 60.8557,131.871 58,131.5C 53.3883,133.181 48.5549,133.848 43.5,133.5C 44.5,132.833 45.5,132.167 46.5,131.5C 48.0603,131.519 49.5603,131.852 51,132.5C 53.1477,131.27 55.3144,130.27 57.5,129.5 Z"/></g>
<g><path style="opacity:0.008" fill="#eaf2de" d="M 78.5,131.5 C 79.8333,131.5 80.5,132.167 80.5,133.5C 79.5,133.167 78.8333,132.5 78.5,131.5 Z"/></g>
<g><path style="opacity:1" fill="#4f6a13" d="M 133.5,116.5 C 133.194,119.385 133.527,122.052 134.5,124.5C 134.833,124.5 135.167,124.5 135.5,124.5C 135.5,124.833 135.5,125.167 135.5,125.5C 134.206,126.29 133.039,127.29 132,128.5C 130.185,134.106 128.685,139.773 127.5,145.5C 127.167,145.5 126.833,145.5 126.5,145.5C 126.773,141.177 127.773,137.01 129.5,133C 129.452,131.967 129.119,131.634 128.5,132C 127.809,133.067 127.309,134.234 127,135.5C 126.536,134.906 126.369,134.239 126.5,133.5C 128.764,128.397 130.598,123.063 132,117.5C 132.383,116.944 132.883,116.611 133.5,116.5 Z"/></g>
<g><path style="opacity:1" fill="#124d02" d="M 151.5,119.5 C 155.254,120.865 156.421,123.532 155,127.5C 154.617,128.056 154.117,128.389 153.5,128.5C 148.523,131.978 144.023,135.978 140,140.5C 141.221,141.148 142.054,142.815 142.5,145.5C 141.06,146.363 139.726,146.363 138.5,145.5C 136.625,146.409 135.292,147.743 134.5,149.5C 133.833,149.5 133.5,149.167 133.5,148.5C 132.909,147.849 132.243,147.182 131.5,146.5C 132.193,145.482 132.859,144.482 133.5,143.5C 136.768,137.567 140.435,131.901 144.5,126.5C 145.855,123.145 148.189,120.811 151.5,119.5 Z"/></g>
<g><path style="opacity:1" fill="#81a95a" d="M 170.5,126.5 C 170.5,126.833 170.5,127.167 170.5,127.5C 169.127,127.343 167.793,127.51 166.5,128C 162.991,130.358 159.324,132.358 155.5,134C 160.546,134.16 165.546,133.66 170.5,132.5C 169.71,133.401 168.71,134.068 167.5,134.5C 164.214,135.207 160.881,135.54 157.5,135.5C 154.518,133.923 151.851,134.256 149.5,136.5C 150.754,133.907 152.42,131.573 154.5,129.5C 155.833,129.5 156.5,128.833 156.5,127.5C 161.193,127.46 165.859,127.127 170.5,126.5 Z"/></g>
<g><path style="opacity:1" fill="#648a18" d="M 87.5,124.5 C 89.5648,124.517 91.5648,124.85 93.5,125.5C 95.9686,126.317 98.6353,126.817 101.5,127C 102.736,128.085 104.069,128.918 105.5,129.5C 106.965,131.686 107.298,134.019 106.5,136.5C 103.061,137.013 99.7279,136.346 96.5,134.5C 93.5,131.833 90.5,129.167 87.5,126.5C 87.5,125.833 87.5,125.167 87.5,124.5 Z"/></g>
<g><path style="opacity:1" fill="#568923" d="M 170.5,127.5 C 171.404,128.209 171.737,129.209 171.5,130.5C 171.672,131.492 171.338,132.158 170.5,132.5C 165.546,133.66 160.546,134.16 155.5,134C 159.324,132.358 162.991,130.358 166.5,128C 167.793,127.51 169.127,127.343 170.5,127.5 Z"/></g>
<g><path style="opacity:1" fill="#7d9e4e" d="M 46.5,131.5 C 45.5,132.167 44.5,132.833 43.5,133.5C 42.234,134.09 40.9007,134.59 39.5,135C 42.1667,135.333 44.8333,135.667 47.5,136C 48.056,136.383 48.3893,136.883 48.5,137.5C 45.1667,137.5 41.8333,137.5 38.5,137.5C 38.1667,137.5 37.8333,137.5 37.5,137.5C 35.712,137.785 34.0453,137.452 32.5,136.5C 36.6592,133.667 41.3259,132.001 46.5,131.5 Z"/></g>
<g><path style="opacity:1" fill="#659321" d="M 67.5,138.5 C 66.8333,138.833 66.1667,139.167 65.5,139.5C 60.8433,140.741 56.1767,140.741 51.5,139.5C 50.8333,139.5 50.1667,139.5 49.5,139.5C 49.6716,138.508 49.3382,137.842 48.5,137.5C 48.3893,136.883 48.056,136.383 47.5,136C 44.8333,135.667 42.1667,135.333 39.5,135C 40.9007,134.59 42.234,134.09 43.5,133.5C 48.5549,133.848 53.3883,133.181 58,131.5C 60.8557,131.871 63.6891,132.371 66.5,133C 68.8096,134.459 69.1429,136.292 67.5,138.5 Z"/></g>
<g><path style="opacity:1" fill="#305305" d="M 135.5,125.5 C 133.985,130.364 132.652,135.364 131.5,140.5C 131.453,142.038 132.12,143.038 133.5,143.5C 132.859,144.482 132.193,145.482 131.5,146.5C 132.243,147.182 132.909,147.849 133.5,148.5C 131.216,148.975 129.216,149.975 127.5,151.5C 128.573,149.347 128.573,147.347 127.5,145.5C 128.685,139.773 130.185,134.106 132,128.5C 133.039,127.29 134.206,126.29 135.5,125.5 Z"/></g>
<g><path style="opacity:0.714" fill="#bccfa5" d="M 167.5,134.5 C 167.5,134.833 167.5,135.167 167.5,135.5C 165.883,136.972 163.883,137.639 161.5,137.5C 159.955,137.489 158.622,137.156 157.5,136.5C 157.5,136.167 157.5,135.833 157.5,135.5C 160.881,135.54 164.214,135.207 167.5,134.5 Z"/></g>
<g><path style="opacity:0.949" fill="#b6c7b4" d="M 89.5,149.5 C 88.8333,149.5 88.1667,149.5 87.5,149.5C 83.3118,145.914 78.9785,142.581 74.5,139.5C 73.0813,138.549 71.4147,138.216 69.5,138.5C 69.5,137.833 69.8333,137.5 70.5,137.5C 72.2837,136.107 74.2837,135.607 76.5,136C 79.7144,140.882 83.8811,144.715 89,147.5C 89.4643,148.094 89.631,148.761 89.5,149.5 Z"/></g>
<g><path style="opacity:0.275" fill="#d9e6c3" d="M 46.5,130.5 C 46.5,130.833 46.5,131.167 46.5,131.5C 41.3259,132.001 36.6592,133.667 32.5,136.5C 34.0453,137.452 35.712,137.785 37.5,137.5C 35.171,139.83 32.8376,139.83 30.5,137.5C 31.0402,136.252 31.7069,135.085 32.5,134C 36.8956,131.701 41.5623,130.534 46.5,130.5 Z"/></g>
<g><path style="opacity:0.31" fill="#dbe9ca" d="M 38.5,137.5 C 41.8333,137.5 45.1667,137.5 48.5,137.5C 49.3382,137.842 49.6716,138.508 49.5,139.5C 45.6629,140.032 41.9962,139.365 38.5,137.5 Z"/></g>
<g><path style="opacity:1" fill="#2e5806" d="M 118.5,128.5 C 118.948,132.524 119.614,136.524 120.5,140.5C 122.854,138.754 123.854,136.421 123.5,133.5C 124.5,133.5 125.5,133.5 126.5,133.5C 126.369,134.239 126.536,134.906 127,135.5C 127.309,134.234 127.809,133.067 128.5,132C 129.119,131.634 129.452,131.967 129.5,133C 127.773,137.01 126.773,141.177 126.5,145.5C 125.222,145.782 124.222,146.449 123.5,147.5C 121.5,147.5 119.5,147.5 117.5,147.5C 116.7,145.104 115.7,142.771 114.5,140.5C 111.037,142.856 107.537,142.856 104,140.5C 103.536,141.094 103.369,141.761 103.5,142.5C 102.833,142.167 102.167,141.833 101.5,141.5C 101.167,140.5 100.5,139.833 99.5,139.5C 98.925,137.589 97.925,135.922 96.5,134.5C 99.7279,136.346 103.061,137.013 106.5,136.5C 107.298,134.019 106.965,131.686 105.5,129.5C 105.107,127.716 104.441,126.05 103.5,124.5C 103.343,123.127 103.51,121.793 104,120.5C 105.52,123.382 106.853,126.382 108,129.5C 108.741,130.641 109.575,130.641 110.5,129.5C 111.333,130.5 112.167,131.5 113,132.5C 113.687,129.574 115.52,128.241 118.5,128.5 Z"/></g>
<g><path style="opacity:1" fill="#406c19" d="M 153.5,128.5 C 153.5,129.167 153.833,129.5 154.5,129.5C 152.42,131.573 150.754,133.907 149.5,136.5C 147.873,138.63 146.04,140.63 144,142.5C 143.517,143.448 143.351,144.448 143.5,145.5C 143.167,145.5 142.833,145.5 142.5,145.5C 142.054,142.815 141.221,141.148 140,140.5C 144.023,135.978 148.523,131.978 153.5,128.5 Z"/></g>
<g><path style="opacity:0.859" fill="#88a75e" d="M 51.5,139.5 C 56.1767,140.741 60.8433,140.741 65.5,139.5C 64.8333,140.5 64.1667,141.5 63.5,142.5C 59.0184,142.966 55.0184,141.966 51.5,139.5 Z"/></g>
<g><path style="opacity:0.082" fill="#e3f1cd" d="M 67.5,138.5 C 68.1667,138.5 68.8333,138.5 69.5,138.5C 71.4147,138.216 73.0813,138.549 74.5,139.5C 72.1432,139.337 69.8098,139.503 67.5,140C 66.5291,141.481 65.1958,142.315 63.5,142.5C 64.1667,141.5 64.8333,140.5 65.5,139.5C 66.1667,139.167 66.8333,138.833 67.5,138.5 Z"/></g>
<g><path style="opacity:0.004" fill="#edf2e2" d="M 99.5,139.5 C 100.5,139.833 101.167,140.5 101.5,141.5C 100.167,141.5 99.5,140.833 99.5,139.5 Z"/></g>
<g><path style="opacity:0.31" fill="#dff1c9" d="M 49.5,139.5 C 50.1667,139.5 50.8333,139.5 51.5,139.5C 55.0184,141.966 59.0184,142.966 63.5,142.5C 58.2885,144.262 53.6218,143.262 49.5,139.5 Z"/></g>
<g><path style="opacity:1" fill="#1a4905" d="M 117.5,147.5 C 114.092,148.093 110.758,147.427 107.5,145.5C 106.71,144.599 105.71,143.932 104.5,143.5C 104.5,142.833 104.167,142.5 103.5,142.5C 103.369,141.761 103.536,141.094 104,140.5C 107.537,142.856 111.037,142.856 114.5,140.5C 115.7,142.771 116.7,145.104 117.5,147.5 Z"/></g>
<g><path style="opacity:0.345" fill="#c8d7b4" d="M 157.5,135.5 C 157.5,135.833 157.5,136.167 157.5,136.5C 155.856,136.714 154.356,136.38 153,135.5C 150.667,137.833 148.333,140.167 146,142.5C 145.383,143.449 145.549,144.282 146.5,145C 152.162,144.177 157.829,143.011 163.5,141.5C 166.912,142.02 170.245,142.853 173.5,144C 174.942,144.377 175.942,145.21 176.5,146.5C 170.246,143.66 163.913,142.994 157.5,144.5C 154.237,145.482 150.903,146.149 147.5,146.5C 146.167,146.167 144.833,145.833 143.5,145.5C 143.351,144.448 143.517,143.448 144,142.5C 146.04,140.63 147.873,138.63 149.5,136.5C 151.851,134.256 154.518,133.923 157.5,135.5 Z"/></g>
<g><path style="opacity:0.204" fill="#d7ddc7" d="M 80.5,133.5 C 83.2663,136.164 85.9329,138.997 88.5,142C 90.9398,143.303 93.4398,144.47 96,145.5C 97.7659,144.767 99.5992,144.433 101.5,144.5C 101.5,143.5 101.5,142.5 101.5,141.5C 102.167,141.833 102.833,142.167 103.5,142.5C 104.167,142.5 104.5,142.833 104.5,143.5C 104.5,144.167 104.5,144.833 104.5,145.5C 102.097,145.448 99.7638,145.781 97.5,146.5C 89.2509,145.589 83.5843,141.255 80.5,133.5 Z"/></g>
<g><path style="opacity:1" fill="#652a17" d="M 104.5,145.5 C 105.404,146.209 105.737,147.209 105.5,148.5C 104.167,148.5 102.833,148.5 101.5,148.5C 99.847,148.34 98.5137,147.674 97.5,146.5C 99.7638,145.781 102.097,145.448 104.5,145.5 Z"/></g>
<g><path style="opacity:1" fill="#123505" d="M 107.5,145.5 C 110.758,147.427 114.092,148.093 117.5,147.5C 117.5,149.5 117.5,151.5 117.5,153.5C 115.287,153.152 113.287,152.319 111.5,151C 109.19,150.503 106.857,150.337 104.5,150.5C 103.833,150.5 103.5,150.167 103.5,149.5C 104.833,149.5 106.167,149.5 107.5,149.5C 107.5,148.167 107.5,146.833 107.5,145.5 Z"/></g>
<g><path style="opacity:1" fill="#617b47" d="M 74.5,130.5 C 75.8333,130.833 77.1667,131.167 78.5,131.5C 78.8333,132.5 79.5,133.167 80.5,133.5C 83.5843,141.255 89.2509,145.589 97.5,146.5C 98.5137,147.674 99.847,148.34 101.5,148.5C 101.842,149.338 102.508,149.672 103.5,149.5C 103.5,150.167 103.833,150.5 104.5,150.5C 104.389,151.117 104.056,151.617 103.5,152C 104.416,152.278 105.082,152.778 105.5,153.5C 104.5,153.5 103.5,153.5 102.5,153.5C 98.8333,152.167 95.1667,150.833 91.5,149.5C 90.8333,149.5 90.1667,149.5 89.5,149.5C 89.631,148.761 89.4643,148.094 89,147.5C 83.8811,144.715 79.7144,140.882 76.5,136C 74.2837,135.607 72.2837,136.107 70.5,137.5C 70.7475,135.142 70.0808,133.142 68.5,131.5C 70.9253,133.119 72.9253,132.786 74.5,130.5 Z"/></g>
<g><path style="opacity:1" fill="#345b14" d="M 157.5,144.5 C 163.913,142.994 170.246,143.66 176.5,146.5C 178.175,148.456 177.842,149.789 175.5,150.5C 174.826,147.093 172.659,145.76 169,146.5C 165.954,146.56 163.454,147.727 161.5,150C 165.821,150.499 170.154,150.666 174.5,150.5C 169.833,151.167 165.167,151.833 160.5,152.5C 160.5,152.833 160.5,153.167 160.5,153.5C 160.167,153.5 159.833,153.5 159.5,153.5C 155.298,153.183 151.298,153.517 147.5,154.5C 146.833,153.833 146.167,153.167 145.5,152.5C 145.5,152.167 145.5,151.833 145.5,151.5C 150.994,152.405 155.66,150.905 159.5,147C 158.934,146.005 158.267,145.172 157.5,144.5 Z"/></g>
<g><path style="opacity:1" fill="#336204" d="M 175.5,150.5 C 175.167,150.5 174.833,150.5 174.5,150.5C 170.154,150.666 165.821,150.499 161.5,150C 163.454,147.727 165.954,146.56 169,146.5C 172.659,145.76 174.826,147.093 175.5,150.5 Z"/></g>
<g><path style="opacity:1" fill="#492c0a" d="M 104.5,143.5 C 105.71,143.932 106.71,144.599 107.5,145.5C 107.5,146.833 107.5,148.167 107.5,149.5C 106.167,149.5 104.833,149.5 103.5,149.5C 102.508,149.672 101.842,149.338 101.5,148.5C 102.833,148.5 104.167,148.5 105.5,148.5C 105.737,147.209 105.404,146.209 104.5,145.5C 104.5,144.833 104.5,144.167 104.5,143.5 Z"/></g>
<g><path style="opacity:1" fill="#2d3005" d="M 126.5,145.5 C 126.833,145.5 127.167,145.5 127.5,145.5C 128.573,147.347 128.573,149.347 127.5,151.5C 124.205,152.824 122.872,151.491 123.5,147.5C 124.222,146.449 125.222,145.782 126.5,145.5 Z"/></g>
<g><path style="opacity:1" fill="#494e0f" d="M 117.5,147.5 C 119.5,147.5 121.5,147.5 123.5,147.5C 122.872,151.491 124.205,152.824 127.5,151.5C 127.027,152.906 126.027,153.573 124.5,153.5C 122.167,153.5 119.833,153.5 117.5,153.5C 117.5,151.5 117.5,149.5 117.5,147.5 Z"/></g>
<g><path style="opacity:1" fill="#173e07" d="M 157.5,144.5 C 158.267,145.172 158.934,146.005 159.5,147C 155.66,150.905 150.994,152.405 145.5,151.5C 141.833,151.5 138.167,151.5 134.5,151.5C 134.5,150.833 134.5,150.167 134.5,149.5C 135.292,147.743 136.625,146.409 138.5,145.5C 139.726,146.363 141.06,146.363 142.5,145.5C 142.833,145.5 143.167,145.5 143.5,145.5C 142.194,146.467 141.527,147.801 141.5,149.5C 144.32,149.913 146.32,148.913 147.5,146.5C 150.903,146.149 154.237,145.482 157.5,144.5 Z"/></g>
<g><path style="opacity:1" fill="#222309" d="M 143.5,145.5 C 144.833,145.833 146.167,146.167 147.5,146.5C 146.32,148.913 144.32,149.913 141.5,149.5C 141.527,147.801 142.194,146.467 143.5,145.5 Z"/></g>
<g><path style="opacity:1" fill="#42280d" d="M 87.5,149.5 C 88.1667,149.5 88.8333,149.5 89.5,149.5C 90.1667,149.5 90.8333,149.5 91.5,149.5C 92.0906,150.151 92.7573,150.818 93.5,151.5C 93.2907,152.086 92.9574,152.586 92.5,153C 90.2884,153.789 88.2884,153.622 86.5,152.5C 86.5569,151.391 86.8902,150.391 87.5,149.5 Z"/></g>
<g><path style="opacity:1" fill="#4e810f" d="M 133.5,148.5 C 133.5,149.167 133.833,149.5 134.5,149.5C 134.5,150.167 134.5,150.833 134.5,151.5C 134.804,152.15 135.137,152.817 135.5,153.5C 134.051,154.172 132.718,154.839 131.5,155.5C 130.5,156.833 129.5,158.167 128.5,159.5C 127.833,159.5 127.167,159.5 126.5,159.5C 125.127,159.657 123.793,159.49 122.5,159C 122.833,158.667 123.167,158.333 123.5,158C 121.341,157.088 119.175,156.255 117,155.5C 114.828,156.509 113.662,158.176 113.5,160.5C 111.116,160.557 108.782,160.223 106.5,159.5C 105.287,159.747 104.62,160.414 104.5,161.5C 103.833,161.5 103.5,161.167 103.5,160.5C 102.631,158.283 102.298,155.95 102.5,153.5C 103.5,153.5 104.5,153.5 105.5,153.5C 111.833,154.833 118.167,154.833 124.5,153.5C 126.027,153.573 127.027,152.906 127.5,151.5C 129.216,149.975 131.216,148.975 133.5,148.5 Z"/></g>
<g><path style="opacity:0.318" fill="#c2cfab" d="M 87.5,149.5 C 86.8902,150.391 86.5569,151.391 86.5,152.5C 85.197,154.142 83.8637,155.809 82.5,157.5C 80.5,159.167 78.5,160.833 76.5,162.5C 79.8502,157.823 83.5169,153.49 87.5,149.5 Z"/></g>
<g><path style="opacity:1" fill="#376e0a" d="M 134.5,151.5 C 138.167,151.5 141.833,151.5 145.5,151.5C 145.5,151.833 145.5,152.167 145.5,152.5C 144.504,152.414 143.671,152.748 143,153.5C 142.023,155.74 141.523,158.073 141.5,160.5C 140.518,159.859 139.518,159.193 138.5,158.5C 137.893,158.624 137.56,158.957 137.5,159.5C 135.754,157.748 133.754,156.415 131.5,155.5C 132.718,154.839 134.051,154.172 135.5,153.5C 135.137,152.817 134.804,152.15 134.5,151.5 Z"/></g>
<g><path style="opacity:0.063" fill="#d2e0bd" d="M 176.5,146.5 C 178.741,147.3 179.741,148.966 179.5,151.5C 173.31,152.532 167.31,153.865 161.5,155.5C 161.737,154.209 161.404,153.209 160.5,152.5C 165.167,151.833 169.833,151.167 174.5,150.5C 174.833,150.5 175.167,150.5 175.5,150.5C 177.842,149.789 178.175,148.456 176.5,146.5 Z"/></g>
<g><path style="opacity:1" fill="#3b5815" d="M 91.5,149.5 C 95.1667,150.833 98.8333,152.167 102.5,153.5C 102.298,155.95 102.631,158.283 103.5,160.5C 102.508,160.672 101.842,160.338 101.5,159.5C 101.5,158.5 101.5,157.5 101.5,156.5C 98.786,156.25 96.1194,156.083 93.5,156C 92.015,157.756 92.3484,158.923 94.5,159.5C 94.1667,160.167 93.8333,160.833 93.5,161.5C 92.1667,161.5 90.8333,161.5 89.5,161.5C 92.9583,156.492 92.125,155.492 87,158.5C 85.6439,157.62 84.1439,157.286 82.5,157.5C 83.8637,155.809 85.197,154.142 86.5,152.5C 88.2884,153.622 90.2884,153.789 92.5,153C 92.9574,152.586 93.2907,152.086 93.5,151.5C 92.7573,150.818 92.0906,150.151 91.5,149.5 Z"/></g>
<g><path style="opacity:1" fill="#2c5a07" d="M 104.5,150.5 C 106.857,150.337 109.19,150.503 111.5,151C 113.287,152.319 115.287,153.152 117.5,153.5C 119.833,153.5 122.167,153.5 124.5,153.5C 118.167,154.833 111.833,154.833 105.5,153.5C 105.082,152.778 104.416,152.278 103.5,152C 104.056,151.617 104.389,151.117 104.5,150.5 Z"/></g>
<g><path style="opacity:1" fill="#263112" d="M 159.5,153.5 C 156.359,154.321 153.025,154.821 149.5,155C 150.406,156.699 150.739,158.533 150.5,160.5C 150.167,160.5 149.833,160.5 149.5,160.5C 149.771,158.62 149.104,157.287 147.5,156.5C 147.5,155.833 147.5,155.167 147.5,154.5C 151.298,153.517 155.298,153.183 159.5,153.5 Z"/></g>
<g><path style="opacity:1" fill="#312a21" d="M 159.5,153.5 C 159.833,153.5 160.167,153.5 160.5,153.5C 160.608,155.514 159.942,157.18 158.5,158.5C 155.994,159.75 153.327,160.416 150.5,160.5C 150.739,158.533 150.406,156.699 149.5,155C 153.025,154.821 156.359,154.321 159.5,153.5 Z"/></g>
<g><path style="opacity:1" fill="#16320f" d="M 101.5,159.5 C 99.1667,159.5 96.8333,159.5 94.5,159.5C 92.3484,158.923 92.015,157.756 93.5,156C 96.1194,156.083 98.786,156.25 101.5,156.5C 101.5,157.5 101.5,158.5 101.5,159.5 Z"/></g>
<g><path style="opacity:1" fill="#2e1d08" d="M 94.5,159.5 C 96.8333,159.5 99.1667,159.5 101.5,159.5C 101.842,160.338 102.508,160.672 103.5,160.5C 103.5,161.167 103.833,161.5 104.5,161.5C 104.5,161.833 104.5,162.167 104.5,162.5C 102.833,162.5 101.167,162.5 99.5,162.5C 97.7354,161.539 95.7354,161.205 93.5,161.5C 93.8333,160.833 94.1667,160.167 94.5,159.5 Z"/></g>
<g><path style="opacity:1" fill="#26370c" d="M 131.5,155.5 C 133.754,156.415 135.754,157.748 137.5,159.5C 138.5,159.833 139.167,160.5 139.5,161.5C 136.908,161.454 134.741,160.454 133,158.5C 131.317,160.351 129.484,162.017 127.5,163.5C 127.833,162.167 128.167,160.833 128.5,159.5C 129.5,158.167 130.5,156.833 131.5,155.5 Z"/></g>
<g><path style="opacity:1" fill="#5f8622" d="M 89.5,161.5 C 88.5,162.833 87.5,164.167 86.5,165.5C 83.9952,164.583 81.6618,164.583 79.5,165.5C 78.5,165.5 77.5,165.5 76.5,165.5C 76.5,164.5 76.5,163.5 76.5,162.5C 78.5,160.833 80.5,159.167 82.5,157.5C 84.1439,157.286 85.6439,157.62 87,158.5C 92.125,155.492 92.9583,156.492 89.5,161.5 Z"/></g>
<g><path style="opacity:1" fill="#7e7b29" d="M 104.5,161.5 C 105.5,161.5 106.5,161.5 107.5,161.5C 107.833,162.167 108.167,162.833 108.5,163.5C 107.833,163.5 107.167,163.5 106.5,163.5C 105.508,163.672 104.842,163.338 104.5,162.5C 104.5,162.167 104.5,161.833 104.5,161.5 Z"/></g>
<g><path style="opacity:1" fill="#94b56d" d="M 126.5,159.5 C 127.167,159.5 127.833,159.5 128.5,159.5C 128.167,160.833 127.833,162.167 127.5,163.5C 126.609,164.11 125.609,164.443 124.5,164.5C 123.766,163.292 123.433,161.959 123.5,160.5C 124.791,160.737 125.791,160.404 126.5,159.5 Z"/></g>
<g><path style="opacity:1" fill="#211d08" d="M 139.5,161.5 C 139.833,162.167 140.167,162.833 140.5,163.5C 136.19,164.08 131.857,164.414 127.5,164.5C 127.5,164.167 127.5,163.833 127.5,163.5C 129.484,162.017 131.317,160.351 133,158.5C 134.741,160.454 136.908,161.454 139.5,161.5 Z"/></g>
<g><path style="opacity:1" fill="#4c7e06" d="M 145.5,152.5 C 146.167,153.167 146.833,153.833 147.5,154.5C 147.5,155.167 147.5,155.833 147.5,156.5C 148.324,159.764 148.658,163.098 148.5,166.5C 147.325,166.719 146.325,166.386 145.5,165.5C 144.388,163.581 143.054,161.914 141.5,160.5C 141.523,158.073 142.023,155.74 143,153.5C 143.671,152.748 144.504,152.414 145.5,152.5 Z"/></g>
<g><path style="opacity:1" fill="#608f15" d="M 126.5,159.5 C 125.791,160.404 124.791,160.737 123.5,160.5C 123.433,161.959 123.766,163.292 124.5,164.5C 123.89,165.391 123.557,166.391 123.5,167.5C 122.688,168.993 121.355,169.66 119.5,169.5C 118.274,169.48 117.274,169.147 116.5,168.5C 115.791,167.596 114.791,167.263 113.5,167.5C 114.738,162.733 112.738,160.733 107.5,161.5C 106.5,161.5 105.5,161.5 104.5,161.5C 104.62,160.414 105.287,159.747 106.5,159.5C 108.782,160.223 111.116,160.557 113.5,160.5C 113.662,158.176 114.828,156.509 117,155.5C 119.175,156.255 121.341,157.088 123.5,158C 123.167,158.333 122.833,158.667 122.5,159C 123.793,159.49 125.127,159.657 126.5,159.5 Z"/></g>
<g><path style="opacity:1" fill="#8da741" d="M 107.5,161.5 C 112.738,160.733 114.738,162.733 113.5,167.5C 111.809,166.136 110.142,164.803 108.5,163.5C 108.167,162.833 107.833,162.167 107.5,161.5 Z"/></g>
<g><path style="opacity:1" fill="#824220" d="M 140.5,163.5 C 140.5,163.833 140.5,164.167 140.5,164.5C 139.833,164.5 139.5,164.833 139.5,165.5C 135.5,165.5 131.5,165.5 127.5,165.5C 127.5,165.167 127.5,164.833 127.5,164.5C 131.857,164.414 136.19,164.08 140.5,163.5 Z"/></g>
<g><path style="opacity:1" fill="#667214" d="M 147.5,156.5 C 149.104,157.287 149.771,158.62 149.5,160.5C 149.5,160.833 149.5,161.167 149.5,161.5C 149.662,163.527 149.495,165.527 149,167.5C 147.989,168.337 146.822,168.67 145.5,168.5C 144.24,166.633 142.573,165.3 140.5,164.5C 140.5,164.167 140.5,163.833 140.5,163.5C 140.167,162.833 139.833,162.167 139.5,161.5C 139.167,160.5 138.5,159.833 137.5,159.5C 137.56,158.957 137.893,158.624 138.5,158.5C 139.518,159.193 140.518,159.859 141.5,160.5C 143.054,161.914 144.388,163.581 145.5,165.5C 146.325,166.386 147.325,166.719 148.5,166.5C 148.658,163.098 148.324,159.764 147.5,156.5 Z"/></g>
<g><path style="opacity:1" fill="#a57a32" d="M 149.5,161.5 C 150.451,162.919 150.784,164.585 150.5,166.5C 150.5,167.5 150.5,168.5 150.5,169.5C 148.585,169.784 146.919,169.451 145.5,168.5C 146.822,168.67 147.989,168.337 149,167.5C 149.495,165.527 149.662,163.527 149.5,161.5 Z"/></g>
<g><path style="opacity:0.973" fill="#a5b773" d="M 79.5,165.5 C 81.6618,164.583 83.9952,164.583 86.5,165.5C 86.5,165.833 86.5,166.167 86.5,166.5C 85.8333,166.5 85.5,166.833 85.5,167.5C 84.5041,167.414 83.6708,167.748 83,168.5C 82.5776,166.574 81.4109,165.574 79.5,165.5 Z"/></g>
<g><path style="opacity:1" fill="#bc9747" d="M 106.5,163.5 C 107.167,163.5 107.833,163.5 108.5,163.5C 110.142,164.803 111.809,166.136 113.5,167.5C 114.791,167.263 115.791,167.596 116.5,168.5C 111.855,169.084 108.522,167.417 106.5,163.5 Z"/></g>
<g><path style="opacity:1" fill="#836c27" d="M 127.5,163.5 C 127.5,163.833 127.5,164.167 127.5,164.5C 127.5,164.833 127.5,165.167 127.5,165.5C 127.5,166.167 127.167,166.5 126.5,166.5C 125.391,166.557 124.391,166.89 123.5,167.5C 123.557,166.391 123.89,165.391 124.5,164.5C 125.609,164.443 126.609,164.11 127.5,163.5 Z"/></g>
<g><path style="opacity:0.063" fill="#f5e4dd" d="M 161.5,157.5 C 161.142,161.509 160.642,165.509 160,169.5C 159.722,170.416 159.222,171.082 158.5,171.5C 159.131,167.196 159.631,162.863 160,158.5C 160.383,157.944 160.883,157.611 161.5,157.5 Z"/></g>
<g><path style="opacity:1" fill="#e48649" d="M 99.5,162.5 C 101.167,162.5 102.833,162.5 104.5,162.5C 104.842,163.338 105.508,163.672 106.5,163.5C 108.522,167.417 111.855,169.084 116.5,168.5C 117.274,169.147 118.274,169.48 119.5,169.5C 121.355,169.66 122.688,168.993 123.5,167.5C 124.391,166.89 125.391,166.557 126.5,166.5C 124.806,168.861 122.806,170.861 120.5,172.5C 119.005,172.415 118.005,173.081 117.5,174.5C 118.145,176.432 119.479,177.599 121.5,178C 117.975,178.179 114.641,178.679 111.5,179.5C 107.466,179.495 103.466,179.162 99.5,178.5C 98.8542,174.541 97.1876,171.208 94.5,168.5C 94.5,166.5 94.5,164.5 94.5,162.5C 96.1667,162.5 97.8333,162.5 99.5,162.5 Z"/></g>
<g><path style="opacity:0.122" fill="#ebefd4" d="M 76.5,162.5 C 76.5,163.5 76.5,164.5 76.5,165.5C 77.5,165.5 78.5,165.5 79.5,165.5C 81.4109,165.574 82.5776,166.574 83,168.5C 83.6708,167.748 84.5041,167.414 85.5,167.5C 86.8333,168.167 86.8333,168.833 85.5,169.5C 84.5041,169.414 83.6708,169.748 83,170.5C 82,169.167 81,167.833 80,166.5C 77.7997,167.99 75.9664,167.657 74.5,165.5C 74.9424,164.261 75.6091,163.261 76.5,162.5 Z"/></g>
<g><path style="opacity:1" fill="#bf774c" d="M 89.5,161.5 C 90.8333,161.5 92.1667,161.5 93.5,161.5C 95.7354,161.205 97.7354,161.539 99.5,162.5C 97.8333,162.5 96.1667,162.5 94.5,162.5C 94.5,164.5 94.5,166.5 94.5,168.5C 92.7202,169.99 92.0535,171.99 92.5,174.5C 92.1667,174.5 91.8333,174.5 91.5,174.5C 90.1403,171.38 89.3069,168.047 89,164.5C 88.2828,165.044 87.7828,165.711 87.5,166.5C 87.1667,166.5 86.8333,166.5 86.5,166.5C 86.5,166.167 86.5,165.833 86.5,165.5C 87.5,164.167 88.5,162.833 89.5,161.5 Z"/></g>
<g><path style="opacity:1" fill="#c6957e" d="M 160.5,152.5 C 161.404,153.209 161.737,154.209 161.5,155.5C 161.5,156.167 161.5,156.833 161.5,157.5C 160.883,157.611 160.383,157.944 160,158.5C 159.631,162.863 159.131,167.196 158.5,171.5C 157.833,171.5 157.167,171.5 156.5,171.5C 156.631,167.048 157.298,162.714 158.5,158.5C 159.942,157.18 160.608,155.514 160.5,153.5C 160.5,153.167 160.5,152.833 160.5,152.5 Z"/></g>
<g><path style="opacity:0.255" fill="#f3dcca" d="M 85.5,167.5 C 85.5,166.833 85.8333,166.5 86.5,166.5C 86.8333,166.5 87.1667,166.5 87.5,166.5C 89.5181,174.875 91.5181,183.209 93.5,191.5C 94.1942,196.805 94.5276,202.138 94.5,207.5C 92.3925,196.292 90.2259,184.959 88,173.5C 87.3378,172.016 86.5045,170.683 85.5,169.5C 86.8333,168.833 86.8333,168.167 85.5,167.5 Z"/></g>
<g><path style="opacity:0.99" fill="#d7a382" d="M 91.5,174.5 C 93.0199,180.025 93.6865,185.691 93.5,191.5C 91.5181,183.209 89.5181,174.875 87.5,166.5C 87.7828,165.711 88.2828,165.044 89,164.5C 89.3069,168.047 90.1403,171.38 91.5,174.5 Z"/></g>
<g><path style="opacity:1" fill="#c6632d" d="M 127.5,165.5 C 131.5,165.5 135.5,165.5 139.5,165.5C 143.724,167.842 143.39,169.675 138.5,171C 140.398,172.417 142.064,173.917 143.5,175.5C 143.44,176.043 143.107,176.376 142.5,176.5C 140.362,175.757 138.196,175.09 136,174.5C 134.612,176.105 133.112,177.605 131.5,179C 132.938,179.219 134.271,179.719 135.5,180.5C 135.043,181.298 134.376,181.631 133.5,181.5C 129.466,181.328 125.466,180.828 121.5,180C 123.285,178.837 125.285,178.17 127.5,178C 125.889,175.22 123.556,173.387 120.5,172.5C 122.806,170.861 124.806,168.861 126.5,166.5C 127.167,166.5 127.5,166.167 127.5,165.5 Z"/></g>
<g><path style="opacity:1" fill="#c97240" d="M 140.5,164.5 C 142.573,165.3 144.24,166.633 145.5,168.5C 146.919,169.451 148.585,169.784 150.5,169.5C 150.5,168.5 150.5,167.5 150.5,166.5C 152.132,166.825 153.132,167.825 153.5,169.5C 153.011,171.808 152.011,172.975 150.5,173C 151.296,174.092 151.963,175.259 152.5,176.5C 150.837,186.76 149.837,197.093 149.5,207.5C 149.5,208.167 149.5,208.833 149.5,209.5C 149.098,212.477 148.098,215.143 146.5,217.5C 145.525,213.532 144.525,209.532 143.5,205.5C 145.465,201.068 145.965,196.401 145,191.5C 144.5,191 144,190.5 143.5,190C 147.19,185.03 147.19,180.197 143.5,175.5C 142.064,173.917 140.398,172.417 138.5,171C 143.39,169.675 143.724,167.842 139.5,165.5C 139.5,164.833 139.833,164.5 140.5,164.5 Z"/></g>
<g><path style="opacity:0.09" fill="#f5e1ce" d="M 156.5,171.5 C 157.167,171.5 157.833,171.5 158.5,171.5C 157.154,177.614 155.821,183.614 154.5,189.5C 154.676,183.428 155.343,177.428 156.5,171.5 Z"/></g>
<g><path style="opacity:0.914" fill="#c69173" d="M 156.5,171.5 C 155.343,177.428 154.676,183.428 154.5,189.5C 154.5,190.167 154.5,190.833 154.5,191.5C 153.082,194.02 152.082,196.687 151.5,199.5C 151.152,191.363 151.986,183.363 154,175.5C 154.2,173.68 155.034,172.347 156.5,171.5 Z"/></g>
<g><path style="opacity:1" fill="#eb8c4c" d="M 111.5,183.5 C 110.854,185.156 110.187,186.823 109.5,188.5C 110.636,190.318 111.303,192.318 111.5,194.5C 111.403,203.643 110.736,212.643 109.5,221.5C 111.973,221.088 113.306,222.088 113.5,224.5C 110.833,224.5 108.167,224.5 105.5,224.5C 105.167,223.833 104.833,223.167 104.5,222.5C 103.962,220.883 103.629,219.216 103.5,217.5C 106.999,217.741 107.332,216.908 104.5,215C 106.748,207.359 107.581,199.526 107,191.5C 101.366,183.882 102.866,181.215 111.5,183.5 Z"/></g>
<g><path style="opacity:1" fill="#e27d40" d="M 111.5,179.5 C 114.522,179.804 117.522,180.304 120.5,181C 121.381,181.708 122.047,182.542 122.5,183.5C 123.6,191.038 124.6,198.704 125.5,206.5C 123.532,211.675 122.198,217.008 121.5,222.5C 119.5,222.5 117.5,222.5 115.5,222.5C 115.854,209.995 115.854,197.495 115.5,185C 115.252,183.251 114.252,182.418 112.5,182.5C 112.918,181.778 113.584,181.278 114.5,181C 113.263,180.768 112.263,180.268 111.5,179.5 Z"/></g>
<g><path style="opacity:1" fill="#e78548" d="M 112.5,182.5 C 114.252,182.418 115.252,183.251 115.5,185C 115.854,197.495 115.854,209.995 115.5,222.5C 117.5,222.5 119.5,222.5 121.5,222.5C 122.5,223.167 123.5,223.833 124.5,224.5C 124.5,224.833 124.5,225.167 124.5,225.5C 124.167,225.5 123.833,225.5 123.5,225.5C 123.167,225.5 122.833,225.5 122.5,225.5C 119.713,224.523 116.713,224.19 113.5,224.5C 113.306,222.088 111.973,221.088 109.5,221.5C 110.736,212.643 111.403,203.643 111.5,194.5C 111.303,192.318 110.636,190.318 109.5,188.5C 110.187,186.823 110.854,185.156 111.5,183.5C 112.167,183.5 112.5,183.167 112.5,182.5 Z"/></g>
<g><path style="opacity:1" fill="#d56e35" d="M 120.5,172.5 C 123.556,173.387 125.889,175.22 127.5,178C 125.285,178.17 123.285,178.837 121.5,180C 125.466,180.828 129.466,181.328 133.5,181.5C 133.369,182.239 133.536,182.906 134,183.5C 135.518,183.057 136.685,183.724 137.5,185.5C 136.051,186.172 134.718,186.839 133.5,187.5C 133.511,189.017 134.177,190.184 135.5,191C 135.023,194.859 135.023,198.859 135.5,203C 135.95,205.626 134.95,207.126 132.5,207.5C 132.777,204.552 132.444,201.719 131.5,199C 133.187,197.087 133.687,194.92 133,192.5C 132.333,191.167 131.667,191.167 131,192.5C 130,191.5 129,190.5 128,189.5C 127.677,186.859 126.677,184.525 125,182.5C 124.329,183.252 123.496,183.586 122.5,183.5C 122.047,182.542 121.381,181.708 120.5,181C 117.522,180.304 114.522,179.804 111.5,179.5C 114.641,178.679 117.975,178.179 121.5,178C 119.479,177.599 118.145,176.432 117.5,174.5C 118.005,173.081 119.005,172.415 120.5,172.5 Z"/></g>
<g><path style="opacity:1" fill="#ce6e3b" d="M 143.5,175.5 C 147.19,180.197 147.19,185.03 143.5,190C 144,190.5 144.5,191 145,191.5C 145.965,196.401 145.465,201.068 143.5,205.5C 144.525,209.532 145.525,213.532 146.5,217.5C 145.107,220.017 143.107,221.684 140.5,222.5C 139.354,216.309 139.687,210.476 141.5,205C 140.677,202.266 139.677,199.599 138.5,197C 138.833,196 139.167,195 139.5,194C 137.987,192.121 137.321,189.954 137.5,187.5C 136.167,187.5 134.833,187.5 133.5,187.5C 134.718,186.839 136.051,186.172 137.5,185.5C 136.685,183.724 135.518,183.057 134,183.5C 133.536,182.906 133.369,182.239 133.5,181.5C 134.376,181.631 135.043,181.298 135.5,180.5C 134.271,179.719 132.938,179.219 131.5,179C 133.112,177.605 134.612,176.105 136,174.5C 138.196,175.09 140.362,175.757 142.5,176.5C 143.107,176.376 143.44,176.043 143.5,175.5 Z"/></g>
<g><path style="opacity:1" fill="#c9784f" d="M 158.5,158.5 C 157.298,162.714 156.631,167.048 156.5,171.5C 155.034,172.347 154.2,173.68 154,175.5C 151.986,183.363 151.152,191.363 151.5,199.5C 151.5,200.833 151.5,202.167 151.5,203.5C 150.833,204.833 150.167,206.167 149.5,207.5C 149.837,197.093 150.837,186.76 152.5,176.5C 151.963,175.259 151.296,174.092 150.5,173C 152.011,172.975 153.011,171.808 153.5,169.5C 153.132,167.825 152.132,166.825 150.5,166.5C 150.784,164.585 150.451,162.919 149.5,161.5C 149.5,161.167 149.5,160.833 149.5,160.5C 149.833,160.5 150.167,160.5 150.5,160.5C 153.327,160.416 155.994,159.75 158.5,158.5 Z"/></g>
<g><path style="opacity:1" fill="#e9905a" d="M 94.5,168.5 C 97.1876,171.208 98.8542,174.541 99.5,178.5C 99.9234,179.265 100.257,180.098 100.5,181C 99.1667,182.667 97.8333,184.333 96.5,186C 97.3687,187.869 98.5354,188.369 100,187.5C 101.774,189.513 101.607,191.513 99.5,193.5C 99.5288,195.029 100.196,196.196 101.5,197C 100.692,197.308 100.025,197.808 99.5,198.5C 100.592,200.183 101.259,202.016 101.5,204C 100.582,206.086 99.9153,208.253 99.5,210.5C 98.2719,209.694 97.2719,208.694 96.5,207.5C 96.0222,198.917 96.0222,190.417 96.5,182C 93.4792,180.461 92.1459,177.961 92.5,174.5C 92.0535,171.99 92.7202,169.99 94.5,168.5 Z"/></g>
<g><path style="opacity:1" fill="#da7236" d="M 132.5,207.5 C 134.131,213.417 132.464,218.251 127.5,222C 128.672,222.419 129.672,223.085 130.5,224C 128.527,224.495 126.527,224.662 124.5,224.5C 123.5,223.833 122.5,223.167 121.5,222.5C 122.198,217.008 123.532,211.675 125.5,206.5C 124.6,198.704 123.6,191.038 122.5,183.5C 123.496,183.586 124.329,183.252 125,182.5C 126.677,184.525 127.677,186.859 128,189.5C 129,190.5 130,191.5 131,192.5C 131.667,191.167 132.333,191.167 133,192.5C 133.687,194.92 133.187,197.087 131.5,199C 132.444,201.719 132.777,204.552 132.5,207.5 Z"/></g>
<g><path style="opacity:1" fill="#e69a6c" d="M 91.5,174.5 C 91.8333,174.5 92.1667,174.5 92.5,174.5C 92.1459,177.961 93.4792,180.461 96.5,182C 96.0222,190.417 96.0222,198.917 96.5,207.5C 95.8333,207.5 95.1667,207.5 94.5,207.5C 94.5276,202.138 94.1942,196.805 93.5,191.5C 93.6865,185.691 93.0199,180.025 91.5,174.5 Z"/></g>
<g><path style="opacity:1" fill="#ec8f54" d="M 99.5,178.5 C 103.466,179.162 107.466,179.495 111.5,179.5C 112.263,180.268 113.263,180.768 114.5,181C 113.584,181.278 112.918,181.778 112.5,182.5C 112.5,183.167 112.167,183.5 111.5,183.5C 102.866,181.215 101.366,183.882 107,191.5C 107.581,199.526 106.748,207.359 104.5,215C 107.332,216.908 106.999,217.741 103.5,217.5C 103.629,219.216 103.962,220.883 104.5,222.5C 102.616,221.618 101.283,220.118 100.5,218C 100.833,217.667 101.167,217.333 101.5,217C 100.331,214.993 99.6646,212.827 99.5,210.5C 99.9153,208.253 100.582,206.086 101.5,204C 101.259,202.016 100.592,200.183 99.5,198.5C 100.025,197.808 100.692,197.308 101.5,197C 100.196,196.196 99.5288,195.029 99.5,193.5C 101.607,191.513 101.774,189.513 100,187.5C 98.5354,188.369 97.3687,187.869 96.5,186C 97.8333,184.333 99.1667,182.667 100.5,181C 100.257,180.098 99.9234,179.265 99.5,178.5 Z"/></g>
<g><path style="opacity:0.165" fill="#f1d4ca" d="M 154.5,191.5 C 153.601,197.315 152.601,202.982 151.5,208.5C 151.5,206.833 151.5,205.167 151.5,203.5C 151.5,202.167 151.5,200.833 151.5,199.5C 152.082,196.687 153.082,194.02 154.5,191.5 Z"/></g>
<g><path style="opacity:1" fill="#d16e33" d="M 133.5,187.5 C 134.833,187.5 136.167,187.5 137.5,187.5C 137.321,189.954 137.987,192.121 139.5,194C 139.167,195 138.833,196 138.5,197C 139.677,199.599 140.677,202.266 141.5,205C 139.687,210.476 139.354,216.309 140.5,222.5C 138.217,222.608 136.217,223.441 134.5,225C 131.183,225.498 127.85,225.665 124.5,225.5C 124.5,225.167 124.5,224.833 124.5,224.5C 126.527,224.662 128.527,224.495 130.5,224C 129.672,223.085 128.672,222.419 127.5,222C 132.464,218.251 134.131,213.417 132.5,207.5C 134.95,207.126 135.95,205.626 135.5,203C 135.023,198.859 135.023,194.859 135.5,191C 134.177,190.184 133.511,189.017 133.5,187.5 Z"/></g>
<g><path style="opacity:0.129" fill="#f4d9c4" d="M 94.5,207.5 C 95.1667,207.5 95.8333,207.5 96.5,207.5C 95.3763,214.082 97.043,219.749 101.5,224.5C 98.909,223.746 97.0757,222.079 96,219.5C 95.3583,215.509 94.8583,211.509 94.5,207.5 Z"/></g>
<g><path style="opacity:1" fill="#e4986a" d="M 96.5,207.5 C 97.2719,208.694 98.2719,209.694 99.5,210.5C 99.6646,212.827 100.331,214.993 101.5,217C 101.167,217.333 100.833,217.667 100.5,218C 101.283,220.118 102.616,221.618 104.5,222.5C 104.833,223.167 105.167,223.833 105.5,224.5C 104.167,224.5 102.833,224.5 101.5,224.5C 97.043,219.749 95.3763,214.082 96.5,207.5 Z"/></g>
<g><path style="opacity:1" fill="#bc754d" d="M 149.5,209.5 C 151.104,219.064 147.104,224.564 137.5,226C 132.898,227.122 128.232,227.622 123.5,227.5C 123.5,226.833 123.5,226.167 123.5,225.5C 123.833,225.5 124.167,225.5 124.5,225.5C 127.85,225.665 131.183,225.498 134.5,225C 136.217,223.441 138.217,222.608 140.5,222.5C 143.107,221.684 145.107,220.017 146.5,217.5C 148.098,215.143 149.098,212.477 149.5,209.5 Z"/></g>
<g><path style="opacity:1" fill="#d3936b" d="M 105.5,224.5 C 108.167,224.5 110.833,224.5 113.5,224.5C 116.713,224.19 119.713,224.523 122.5,225.5C 118.625,225.356 114.792,225.69 111,226.5C 108.889,226.299 107.055,225.633 105.5,224.5 Z"/></g>
<g><path style="opacity:0.047" fill="#f7ddc7" d="M 101.5,224.5 C 102.833,224.5 104.167,224.5 105.5,224.5C 107.055,225.633 108.889,226.299 111,226.5C 114.792,225.69 118.625,225.356 122.5,225.5C 122.833,225.5 123.167,225.5 123.5,225.5C 123.5,226.167 123.5,226.833 123.5,227.5C 119.398,226.359 115.231,226.359 111,227.5C 107.515,227.17 104.348,226.17 101.5,224.5 Z"/></g>
<g><path style="opacity:0.133" fill="#f1d6c3" d="M 151.5,203.5 C 151.5,205.167 151.5,206.833 151.5,208.5C 152.45,220.719 146.783,227.219 134.5,228C 130.642,228.81 126.976,228.643 123.5,227.5C 128.232,227.622 132.898,227.122 137.5,226C 147.104,224.564 151.104,219.064 149.5,209.5C 149.5,208.833 149.5,208.167 149.5,207.5C 150.167,206.167 150.833,204.833 151.5,203.5 Z"/></g>
</svg>
