<?xml version="1.0" encoding="UTF-8"?>
<!DOCTYPE svg PUBLIC "-//W3C//DTD SVG 1.1//EN" "http://www.w3.org/Graphics/SVG/1.1/DTD/svg11.dtd">
<svg xmlns="http://www.w3.org/2000/svg" version="1.1" width="292px" height="292px" style="shape-rendering:geometricPrecision; text-rendering:geometricPrecision; image-rendering:optimizeQuality; fill-rule:evenodd; clip-rule:evenodd" xmlns:xlink="http://www.w3.org/1999/xlink">
<g><path style="opacity:0.792" fill="#797f6c" d="M 170.5,8.5 C 167.609,7.59748 164.609,7.26414 161.5,7.5C 161.5,7.16667 161.5,6.83333 161.5,6.5C 163.738,5.46336 166.071,5.29669 168.5,6C 169.756,6.41691 170.423,7.25025 170.5,8.5 Z"/></g>
<g><path style="opacity:1" fill="#3c531a" d="M 161.5,7.5 C 164.609,7.26414 167.609,7.59748 170.5,8.5C 173.829,16.4252 171.162,20.4252 162.5,20.5C 160.302,20.1201 158.635,20.7868 157.5,22.5C 153.628,22.8209 150.461,21.4876 148,18.5C 147.427,14.8685 148.261,14.2018 150.5,16.5C 151.107,16.3764 151.44,16.0431 151.5,15.5C 153.994,11.6616 157.327,8.99493 161.5,7.5 Z"/></g>
<g><path style="opacity:0.522" fill="#929d89" d="M 194.5,15.5 C 198.554,14.5044 202.554,14.8377 206.5,16.5C 202.481,16.3542 198.481,16.0209 194.5,15.5 Z"/></g>
<g><path style="opacity:1" fill="#717f59" d="M 151.5,15.5 C 151.44,16.0431 151.107,16.3764 150.5,16.5C 148.261,14.2018 147.427,14.8685 148,18.5C 150.461,21.4876 153.628,22.8209 157.5,22.5C 155.209,23.765 152.875,25.0983 150.5,26.5C 150.631,25.6236 150.298,24.9569 149.5,24.5C 147.255,26.6227 144.588,27.6227 141.5,27.5C 141.539,26.4168 141.873,25.4168 142.5,24.5C 142.154,23.3044 141.654,23.3044 141,24.5C 140.517,23.552 140.351,22.552 140.5,21.5C 141.822,21.33 142.989,21.6634 144,22.5C 145.392,20.0594 145.559,17.726 144.5,15.5C 145.542,13.2086 147.042,12.2086 149,12.5C 149.689,11.6433 150.522,10.9767 151.5,10.5C 151.404,12.2147 151.404,13.8814 151.5,15.5 Z"/></g>
<g><path style="opacity:0.051" fill="#c4ccb0" d="M 162.5,20.5 C 161.07,21.5375 159.403,22.2041 157.5,22.5C 158.635,20.7868 160.302,20.1201 162.5,20.5 Z"/></g>
<g><path style="opacity:0.376" fill="#afb5aa" d="M 189.5,19.5 C 185.509,21.6059 181.176,22.9392 176.5,23.5C 180.501,21.4111 184.835,20.0777 189.5,19.5 Z"/></g>
<g><path style="opacity:1" fill="#3a5428" d="M 194.5,15.5 C 198.481,16.0209 202.481,16.3542 206.5,16.5C 206.414,17.4959 206.748,18.3292 207.5,19C 209.5,19.6667 211.5,20.3333 213.5,21C 214.594,22.7803 215.594,24.6136 216.5,26.5C 217.527,25.2086 218.527,25.2086 219.5,26.5C 221.262,27.2623 222.262,28.5956 222.5,30.5C 222.963,33.4824 223.296,36.4824 223.5,39.5C 219.992,29.0415 213.326,26.7082 203.5,32.5C 201.312,31.5557 199.979,29.889 199.5,27.5C 197.704,26.8586 196.204,25.8586 195,24.5C 194.667,24.8333 194.333,25.1667 194,25.5C 193.493,24.0039 193.993,22.8373 195.5,22C 197.631,21.4569 199.631,20.6236 201.5,19.5C 201.167,19.1667 200.833,18.8333 200.5,18.5C 198.037,18.5866 195.537,18.5866 193,18.5C 192.287,20.8525 191.121,22.8525 189.5,24.5C 188.504,24.5858 187.671,24.2524 187,23.5C 184.404,25.0201 181.571,25.8534 178.5,26C 176.321,27.1419 173.988,27.9752 171.5,28.5C 170.472,30.3615 168.972,31.6948 167,32.5C 166.601,32.2716 166.435,31.9382 166.5,31.5C 167.527,29.816 168.527,28.1494 169.5,26.5C 172.491,26.8337 174.824,25.8337 176.5,23.5C 181.176,22.9392 185.509,21.6059 189.5,19.5C 191.142,18.197 192.809,16.8637 194.5,15.5 Z"/></g>
<g><path style="opacity:0.396" fill="#dbddd6" d="M 115.5,21.5 C 115.167,21.5 114.833,21.5 114.5,21.5C 108.158,21.3338 101.825,21.5005 95.5,22C 93.0043,23.6665 90.671,25.4998 88.5,27.5C 89.5914,24.5722 91.5914,22.4055 94.5,21C 101.6,19.5738 108.6,19.7405 115.5,21.5 Z"/></g>
<g><path style="opacity:1" fill="#b8bfaf" d="M 161.5,6.5 C 161.5,6.83333 161.5,7.16667 161.5,7.5C 157.327,8.99493 153.994,11.6616 151.5,15.5C 151.404,13.8814 151.404,12.2147 151.5,10.5C 150.522,10.9767 149.689,11.6433 149,12.5C 147.042,12.2086 145.542,13.2086 144.5,15.5C 139.95,14.8843 135.95,16.051 132.5,19C 130.527,19.4955 128.527,19.6621 126.5,19.5C 124.821,19.8923 123.154,20.3923 121.5,21C 122.308,21.3076 122.975,21.8076 123.5,22.5C 121.257,23.4742 118.924,23.8076 116.5,23.5C 115.833,22.8333 115.167,22.1667 114.5,21.5C 114.833,21.5 115.167,21.5 115.5,21.5C 123.088,19.8129 130.421,17.3129 137.5,14C 139.441,13.2571 141.274,13.4238 143,14.5C 147.862,8.80268 154.028,6.13602 161.5,6.5 Z"/></g>
<g><path style="opacity:0.863" fill="#5d6c51" d="M 206.5,16.5 C 213.187,16.8619 217.521,20.1953 219.5,26.5C 218.527,25.2086 217.527,25.2086 216.5,26.5C 215.594,24.6136 214.594,22.7803 213.5,21C 211.5,20.3333 209.5,19.6667 207.5,19C 206.748,18.3292 206.414,17.4959 206.5,16.5 Z"/></g>
<g><path style="opacity:1" fill="#5a693e" d="M 144.5,15.5 C 145.559,17.726 145.392,20.0594 144,22.5C 142.989,21.6634 141.822,21.33 140.5,21.5C 140.351,22.552 140.517,23.552 141,24.5C 141.654,23.3044 142.154,23.3044 142.5,24.5C 141.873,25.4168 141.539,26.4168 141.5,27.5C 139.118,28.5463 136.785,28.5463 134.5,27.5C 132.71,23.8864 130.043,21.2198 126.5,19.5C 128.527,19.6621 130.527,19.4955 132.5,19C 135.95,16.051 139.95,14.8843 144.5,15.5 Z"/></g>
<g><path style="opacity:0.71" fill="#8e9a83" d="M 176.5,23.5 C 174.824,25.8337 172.491,26.8337 169.5,26.5C 171.426,24.7073 173.759,23.7073 176.5,23.5 Z"/></g>
<g><path style="opacity:1" fill="#78816e" d="M 114.5,21.5 C 115.167,22.1667 115.833,22.8333 116.5,23.5C 115.448,23.3505 114.448,23.5172 113.5,24C 115.058,24.21 116.391,24.71 117.5,25.5C 116.347,26.3132 116.347,27.3132 117.5,28.5C 108.582,29.0101 99.7488,30.0101 91,31.5C 90.1667,31.3333 89.3333,31.1667 88.5,31C 91.2387,29.9741 93.572,28.4741 95.5,26.5C 100.931,26.125 106.264,25.2917 111.5,24C 107.289,22.4661 102.956,22.1327 98.5,23C 96.9336,23.6082 95.6002,24.4415 94.5,25.5C 92.2654,26.2279 90.4321,27.5612 89,29.5C 88.5357,28.9056 88.369,28.2389 88.5,27.5C 90.671,25.4998 93.0043,23.6665 95.5,22C 101.825,21.5005 108.158,21.3338 114.5,21.5 Z"/></g>
<g><path style="opacity:0.114" fill="#e2e7dc" d="M 95.5,26.5 C 95.5,25.8333 95.1667,25.5 94.5,25.5C 95.6002,24.4415 96.9336,23.6082 98.5,23C 102.956,22.1327 107.289,22.4661 111.5,24C 106.264,25.2917 100.931,26.125 95.5,26.5 Z"/></g>
<g><path style="opacity:1" fill="#748466" d="M 126.5,19.5 C 130.043,21.2198 132.71,23.8864 134.5,27.5C 135.606,31.7811 134.606,35.6144 131.5,39C 131.833,39.3333 132.167,39.6667 132.5,40C 130.153,40.7119 128.153,41.8786 126.5,43.5C 126.667,43.8333 126.833,44.1667 127,44.5C 128.441,43.7402 129.941,43.0736 131.5,42.5C 132.298,42.9569 132.631,43.6236 132.5,44.5C 124.974,47.8788 123.64,52.8788 128.5,59.5C 128.5,60.1667 128.5,60.8333 128.5,61.5C 126.292,60.1064 124.792,58.1064 124,55.5C 123.593,52.318 123.093,49.1514 122.5,46C 122.673,43.9792 123.34,42.1459 124.5,40.5C 127.433,39.07 129.933,37.07 132,34.5C 132.692,33.5632 132.525,32.8966 131.5,32.5C 127.151,29.6589 122.484,27.3255 117.5,25.5C 116.391,24.71 115.058,24.21 113.5,24C 114.448,23.5172 115.448,23.3505 116.5,23.5C 118.924,23.8076 121.257,23.4742 123.5,22.5C 122.975,21.8076 122.308,21.3076 121.5,21C 123.154,20.3923 124.821,19.8923 126.5,19.5 Z"/></g>
<g><path style="opacity:1" fill="#2d4a19" d="M 223.5,39.5 C 223.5,41.1667 223.5,42.8333 223.5,44.5C 222.359,45.339 221.026,46.0057 219.5,46.5C 218.304,46.1543 218.304,45.6543 219.5,45C 218.833,44.8333 218.167,44.6667 217.5,44.5C 212.974,46.1141 208.308,46.7808 203.5,46.5C 203.039,44.0835 201.706,42.2502 199.5,41C 200.547,39.4223 200.547,37.9223 199.5,36.5C 197.566,36.9005 196.066,37.9005 195,39.5C 193.067,35.8504 190.4,35.8504 187,39.5C 186.717,37.3981 187.55,35.7315 189.5,34.5C 188.757,33.8182 188.091,33.1515 187.5,32.5C 187.5,32.1667 187.5,31.8333 187.5,31.5C 190.226,30.2449 191.892,28.0782 192.5,25C 191.552,24.5172 190.552,24.3505 189.5,24.5C 191.121,22.8525 192.287,20.8525 193,18.5C 195.537,18.5866 198.037,18.5866 200.5,18.5C 200.833,18.8333 201.167,19.1667 201.5,19.5C 199.631,20.6236 197.631,21.4569 195.5,22C 193.993,22.8373 193.493,24.0039 194,25.5C 194.333,25.1667 194.667,24.8333 195,24.5C 196.204,25.8586 197.704,26.8586 199.5,27.5C 199.979,29.889 201.312,31.5557 203.5,32.5C 213.326,26.7082 219.992,29.0415 223.5,39.5 Z"/></g>
<g><path style="opacity:0.941" fill="#c3c7bd" d="M 94.5,25.5 C 95.1667,25.5 95.5,25.8333 95.5,26.5C 93.572,28.4741 91.2387,29.9741 88.5,31C 89.3333,31.1667 90.1667,31.3333 91,31.5C 99.7488,30.0101 108.582,29.0101 117.5,28.5C 116.347,27.3132 116.347,26.3132 117.5,25.5C 122.484,27.3255 127.151,29.6589 131.5,32.5C 113.36,29.279 95.6932,31.6124 78.5,39.5C 76.5,39 74.5,38.5 72.5,38C 71.5494,37.2825 71.3828,36.4491 72,35.5C 78.255,34.2561 83.755,31.5894 88.5,27.5C 88.369,28.2389 88.5357,28.9056 89,29.5C 90.4321,27.5612 92.2654,26.2279 94.5,25.5 Z"/></g>
<g><path style="opacity:0.435" fill="#869479" d="M 169.5,26.5 C 168.527,28.1494 167.527,29.816 166.5,31.5C 165.596,32.209 165.263,33.209 165.5,34.5C 163.824,35.1834 163.157,36.5168 163.5,38.5C 160.311,32.1104 162.311,28.1104 169.5,26.5 Z"/></g>
<g><path style="opacity:1" fill="#37571d" d="M 189.5,24.5 C 190.552,24.3505 191.552,24.5172 192.5,25C 191.892,28.0782 190.226,30.2449 187.5,31.5C 182.979,32.9331 179.313,35.5998 176.5,39.5C 174.602,38.2655 172.935,38.5989 171.5,40.5C 171.167,39.8333 170.833,39.1667 170.5,38.5C 169.914,38.7093 169.414,39.0426 169,39.5C 169,38.1667 169,36.8333 169,35.5C 168.586,35.9574 168.086,36.2907 167.5,36.5C 166.818,35.7573 166.151,35.0906 165.5,34.5C 165.263,33.209 165.596,32.209 166.5,31.5C 166.435,31.9382 166.601,32.2716 167,32.5C 168.972,31.6948 170.472,30.3615 171.5,28.5C 173.988,27.9752 176.321,27.1419 178.5,26C 181.571,25.8534 184.404,25.0201 187,23.5C 187.671,24.2524 188.504,24.5858 189.5,24.5 Z"/></g>
<g><path style="opacity:1" fill="#68785d" d="M 150.5,26.5 C 150.389,27.1174 150.056,27.6174 149.5,28C 156.297,31.415 160.297,36.915 161.5,44.5C 156.199,43.3583 152.866,40.1916 151.5,35C 151.735,34.1268 152.069,33.2935 152.5,32.5C 150.205,31.8645 148.539,30.5311 147.5,28.5C 148.005,27.0815 149.005,26.4148 150.5,26.5 Z"/></g>
<g><path style="opacity:0.859" fill="#73836a" d="M 222.5,30.5 C 224.892,36.1458 226.225,42.1458 226.5,48.5C 225.857,46.9236 224.857,45.5903 223.5,44.5C 223.5,42.8333 223.5,41.1667 223.5,39.5C 223.296,36.4824 222.963,33.4824 222.5,30.5 Z"/></g>
<g><path style="opacity:1" fill="#49682f" d="M 187.5,31.5 C 187.5,31.8333 187.5,32.1667 187.5,32.5C 181.912,38.1155 175.579,42.4489 168.5,45.5C 166.847,45.6596 165.514,46.3263 164.5,47.5C 163.167,46.8333 162.167,45.8333 161.5,44.5C 163.074,42.8984 163.741,40.8984 163.5,38.5C 163.157,36.5168 163.824,35.1834 165.5,34.5C 166.151,35.0906 166.818,35.7573 167.5,36.5C 168.086,36.2907 168.586,35.9574 169,35.5C 169,36.8333 169,38.1667 169,39.5C 169.414,39.0426 169.914,38.7093 170.5,38.5C 170.833,39.1667 171.167,39.8333 171.5,40.5C 172.935,38.5989 174.602,38.2655 176.5,39.5C 179.313,35.5998 182.979,32.9331 187.5,31.5 Z"/></g>
<g><path style="opacity:1" fill="#365122" d="M 150.5,26.5 C 149.005,26.4148 148.005,27.0815 147.5,28.5C 148.539,30.5311 150.205,31.8645 152.5,32.5C 152.069,33.2935 151.735,34.1268 151.5,35C 152.866,40.1916 156.199,43.3583 161.5,44.5C 162.167,45.8333 163.167,46.8333 164.5,47.5C 165.167,47.5 165.5,47.8333 165.5,48.5C 165.856,53.0433 168.189,55.8766 172.5,57C 169.691,58.6585 166.691,59.8251 163.5,60.5C 163.001,59.2437 161.668,58.4104 159.5,58C 159.833,57.6667 160.167,57.3333 160.5,57C 159.167,56.6667 157.833,56.3333 156.5,56C 159.273,54.5182 161.94,52.8515 164.5,51C 163.5,50.6667 162.5,50.3333 161.5,50C 162.833,49.3333 162.833,48.6667 161.5,48C 157.915,47.2531 154.748,48.0865 152,50.5C 151.439,49.9781 150.772,49.6448 150,49.5C 148.594,50.4138 147.094,51.0805 145.5,51.5C 144.058,50.1805 143.392,48.5138 143.5,46.5C 142.022,46.762 140.689,46.4287 139.5,45.5C 144.832,42.7664 145.666,38.7664 142,33.5C 140.915,32.7069 139.748,32.0402 138.5,31.5C 136.674,35.5552 134.674,39.8886 132.5,44.5C 132.631,43.6236 132.298,42.9569 131.5,42.5C 129.941,43.0736 128.441,43.7402 127,44.5C 126.833,44.1667 126.667,43.8333 126.5,43.5C 128.153,41.8786 130.153,40.7119 132.5,40C 132.167,39.6667 131.833,39.3333 131.5,39C 134.606,35.6144 135.606,31.7811 134.5,27.5C 136.785,28.5463 139.118,28.5463 141.5,27.5C 144.588,27.6227 147.255,26.6227 149.5,24.5C 150.298,24.9569 150.631,25.6236 150.5,26.5 Z"/></g>
<g><path style="opacity:1" fill="#405e2e" d="M 165.5,48.5 C 169.558,52.0529 173.558,55.8862 177.5,60C 179.734,61.7498 182.068,63.2498 184.5,64.5C 185.219,66.695 184.219,68.195 181.5,69C 178.173,69.6103 174.839,70.1103 171.5,70.5C 171.586,69.5041 171.252,68.6708 170.5,68C 163.987,66.9542 157.654,65.4542 151.5,63.5C 150.261,63.9424 149.261,64.6091 148.5,65.5C 148.461,62.6786 147.795,60.0119 146.5,57.5C 144.4,60.1289 142.4,60.1289 140.5,57.5C 142.219,55.4559 143.886,53.4559 145.5,51.5C 147.094,51.0805 148.594,50.4138 150,49.5C 150.772,49.6448 151.439,49.9781 152,50.5C 154.748,48.0865 157.915,47.2531 161.5,48C 162.833,48.6667 162.833,49.3333 161.5,50C 162.5,50.3333 163.5,50.6667 164.5,51C 161.94,52.8515 159.273,54.5182 156.5,56C 157.833,56.3333 159.167,56.6667 160.5,57C 160.167,57.3333 159.833,57.6667 159.5,58C 161.668,58.4104 163.001,59.2437 163.5,60.5C 166.691,59.8251 169.691,58.6585 172.5,57C 168.189,55.8766 165.856,53.0433 165.5,48.5 Z"/></g>
<g><path style="opacity:1" fill="#628042" d="M 168.5,45.5 C 167.402,46.397 167.402,47.2303 168.5,48C 172.157,47.8922 175.823,47.8922 179.5,48C 176.576,48.9876 173.576,49.6543 170.5,50C 172.734,53.2486 175.734,55.2486 179.5,56C 178.833,56.3333 178.167,56.6667 177.5,57C 180.062,59.733 182.729,62.233 185.5,64.5C 185.167,64.5 184.833,64.5 184.5,64.5C 182.068,63.2498 179.734,61.7498 177.5,60C 173.558,55.8862 169.558,52.0529 165.5,48.5C 165.5,47.8333 165.167,47.5 164.5,47.5C 165.514,46.3263 166.847,45.6596 168.5,45.5 Z"/></g>
<g><path style="opacity:1" fill="#3b5927" d="M 187.5,32.5 C 188.091,33.1515 188.757,33.8182 189.5,34.5C 187.55,35.7315 186.717,37.3981 187,39.5C 190.4,35.8504 193.067,35.8504 195,39.5C 196.066,37.9005 197.566,36.9005 199.5,36.5C 200.547,37.9223 200.547,39.4223 199.5,41C 201.706,42.2502 203.039,44.0835 203.5,46.5C 208.308,46.7808 212.974,46.1141 217.5,44.5C 218.167,44.6667 218.833,44.8333 219.5,45C 218.304,45.6543 218.304,46.1543 219.5,46.5C 221.026,46.0057 222.359,45.339 223.5,44.5C 224.857,45.5903 225.857,46.9236 226.5,48.5C 225.199,50.6719 224.199,53.0052 223.5,55.5C 219.286,56.4138 215.953,57.7471 213.5,59.5C 206.675,61.846 200.175,64.846 194,68.5C 192.743,68.1501 192.409,67.4835 193,66.5C 198.77,64.0022 198.77,61.6688 193,59.5C 191.989,59.8919 191.489,60.5585 191.5,61.5C 189.064,60.1091 188.398,60.6091 189.5,63C 188.874,63.7504 188.374,64.5838 188,65.5C 187.329,64.7476 186.496,64.4142 185.5,64.5C 182.729,62.233 180.062,59.733 177.5,57C 178.167,56.6667 178.833,56.3333 179.5,56C 175.734,55.2486 172.734,53.2486 170.5,50C 173.576,49.6543 176.576,48.9876 179.5,48C 175.823,47.8922 172.157,47.8922 168.5,48C 167.402,47.2303 167.402,46.397 168.5,45.5C 175.579,42.4489 181.912,38.1155 187.5,32.5 Z"/></g>
<g><path style="opacity:1" fill="#38591e" d="M 145.5,51.5 C 143.886,53.4559 142.219,55.4559 140.5,57.5C 142.4,60.1289 144.4,60.1289 146.5,57.5C 147.795,60.0119 148.461,62.6786 148.5,65.5C 148.611,66.1174 148.944,66.6174 149.5,67C 148.244,67.4169 147.577,68.2502 147.5,69.5C 145.901,69.7678 144.568,69.4345 143.5,68.5C 141.857,65.3833 139.191,63.55 135.5,63C 133.99,60.2452 131.657,59.0785 128.5,59.5C 123.64,52.8788 124.974,47.8788 132.5,44.5C 134.674,39.8886 136.674,35.5552 138.5,31.5C 139.748,32.0402 140.915,32.7069 142,33.5C 145.666,38.7664 144.832,42.7664 139.5,45.5C 140.689,46.4287 142.022,46.762 143.5,46.5C 143.392,48.5138 144.058,50.1805 145.5,51.5 Z"/></g>
<g><path style="opacity:0.902" fill="#85947b" d="M 226.5,48.5 C 227.709,50.4346 227.542,52.4346 226,54.5C 221.077,56.9331 216.577,59.9331 212.5,63.5C 213.234,62.2921 213.567,60.9587 213.5,59.5C 215.953,57.7471 219.286,56.4138 223.5,55.5C 224.199,53.0052 225.199,50.6719 226.5,48.5 Z"/></g>
<g><path style="opacity:1" fill="#4c603a" d="M 128.5,59.5 C 131.657,59.0785 133.99,60.2452 135.5,63C 139.191,63.55 141.857,65.3833 143.5,68.5C 142.167,68.5 140.833,68.5 139.5,68.5C 137.847,68.3404 136.514,67.6737 135.5,66.5C 135.027,65.0937 134.027,64.427 132.5,64.5C 132.027,63.0937 131.027,62.427 129.5,62.5C 128.833,62.5 128.5,62.1667 128.5,61.5C 128.5,60.8333 128.5,60.1667 128.5,59.5 Z"/></g>
<g><path style="opacity:0.145" fill="#dde3d7" d="M 129.5,62.5 C 131.027,62.427 132.027,63.0937 132.5,64.5C 130.973,64.573 129.973,63.9063 129.5,62.5 Z"/></g>
<g><path style="opacity:0.275" fill="#b8c5ab" d="M 132.5,64.5 C 134.027,64.427 135.027,65.0937 135.5,66.5C 133.973,66.573 132.973,65.9063 132.5,64.5 Z"/></g>
<g><path style="opacity:1" fill="#50743d" d="M 171.5,70.5 C 168.721,70.2786 166.054,70.612 163.5,71.5C 158.807,71.4599 154.141,71.1266 149.5,70.5C 149.167,70.5 148.833,70.5 148.5,70.5C 148.5,69.8333 148.167,69.5 147.5,69.5C 147.577,68.2502 148.244,67.4169 149.5,67C 148.944,66.6174 148.611,66.1174 148.5,65.5C 149.261,64.6091 150.261,63.9424 151.5,63.5C 157.654,65.4542 163.987,66.9542 170.5,68C 171.252,68.6708 171.586,69.5041 171.5,70.5 Z"/></g>
<g><path style="opacity:1" fill="#526a3f" d="M 213.5,59.5 C 213.567,60.9587 213.234,62.2921 212.5,63.5C 208.789,66.6361 204.455,68.6361 199.5,69.5C 197.952,69.8212 197.285,70.8212 197.5,72.5C 196.5,72.5 195.5,72.5 194.5,72.5C 193.666,71.2521 192.333,70.5854 190.5,70.5C 186.95,70.7539 183.617,71.4206 180.5,72.5C 174.642,72.8222 168.975,72.4889 163.5,71.5C 166.054,70.612 168.721,70.2786 171.5,70.5C 174.839,70.1103 178.173,69.6103 181.5,69C 184.219,68.195 185.219,66.695 184.5,64.5C 184.833,64.5 185.167,64.5 185.5,64.5C 186.496,64.4142 187.329,64.7476 188,65.5C 188.374,64.5838 188.874,63.7504 189.5,63C 188.398,60.6091 189.064,60.1091 191.5,61.5C 191.489,60.5585 191.989,59.8919 193,59.5C 198.77,61.6688 198.77,64.0022 193,66.5C 192.409,67.4835 192.743,68.1501 194,68.5C 200.175,64.846 206.675,61.846 213.5,59.5 Z"/></g>
<g><path style="opacity:0.714" fill="#9daa81" d="M 139.5,68.5 C 140.833,68.5 142.167,68.5 143.5,68.5C 144.568,69.4345 145.901,69.7678 147.5,69.5C 148.167,69.5 148.5,69.8333 148.5,70.5C 148.046,72.2589 148.046,74.2589 148.5,76.5C 147.25,76.4226 146.417,75.756 146,74.5C 145.517,75.448 145.351,76.448 145.5,77.5C 144.224,75.4375 143.39,73.1042 143,70.5C 141.698,69.9152 140.531,69.2485 139.5,68.5 Z"/></g>
<g><path style="opacity:0.978" fill="#9baa92" d="M 105.5,73.5 C 105.189,74.4778 104.522,75.1445 103.5,75.5C 102.571,74.3112 102.238,72.9778 102.5,71.5C 91.8131,71.8655 81.1464,72.5322 70.5,73.5C 76.4156,70.0677 82.9156,68.7344 90,69.5C 93.8333,69.6667 97.6667,69.8333 101.5,70C 102.736,71.3875 104.069,72.5542 105.5,73.5 Z"/></g>
<g><path style="opacity:0.973" fill="#96a186" d="M 149.5,70.5 C 154.141,71.1266 158.807,71.4599 163.5,71.5C 168.975,72.4889 174.642,72.8222 180.5,72.5C 174.021,73.4907 167.354,73.824 160.5,73.5C 160.5,74.5 160.5,75.5 160.5,76.5C 159.732,75.7375 159.232,74.7375 159,73.5C 158.5,80.4921 158.334,87.4921 158.5,94.5C 157.689,87.3218 157.022,79.9885 156.5,72.5C 153.933,72.2785 151.599,71.6118 149.5,70.5 Z"/></g>
<g><path style="opacity:0.035" fill="#c2d2b7" d="M 194.5,72.5 C 189.93,71.9759 185.263,71.9759 180.5,72.5C 183.617,71.4206 186.95,70.7539 190.5,70.5C 192.333,70.5854 193.666,71.2521 194.5,72.5 Z"/></g>
<g><path style="opacity:0.263" fill="#bac1b2" d="M 199.5,69.5 C 198.968,71.6301 198.135,73.6301 197,75.5C 195.955,74.6266 195.122,73.6266 194.5,72.5C 195.5,72.5 196.5,72.5 197.5,72.5C 197.285,70.8212 197.952,69.8212 199.5,69.5 Z"/></g>
<g><path style="opacity:0.925" fill="#85947e" d="M 70.5,73.5 C 65.9076,77.7061 60.241,81.3728 53.5,84.5C 56.9283,77.6056 62.595,73.939 70.5,73.5 Z"/></g>
<g><path style="opacity:1" fill="#547340" d="M 121.5,71.5 C 122.842,72.793 124.509,73.6264 126.5,74C 127.719,76.2826 127.719,78.616 126.5,81C 124.874,83.9589 122.874,86.4589 120.5,88.5C 120.968,85.4541 121.968,82.6208 123.5,80C 121.914,77.819 119.914,76.1523 117.5,75C 118.167,74.6667 118.833,74.3333 119.5,74C 116.425,73.861 113.425,74.361 110.5,75.5C 110.5,76.5 110.5,77.5 110.5,78.5C 113.187,78.3359 115.854,78.5026 118.5,79C 111.842,82.0811 104.842,83.7478 97.5,84C 99.7173,85.2754 102.051,86.2754 104.5,87C 103.146,88.2937 101.812,88.4604 100.5,87.5C 99.8076,88.0253 99.3076,88.6919 99,89.5C 97.1862,88.2404 95.3529,88.2404 93.5,89.5C 96.5229,90.5229 98.5229,92.5229 99.5,95.5C 98.8113,97.3527 97.478,98.5193 95.5,99C 97.2182,99.346 98.8849,99.846 100.5,100.5C 101.421,98.244 103.088,97.244 105.5,97.5C 105.325,94.6711 106.658,93.0045 109.5,92.5C 109.291,91.914 108.957,91.414 108.5,91C 110.889,91.1099 113.222,91.2766 115.5,91.5C 115.5,92.5 115.5,93.5 115.5,94.5C 112.604,95.398 110.271,97.0647 108.5,99.5C 108.167,99.5 107.833,99.5 107.5,99.5C 99.0459,103.015 90.3793,106.015 81.5,108.5C 81.5,107.5 81.5,106.5 81.5,105.5C 84.4284,105.148 87.2617,104.482 90,103.5C 90.346,101.782 90.846,100.115 91.5,98.5C 89.2951,96.4745 86.7951,94.8078 84,93.5C 82.0858,94.676 82.2524,95.676 84.5,96.5C 82.8125,97.568 81.1459,97.4014 79.5,96C 82.9155,91.4769 86.9155,87.6436 91.5,84.5C 94.4675,82.5029 97.4675,80.5029 100.5,78.5C 102.432,79.5202 104.432,79.6869 106.5,79C 110.045,73.8939 115.045,71.3939 121.5,71.5 Z"/></g>
<g><path style="opacity:0.114" fill="#c4c8aa" d="M 145.5,78.5 C 147.04,80.8383 147.706,83.5049 147.5,86.5C 146.232,84.0948 145.565,81.4282 145.5,78.5 Z"/></g>
<g><path style="opacity:0.337" fill="#b0b69d" d="M 148.5,76.5 C 149.768,78.9052 150.435,81.5718 150.5,84.5C 148.96,82.1617 148.294,79.4951 148.5,76.5 Z"/></g>
<g><path style="opacity:0.871" fill="#5b6142" d="M 148.5,76.5 C 148.294,79.4951 148.96,82.1617 150.5,84.5C 150.5,84.8333 150.5,85.1667 150.5,85.5C 150.663,87.8568 150.497,90.1902 150,92.5C 149.722,91.5842 149.222,90.9175 148.5,90.5C 147.566,89.4324 147.232,88.099 147.5,86.5C 147.706,83.5049 147.04,80.8383 145.5,78.5C 145.5,78.1667 145.5,77.8333 145.5,77.5C 145.351,76.448 145.517,75.448 146,74.5C 146.417,75.756 147.25,76.4226 148.5,76.5 Z"/></g>
<g><path style="opacity:1" fill="#496637" d="M 121.5,71.5 C 115.045,71.3939 110.045,73.8939 106.5,79C 104.432,79.6869 102.432,79.5202 100.5,78.5C 97.4675,80.5029 94.4675,82.5029 91.5,84.5C 86.4837,85.513 82.1504,85.513 78.5,84.5C 76.1667,83.1667 73.8333,83.1667 71.5,84.5C 69.901,84.2322 68.5676,84.5655 67.5,85.5C 66.209,85.2627 65.209,85.596 64.5,86.5C 64.1667,86.5 63.8333,86.5 63.5,86.5C 60.4021,86.7556 57.4021,87.4222 54.5,88.5C 54.1667,87.1667 53.8333,85.8333 53.5,84.5C 60.241,81.3728 65.9076,77.7061 70.5,73.5C 81.1464,72.5322 91.8131,71.8655 102.5,71.5C 102.238,72.9778 102.571,74.3112 103.5,75.5C 104.522,75.1445 105.189,74.4778 105.5,73.5C 105.833,73.5 106.167,73.5 106.5,73.5C 110.242,72.1981 114.075,71.1981 118,70.5C 119.385,70.5143 120.551,70.8476 121.5,71.5 Z"/></g>
<g><path style="opacity:0.09" fill="#b9cfa4" d="M 71.5,84.5 C 73.8333,83.1667 76.1667,83.1667 78.5,84.5C 76.7839,84.6287 75.1172,84.962 73.5,85.5C 73.1583,84.6618 72.4916,84.3284 71.5,84.5 Z"/></g>
<g><path style="opacity:1" fill="#546a45" d="M 78.5,84.5 C 79.6782,85.9986 81.3449,86.9986 83.5,87.5C 80.8332,88.6345 78.1666,89.6345 75.5,90.5C 75.7135,92.1439 75.3802,93.6439 74.5,95C 71.6492,96.2886 68.6492,96.7886 65.5,96.5C 65.5,96.1667 65.5,95.8333 65.5,95.5C 69.1946,95.5077 72.1946,94.1744 74.5,91.5C 74.3764,90.8933 74.0431,90.56 73.5,90.5C 71.7162,90.8925 70.0495,91.5592 68.5,92.5C 64.5843,91.9609 61.5843,93.2942 59.5,96.5C 57.2895,97.1228 55.2895,98.1228 53.5,99.5C 52.0652,100.913 51.0652,102.58 50.5,104.5C 49.6618,104.158 49.3284,103.492 49.5,102.5C 49.3398,100.801 49.5065,99.1341 50,97.5C 51.7073,95.9625 53.2073,94.2959 54.5,92.5C 55.6935,91.7281 56.6935,90.7281 57.5,89.5C 58.1667,89.5 58.8333,89.5 59.5,89.5C 60.4916,89.6716 61.1583,89.3382 61.5,88.5C 61.8333,88.5 62.1667,88.5 62.5,88.5C 63.791,88.7373 64.791,88.404 65.5,87.5C 68.0821,87.9746 70.0821,87.3079 71.5,85.5C 72.1667,85.5 72.8333,85.5 73.5,85.5C 75.1172,84.962 76.7839,84.6287 78.5,84.5 Z M 73.5,90.5 C 72.1767,92.6824 70.5101,93.3491 68.5,92.5C 70.0495,91.5592 71.7162,90.8925 73.5,90.5 Z"/></g>
<g><path style="opacity:0.745" fill="#95aa8b" d="M 71.5,84.5 C 71.5,84.8333 71.5,85.1667 71.5,85.5C 70.0821,87.3079 68.0821,87.9746 65.5,87.5C 65.5,86.8333 65.1667,86.5 64.5,86.5C 65.209,85.596 66.209,85.2627 67.5,85.5C 68.5676,84.5655 69.901,84.2322 71.5,84.5 Z"/></g>
<g><path style="opacity:1" fill="#40612a" d="M 120.5,88.5 C 119.078,89.925 117.411,90.925 115.5,91.5C 113.222,91.2766 110.889,91.1099 108.5,91C 108.957,91.414 109.291,91.914 109.5,92.5C 106.658,93.0045 105.325,94.6711 105.5,97.5C 103.088,97.244 101.421,98.244 100.5,100.5C 98.8849,99.846 97.2182,99.346 95.5,99C 97.478,98.5193 98.8113,97.3527 99.5,95.5C 98.5229,92.5229 96.5229,90.5229 93.5,89.5C 95.3529,88.2404 97.1862,88.2404 99,89.5C 99.3076,88.6919 99.8076,88.0253 100.5,87.5C 101.812,88.4604 103.146,88.2937 104.5,87C 102.051,86.2754 99.7173,85.2754 97.5,84C 104.842,83.7478 111.842,82.0811 118.5,79C 115.854,78.5026 113.187,78.3359 110.5,78.5C 110.5,77.5 110.5,76.5 110.5,75.5C 113.425,74.361 116.425,73.861 119.5,74C 118.833,74.3333 118.167,74.6667 117.5,75C 119.914,76.1523 121.914,77.819 123.5,80C 121.968,82.6208 120.968,85.4541 120.5,88.5 Z"/></g>
<g><path style="opacity:0.051" fill="#b3c5a4" d="M 63.5,86.5 C 63.8417,87.3382 64.5084,87.6716 65.5,87.5C 64.791,88.404 63.791,88.7373 62.5,88.5C 61.1507,87.3559 60.8174,87.3559 61.5,88.5C 61.1583,89.3382 60.4916,89.6716 59.5,89.5C 58.8333,88.1667 58.1667,88.1667 57.5,89.5C 56.5,89.5 55.5,89.5 54.5,89.5C 54.5,89.1667 54.5,88.8333 54.5,88.5C 57.4021,87.4222 60.4021,86.7556 63.5,86.5 Z"/></g>
<g><path style="opacity:0.286" fill="#a6af9f" d="M 201.5,86.5 C 200.167,87.1667 198.833,87.8333 197.5,88.5C 195.784,88.6287 194.117,88.962 192.5,89.5C 194.919,87.1376 197.919,86.1376 201.5,86.5 Z"/></g>
<g><path style="opacity:0.989" fill="#515f42" d="M 223.5,91.5 C 223.5,91.8333 223.5,92.1667 223.5,92.5C 216.958,90.4326 210.292,88.7659 203.5,87.5C 201.591,88.3482 199.591,88.6816 197.5,88.5C 198.833,87.8333 200.167,87.1667 201.5,86.5C 207.494,85.0889 213.494,85.5889 219.5,88C 221.324,88.66 222.657,89.8267 223.5,91.5 Z"/></g>
<g><path style="opacity:0.584" fill="#8a9a7c" d="M 115.5,94.5 C 115.5,93.5 115.5,92.5 115.5,91.5C 117.411,90.925 119.078,89.925 120.5,88.5C 122.874,86.4589 124.874,83.9589 126.5,81C 127.719,78.616 127.719,76.2826 126.5,74C 124.509,73.6264 122.842,72.793 121.5,71.5C 120.551,70.8476 119.385,70.5143 118,70.5C 114.075,71.1981 110.242,72.1981 106.5,73.5C 112.258,69.3575 118.591,68.5241 125.5,71C 129.428,74.5471 130.262,78.7138 128,83.5C 124.508,87.9862 120.341,91.6529 115.5,94.5 Z"/></g>
<g><path style="opacity:0.616" fill="#515643" d="M 160.5,76.5 C 161.434,84.111 161.767,91.7777 161.5,99.5C 161.5,101.833 161.5,104.167 161.5,106.5C 161.353,111.214 161.686,115.881 162.5,120.5C 161.833,120.167 161.167,119.833 160.5,119.5C 160.795,117.265 160.461,115.265 159.5,113.5C 158.582,107.225 158.249,100.892 158.5,94.5C 158.334,87.4921 158.5,80.4921 159,73.5C 159.232,74.7375 159.732,75.7375 160.5,76.5 Z"/></g>
<g><path style="opacity:0.263" fill="#9fa897" d="M 192.5,89.5 C 191.167,91.5 189.5,93.1667 187.5,94.5C 188.167,91.8333 189.833,90.1667 192.5,89.5 Z"/></g>
<g><path style="opacity:0.518" fill="#84897d" d="M 53.5,84.5 C 53.8333,85.8333 54.1667,87.1667 54.5,88.5C 54.5,88.8333 54.5,89.1667 54.5,89.5C 52.6329,90.7598 51.2995,92.4265 50.5,94.5C 49.8333,95.1667 49.1667,95.8333 48.5,96.5C 47.9985,91.5129 49.6652,87.5129 53.5,84.5 Z"/></g>
<g><path style="opacity:0.553" fill="#8ca07f" d="M 73.5,90.5 C 74.0431,90.56 74.3764,90.8933 74.5,91.5C 72.1946,94.1744 69.1946,95.5077 65.5,95.5C 65.5,95.8333 65.5,96.1667 65.5,96.5C 65.1583,97.3382 64.4916,97.6716 63.5,97.5C 62.8333,97.8333 62.1667,98.1667 61.5,98.5C 61.5,97.1667 60.8333,96.5 59.5,96.5C 61.5843,93.2942 64.5843,91.9609 68.5,92.5C 70.5101,93.3491 72.1767,92.6824 73.5,90.5 Z"/></g>
<g><path style="opacity:0.79" fill="#8a8f77" d="M 150.5,85.5 C 152.102,89.2393 153.102,93.2393 153.5,97.5C 151.349,93.7194 150.349,94.3861 150.5,99.5C 149.087,96.7814 148.42,93.7814 148.5,90.5C 149.222,90.9175 149.722,91.5842 150,92.5C 150.497,90.1902 150.663,87.8568 150.5,85.5 Z"/></g>
<g><path style="opacity:0.055" fill="#d0dbc9" d="M 54.5,92.5 C 53.2073,94.2959 51.7073,95.9625 50,97.5C 49.5065,99.1341 49.3398,100.801 49.5,102.5C 48.5386,100.735 48.2053,98.7354 48.5,96.5C 49.1667,95.8333 49.8333,95.1667 50.5,94.5C 51.6049,93.3995 52.9382,92.7329 54.5,92.5 Z"/></g>
<g><path style="opacity:0.635" fill="#adb1a4" d="M 115.5,94.5 C 114.859,95.4822 114.193,96.4822 113.5,97.5C 116.287,100.741 118.287,104.407 119.5,108.5C 117.797,107.34 117.131,108.007 117.5,110.5C 116.094,110.027 115.427,109.027 115.5,107.5C 116.289,107.217 116.956,106.717 117.5,106C 116,103.833 114.5,101.667 113,99.5C 112.805,100.819 112.972,102.153 113.5,103.5C 112.24,101.633 110.573,100.3 108.5,99.5C 110.271,97.0647 112.604,95.398 115.5,94.5 Z"/></g>
<g><path style="opacity:0.678" fill="#8d9e85" d="M 223.5,92.5 C 223.5,92.1667 223.5,91.8333 223.5,91.5C 225.888,92.2187 227.388,93.8854 228,96.5C 228.81,100.358 228.643,104.024 227.5,107.5C 227.806,104.615 227.473,101.948 226.5,99.5C 226.25,97.0586 225.25,95.0586 223.5,93.5C 224.833,93.1667 224.833,92.8333 223.5,92.5 Z"/></g>
<g><path style="opacity:1" fill="#233e0b" d="M 223.5,92.5 C 224.833,92.8333 224.833,93.1667 223.5,93.5C 221.14,94.865 219.473,96.865 218.5,99.5C 217.596,100.209 217.263,101.209 217.5,102.5C 216.5,102.5 215.5,102.5 214.5,102.5C 214.5,103.5 214.5,104.5 214.5,105.5C 211.933,105.721 209.599,106.388 207.5,107.5C 203.14,107.658 199.306,106.324 196,103.5C 194.719,104.647 194.386,104.313 195,102.5C 195.995,101.934 196.828,101.267 197.5,100.5C 202.18,98.4364 206.846,96.2697 211.5,94C 205.701,93.6264 200.701,95.4597 196.5,99.5C 194.246,100.415 192.246,101.748 190.5,103.5C 188.506,100.85 187.506,97.8502 187.5,94.5C 189.5,93.1667 191.167,91.5 192.5,89.5C 194.117,88.962 195.784,88.6287 197.5,88.5C 199.591,88.6816 201.591,88.3482 203.5,87.5C 210.292,88.7659 216.958,90.4326 223.5,92.5 Z"/></g>
<g><path style="opacity:1" fill="#4a6633" d="M 197.5,100.5 C 196.833,100.5 196.5,100.167 196.5,99.5C 200.701,95.4597 205.701,93.6264 211.5,94C 206.846,96.2697 202.18,98.4364 197.5,100.5 Z"/></g>
<g><path style="opacity:1" fill="#6d8f5a" d="M 223.5,93.5 C 225.25,95.0586 226.25,97.0586 226.5,99.5C 223.951,99.3874 221.618,100.054 219.5,101.5C 218.702,101.043 218.369,100.376 218.5,99.5C 219.473,96.865 221.14,94.865 223.5,93.5 Z"/></g>
<g><path style="opacity:1" fill="#96a591" d="M 181.5,98.5 C 179.076,98.1924 176.743,98.5258 174.5,99.5C 176.991,100.541 176.991,101.374 174.5,102C 177.652,101.614 180.652,101.448 183.5,101.5C 184.222,102.551 185.222,103.218 186.5,103.5C 185.89,104.391 185.557,105.391 185.5,106.5C 182.344,107.871 179.344,107.538 176.5,105.5C 172.971,102.657 168.971,100.657 164.5,99.5C 167.526,97.9814 170.859,97.3148 174.5,97.5C 177.025,97.5034 179.359,97.8367 181.5,98.5 Z"/></g>
<g><path style="opacity:1" fill="#416229" d="M 91.5,84.5 C 86.9155,87.6436 82.9155,91.4769 79.5,96C 81.1459,97.4014 82.8125,97.568 84.5,96.5C 82.2524,95.676 82.0858,94.676 84,93.5C 86.7951,94.8078 89.2951,96.4745 91.5,98.5C 90.846,100.115 90.346,101.782 90,103.5C 87.2617,104.482 84.4284,105.148 81.5,105.5C 81.5,106.5 81.5,107.5 81.5,108.5C 77.2737,110.355 72.9404,112.021 68.5,113.5C 66.6208,112.659 64.6208,112.325 62.5,112.5C 58.3857,108.88 58.5523,105.546 63,102.5C 63.4935,100.866 63.6602,99.1992 63.5,97.5C 64.4916,97.6716 65.1583,97.3382 65.5,96.5C 68.6492,96.7886 71.6492,96.2886 74.5,95C 75.3802,93.6439 75.7135,92.1439 75.5,90.5C 78.1666,89.6345 80.8332,88.6345 83.5,87.5C 81.3449,86.9986 79.6782,85.9986 78.5,84.5C 82.1504,85.513 86.4837,85.513 91.5,84.5 Z"/></g>
<g><path style="opacity:1" fill="#64705f" d="M 181.5,98.5 C 182.492,98.3284 183.158,98.6618 183.5,99.5C 183.5,100.167 183.5,100.833 183.5,101.5C 180.652,101.448 177.652,101.614 174.5,102C 176.991,101.374 176.991,100.541 174.5,99.5C 176.743,98.5258 179.076,98.1924 181.5,98.5 Z"/></g>
<g><path style="opacity:0.157" fill="#d1dfc7" d="M 186.5,98.5 C 186.5,100.167 186.5,101.833 186.5,103.5C 185.222,103.218 184.222,102.551 183.5,101.5C 183.5,100.833 183.5,100.167 183.5,99.5C 184.117,99.6107 184.617,99.944 185,100.5C 185.278,99.5842 185.778,98.9175 186.5,98.5 Z"/></g>
<g><path style="opacity:0.047" fill="#c2c4bb" d="M 53.5,99.5 C 53.1433,101.589 52.4767,103.589 51.5,105.5C 50.8933,105.376 50.56,105.043 50.5,104.5C 51.0652,102.58 52.0652,100.913 53.5,99.5 Z"/></g>
<g><path style="opacity:0.78" fill="#72746a" d="M 115.5,107.5 C 114.326,106.486 113.66,105.153 113.5,103.5C 112.972,102.153 112.805,100.819 113,99.5C 114.5,101.667 116,103.833 117.5,106C 116.956,106.717 116.289,107.217 115.5,107.5 Z"/></g>
<g><path style="opacity:0.404" fill="#979e7e" d="M 153.5,98.5 C 154.924,100.515 155.59,102.848 155.5,105.5C 154.076,103.485 153.41,101.152 153.5,98.5 Z"/></g>
<g><path style="opacity:0.788" fill="#a1ae8e" d="M 161.5,99.5 C 162.5,99.5 163.5,99.5 164.5,99.5C 163.972,100.721 163.305,101.887 162.5,103C 163.665,104.992 164.998,106.825 166.5,108.5C 165.391,108.443 164.391,108.11 163.5,107.5C 163.5,106.833 163.167,106.5 162.5,106.5C 162.167,106.5 161.833,106.5 161.5,106.5C 161.5,104.167 161.5,101.833 161.5,99.5 Z"/></g>
<g><path style="opacity:0.851" fill="#9aae8f" d="M 107.5,99.5 C 96.0456,108.212 83.0456,113.212 68.5,114.5C 68.5,114.167 68.5,113.833 68.5,113.5C 72.9404,112.021 77.2737,110.355 81.5,108.5C 90.3793,106.015 99.0459,103.015 107.5,99.5 Z"/></g>
<g><path style="opacity:1" fill="#4c6b32" d="M 164.5,99.5 C 168.971,100.657 172.971,102.657 176.5,105.5C 176.703,107.638 177.703,109.305 179.5,110.5C 176.23,111.192 172.897,111.192 169.5,110.5C 167.973,110.573 166.973,109.906 166.5,108.5C 164.998,106.825 163.665,104.992 162.5,103C 163.305,101.887 163.972,100.721 164.5,99.5 Z"/></g>
<g><path style="opacity:1" fill="#718760" d="M 176.5,105.5 C 179.344,107.538 182.344,107.871 185.5,106.5C 186.486,108.408 188.152,109.408 190.5,109.5C 191.614,110.885 192.614,112.385 193.5,114C 199.495,114.899 205.495,115.733 211.5,116.5C 216.407,112.913 221.74,110.247 227.5,108.5C 224.293,112.377 220.293,115.044 215.5,116.5C 214.691,118.013 214.524,119.68 215,121.5C 214.184,120.177 213.017,119.511 211.5,119.5C 210.653,118.034 209.32,117.2 207.5,117C 200.491,116.624 193.491,116.124 186.5,115.5C 184.631,115.507 182.964,115.84 181.5,116.5C 180.5,115.167 179.5,115.167 178.5,116.5C 178.586,115.504 178.252,114.671 177.5,114C 174.691,112.907 172.024,111.74 169.5,110.5C 172.897,111.192 176.23,111.192 179.5,110.5C 177.703,109.305 176.703,107.638 176.5,105.5 Z"/></g>
<g><path style="opacity:1" fill="#354d1f" d="M 187.5,94.5 C 187.506,97.8502 188.506,100.85 190.5,103.5C 192.246,101.748 194.246,100.415 196.5,99.5C 196.5,100.167 196.833,100.5 197.5,100.5C 196.828,101.267 195.995,101.934 195,102.5C 194.386,104.313 194.719,104.647 196,103.5C 199.306,106.324 203.14,107.658 207.5,107.5C 207.082,108.222 206.416,108.722 205.5,109C 206.167,109.333 206.833,109.667 207.5,110C 204.779,111.931 202.279,111.764 200,109.5C 198.765,110.615 197.598,110.615 196.5,109.5C 195.833,110.167 195.167,110.833 194.5,111.5C 193.378,110.37 192.044,109.703 190.5,109.5C 188.152,109.408 186.486,108.408 185.5,106.5C 185.557,105.391 185.89,104.391 186.5,103.5C 186.5,101.833 186.5,100.167 186.5,98.5C 186.232,96.901 186.566,95.5676 187.5,94.5 Z"/></g>
<g><path style="opacity:1" fill="#3f6025" d="M 218.5,99.5 C 218.369,100.376 218.702,101.043 219.5,101.5C 221.618,100.054 223.951,99.3874 226.5,99.5C 227.473,101.948 227.806,104.615 227.5,107.5C 227.5,107.833 227.5,108.167 227.5,108.5C 221.74,110.247 216.407,112.913 211.5,116.5C 205.495,115.733 199.495,114.899 193.5,114C 192.614,112.385 191.614,110.885 190.5,109.5C 192.044,109.703 193.378,110.37 194.5,111.5C 195.167,110.833 195.833,110.167 196.5,109.5C 197.598,110.615 198.765,110.615 200,109.5C 202.279,111.764 204.779,111.931 207.5,110C 206.833,109.667 206.167,109.333 205.5,109C 206.416,108.722 207.082,108.222 207.5,107.5C 209.599,106.388 211.933,105.721 214.5,105.5C 214.5,104.5 214.5,103.5 214.5,102.5C 215.5,102.5 216.5,102.5 217.5,102.5C 217.263,101.209 217.596,100.209 218.5,99.5 Z"/></g>
<g><path style="opacity:0.106" fill="#a8ac9e" d="M 58.5,103.5 C 57.5254,105.795 56.1921,107.795 54.5,109.5C 53.9033,109.265 53.5699,108.765 53.5,108C 55.0167,106.316 56.6834,104.816 58.5,103.5 Z"/></g>
<g><path style="opacity:0.983" fill="#526641" d="M 63.5,97.5 C 63.6602,99.1992 63.4935,100.866 63,102.5C 58.5523,105.546 58.3857,108.88 62.5,112.5C 60.7839,112.371 59.1172,112.038 57.5,111.5C 56.2905,111.068 55.2905,110.401 54.5,109.5C 56.1921,107.795 57.5254,105.795 58.5,103.5C 58.7497,101.326 59.7497,99.6594 61.5,98.5C 62.1667,98.1667 62.8333,97.8333 63.5,97.5 Z"/></g>
<g><path style="opacity:0.569" fill="#a9af93" d="M 155.5,105.5 C 157.101,108.55 158.101,111.884 158.5,115.5C 156.59,112.548 155.59,109.214 155.5,105.5 Z"/></g>
<g><path style="opacity:0.78" fill="#616259" d="M 119.5,108.5 C 119.427,110.027 120.094,111.027 121.5,111.5C 122.338,111.842 122.672,112.508 122.5,113.5C 123.218,115.137 123.384,116.803 123,118.5C 122.617,117.944 122.117,117.611 121.5,117.5C 121.25,115.326 120.25,113.659 118.5,112.5C 117.662,112.158 117.328,111.492 117.5,110.5C 117.131,108.007 117.797,107.34 119.5,108.5 Z"/></g>
<g><path style="opacity:0.145" fill="#d8d8cd" d="M 119.5,108.5 C 120.906,108.973 121.573,109.973 121.5,111.5C 120.094,111.027 119.427,110.027 119.5,108.5 Z"/></g>
<g><path style="opacity:0.902" fill="#535c33" d="M 153.5,97.5 C 153.5,97.8333 153.5,98.1667 153.5,98.5C 153.41,101.152 154.076,103.485 155.5,105.5C 155.59,109.214 156.59,112.548 158.5,115.5C 158.5,115.833 158.5,116.167 158.5,116.5C 158.184,121.844 157.684,127.178 157,132.5C 156.802,130.618 156.302,128.952 155.5,127.5C 155.511,125.453 155.844,123.453 156.5,121.5C 155.451,119.403 154.451,117.403 153.5,115.5C 151.992,110.292 150.992,104.959 150.5,99.5C 150.349,94.3861 151.349,93.7194 153.5,97.5 Z"/></g>
<g><path style="opacity:0.937" fill="#798764" d="M 57.5,111.5 C 59.1172,112.038 60.7839,112.371 62.5,112.5C 64.6208,112.325 66.6208,112.659 68.5,113.5C 68.5,113.833 68.5,114.167 68.5,114.5C 68.5,115.167 68.1667,115.5 67.5,115.5C 65.3731,116.398 64.2065,118.064 64,120.5C 64.0302,117.639 63.1969,115.305 61.5,113.5C 59.6203,113.771 58.287,113.104 57.5,111.5 Z"/></g>
<g><path style="opacity:0.106" fill="#cdcec9" d="M 118.5,112.5 C 120.25,113.659 121.25,115.326 121.5,117.5C 119.75,116.341 118.75,114.674 118.5,112.5 Z"/></g>
<g><path style="opacity:0.098" fill="#d0d5c7" d="M 61.5,113.5 C 63.1969,115.305 64.0302,117.639 64,120.5C 64.2065,118.064 65.3731,116.398 67.5,115.5C 67.0048,118.493 65.5048,120.826 63,122.5C 61.9584,119.536 61.4584,116.536 61.5,113.5 Z"/></g>
<g><path style="opacity:0.173" fill="#bec9b3" d="M 181.5,116.5 C 182.964,115.84 184.631,115.507 186.5,115.5C 193.491,116.124 200.491,116.624 207.5,117C 209.32,117.2 210.653,118.034 211.5,119.5C 201.598,117.795 191.598,116.795 181.5,116.5 Z"/></g>
<g><path style="opacity:0.827" fill="#aeafa7" d="M 122.5,113.5 C 124.588,115.336 125.921,117.669 126.5,120.5C 125.577,119.697 124.577,119.53 123.5,120C 124.337,121.011 124.67,122.178 124.5,123.5C 122.992,121.819 121.992,119.819 121.5,117.5C 122.117,117.611 122.617,117.944 123,118.5C 123.384,116.803 123.218,115.137 122.5,113.5 Z"/></g>
<g><path style="opacity:0.075" fill="#d6dacf" d="M 215.5,116.5 C 216.15,118.435 216.483,120.435 216.5,122.5C 214.067,122.727 212.401,121.727 211.5,119.5C 213.017,119.511 214.184,120.177 215,121.5C 214.524,119.68 214.691,118.013 215.5,116.5 Z"/></g>
<g><path style="opacity:0.914" fill="#878f6b" d="M 153.5,115.5 C 154.451,117.403 155.451,119.403 156.5,121.5C 155.844,123.453 155.511,125.453 155.5,127.5C 154.383,123.705 153.717,119.705 153.5,115.5 Z"/></g>
<g><path style="opacity:0.812" fill="#4f5449" d="M 126.5,120.5 C 127.338,120.842 127.672,121.508 127.5,122.5C 129.078,124.375 128.745,125.708 126.5,126.5C 126.573,124.973 125.906,123.973 124.5,123.5C 124.67,122.178 124.337,121.011 123.5,120C 124.577,119.53 125.577,119.697 126.5,120.5 Z"/></g>
<g><path style="opacity:0.051" fill="#dbdddb" d="M 124.5,123.5 C 125.906,123.973 126.573,124.973 126.5,126.5C 125.094,126.027 124.427,125.027 124.5,123.5 Z"/></g>
<g><path style="opacity:1" fill="#768548" d="M 159.5,113.5 C 160.461,115.265 160.795,117.265 160.5,119.5C 160.942,131.575 160.275,143.575 158.5,155.5C 158.511,157.045 158.844,158.378 159.5,159.5C 159.5,160.167 159.5,160.833 159.5,161.5C 158.833,162.167 158.167,162.833 157.5,163.5C 157.827,153.985 157.494,144.652 156.5,135.5C 155.527,133.052 155.194,130.385 155.5,127.5C 156.302,128.952 156.802,130.618 157,132.5C 157.684,127.178 158.184,121.844 158.5,116.5C 159.404,115.791 159.737,114.791 159.5,113.5 Z"/></g>
<g><path style="opacity:0.857" fill="#7d8175" d="M 127.5,122.5 C 131.844,127.847 135.177,133.847 137.5,140.5C 135.821,140.285 134.821,140.952 134.5,142.5C 131.437,137.417 128.771,132.083 126.5,126.5C 128.745,125.708 129.078,124.375 127.5,122.5 Z"/></g>
<g><path style="opacity:0.698" fill="#878a84" d="M 181.5,116.5 C 177.643,123.407 173.976,130.407 170.5,137.5C 170.649,136.448 170.483,135.448 170,134.5C 169.051,136.093 167.885,137.426 166.5,138.5C 169.473,130.55 173.473,123.217 178.5,116.5C 179.5,115.167 180.5,115.167 181.5,116.5 Z"/></g>
<g><path style="opacity:0.925" fill="#888e88" d="M 123.5,130.5 C 116.317,128.783 109.317,129.283 102.5,132C 101.833,133 101.167,134 100.5,135C 97.8494,135.153 95.5161,135.987 93.5,137.5C 101.516,126.492 111.516,124.159 123.5,130.5 Z"/></g>
<g><path style="opacity:1" fill="#5f6a4b" d="M 161.5,106.5 C 161.833,106.5 162.167,106.5 162.5,106.5C 163.167,106.5 163.5,106.833 163.5,107.5C 163.884,115.831 164.218,124.164 164.5,132.5C 164.335,135.85 164.502,139.183 165,142.5C 165.383,141.944 165.883,141.611 166.5,141.5C 166.008,143.819 165.008,145.819 163.5,147.5C 162.692,138.524 162.358,129.524 162.5,120.5C 161.686,115.881 161.353,111.214 161.5,106.5 Z"/></g>
<g><path style="opacity:0.118" fill="#d1d5d0" d="M 191.5,137.5 C 192.919,136.549 194.585,136.216 196.5,136.5C 196.771,138.38 196.104,139.713 194.5,140.5C 194.414,139.504 194.748,138.671 195.5,138C 194.207,137.51 192.873,137.343 191.5,137.5 Z"/></g>
<g><path style="opacity:0.106" fill="#dfe8d7" d="M 164.5,132.5 C 165.167,134.833 165.833,137.167 166.5,139.5C 166.5,140.167 166.5,140.833 166.5,141.5C 165.883,141.611 165.383,141.944 165,142.5C 164.502,139.183 164.335,135.85 164.5,132.5 Z"/></g>
<g><path style="opacity:0.475" fill="#a0a5a0" d="M 191.5,137.5 C 189.562,139.163 187.228,139.829 184.5,139.5C 186.515,138.076 188.848,137.41 191.5,137.5 Z"/></g>
<g><path style="opacity:1" fill="#304112" d="M 160.5,119.5 C 161.167,119.833 161.833,120.167 162.5,120.5C 162.358,129.524 162.692,138.524 163.5,147.5C 163.067,150.166 162.567,152.832 162,155.5C 161.8,157.32 160.966,158.653 159.5,159.5C 158.844,158.378 158.511,157.045 158.5,155.5C 160.275,143.575 160.942,131.575 160.5,119.5 Z"/></g>
<g><path style="opacity:0.157" fill="#b7b9b2" d="M 184.5,139.5 C 183.833,140.5 183.167,141.5 182.5,142.5C 181.5,142.5 180.5,142.5 179.5,142.5C 180.659,140.75 182.326,139.75 184.5,139.5 Z"/></g>
<g><path style="opacity:1" fill="#484e46" d="M 191.5,137.5 C 192.873,137.343 194.207,137.51 195.5,138C 194.748,138.671 194.414,139.504 194.5,140.5C 190.56,142.278 186.56,142.944 182.5,142.5C 183.167,141.5 183.833,140.5 184.5,139.5C 187.228,139.829 189.562,139.163 191.5,137.5 Z"/></g>
<g><path style="opacity:0.22" fill="#9c9f9a" d="M 91.5,139.5 C 91.2624,141.404 90.2624,142.738 88.5,143.5C 88.7376,141.596 89.7376,140.262 91.5,139.5 Z"/></g>
<g><path style="opacity:1" fill="#6c7767" d="M 123.5,130.5 C 125.582,131.585 125.916,133.085 124.5,135C 128.37,137.87 128.37,140.703 124.5,143.5C 123.662,143.842 123.328,144.508 123.5,145.5C 122.012,141.581 119.679,140.914 116.5,143.5C 114.885,142.846 113.218,142.346 111.5,142C 115.902,141.968 119.236,140.135 121.5,136.5C 123.075,134.886 123.741,132.886 123.5,130.5 Z"/></g>
<g><path style="opacity:0.333" fill="#c9cebb" d="M 137.5,140.5 C 139.587,141.585 140.92,143.251 141.5,145.5C 139.413,144.415 138.08,142.749 137.5,140.5 Z"/></g>
<g><path style="opacity:1" fill="#8e948d" d="M 194.5,140.5 C 191.048,143.219 187.048,144.885 182.5,145.5C 182.918,144.778 183.584,144.278 184.5,144C 183.584,143.722 182.918,143.222 182.5,142.5C 186.56,142.944 190.56,142.278 194.5,140.5 Z"/></g>
<g><path style="opacity:0.094" fill="#c3c5bf" d="M 169.5,139.5 C 169.771,141.38 169.104,142.713 167.5,143.5C 167.66,141.847 168.326,140.514 169.5,139.5 Z"/></g>
<g><path style="opacity:0.949" fill="#4f5949" d="M 121.5,136.5 C 119.236,140.135 115.902,141.968 111.5,142C 113.218,142.346 114.885,142.846 116.5,143.5C 119.679,140.914 122.012,141.581 123.5,145.5C 123.851,147.869 124.018,150.203 124,152.5C 123.617,151.944 123.117,151.611 122.5,151.5C 122.66,149.801 122.494,148.134 122,146.5C 120.708,145.209 119.542,145.209 118.5,146.5C 114.112,148.434 109.445,149.767 104.5,150.5C 108.427,148.962 112.427,147.129 116.5,145C 113.557,144.058 110.724,142.892 108,141.5C 107.586,141.957 107.086,142.291 106.5,142.5C 105.167,141.833 105.167,141.167 106.5,140.5C 111.49,139.102 116.49,137.769 121.5,136.5 Z"/></g>
<g><path style="opacity:0.933" fill="#424740" d="M 179.5,142.5 C 180.5,142.5 181.5,142.5 182.5,142.5C 182.918,143.222 183.584,143.722 184.5,144C 183.584,144.278 182.918,144.778 182.5,145.5C 182.167,145.5 181.833,145.5 181.5,145.5C 179.821,145.715 178.821,145.048 178.5,143.5C 178.5,142.833 178.833,142.5 179.5,142.5 Z"/></g>
<g><path style="opacity:0.998" fill="#596147" d="M 137.5,140.5 C 138.08,142.749 139.413,144.415 141.5,145.5C 141.5,146.167 141.5,146.833 141.5,147.5C 140.414,147.62 139.747,148.287 139.5,149.5C 139.846,150.849 140.179,152.183 140.5,153.5C 140.5,154.5 140.5,155.5 140.5,156.5C 137.988,152.134 135.988,147.467 134.5,142.5C 134.821,140.952 135.821,140.285 137.5,140.5 Z"/></g>
<g><path style="opacity:1" fill="#2e382a" d="M 123.5,130.5 C 123.741,132.886 123.075,134.886 121.5,136.5C 116.49,137.769 111.49,139.102 106.5,140.5C 105.167,141.167 105.167,141.833 106.5,142.5C 107.086,142.291 107.586,141.957 108,141.5C 110.724,142.892 113.557,144.058 116.5,145C 112.427,147.129 108.427,148.962 104.5,150.5C 99.6133,151.903 94.6133,152.569 89.5,152.5C 87.9826,152.511 86.8159,153.177 86,154.5C 85.5065,152.866 85.3398,151.199 85.5,149.5C 85.9925,147.181 86.9925,145.181 88.5,143.5C 90.2624,142.738 91.2624,141.404 91.5,139.5C 91.8333,138.5 92.5,137.833 93.5,137.5C 95.5161,135.987 97.8494,135.153 100.5,135C 101.167,134 101.833,133 102.5,132C 109.317,129.283 116.317,128.783 123.5,130.5 Z"/></g>
<g><path style="opacity:0.61" fill="#72746d" d="M 178.5,143.5 C 178.821,145.048 179.821,145.715 181.5,145.5C 181.167,146.5 180.5,147.167 179.5,147.5C 178.598,150.997 177.931,154.663 177.5,158.5C 176.637,159.463 175.97,159.463 175.5,158.5C 176.246,157.264 176.579,155.93 176.5,154.5C 177.473,152.052 177.806,149.385 177.5,146.5C 176.167,146.5 174.833,146.5 173.5,146.5C 171.158,146.225 171.158,145.392 173.5,144C 175.134,143.506 176.801,143.34 178.5,143.5 Z"/></g>
<g><path style="opacity:0.024" fill="#f7f7f1" d="M 179.5,147.5 C 179.665,150.518 179.498,153.518 179,156.5C 178.722,157.416 178.222,158.082 177.5,158.5C 177.931,154.663 178.598,150.997 179.5,147.5 Z"/></g>
<g><path style="opacity:0.071" fill="#d8dbcd" d="M 118.5,146.5 C 119.542,145.209 120.708,145.209 122,146.5C 122.494,148.134 122.66,149.801 122.5,151.5C 121.868,149.257 120.534,147.591 118.5,146.5 Z"/></g>
<g><path style="opacity:0.886" fill="#a8b57d" d="M 141.5,145.5 C 146.013,150.03 149.346,155.363 151.5,161.5C 151.5,162.167 151.5,162.833 151.5,163.5C 149.721,160.253 147.721,157.253 145.5,154.5C 144.532,151.9 143.199,149.566 141.5,147.5C 141.5,146.833 141.5,146.167 141.5,145.5 Z"/></g>
<g><path style="opacity:0.169" fill="#dbd9d5" d="M 173.5,146.5 C 174.833,146.5 176.167,146.5 177.5,146.5C 177.806,149.385 177.473,152.052 176.5,154.5C 176.5,152.167 176.5,149.833 176.5,147.5C 175.209,147.737 174.209,147.404 173.5,146.5 Z"/></g>
<g><path style="opacity:0.561" fill="#a9a9a7" d="M 85.5,149.5 C 85.3398,151.199 85.5065,152.866 86,154.5C 86.8159,153.177 87.9826,152.511 89.5,152.5C 88.343,154.138 87.1764,155.804 86,157.5C 82.8409,154.9 82.6743,152.233 85.5,149.5 Z"/></g>
<g><path style="opacity:0.62" fill="#bfc0ba" d="M 124.5,143.5 C 124.648,148.787 126.315,153.453 129.5,157.5C 128.206,156.71 127.039,155.71 126,154.5C 125.536,155.094 125.369,155.761 125.5,156.5C 124.11,155.101 123.11,153.434 122.5,151.5C 123.117,151.611 123.617,151.944 124,152.5C 124.018,150.203 123.851,147.869 123.5,145.5C 123.328,144.508 123.662,143.842 124.5,143.5 Z"/></g>
<g><path style="opacity:1" fill="#232d1b" d="M 170.5,137.5 C 170.672,138.492 170.338,139.158 169.5,139.5C 168.326,140.514 167.66,141.847 167.5,143.5C 167.768,145.099 167.434,146.432 166.5,147.5C 165.662,147.842 165.328,148.508 165.5,149.5C 163.096,156.89 161.429,164.557 160.5,172.5C 159.022,172.762 157.689,172.429 156.5,171.5C 158.121,168.348 159.121,165.015 159.5,161.5C 159.5,160.833 159.5,160.167 159.5,159.5C 160.966,158.653 161.8,157.32 162,155.5C 162.567,152.832 163.067,150.166 163.5,147.5C 165.008,145.819 166.008,143.819 166.5,141.5C 166.5,140.833 166.5,140.167 166.5,139.5C 166.5,139.167 166.5,138.833 166.5,138.5C 167.885,137.426 169.051,136.093 170,134.5C 170.483,135.448 170.649,136.448 170.5,137.5 Z"/></g>
<g><path style="opacity:1" fill="#38490f" d="M 141.5,147.5 C 143.199,149.566 144.532,151.9 145.5,154.5C 147.463,159.481 149.463,164.481 151.5,169.5C 147.989,165.805 145.489,161.472 144,156.5C 143.241,154.937 142.074,153.937 140.5,153.5C 140.179,152.183 139.846,150.849 139.5,149.5C 139.747,148.287 140.414,147.62 141.5,147.5 Z"/></g>
<g><path style="opacity:0.098" fill="#cdd1c8" d="M 166.5,147.5 C 166.5,153.167 166.5,158.833 166.5,164.5C 168.167,164.5 169.833,164.5 171.5,164.5C 170.432,165.434 169.099,165.768 167.5,165.5C 166.833,165.5 166.167,165.5 165.5,165.5C 165.5,160.167 165.5,154.833 165.5,149.5C 165.328,148.508 165.662,147.842 166.5,147.5 Z"/></g>
<g><path style="opacity:0.012" fill="#ecece7" d="M 125.5,156.5 C 126.906,156.973 127.573,157.973 127.5,159.5C 126.094,159.027 125.427,158.027 125.5,156.5 Z"/></g>
<g><path style="opacity:0.086" fill="#d7dfc8" d="M 156.5,135.5 C 157.494,144.652 157.827,153.985 157.5,163.5C 156.817,165.176 155.483,165.843 153.5,165.5C 152.5,165.167 151.833,164.5 151.5,163.5C 151.5,162.833 151.5,162.167 151.5,161.5C 152.779,162.968 154.446,163.635 156.5,163.5C 156.5,154.167 156.5,144.833 156.5,135.5 Z"/></g>
<g><path style="opacity:0.02" fill="#eff1ee" d="M 127.5,159.5 C 128.906,159.973 129.573,160.973 129.5,162.5C 128.094,162.027 127.427,161.027 127.5,159.5 Z"/></g>
<g><path style="opacity:0.063" fill="#e0e2df" d="M 129.5,157.5 C 131.822,158.802 133.155,160.802 133.5,163.5C 131.674,161.853 130.34,159.853 129.5,157.5 Z"/></g>
<g><path style="opacity:0.937" fill="#253016" d="M 140.5,153.5 C 142.074,153.937 143.241,154.937 144,156.5C 145.489,161.472 147.989,165.805 151.5,169.5C 151.328,170.492 151.662,171.158 152.5,171.5C 150.393,172.468 148.059,172.802 145.5,172.5C 145.371,170.784 145.038,169.117 144.5,167.5C 144.768,165.901 144.434,164.568 143.5,163.5C 143.5,162.833 143.167,162.5 142.5,162.5C 141.27,160.703 140.604,158.703 140.5,156.5C 140.5,155.5 140.5,154.5 140.5,153.5 Z"/></g>
<g><path style="opacity:0.949" fill="#637532" d="M 145.5,154.5 C 147.721,157.253 149.721,160.253 151.5,163.5C 151.833,164.5 152.5,165.167 153.5,165.5C 153.795,167.735 153.461,169.735 152.5,171.5C 151.662,171.158 151.328,170.492 151.5,169.5C 149.463,164.481 147.463,159.481 145.5,154.5 Z"/></g>
<g><path style="opacity:0.137" fill="#d0d3cf" d="M 142.5,162.5 C 143.167,162.5 143.5,162.833 143.5,163.5C 142.306,164.777 140.64,165.444 138.5,165.5C 136.36,165.444 134.694,164.777 133.5,163.5C 136.927,165.177 139.927,164.844 142.5,162.5 Z"/></g>
<g><path style="opacity:1" fill="#616161" d="M 126.5,166.5 C 126.5,168.5 126.5,170.5 126.5,172.5C 130.833,172.5 135.167,172.5 139.5,172.5C 139.5,172.833 139.5,173.167 139.5,173.5C 131.833,173.5 124.167,173.5 116.5,173.5C 114.393,172.532 112.059,172.198 109.5,172.5C 108.282,171.839 106.949,171.172 105.5,170.5C 107.113,169.573 108.779,168.739 110.5,168C 115.834,167.433 121.167,166.933 126.5,166.5 Z"/></g>
<g><path style="opacity:1" fill="#3e4038" d="M 173.5,172.5 C 172.5,172.5 171.5,172.5 170.5,172.5C 170.577,171.25 171.244,170.417 172.5,170C 171.027,169.29 170.36,168.124 170.5,166.5C 169.209,166.737 168.209,166.404 167.5,165.5C 169.099,165.768 170.432,165.434 171.5,164.5C 173.203,163.34 173.869,164.007 173.5,166.5C 177.846,166.334 182.179,166.501 186.5,167C 189.043,167.14 191.377,167.806 193.5,169C 192.051,170.117 190.384,170.784 188.5,171C 183.316,171.174 178.316,171.674 173.5,172.5 Z"/></g>
<g><path style="opacity:1" fill="#3b432c" d="M 165.5,149.5 C 165.5,154.833 165.5,160.167 165.5,165.5C 165.5,167.833 165.5,170.167 165.5,172.5C 165.5,172.833 165.5,173.167 165.5,173.5C 156.833,173.5 148.167,173.5 139.5,173.5C 139.5,173.167 139.5,172.833 139.5,172.5C 139.5,171.5 139.5,170.5 139.5,169.5C 141.322,169.169 142.989,168.502 144.5,167.5C 145.038,169.117 145.371,170.784 145.5,172.5C 148.059,172.802 150.393,172.468 152.5,171.5C 153.461,169.735 153.795,167.735 153.5,165.5C 155.483,165.843 156.817,165.176 157.5,163.5C 158.167,162.833 158.833,162.167 159.5,161.5C 159.121,165.015 158.121,168.348 156.5,171.5C 157.689,172.429 159.022,172.762 160.5,172.5C 161.429,164.557 163.096,156.89 165.5,149.5 Z"/></g>
<g><path style="opacity:1" fill="#161d11" d="M 165.5,165.5 C 166.167,165.5 166.833,165.5 167.5,165.5C 168.209,166.404 169.209,166.737 170.5,166.5C 170.36,168.124 171.027,169.29 172.5,170C 171.244,170.417 170.577,171.25 170.5,172.5C 168.833,172.5 167.167,172.5 165.5,172.5C 165.5,170.167 165.5,167.833 165.5,165.5 Z"/></g>
<g><path style="opacity:1" fill="#44473f" d="M 129.5,157.5 C 130.34,159.853 131.674,161.853 133.5,163.5C 134.694,164.777 136.36,165.444 138.5,165.5C 140.64,165.444 142.306,164.777 143.5,163.5C 144.434,164.568 144.768,165.901 144.5,167.5C 142.989,168.502 141.322,169.169 139.5,169.5C 139.5,170.5 139.5,171.5 139.5,172.5C 135.167,172.5 130.833,172.5 126.5,172.5C 126.5,170.5 126.5,168.5 126.5,166.5C 128.604,166.799 130.604,166.466 132.5,165.5C 131.812,164.145 130.812,163.145 129.5,162.5C 129.573,160.973 128.906,159.973 127.5,159.5C 127.573,157.973 126.906,156.973 125.5,156.5C 125.369,155.761 125.536,155.094 126,154.5C 127.039,155.71 128.206,156.71 129.5,157.5 Z"/></g>
<g><path style="opacity:1" fill="#dfdfdf" d="M 129.5,162.5 C 130.812,163.145 131.812,164.145 132.5,165.5C 130.604,166.466 128.604,166.799 126.5,166.5C 121.167,166.933 115.834,167.433 110.5,168C 108.779,168.739 107.113,169.573 105.5,170.5C 106.949,171.172 108.282,171.839 109.5,172.5C 106.664,172.202 106.164,172.869 108,174.5C 108.568,191.188 109.401,207.854 110.5,224.5C 112.099,224.232 113.432,224.566 114.5,225.5C 111.794,225.425 109.127,225.092 106.5,224.5C 105.005,224.011 103.671,223.345 102.5,222.5C 101.047,221.175 101.381,220.342 103.5,220C 102.833,219 102.167,218 101.5,217C 102.167,205.667 102.833,194.333 103.5,183C 102.87,179.871 102.204,176.704 101.5,173.5C 99.9291,172.691 98.2624,172.357 96.5,172.5C 97.0241,188.576 97.0241,204.576 96.5,220.5C 96.5,223.5 96.5,226.5 96.5,229.5C 95.3376,210.004 95.1709,190.338 96,170.5C 97.9449,169.137 100.112,168.303 102.5,168C 111.455,166.638 120.455,165.804 129.5,165.5C 129.5,164.5 129.5,163.5 129.5,162.5 Z"/></g>
<g><path style="opacity:1" fill="#efefef" d="M 109.5,172.5 C 112.059,172.198 114.393,172.532 116.5,173.5C 115.127,173.343 113.793,173.51 112.5,174C 118.619,174.696 119.619,177.029 115.5,181C 116.687,182.019 117.687,183.186 118.5,184.5C 117.572,185.768 117.405,187.101 118,188.5C 121.569,194.738 125.903,200.405 131,205.5C 132.375,208.994 133.875,212.327 135.5,215.5C 136.93,215.421 138.264,215.754 139.5,216.5C 142.37,213.553 146.37,211.553 151.5,210.5C 150.875,207.03 151.875,204.196 154.5,202C 155.899,201.405 157.232,201.572 158.5,202.5C 159.771,200.171 161.771,199.005 164.5,199C 163.552,198.517 162.552,198.351 161.5,198.5C 162.413,196.165 163.747,193.999 165.5,192C 164.201,188.865 164.201,185.699 165.5,182.5C 163.98,180.338 162.98,178.005 162.5,175.5C 164.179,175.715 165.179,175.048 165.5,173.5C 165.5,173.167 165.5,172.833 165.5,172.5C 167.167,172.5 168.833,172.5 170.5,172.5C 171.5,172.5 172.5,172.5 173.5,172.5C 176.85,172.335 180.183,172.502 183.5,173C 182.833,173.667 182.167,174.333 181.5,175C 182.894,176.739 183.561,178.739 183.5,181C 181.217,187.34 179.051,193.84 177,200.5C 175.13,202.405 173.63,204.572 172.5,207C 172.162,212.802 172.162,218.969 172.5,225.5C 172.167,225.5 171.833,225.5 171.5,225.5C 153.162,228.041 134.828,228.041 116.5,225.5C 115.833,225.5 115.167,225.5 114.5,225.5C 113.432,224.566 112.099,224.232 110.5,224.5C 109.401,207.854 108.568,191.188 108,174.5C 106.164,172.869 106.664,172.202 109.5,172.5 Z"/></g>
<g><path style="opacity:1" fill="#f5f5f5" d="M 116.5,173.5 C 124.167,173.5 131.833,173.5 139.5,173.5C 148.167,173.5 156.833,173.5 165.5,173.5C 165.179,175.048 164.179,175.715 162.5,175.5C 162.98,178.005 163.98,180.338 165.5,182.5C 164.201,185.699 164.201,188.865 165.5,192C 163.747,193.999 162.413,196.165 161.5,198.5C 162.552,198.351 163.552,198.517 164.5,199C 161.771,199.005 159.771,200.171 158.5,202.5C 157.232,201.572 155.899,201.405 154.5,202C 151.875,204.196 150.875,207.03 151.5,210.5C 146.37,211.553 142.37,213.553 139.5,216.5C 138.264,215.754 136.93,215.421 135.5,215.5C 133.875,212.327 132.375,208.994 131,205.5C 125.903,200.405 121.569,194.738 118,188.5C 117.405,187.101 117.572,185.768 118.5,184.5C 117.687,183.186 116.687,182.019 115.5,181C 119.619,177.029 118.619,174.696 112.5,174C 113.793,173.51 115.127,173.343 116.5,173.5 Z"/></g>
<g><path style="opacity:1" fill="#dedede" d="M 176.5,154.5 C 176.579,155.93 176.246,157.264 175.5,158.5C 175.97,159.463 176.637,159.463 177.5,158.5C 177.123,160.258 176.456,161.925 175.5,163.5C 183.091,165.06 190.758,166.227 198.5,167C 201.232,167.398 203.065,168.898 204,171.5C 204.276,189.341 204.776,207.175 205.5,225C 205.497,227.69 205.164,230.19 204.5,232.5C 204.827,227.786 204.493,223.12 203.5,218.5C 202.893,218.624 202.56,218.957 202.5,219.5C 202.461,203.414 202.461,187.08 202.5,170.5C 199.123,170.959 195.789,171.626 192.5,172.5C 187.502,172.604 186.669,174.271 190,177.5C 191.473,181.417 192.639,185.417 193.5,189.5C 192.866,197.842 192.2,206.175 191.5,214.5C 192.938,216.345 192.604,217.511 190.5,218C 190.952,219.612 192.285,220.612 194.5,221C 193.944,221.383 193.611,221.883 193.5,222.5C 186.622,224.257 179.622,225.257 172.5,225.5C 172.162,218.969 172.162,212.802 172.5,207C 173.63,204.572 175.13,202.405 177,200.5C 179.051,193.84 181.217,187.34 183.5,181C 183.561,178.739 182.894,176.739 181.5,175C 182.167,174.333 182.833,173.667 183.5,173C 180.183,172.502 176.85,172.335 173.5,172.5C 178.316,171.674 183.316,171.174 188.5,171C 190.384,170.784 192.051,170.117 193.5,169C 191.377,167.806 189.043,167.14 186.5,167C 182.179,166.501 177.846,166.334 173.5,166.5C 173.869,164.007 173.203,163.34 171.5,164.5C 172.659,160.849 174.326,157.515 176.5,154.5 Z"/></g>
<g><path style="opacity:1" fill="#cbcbcb" d="M 192.5,172.5 C 192.369,173.239 192.536,173.906 193,174.5C 193.893,173.289 194.726,173.289 195.5,174.5C 196.154,176.115 196.654,177.782 197,179.5C 197.246,193.094 197.746,206.427 198.5,219.5C 197.007,220.141 196.007,221.141 195.5,222.5C 194.833,222.5 194.167,222.5 193.5,222.5C 193.611,221.883 193.944,221.383 194.5,221C 192.285,220.612 190.952,219.612 190.5,218C 192.604,217.511 192.938,216.345 191.5,214.5C 192.2,206.175 192.866,197.842 193.5,189.5C 192.639,185.417 191.473,181.417 190,177.5C 186.669,174.271 187.502,172.604 192.5,172.5 Z"/></g>
<g><path style="opacity:1" fill="#b8b8b8" d="M 202.5,219.5 C 200.924,220.143 199.59,221.143 198.5,222.5C 197.5,222.5 196.5,222.5 195.5,222.5C 196.007,221.141 197.007,220.141 198.5,219.5C 197.746,206.427 197.246,193.094 197,179.5C 196.654,177.782 196.154,176.115 195.5,174.5C 194.726,173.289 193.893,173.289 193,174.5C 192.536,173.906 192.369,173.239 192.5,172.5C 195.789,171.626 199.123,170.959 202.5,170.5C 202.461,187.08 202.461,203.414 202.5,219.5 Z"/></g>
<g><path style="opacity:1" fill="#c1c1c1" d="M 102.5,222.5 C 100.5,221.833 98.5,221.167 96.5,220.5C 97.0241,204.576 97.0241,188.576 96.5,172.5C 98.2624,172.357 99.9291,172.691 101.5,173.5C 102.204,176.704 102.87,179.871 103.5,183C 102.833,194.333 102.167,205.667 101.5,217C 102.167,218 102.833,219 103.5,220C 101.381,220.342 101.047,221.175 102.5,222.5 Z"/></g>
<g><path style="opacity:1" fill="#939393" d="M 116.5,225.5 C 134.828,228.041 153.162,228.041 171.5,225.5C 169.622,226.888 167.955,227.888 166.5,228.5C 167.167,229.167 167.833,229.833 168.5,230.5C 167.289,231.72 167.289,232.887 168.5,234C 168.167,234.167 167.833,234.333 167.5,234.5C 166.52,233.019 165.353,231.685 164,230.5C 163.228,231.849 162.061,232.682 160.5,233C 162.929,233.451 163.096,234.285 161,235.5C 160.667,235.167 160.333,234.833 160,234.5C 160.148,235.825 159.982,236.992 159.5,238C 162.031,239.731 162.031,240.231 159.5,239.5C 158.778,239.918 158.278,240.584 158,241.5C 157.28,239.888 157.446,238.388 158.5,237C 156.667,235.167 154.833,233.333 153,231.5C 152.667,233.047 153.167,234.38 154.5,235.5C 154.167,235.833 153.833,236.167 153.5,236.5C 152.476,235.147 151.143,234.48 149.5,234.5C 149.579,235.93 149.246,237.264 148.5,238.5C 146.367,240.091 144.701,242.091 143.5,244.5C 139.857,247.063 136.357,246.73 133,243.5C 132.667,244.167 132.333,244.833 132,245.5C 132.053,242.344 130.886,239.844 128.5,238C 129.451,237.282 129.617,236.449 129,235.5C 128.311,236.357 127.478,237.023 126.5,237.5C 125.28,236.289 124.113,236.289 123,237.5C 121.164,235.869 121.664,235.202 124.5,235.5C 124.587,232.402 124.087,232.068 123,234.5C 121.34,234.676 119.674,234.009 118,232.5C 117,233.833 116,235.167 115,236.5C 112.086,232.633 113.252,230.133 118.5,229C 117.177,228.184 116.511,227.017 116.5,225.5 Z"/></g>
<g><path style="opacity:0.067" fill="#d7d7d7" d="M 204.5,234.5 C 204.678,238.122 204.011,241.456 202.5,244.5C 202.549,240.922 203.215,237.589 204.5,234.5 Z"/></g>
<g><path style="opacity:1" fill="#7c7c7c" d="M 193.5,222.5 C 194.167,222.5 194.833,222.5 195.5,222.5C 196.5,222.5 197.5,222.5 198.5,222.5C 196.369,223.314 194.036,223.814 191.5,224C 188.187,224.862 185.854,226.195 184.5,228C 185.167,228.333 185.833,228.667 186.5,229C 182.673,230.58 182.839,232.08 187,233.5C 187.483,234.448 187.649,235.448 187.5,236.5C 185.572,234.188 183.238,233.521 180.5,234.5C 182.078,235.298 183.744,235.798 185.5,236C 182.275,239.83 178.608,239.996 174.5,236.5C 175.582,236.251 176.915,236.085 178.5,236C 177.095,234.731 175.429,234.231 173.5,234.5C 173.762,235.978 173.429,237.311 172.5,238.5C 171.365,239.103 170.365,239.436 169.5,239.5C 171.762,241.508 171.262,241.841 168,240.5C 167.354,246.57 169.021,246.904 173,241.5C 173.263,243.86 172.43,245.86 170.5,247.5C 172.183,248.853 173.516,250.52 174.5,252.5C 173.369,253.604 172.535,253.271 172,251.5C 169.712,251.737 167.212,251.737 164.5,251.5C 164.286,249.856 164.62,248.356 165.5,247C 163.031,244.978 160.865,245.145 159,247.5C 158.292,246.619 157.458,245.953 156.5,245.5C 156.369,244.761 156.536,244.094 157,243.5C 158,244.833 159,244.833 160,243.5C 160.195,242.181 160.028,240.847 159.5,239.5C 162.031,240.231 162.031,239.731 159.5,238C 159.982,236.992 160.148,235.825 160,234.5C 160.333,234.833 160.667,235.167 161,235.5C 163.096,234.285 162.929,233.451 160.5,233C 162.061,232.682 163.228,231.849 164,230.5C 165.353,231.685 166.52,233.019 167.5,234.5C 167.833,234.333 168.167,234.167 168.5,234C 167.289,232.887 167.289,231.72 168.5,230.5C 167.833,229.833 167.167,229.167 166.5,228.5C 167.955,227.888 169.622,226.888 171.5,225.5C 171.833,225.5 172.167,225.5 172.5,225.5C 179.622,225.257 186.622,224.257 193.5,222.5 Z"/></g>
<g><path style="opacity:1" fill="#848484" d="M 106.5,224.5 C 109.127,225.092 111.794,225.425 114.5,225.5C 115.167,225.5 115.833,225.5 116.5,225.5C 116.511,227.017 117.177,228.184 118.5,229C 113.252,230.133 112.086,232.633 115,236.5C 116,235.167 117,233.833 118,232.5C 119.674,234.009 121.34,234.676 123,234.5C 124.087,232.068 124.587,232.402 124.5,235.5C 121.664,235.202 121.164,235.869 123,237.5C 124.113,236.289 125.28,236.289 126.5,237.5C 127.478,237.023 128.311,236.357 129,235.5C 129.617,236.449 129.451,237.282 128.5,238C 130.886,239.844 132.053,242.344 132,245.5C 132.333,244.833 132.667,244.167 133,243.5C 136.357,246.73 139.857,247.063 143.5,244.5C 144.701,242.091 146.367,240.091 148.5,238.5C 149.246,237.264 149.579,235.93 149.5,234.5C 151.143,234.48 152.476,235.147 153.5,236.5C 153.833,236.167 154.167,235.833 154.5,235.5C 153.167,234.38 152.667,233.047 153,231.5C 154.833,233.333 156.667,235.167 158.5,237C 157.446,238.388 157.28,239.888 158,241.5C 158.278,240.584 158.778,239.918 159.5,239.5C 160.028,240.847 160.195,242.181 160,243.5C 159,244.833 158,244.833 157,243.5C 156.536,244.094 156.369,244.761 156.5,245.5C 155.469,246.249 154.302,246.915 153,247.5C 151.829,244.962 150.329,244.462 148.5,246C 150.891,246.691 150.891,247.691 148.5,249C 151.637,251.669 154.137,251.502 156,248.5C 156.615,250.116 157.615,251.449 159,252.5C 159.492,251.451 159.326,250.451 158.5,249.5C 159.591,248.112 160.924,247.612 162.5,248C 161.751,249.734 161.251,251.567 161,253.5C 159.612,253.214 158.112,253.548 156.5,254.5C 156.631,253.761 156.464,253.094 156,252.5C 155.259,253.641 154.425,253.641 153.5,252.5C 152.029,253.381 151.196,254.714 151,256.5C 150.134,252.193 149.134,251.86 148,255.5C 146.796,254.529 146.296,253.529 146.5,252.5C 145.949,254.413 145.782,256.413 146,258.5C 145.069,256.541 144.236,254.541 143.5,252.5C 142.635,251.417 141.635,251.251 140.5,252C 141.167,252.333 141.833,252.667 142.5,253C 141.234,253.309 140.067,253.809 139,254.5C 138.667,254.167 138.333,253.833 138,253.5C 137.641,256.544 136.974,256.878 136,254.5C 134.56,255.93 134.226,257.597 135,259.5C 135.718,258.549 136.551,258.383 137.5,259C 137.741,260.562 137.241,262.062 136,263.5C 135.683,261.699 135.016,261.366 134,262.5C 132.184,261.671 130.351,260.837 128.5,260C 128.833,259.667 129.167,259.333 129.5,259C 127.833,258.667 126.167,258.333 124.5,258C 125.357,257.311 126.023,256.478 126.5,255.5C 124.838,254.673 123.505,253.507 122.5,252C 120.222,253.048 118.056,253.881 116,254.5C 115.383,253.551 115.549,252.718 116.5,252C 115.207,251.51 113.873,251.343 112.5,251.5C 112.66,253.199 112.494,254.866 112,256.5C 111.667,255.5 111.333,254.5 111,253.5C 110.581,254.672 109.915,255.672 109,256.5C 108.528,253.552 109.361,251.052 111.5,249C 106.672,247.9 106.506,246.733 111,245.5C 111.811,246.96 112.645,247.293 113.5,246.5C 111.833,244.5 110.167,242.5 108.5,240.5C 109.853,239.476 110.52,238.143 110.5,236.5C 109.325,236.719 108.325,236.386 107.5,235.5C 108.167,233.833 108.833,232.167 109.5,230.5C 108.271,229.719 106.938,229.219 105.5,229C 106.167,228.667 106.833,228.333 107.5,228C 106.663,226.989 106.33,225.822 106.5,224.5 Z"/></g>
<g><path style="opacity:0.943" fill="#878787" d="M 201.5,247.5 C 201.293,250.241 200.293,252.574 198.5,254.5C 196.999,251.163 197.999,248.83 201.5,247.5 Z"/></g>
<g><path style="opacity:1" fill="#757575" d="M 96.5,220.5 C 98.5,221.167 100.5,221.833 102.5,222.5C 103.671,223.345 105.005,224.011 106.5,224.5C 106.33,225.822 106.663,226.989 107.5,228C 106.833,228.333 106.167,228.667 105.5,229C 106.938,229.219 108.271,229.719 109.5,230.5C 108.833,232.167 108.167,233.833 107.5,235.5C 108.325,236.386 109.325,236.719 110.5,236.5C 110.52,238.143 109.853,239.476 108.5,240.5C 110.167,242.5 111.833,244.5 113.5,246.5C 112.645,247.293 111.811,246.96 111,245.5C 106.506,246.733 106.672,247.9 111.5,249C 109.361,251.052 108.528,253.552 109,256.5C 109.915,255.672 110.581,254.672 111,253.5C 111.333,254.5 111.667,255.5 112,256.5C 112.494,254.866 112.66,253.199 112.5,251.5C 113.873,251.343 115.207,251.51 116.5,252C 115.549,252.718 115.383,253.551 116,254.5C 118.056,253.881 120.222,253.048 122.5,252C 123.505,253.507 124.838,254.673 126.5,255.5C 126.023,256.478 125.357,257.311 124.5,258C 126.167,258.333 127.833,258.667 129.5,259C 129.167,259.333 128.833,259.667 128.5,260C 130.351,260.837 132.184,261.671 134,262.5C 135.016,261.366 135.683,261.699 136,263.5C 137.241,262.062 137.741,260.562 137.5,259C 136.551,258.383 135.718,258.549 135,259.5C 134.226,257.597 134.56,255.93 136,254.5C 136.974,256.878 137.641,256.544 138,253.5C 138.333,253.833 138.667,254.167 139,254.5C 140.067,253.809 141.234,253.309 142.5,253C 141.833,252.667 141.167,252.333 140.5,252C 141.635,251.251 142.635,251.417 143.5,252.5C 144.236,254.541 145.069,256.541 146,258.5C 145.782,256.413 145.949,254.413 146.5,252.5C 146.296,253.529 146.796,254.529 148,255.5C 149.134,251.86 150.134,252.193 151,256.5C 151.196,254.714 152.029,253.381 153.5,252.5C 154.425,253.641 155.259,253.641 156,252.5C 156.464,253.094 156.631,253.761 156.5,254.5C 156.631,255.376 156.298,256.043 155.5,256.5C 154.549,255.674 153.549,255.508 152.5,256C 153.551,257.385 154.884,258.385 156.5,259C 154.77,260.852 153.604,260.686 153,258.5C 149.668,260.443 149.834,261.61 153.5,262C 149.068,262.623 148.735,263.623 152.5,265C 151.128,265.402 149.795,265.902 148.5,266.5C 147.833,265.167 147.167,263.833 146.5,262.5C 144.576,262.567 142.576,262.9 140.5,263.5C 140,264.5 139.5,265.5 139,266.5C 137,265.833 135,265.167 133,264.5C 132,267.167 131,267.167 130,264.5C 126.468,264.545 122.968,264.545 119.5,264.5C 117.157,263.077 114.657,262.077 112,261.5C 110.624,261.684 109.791,262.351 109.5,263.5C 100.082,254.266 95.7491,242.932 96.5,229.5C 96.5,226.5 96.5,223.5 96.5,220.5 Z"/></g>
<g><path style="opacity:1" fill="#575757" d="M 204.5,232.5 C 204.5,233.167 204.5,233.833 204.5,234.5C 203.215,237.589 202.549,240.922 202.5,244.5C 202.737,245.791 202.404,246.791 201.5,247.5C 197.999,248.83 196.999,251.163 198.5,254.5C 196.014,260.659 192.014,265.659 186.5,269.5C 187.126,266.685 188.46,264.185 190.5,262C 189.833,261.833 189.167,261.667 188.5,261.5C 186.553,262.277 184.72,263.277 183,264.5C 182.228,264.355 181.561,264.022 181,263.5C 179.66,264.868 178.326,266.201 177,267.5C 175.588,266.077 174.421,266.244 173.5,268C 170.833,268.333 168.167,268.667 165.5,269C 163.07,269.643 161.403,271.143 160.5,273.5C 159.252,272.96 158.085,272.293 157,271.5C 156.45,275.773 154.783,276.44 152,273.5C 150.635,273.844 149.468,274.511 148.5,275.5C 140.171,274.011 131.837,272.345 123.5,270.5C 121.664,271.028 119.997,271.694 118.5,272.5C 117.128,271.488 115.795,270.488 114.5,269.5C 114.393,267.621 114.893,267.288 116,268.5C 116.308,267.692 116.808,267.025 117.5,266.5C 120.911,268.378 124.411,269.045 128,268.5C 130.816,269.23 133.65,269.897 136.5,270.5C 137.647,270.182 138.481,269.516 139,268.5C 140.884,269.977 142.884,271.31 145,272.5C 145.333,271.833 145.667,271.167 146,270.5C 148.026,271.019 150.026,271.353 152,271.5C 153.892,270.383 154.725,268.716 154.5,266.5C 155.822,266.33 156.989,266.663 158,267.5C 159.333,264.833 160.667,264.833 162,267.5C 163.154,266.257 164.488,265.257 166,264.5C 168.621,264.704 171.455,264.704 174.5,264.5C 174.33,261.509 175.663,259.509 178.5,258.5C 179.324,260.748 180.324,260.914 181.5,259C 180.299,258.097 179.465,256.931 179,255.5C 177.257,257.975 176.257,257.975 176,255.5C 178.592,254.018 180.925,254.352 183,256.5C 183.497,254.19 183.663,251.857 183.5,249.5C 185.167,249.5 186.833,249.5 188.5,249.5C 188.481,247.94 188.148,246.44 187.5,245C 189.178,243.068 189.678,240.902 189,238.5C 188.71,240.044 188.044,241.377 187,242.5C 186.82,240.512 186.986,238.512 187.5,236.5C 187.649,235.448 187.483,234.448 187,233.5C 182.839,232.08 182.673,230.58 186.5,229C 185.833,228.667 185.167,228.333 184.5,228C 185.854,226.195 188.187,224.862 191.5,224C 194.036,223.814 196.369,223.314 198.5,222.5C 199.59,221.143 200.924,220.143 202.5,219.5C 202.56,218.957 202.893,218.624 203.5,218.5C 204.493,223.12 204.827,227.786 204.5,232.5 Z"/></g>
<g><path style="opacity:1" fill="#686868" d="M 187.5,236.5 C 186.986,238.512 186.82,240.512 187,242.5C 188.044,241.377 188.71,240.044 189,238.5C 189.678,240.902 189.178,243.068 187.5,245C 188.148,246.44 188.481,247.94 188.5,249.5C 186.833,249.5 185.167,249.5 183.5,249.5C 183.663,251.857 183.497,254.19 183,256.5C 180.925,254.352 178.592,254.018 176,255.5C 176.257,257.975 177.257,257.975 179,255.5C 179.465,256.931 180.299,258.097 181.5,259C 180.324,260.914 179.324,260.748 178.5,258.5C 175.663,259.509 174.33,261.509 174.5,264.5C 171.455,264.704 168.621,264.704 166,264.5C 164.488,265.257 163.154,266.257 162,267.5C 160.667,264.833 159.333,264.833 158,267.5C 156.989,266.663 155.822,266.33 154.5,266.5C 154.725,268.716 153.892,270.383 152,271.5C 150.026,271.353 148.026,271.019 146,270.5C 145.667,271.167 145.333,271.833 145,272.5C 142.884,271.31 140.884,269.977 139,268.5C 138.481,269.516 137.647,270.182 136.5,270.5C 133.65,269.897 130.816,269.23 128,268.5C 124.411,269.045 120.911,268.378 117.5,266.5C 116.808,267.025 116.308,267.692 116,268.5C 114.893,267.288 114.393,267.621 114.5,269.5C 112.086,268.089 110.419,266.089 109.5,263.5C 109.791,262.351 110.624,261.684 112,261.5C 114.657,262.077 117.157,263.077 119.5,264.5C 122.968,264.545 126.468,264.545 130,264.5C 131,267.167 132,267.167 133,264.5C 135,265.167 137,265.833 139,266.5C 139.5,265.5 140,264.5 140.5,263.5C 142.576,262.9 144.576,262.567 146.5,262.5C 147.167,263.833 147.833,265.167 148.5,266.5C 149.795,265.902 151.128,265.402 152.5,265C 148.735,263.623 149.068,262.623 153.5,262C 149.834,261.61 149.668,260.443 153,258.5C 153.604,260.686 154.77,260.852 156.5,259C 154.884,258.385 153.551,257.385 152.5,256C 153.549,255.508 154.549,255.674 155.5,256.5C 156.298,256.043 156.631,255.376 156.5,254.5C 158.112,253.548 159.612,253.214 161,253.5C 161.251,251.567 161.751,249.734 162.5,248C 160.924,247.612 159.591,248.112 158.5,249.5C 159.326,250.451 159.492,251.451 159,252.5C 157.615,251.449 156.615,250.116 156,248.5C 154.137,251.502 151.637,251.669 148.5,249C 150.891,247.691 150.891,246.691 148.5,246C 150.329,244.462 151.829,244.962 153,247.5C 154.302,246.915 155.469,246.249 156.5,245.5C 157.458,245.953 158.292,246.619 159,247.5C 160.865,245.145 163.031,244.978 165.5,247C 164.62,248.356 164.286,249.856 164.5,251.5C 167.212,251.737 169.712,251.737 172,251.5C 172.535,253.271 173.369,253.604 174.5,252.5C 173.516,250.52 172.183,248.853 170.5,247.5C 172.43,245.86 173.263,243.86 173,241.5C 169.021,246.904 167.354,246.57 168,240.5C 171.262,241.841 171.762,241.508 169.5,239.5C 170.365,239.436 171.365,239.103 172.5,238.5C 173.429,237.311 173.762,235.978 173.5,234.5C 175.429,234.231 177.095,234.731 178.5,236C 176.915,236.085 175.582,236.251 174.5,236.5C 178.608,239.996 182.275,239.83 185.5,236C 183.744,235.798 182.078,235.298 180.5,234.5C 183.238,233.521 185.572,234.188 187.5,236.5 Z"/></g>
<g><path style="opacity:1" fill="#474747" d="M 186.5,269.5 C 185.089,271.914 183.089,273.581 180.5,274.5C 180.631,273.624 180.298,272.957 179.5,272.5C 178.177,274.682 176.51,275.349 174.5,274.5C 169.241,277.32 163.741,277.987 158,276.5C 150.085,278.589 142.251,278.923 134.5,277.5C 130.492,275.32 126.492,273.986 122.5,273.5C 121.702,273.957 121.369,274.624 121.5,275.5C 120.167,274.833 119.167,273.833 118.5,272.5C 119.997,271.694 121.664,271.028 123.5,270.5C 131.837,272.345 140.171,274.011 148.5,275.5C 149.468,274.511 150.635,273.844 152,273.5C 154.783,276.44 156.45,275.773 157,271.5C 158.085,272.293 159.252,272.96 160.5,273.5C 161.403,271.143 163.07,269.643 165.5,269C 168.167,268.667 170.833,268.333 173.5,268C 174.421,266.244 175.588,266.077 177,267.5C 178.326,266.201 179.66,264.868 181,263.5C 181.561,264.022 182.228,264.355 183,264.5C 184.72,263.277 186.553,262.277 188.5,261.5C 189.167,261.667 189.833,261.833 190.5,262C 188.46,264.185 187.126,266.685 186.5,269.5 Z"/></g>
<g><path style="opacity:0.987" fill="#2e2e2e" d="M 180.5,274.5 C 179.342,277.822 177.008,279.988 173.5,281C 160.681,284.758 147.681,285.424 134.5,283C 129.185,282.015 124.852,279.515 121.5,275.5C 121.369,274.624 121.702,273.957 122.5,273.5C 126.492,273.986 130.492,275.32 134.5,277.5C 142.251,278.923 150.085,278.589 158,276.5C 163.741,277.987 169.241,277.32 174.5,274.5C 176.51,275.349 178.177,274.682 179.5,272.5C 180.298,272.957 180.631,273.624 180.5,274.5 Z"/></g>
</svg>
