<?xml version="1.0" encoding="UTF-8"?>
<!DOCTYPE svg PUBLIC "-//W3C//DTD SVG 1.1//EN" "http://www.w3.org/Graphics/SVG/1.1/DTD/svg11.dtd">
<svg xmlns="http://www.w3.org/2000/svg" version="1.1" width="250px" height="250px" style="shape-rendering:geometricPrecision; text-rendering:geometricPrecision; image-rendering:optimizeQuality; fill-rule:evenodd; clip-rule:evenodd" xmlns:xlink="http://www.w3.org/1999/xlink">
<g><path style="opacity:0.298" fill="#e4e7d9" d="M 104.5,23.5 C 102.799,21.2685 101.466,18.7685 100.5,16C 99.0692,15.5348 97.9025,14.7014 97,13.5C 95.9614,14.2438 95.4614,15.2438 95.5,16.5C 94.596,17.209 94.2627,18.209 94.5,19.5C 92.3618,19.297 90.6951,18.297 89.5,16.5C 88.5,17.8333 87.5,17.8333 86.5,16.5C 85.8765,18.9661 85.0432,21.2994 84,23.5C 83.0853,22.6721 82.4186,21.6721 82,20.5C 81.5831,21.756 80.7498,22.4226 79.5,22.5C 79.6941,20.0882 81.0274,19.0882 83.5,19.5C 83.2907,17.2856 84.124,15.619 86,14.5C 87.4509,15.3553 88.9509,15.5219 90.5,15C 91.7014,15.9025 92.5348,17.0692 93,18.5C 94.4973,16.0413 94.664,13.5413 93.5,11C 93.6667,9.5 94.5,8.66667 96,8.5C 100.678,12.3702 103.511,17.3702 104.5,23.5 Z"/></g>
<g><path style="opacity:1" fill="#adb78c" d="M 111.5,10.5 C 111.335,13.5184 111.502,16.5184 112,19.5C 112.308,18.6919 112.808,18.0253 113.5,17.5C 114.047,20.7024 115.047,23.7024 116.5,26.5C 115.691,28.0709 115.357,29.7376 115.5,31.5C 115.222,33.3464 115.889,34.6798 117.5,35.5C 119.499,34.4924 121.166,33.159 122.5,31.5C 122.833,35.8333 120.833,37.8333 116.5,37.5C 116.027,36.0937 115.027,35.427 113.5,35.5C 113.108,33.8211 112.608,32.1545 112,30.5C 111.237,33.0635 110.737,33.0635 110.5,30.5C 111.302,27.5514 111.636,24.5514 111.5,21.5C 110.5,21.5 109.5,21.5 108.5,21.5C 108.336,18.8127 108.503,16.146 109,13.5C 109.236,11.8807 110.069,10.8807 111.5,10.5 Z"/></g>
<g><path style="opacity:0.145" fill="#f0f3e0" d="M 111.5,10.5 C 110.069,10.8807 109.236,11.8807 109,13.5C 108.503,16.146 108.336,18.8127 108.5,21.5C 108.54,24.8806 108.207,28.2139 107.5,31.5C 105.415,29.3155 104.415,26.6489 104.5,23.5C 105.315,24.4293 106.148,25.4293 107,26.5C 107.76,22.7745 107.593,19.1078 106.5,15.5C 107.167,13.8333 107.833,12.1667 108.5,10.5C 109.614,9.2241 110.614,9.2241 111.5,10.5 Z"/></g>
<g><path style="opacity:0.506" fill="#ecf1dc" d="M 111.5,10.5 C 114.332,13.7914 115.665,17.4581 115.5,21.5C 118.117,24.9463 118.117,28.2796 115.5,31.5C 115.357,29.7376 115.691,28.0709 116.5,26.5C 115.047,23.7024 114.047,20.7024 113.5,17.5C 112.808,18.0253 112.308,18.6919 112,19.5C 111.502,16.5184 111.335,13.5184 111.5,10.5 Z"/></g>
<g><path style="opacity:0.4" fill="#e8edc8" d="M 154.5,32.5 C 153.833,32.5 153.167,32.5 152.5,32.5C 150.225,27.1633 146.559,26.1633 141.5,29.5C 138.671,28.2533 136.005,26.7533 133.5,25C 130.073,23.8343 127.407,24.6676 125.5,27.5C 124.5,28.8333 123.5,30.1667 122.5,31.5C 123.032,26.6334 125.698,23.6334 130.5,22.5C 134.466,23.2335 137.966,24.9002 141,27.5C 147.582,23.7822 152.082,25.4488 154.5,32.5 Z"/></g>
<g><path style="opacity:0.247" fill="#ecf1e2" d="M 69.5,26.5 C 64.7295,27.1065 64.3962,28.7732 68.5,31.5C 68.6535,33.9699 69.6535,35.9699 71.5,37.5C 71.9926,39.8056 72.3259,42.139 72.5,44.5C 72.1667,44.5 71.8333,44.5 71.5,44.5C 70.4893,40.1438 68.6559,36.1438 66,32.5C 65.023,30.26 64.523,27.9267 64.5,25.5C 66.4147,25.2155 68.0813,25.5489 69.5,26.5 Z"/></g>
<g><path style="opacity:0.561" fill="#ecf2e4" d="M 79.5,22.5 C 80.0138,24.5116 80.1805,26.5116 80,28.5C 79.6667,28.1667 79.3333,27.8333 79,27.5C 78.6924,28.3081 78.1924,28.9747 77.5,29.5C 74.7112,27.725 72.0445,26.725 69.5,26.5C 71.9358,24.9829 74.1024,25.3162 76,27.5C 77.1889,25.7669 78.3556,24.1002 79.5,22.5 Z"/></g>
<g><path style="opacity:0.055" fill="#f6f5e7" d="M 167.5,26.5 C 166.167,27.5 164.833,28.5 163.5,29.5C 163.707,26.3657 165.04,25.3657 167.5,26.5 Z"/></g>
<g><path style="opacity:1" fill="#a1b081" d="M 104.5,23.5 C 104.415,26.6489 105.415,29.3155 107.5,31.5C 107.682,33.6746 108.349,35.6746 109.5,37.5C 109.267,38.9317 108.6,39.4317 107.5,39C 103.119,25.0936 101.785,25.2603 103.5,39.5C 102.5,39.5 101.5,39.5 100.5,39.5C 100.806,42.3854 100.473,45.0521 99.5,47.5C 98.4861,45.4261 97.4861,43.4261 96.5,41.5C 94.8883,37.9416 93.555,34.2749 92.5,30.5C 92.628,28.3453 92.128,26.3453 91,24.5C 90.6174,25.056 90.1174,25.3893 89.5,25.5C 89.3118,23.8967 89.8118,22.5634 91,21.5C 92.1131,22.7111 93.2798,22.7111 94.5,21.5C 95.4519,19.9547 95.7852,18.288 95.5,16.5C 95.4614,15.2438 95.9614,14.2438 97,13.5C 97.9025,14.7014 99.0692,15.5348 100.5,16C 101.466,18.7685 102.799,21.2685 104.5,23.5 Z"/></g>
<g><path style="opacity:1" fill="#99a54e" d="M 152.5,32.5 C 151.481,34.1015 149.981,35.1015 148,35.5C 146.418,33.9712 144.585,33.4712 142.5,34C 139.527,41.2671 137.693,41.1004 137,33.5C 136.162,32.001 135.329,31.6676 134.5,32.5C 133.222,32.7822 132.222,33.4489 131.5,34.5C 130.411,32.8829 128.744,32.0496 126.5,32C 128.043,29.9551 127.71,28.4551 125.5,27.5C 127.407,24.6676 130.073,23.8343 133.5,25C 136.005,26.7533 138.671,28.2533 141.5,29.5C 146.559,26.1633 150.225,27.1633 152.5,32.5 Z"/></g>
<g><path style="opacity:1" fill="#7f872b" d="M 125.5,27.5 C 127.71,28.4551 128.043,29.9551 126.5,32C 128.744,32.0496 130.411,32.8829 131.5,34.5C 131.335,39.7997 129.835,40.4664 127,36.5C 126.272,39.2305 126.438,41.8971 127.5,44.5C 127,44.8333 126.5,45.1667 126,45.5C 124.449,43.106 122.282,41.7727 119.5,41.5C 118.833,41.5 118.167,41.5 117.5,41.5C 116.504,41.4142 115.671,41.7476 115,42.5C 114.387,40.5048 114.887,38.8381 116.5,37.5C 120.833,37.8333 122.833,35.8333 122.5,31.5C 123.5,30.1667 124.5,28.8333 125.5,27.5 Z"/></g>
<g><path style="opacity:1" fill="#3f560c" d="M 92.5,30.5 C 93.555,34.2749 94.8883,37.9416 96.5,41.5C 96.1788,43.0481 95.1788,43.7148 93.5,43.5C 93.666,47.3734 92.666,48.0401 90.5,45.5C 90.7274,40.4564 90.394,35.4564 89.5,30.5C 89.8333,29.8333 90.1667,29.1667 90.5,28.5C 91.1818,29.2427 91.8485,29.9094 92.5,30.5 Z"/></g>
<g><path style="opacity:0.984" fill="#d8dcce" d="M 64.5,41.5 C 63.1667,41.5 61.8333,41.5 60.5,41.5C 60.366,43.2915 60.6993,44.9582 61.5,46.5C 57.927,45.4374 56.0937,43.1041 56,39.5C 59.1548,38.6033 61.9881,39.27 64.5,41.5 Z"/></g>
<g><path style="opacity:1" fill="#bdcaa1" d="M 95.5,16.5 C 95.7852,18.288 95.4519,19.9547 94.5,21.5C 93.2798,22.7111 92.1131,22.7111 91,21.5C 89.8118,22.5634 89.3118,23.8967 89.5,25.5C 87.7151,25.9256 86.7151,27.0922 86.5,29C 89.0304,35.8573 89.0304,42.6907 86.5,49.5C 81.0794,47.2417 77.2461,43.5751 75,38.5C 76.5,40 78,41.5 79.5,43C 80.635,43.7494 81.635,43.5827 82.5,42.5C 80.9967,38.6444 80.33,34.6444 80.5,30.5C 77.2914,30.5893 74.1248,30.256 71,29.5C 69.6244,29.6842 68.7911,30.3509 68.5,31.5C 64.3962,28.7732 64.7295,27.1065 69.5,26.5C 72.0445,26.725 74.7112,27.725 77.5,29.5C 78.1924,28.9747 78.6924,28.3081 79,27.5C 79.3333,27.8333 79.6667,28.1667 80,28.5C 80.1805,26.5116 80.0138,24.5116 79.5,22.5C 80.7498,22.4226 81.5831,21.756 82,20.5C 82.4186,21.6721 83.0853,22.6721 84,23.5C 85.0432,21.2994 85.8765,18.9661 86.5,16.5C 87.5,17.8333 88.5,17.8333 89.5,16.5C 90.6951,18.297 92.3618,19.297 94.5,19.5C 94.2627,18.209 94.596,17.209 95.5,16.5 Z"/></g>
<g><path style="opacity:1" fill="#7a8e35" d="M 108.5,21.5 C 109.5,21.5 110.5,21.5 111.5,21.5C 111.636,24.5514 111.302,27.5514 110.5,30.5C 110.737,33.0635 111.237,33.0635 112,30.5C 112.608,32.1545 113.108,33.8211 113.5,35.5C 112.963,37.7112 111.963,39.7112 110.5,41.5C 109.926,45.6164 108.926,49.6164 107.5,53.5C 107.863,54.1835 108.196,54.8501 108.5,55.5C 107.694,56.7281 106.694,57.7281 105.5,58.5C 106.394,55.832 106.394,52.832 105.5,49.5C 104.522,49.9767 103.689,50.6433 103,51.5C 102.667,53.5 102.333,55.5 102,57.5C 101.333,56.1667 100.667,54.8333 100,53.5C 99.3292,54.2524 98.4959,54.5858 97.5,54.5C 98.449,52.2627 99.1156,49.9294 99.5,47.5C 100.473,45.0521 100.806,42.3854 100.5,39.5C 101.5,39.5 102.5,39.5 103.5,39.5C 101.785,25.2603 103.119,25.0936 107.5,39C 108.6,39.4317 109.267,38.9317 109.5,37.5C 108.349,35.6746 107.682,33.6746 107.5,31.5C 108.207,28.2139 108.54,24.8806 108.5,21.5 Z"/></g>
<g><path style="opacity:1" fill="#c1c0ad" d="M 162.5,30.5 C 160.751,32.9276 159.418,35.5943 158.5,38.5C 157.575,39.6405 156.741,39.6405 156,38.5C 152.23,43.2992 152.73,47.4658 157.5,51C 155.714,51.7845 154.214,52.9512 153,54.5C 151.89,52.9632 150.39,52.2965 148.5,52.5C 149.412,48.8694 149.579,45.2027 149,41.5C 146.909,44.9623 144.743,47.6289 142.5,49.5C 140.959,48.7142 139.626,47.7142 138.5,46.5C 137.883,46.6107 137.383,46.944 137,47.5C 135.529,56.6509 133.196,56.6509 130,47.5C 129.338,45.1873 128.838,42.854 128.5,40.5C 131.05,40.5608 132.55,41.8941 133,44.5C 133.392,40.4724 133.892,36.4724 134.5,32.5C 135.329,31.6676 136.162,32.001 137,33.5C 137.693,41.1004 139.527,41.2671 142.5,34C 144.585,33.4712 146.418,33.9712 148,35.5C 149.981,35.1015 151.481,34.1015 152.5,32.5C 153.167,32.5 153.833,32.5 154.5,32.5C 155.15,32.8039 155.817,33.1373 156.5,33.5C 158.302,32.0144 160.302,31.0144 162.5,30.5 Z"/></g>
<g><path style="opacity:1" fill="#95a279" d="M 71.5,37.5 C 73.4909,42.6699 76.1575,47.5032 79.5,52C 79.3552,52.772 79.0219,53.4387 78.5,54C 74.7548,53.9646 74.0881,54.9646 76.5,57C 75.2264,57.9772 75.2264,58.8106 76.5,59.5C 76.811,60.4778 77.4777,61.1445 78.5,61.5C 79.7362,60.7542 81.0695,60.4208 82.5,60.5C 85.0673,60.7215 87.4006,61.3882 89.5,62.5C 87.5853,62.2155 85.9187,62.5489 84.5,63.5C 79.7847,63.494 75.118,62.994 70.5,62C 71.5,61 72.5,60 73.5,59C 71.1701,56.8036 69.8368,54.4703 69.5,52C 66.6305,50.4037 63.9639,48.5703 61.5,46.5C 60.6993,44.9582 60.366,43.2915 60.5,41.5C 61.8333,41.5 63.1667,41.5 64.5,41.5C 67.1829,44.6719 70.5163,46.5052 74.5,47C 73.9341,46.0053 73.2674,45.172 72.5,44.5C 72.3259,42.139 71.9926,39.8056 71.5,37.5 Z"/></g>
<g><path style="opacity:0.357" fill="#e4ead9" d="M 64.5,41.5 C 66.9798,42.242 69.3131,43.242 71.5,44.5C 71.8333,45.8333 72.1667,45.8333 72.5,44.5C 73.2674,45.172 73.9341,46.0053 74.5,47C 70.5163,46.5052 67.1829,44.6719 64.5,41.5 Z"/></g>
<g><path style="opacity:1" fill="#35370b" d="M 117.5,41.5 C 118.167,41.5 118.833,41.5 119.5,41.5C 120.509,44.5274 120.509,47.5274 119.5,50.5C 117.664,49.9724 115.997,49.3058 114.5,48.5C 114.389,47.8826 114.056,47.3826 113.5,47C 115.052,45.2884 116.385,43.455 117.5,41.5 Z"/></g>
<g><path style="opacity:1" fill="#acaa97" d="M 166.5,34.5 C 167.139,35.0968 167.472,35.9302 167.5,37C 166.854,40.8125 166.354,44.6458 166,48.5C 165.502,50.5444 164.335,51.8777 162.5,52.5C 161.729,50.8864 160.729,49.3864 159.5,48C 160.824,43.1911 163.157,38.6911 166.5,34.5 Z"/></g>
<g><path style="opacity:0.018" fill="#edece2" d="M 167.5,26.5 C 168.785,33.3271 168.785,40.3271 167.5,47.5C 167.833,47.8333 168.167,48.1667 168.5,48.5C 174.349,45.6814 175.682,47.0147 172.5,52.5C 172.762,51.0222 172.429,49.6888 171.5,48.5C 168.124,51.8782 164.457,54.8782 160.5,57.5C 160.167,57.1667 159.833,56.8333 159.5,56.5C 160.524,55.1482 161.524,53.8149 162.5,52.5C 164.335,51.8777 165.502,50.5444 166,48.5C 166.354,44.6458 166.854,40.8125 167.5,37C 167.472,35.9302 167.139,35.0968 166.5,34.5C 167.092,31.8728 167.425,29.2062 167.5,26.5 Z"/></g>
<g><path style="opacity:1" fill="#6e881f" d="M 96.5,41.5 C 97.4861,43.4261 98.4861,45.4261 99.5,47.5C 99.1156,49.9294 98.449,52.2627 97.5,54.5C 96.5,54.5 95.5,54.5 94.5,54.5C 90.9915,52.6209 89.6581,49.6209 90.5,45.5C 92.666,48.0401 93.666,47.3734 93.5,43.5C 95.1788,43.7148 96.1788,43.0481 96.5,41.5 Z"/></g>
<g><path style="opacity:1" fill="#999871" d="M 167.5,26.5 C 167.425,29.2062 167.092,31.8728 166.5,34.5C 163.157,38.6911 160.824,43.1911 159.5,48C 160.729,49.3864 161.729,50.8864 162.5,52.5C 161.524,53.8149 160.524,55.1482 159.5,56.5C 159.833,56.8333 160.167,57.1667 160.5,57.5C 164.457,54.8782 168.124,51.8782 171.5,48.5C 172.429,49.6888 172.762,51.0222 172.5,52.5C 172.672,53.4916 172.338,54.1583 171.5,54.5C 170.833,55.8333 170.167,57.1667 169.5,58.5C 169.265,57.9033 168.765,57.5699 168,57.5C 164.768,58.2932 161.934,59.6265 159.5,61.5C 159.649,60.448 159.483,59.448 159,58.5C 157.634,60.3617 156.134,62.0283 154.5,63.5C 152.167,63.5 149.833,63.5 147.5,63.5C 148.458,62.0384 149.624,60.7051 151,59.5C 151.49,58.2068 151.657,56.8734 151.5,55.5C 145.736,55.5765 143.403,58.2432 144.5,63.5C 141.833,63.5 139.167,63.5 136.5,63.5C 135.522,60.1593 133.189,58.4926 129.5,58.5C 127.973,58.573 126.973,57.9063 126.5,56.5C 130.229,57.9905 133.729,57.6572 137,55.5C 137.667,56.8333 138.333,58.1667 139,59.5C 140.312,57.0448 141.478,54.5448 142.5,52C 139.583,51.3378 138.25,49.5045 138.5,46.5C 139.626,47.7142 140.959,48.7142 142.5,49.5C 144.743,47.6289 146.909,44.9623 149,41.5C 149.579,45.2027 149.412,48.8694 148.5,52.5C 150.39,52.2965 151.89,52.9632 153,54.5C 154.214,52.9512 155.714,51.7845 157.5,51C 152.73,47.4658 152.23,43.2992 156,38.5C 156.741,39.6405 157.575,39.6405 158.5,38.5C 159.418,35.5943 160.751,32.9276 162.5,30.5C 162.5,29.8333 162.833,29.5 163.5,29.5C 164.833,28.5 166.167,27.5 167.5,26.5 Z"/></g>
<g><path style="opacity:1" fill="#94a867" d="M 92.5,30.5 C 91.8485,29.9094 91.1818,29.2427 90.5,28.5C 90.1667,29.1667 89.8333,29.8333 89.5,30.5C 90.394,35.4564 90.7274,40.4564 90.5,45.5C 89.6581,49.6209 90.9915,52.6209 94.5,54.5C 94.1193,55.9311 93.1193,56.7645 91.5,57C 86.9132,57.7991 82.4132,57.6324 78,56.5C 77.7679,57.7375 77.2679,58.7375 76.5,59.5C 75.2264,58.8106 75.2264,57.9772 76.5,57C 74.0881,54.9646 74.7548,53.9646 78.5,54C 79.0219,53.4387 79.3552,52.772 79.5,52C 76.1575,47.5032 73.4909,42.6699 71.5,37.5C 69.6535,35.9699 68.6535,33.9699 68.5,31.5C 68.7911,30.3509 69.6244,29.6842 71,29.5C 74.1248,30.256 77.2914,30.5893 80.5,30.5C 80.33,34.6444 80.9967,38.6444 82.5,42.5C 81.635,43.5827 80.635,43.7494 79.5,43C 78,41.5 76.5,40 75,38.5C 77.2461,43.5751 81.0794,47.2417 86.5,49.5C 89.0304,42.6907 89.0304,35.8573 86.5,29C 86.7151,27.0922 87.7151,25.9256 89.5,25.5C 90.1174,25.3893 90.6174,25.056 91,24.5C 92.128,26.3453 92.628,28.3453 92.5,30.5 Z"/></g>
<g><path style="opacity:0.955" fill="#525f1b" d="M 113.5,35.5 C 115.027,35.427 116.027,36.0937 116.5,37.5C 114.887,38.8381 114.387,40.5048 115,42.5C 115.671,41.7476 116.504,41.4142 117.5,41.5C 116.385,43.455 115.052,45.2884 113.5,47C 114.056,47.3826 114.389,47.8826 114.5,48.5C 112.957,49.7358 111.957,51.4024 111.5,53.5C 111.833,53.8333 112.167,54.1667 112.5,54.5C 113.854,52.8164 115.521,52.3164 117.5,53C 118.774,53.9772 118.774,54.8106 117.5,55.5C 114.81,55.3387 111.81,55.3387 108.5,55.5C 108.196,54.8501 107.863,54.1835 107.5,53.5C 108.926,49.6164 109.926,45.6164 110.5,41.5C 111.963,39.7112 112.963,37.7112 113.5,35.5 Z"/></g>
<g><path style="opacity:1" fill="#afae8d" d="M 134.5,32.5 C 133.892,36.4724 133.392,40.4724 133,44.5C 132.55,41.8941 131.05,40.5608 128.5,40.5C 128.838,42.854 129.338,45.1873 130,47.5C 133.196,56.6509 135.529,56.6509 137,47.5C 137.383,46.944 137.883,46.6107 138.5,46.5C 138.25,49.5045 139.583,51.3378 142.5,52C 141.478,54.5448 140.312,57.0448 139,59.5C 138.333,58.1667 137.667,56.8333 137,55.5C 133.729,57.6572 130.229,57.9905 126.5,56.5C 126.631,55.7611 126.464,55.0944 126,54.5C 124.294,55.3079 123.461,56.6412 123.5,58.5C 121.588,57.2008 119.588,56.2008 117.5,55.5C 118.774,54.8106 118.774,53.9772 117.5,53C 115.521,52.3164 113.854,52.8164 112.5,54.5C 112.167,54.1667 111.833,53.8333 111.5,53.5C 111.957,51.4024 112.957,49.7358 114.5,48.5C 115.997,49.3058 117.664,49.9724 119.5,50.5C 120.509,47.5274 120.509,44.5274 119.5,41.5C 122.282,41.7727 124.449,43.106 126,45.5C 126.5,45.1667 127,44.8333 127.5,44.5C 126.438,41.8971 126.272,39.2305 127,36.5C 129.835,40.4664 131.335,39.7997 131.5,34.5C 132.222,33.4489 133.222,32.7822 134.5,32.5 Z"/></g>
<g><path style="opacity:1" fill="#5c6b24" d="M 105.5,58.5 C 104.122,59.2344 102.622,59.9011 101,60.5C 100.692,59.6919 100.192,59.0253 99.5,58.5C 93.7024,59.1263 88.0357,59.793 82.5,60.5C 81.0695,60.4208 79.7362,60.7542 78.5,61.5C 77.4777,61.1445 76.811,60.4778 76.5,59.5C 77.2679,58.7375 77.7679,57.7375 78,56.5C 82.4132,57.6324 86.9132,57.7991 91.5,57C 93.1193,56.7645 94.1193,55.9311 94.5,54.5C 95.5,54.5 96.5,54.5 97.5,54.5C 98.4959,54.5858 99.3292,54.2524 100,53.5C 100.667,54.8333 101.333,56.1667 102,57.5C 102.333,55.5 102.667,53.5 103,51.5C 103.689,50.6433 104.522,49.9767 105.5,49.5C 106.394,52.832 106.394,55.832 105.5,58.5 Z"/></g>
<g><path style="opacity:1" fill="#535321" d="M 147.5,63.5 C 146.5,63.5 145.5,63.5 144.5,63.5C 143.403,58.2432 145.736,55.5765 151.5,55.5C 151.657,56.8734 151.49,58.2068 151,59.5C 149.624,60.7051 148.458,62.0384 147.5,63.5 Z"/></g>
<g><path style="opacity:1" fill="#1e200a" d="M 110.5,60.5 C 109.255,60.9693 109.421,61.3026 111,61.5C 112.261,61.2409 113.261,60.5742 114,59.5C 115.579,61.0412 117.413,62.2078 119.5,63C 110.173,63.4998 100.839,63.6665 91.5,63.5C 89.1667,63.5 86.8333,63.5 84.5,63.5C 85.9187,62.5489 87.5853,62.2155 89.5,62.5C 91.258,62.1231 92.9246,61.4565 94.5,60.5C 96.7771,60.0145 98.9437,60.6812 101,62.5C 104.081,60.3163 107.247,59.6496 110.5,60.5 Z"/></g>
<g><path style="opacity:1" fill="#4d461f" d="M 129.5,58.5 C 133.189,58.4926 135.522,60.1593 136.5,63.5C 134.833,63.5 133.167,63.5 131.5,63.5C 130.251,61.8639 128.584,60.6972 126.5,60C 127.737,59.7679 128.737,59.2679 129.5,58.5 Z"/></g>
<g><path style="opacity:1" fill="#2f330d" d="M 117.5,55.5 C 119.588,56.2008 121.588,57.2008 123.5,58.5C 124.463,59.3635 124.463,60.0302 123.5,60.5C 120.117,58.8722 116.617,57.5388 113,56.5C 112.663,58.0731 111.829,59.4065 110.5,60.5C 107.247,59.6496 104.081,60.3163 101,62.5C 98.9437,60.6812 96.7771,60.0145 94.5,60.5C 92.9246,61.4565 91.258,62.1231 89.5,62.5C 87.4006,61.3882 85.0673,60.7215 82.5,60.5C 88.0357,59.793 93.7024,59.1263 99.5,58.5C 100.192,59.0253 100.692,59.6919 101,60.5C 102.622,59.9011 104.122,59.2344 105.5,58.5C 106.694,57.7281 107.694,56.7281 108.5,55.5C 111.81,55.3387 114.81,55.3387 117.5,55.5 Z"/></g>
<g><path style="opacity:1" fill="#837962" d="M 126.5,56.5 C 126.973,57.9063 127.973,58.573 129.5,58.5C 128.737,59.2679 127.737,59.7679 126.5,60C 128.584,60.6972 130.251,61.8639 131.5,63.5C 128.287,63.19 125.287,63.5233 122.5,64.5C 118.833,64.5 115.167,64.5 111.5,64.5C 104.646,64.824 97.979,64.4907 91.5,63.5C 100.839,63.6665 110.173,63.4998 119.5,63C 117.413,62.2078 115.579,61.0412 114,59.5C 113.261,60.5742 112.261,61.2409 111,61.5C 109.421,61.3026 109.255,60.9693 110.5,60.5C 111.829,59.4065 112.663,58.0731 113,56.5C 116.617,57.5388 120.117,58.8722 123.5,60.5C 124.463,60.0302 124.463,59.3635 123.5,58.5C 123.461,56.6412 124.294,55.3079 126,54.5C 126.464,55.0944 126.631,55.7611 126.5,56.5 Z"/></g>
<g><path style="opacity:1" fill="#665d41" d="M 169.5,58.5 C 170.348,60.0931 171.681,61.2597 173.5,62C 170.635,62.1829 167.969,62.6829 165.5,63.5C 161.833,63.5 158.167,63.5 154.5,63.5C 156.134,62.0283 157.634,60.3617 159,58.5C 159.483,59.448 159.649,60.448 159.5,61.5C 161.934,59.6265 164.768,58.2932 168,57.5C 168.765,57.5699 169.265,57.9033 169.5,58.5 Z"/></g>
<g><path style="opacity:1" fill="#b8b7b3" d="M 171.5,54.5 C 171.5,55.8333 171.5,57.1667 171.5,58.5C 176.859,58.6697 182.192,59.1697 187.5,60C 188.059,60.7247 188.392,61.5581 188.5,62.5C 186.643,70.9506 184.977,79.4506 183.5,88C 183.834,90.1745 184.834,92.0079 186.5,93.5C 186,94.5 185.5,95.5 185,96.5C 184.833,117.167 184.667,137.833 184.5,158.5C 184.519,180.622 184.852,202.455 185.5,224C 183.191,228.488 179.525,230.988 174.5,231.5C 174.5,230.833 174.833,230.5 175.5,230.5C 177.23,229.974 178.564,228.974 179.5,227.5C 180.794,226.71 181.961,225.71 183,224.5C 183.172,180.792 183.672,137.125 184.5,93.5C 183.675,92.6143 182.675,92.281 181.5,92.5C 181.5,91.5 181.5,90.5 181.5,89.5C 179.549,89.7733 178.049,89.1066 177,87.5C 176.754,80.4158 176.421,73.4158 176,66.5C 174.246,64.75 172.079,64.0833 169.5,64.5C 168.833,64.5 168.167,64.5 167.5,64.5C 167.158,63.6618 166.492,63.3284 165.5,63.5C 167.969,62.6829 170.635,62.1829 173.5,62C 171.681,61.2597 170.348,60.0931 169.5,58.5C 170.167,57.1667 170.833,55.8333 171.5,54.5 Z"/></g>
<g><path style="opacity:1" fill="#d0cdc9" d="M 111.5,64.5 C 115.167,64.5 118.833,64.5 122.5,64.5C 125.85,64.335 129.183,64.5017 132.5,65C 131.207,65.49 129.873,65.6567 128.5,65.5C 127.739,69.7099 126.739,73.8766 125.5,78C 125.905,78.9454 126.572,79.6121 127.5,80C 126.692,80.3076 126.025,80.8076 125.5,81.5C 125.519,84.3195 125.852,87.1528 126.5,90C 125.051,91.117 123.384,91.7837 121.5,92C 122.167,92.3333 122.833,92.6667 123.5,93C 122.584,93.2784 121.918,93.7784 121.5,94.5C 117.167,94.5 112.833,94.5 108.5,94.5C 94.7811,94.738 81.1144,94.0713 67.5,92.5C 67.5,93.5 67.5,94.5 67.5,95.5C 67.5,122.5 67.5,149.5 67.5,176.5C 67.8016,191.529 67.4683,206.529 66.5,221.5C 66.8988,223.197 67.3988,224.863 68,226.5C 70.0153,227.697 71.8487,229.03 73.5,230.5C 68.0543,230.051 65.3876,227.051 65.5,221.5C 66.0154,178.264 66.6821,134.931 67.5,91.5C 68.9911,90.6519 69.6578,89.3186 69.5,87.5C 68.4423,82.8806 67.7756,78.2139 67.5,73.5C 67.2122,70.1337 67.0455,66.8004 67,63.5C 69.6711,66.0361 70.5045,69.0361 69.5,72.5C 69.8333,72.8333 70.1667,73.1667 70.5,73.5C 71.3857,72.675 71.719,71.675 71.5,70.5C 75.3107,70.4042 75.3107,69.7376 71.5,68.5C 70.7542,67.2638 70.4208,65.9305 70.5,64.5C 73.5184,64.3354 76.5184,64.502 79.5,65C 79.1667,65.3333 78.8333,65.6667 78.5,66C 79.6226,67.0437 80.9559,67.7104 82.5,68C 81.5,68.3333 80.5,68.6667 79.5,69C 82.1667,69 84.8333,69 87.5,69C 82.373,70.5259 82.373,71.5259 87.5,72C 85.9984,72.5831 84.6651,73.4164 83.5,74.5C 84.8333,75.8333 86.1667,77.1667 87.5,78.5C 86.3112,79.4287 84.9778,79.762 83.5,79.5C 82.9084,82.1272 82.5751,84.7938 82.5,87.5C 83.552,87.3505 84.552,87.5172 85.5,88C 84.0267,88.7096 83.3601,89.8762 83.5,91.5C 84.8734,91.6567 86.2068,91.49 87.5,91C 87.1667,90.6667 86.8333,90.3333 86.5,90C 87.5,89.6667 88.5,89.3333 89.5,89C 87.0958,88.4921 86.4291,87.3255 87.5,85.5C 90.4465,84.6786 93.4465,84.1786 96.5,84C 97,83.5 97.5,83 98,82.5C 99.2022,84.6775 99.7022,87.0108 99.5,89.5C 100.873,89.6567 102.207,89.49 103.5,89C 102.833,88.6667 102.167,88.3333 101.5,88C 102.444,85.2809 102.777,82.4475 102.5,79.5C 104.288,79.7852 105.955,79.4519 107.5,78.5C 106.415,75.227 106.248,71.8936 107,68.5C 107.928,66.7377 109.428,65.4044 111.5,64.5 Z"/></g>
<g><path style="opacity:1" fill="#d6d4ce" d="M 61.5,46.5 C 63.9639,48.5703 66.6305,50.4037 69.5,52C 69.8368,54.4703 71.1701,56.8036 73.5,59C 72.5,60 71.5,61 70.5,62C 75.118,62.994 79.7847,63.494 84.5,63.5C 86.8333,63.5 89.1667,63.5 91.5,63.5C 97.979,64.4907 104.646,64.824 111.5,64.5C 109.428,65.4044 107.928,66.7377 107,68.5C 106.248,71.8936 106.415,75.227 107.5,78.5C 105.955,79.4519 104.288,79.7852 102.5,79.5C 102.777,82.4475 102.444,85.2809 101.5,88C 102.167,88.3333 102.833,88.6667 103.5,89C 102.207,89.49 100.873,89.6567 99.5,89.5C 99.7022,87.0108 99.2022,84.6775 98,82.5C 97.5,83 97,83.5 96.5,84C 93.4465,84.1786 90.4465,84.6786 87.5,85.5C 86.4291,87.3255 87.0958,88.4921 89.5,89C 88.5,89.3333 87.5,89.6667 86.5,90C 86.8333,90.3333 87.1667,90.6667 87.5,91C 86.2068,91.49 84.8734,91.6567 83.5,91.5C 83.3601,89.8762 84.0267,88.7096 85.5,88C 84.552,87.5172 83.552,87.3505 82.5,87.5C 82.5751,84.7938 82.9084,82.1272 83.5,79.5C 84.9778,79.762 86.3112,79.4287 87.5,78.5C 86.1667,77.1667 84.8333,75.8333 83.5,74.5C 84.6651,73.4164 85.9984,72.5831 87.5,72C 82.373,71.5259 82.373,70.5259 87.5,69C 84.8333,69 82.1667,69 79.5,69C 80.5,68.6667 81.5,68.3333 82.5,68C 80.9559,67.7104 79.6226,67.0437 78.5,66C 78.8333,65.6667 79.1667,65.3333 79.5,65C 76.5184,64.502 73.5184,64.3354 70.5,64.5C 70.4208,65.9305 70.7542,67.2638 71.5,68.5C 75.3107,69.7376 75.3107,70.4042 71.5,70.5C 71.719,71.675 71.3857,72.675 70.5,73.5C 70.1667,73.1667 69.8333,72.8333 69.5,72.5C 70.5045,69.0361 69.6711,66.0361 67,63.5C 67.0455,66.8004 67.2122,70.1337 67.5,73.5C 65.6599,69.446 65.1599,65.1126 66,60.5C 67.7337,59.7511 69.567,59.2511 71.5,59C 68.6078,56.4426 65.4411,54.276 62,52.5C 61.5439,51.2559 62.0439,50.4226 63.5,50C 62.1772,49.1841 61.5106,48.0174 61.5,46.5 Z"/></g>
<g><path style="opacity:1" fill="#bebab3" d="M 122.5,64.5 C 125.287,63.5233 128.287,63.19 131.5,63.5C 133.167,63.5 134.833,63.5 136.5,63.5C 139.167,63.5 141.833,63.5 144.5,63.5C 145.5,63.5 146.5,63.5 147.5,63.5C 149.833,63.5 152.167,63.5 154.5,63.5C 158.167,63.5 161.833,63.5 165.5,63.5C 166.492,63.3284 167.158,63.6618 167.5,64.5C 159.798,64.4311 152.131,64.9311 144.5,66C 143.643,66.6891 142.977,67.5224 142.5,68.5C 143.5,70.1667 144.833,71.5 146.5,72.5C 144.796,75.1307 143.462,77.964 142.5,81C 142.645,81.772 142.978,82.4387 143.5,83C 142.126,86.1874 140.459,89.1874 138.5,92C 138.833,92.3333 139.167,92.6667 139.5,93C 138.263,93.2321 137.263,93.7321 136.5,94.5C 136.167,94.5 135.833,94.5 135.5,94.5C 130.833,94.5 126.167,94.5 121.5,94.5C 121.918,93.7784 122.584,93.2784 123.5,93C 122.833,92.6667 122.167,92.3333 121.5,92C 123.384,91.7837 125.051,91.117 126.5,90C 125.852,87.1528 125.519,84.3195 125.5,81.5C 126.025,80.8076 126.692,80.3076 127.5,80C 126.572,79.6121 125.905,78.9454 125.5,78C 126.739,73.8766 127.739,69.7099 128.5,65.5C 129.873,65.6567 131.207,65.49 132.5,65C 129.183,64.5017 125.85,64.335 122.5,64.5 Z"/></g>
<g><path style="opacity:1" fill="#a5a29c" d="M 169.5,64.5 C 172.079,64.0833 174.246,64.75 176,66.5C 176.421,73.4158 176.754,80.4158 177,87.5C 178.049,89.1066 179.549,89.7733 181.5,89.5C 181.5,90.5 181.5,91.5 181.5,92.5C 180.833,92.5 180.167,92.5 179.5,92.5C 172.646,92.7354 165.979,93.4021 159.5,94.5C 154.833,94.5 150.167,94.5 145.5,94.5C 148.663,93.3601 151.33,91.3601 153.5,88.5C 156.379,82.5065 159.045,76.5065 161.5,70.5C 161.291,69.914 160.957,69.414 160.5,69C 162.833,68.6667 165.167,68.3333 167.5,68C 168.973,67.2904 169.64,66.1238 169.5,64.5 Z"/></g>
<g><path style="opacity:1" fill="#adaaa2" d="M 167.5,64.5 C 168.167,64.5 168.833,64.5 169.5,64.5C 169.64,66.1238 168.973,67.2904 167.5,68C 165.167,68.3333 162.833,68.6667 160.5,69C 160.957,69.414 161.291,69.914 161.5,70.5C 159.045,76.5065 156.379,82.5065 153.5,88.5C 151.33,91.3601 148.663,93.3601 145.5,94.5C 142.5,94.5 139.5,94.5 136.5,94.5C 137.263,93.7321 138.263,93.2321 139.5,93C 139.167,92.6667 138.833,92.3333 138.5,92C 140.459,89.1874 142.126,86.1874 143.5,83C 142.978,82.4387 142.645,81.772 142.5,81C 143.462,77.964 144.796,75.1307 146.5,72.5C 144.833,71.5 143.5,70.1667 142.5,68.5C 142.977,67.5224 143.643,66.6891 144.5,66C 152.131,64.9311 159.798,64.4311 167.5,64.5 Z"/></g>
<g><path style="opacity:1" fill="#43413e" d="M 179.5,92.5 C 180.167,93.8333 180.833,95.1667 181.5,96.5C 181.167,96.5 180.833,96.5 180.5,96.5C 179.5,96.5 178.5,96.5 177.5,96.5C 174.193,97.0508 170.86,97.3841 167.5,97.5C 168.263,96.7321 169.263,96.2321 170.5,96C 166.644,95.8227 162.977,95.3227 159.5,94.5C 165.979,93.4021 172.646,92.7354 179.5,92.5 Z"/></g>
<g><path style="opacity:1" fill="#ceccc7" d="M 87.5,98.5 C 93.4707,99.2412 99.4707,99.5745 105.5,99.5C 109.66,99.8299 113.326,101.497 116.5,104.5C 114.45,107.507 112.45,110.507 110.5,113.5C 107.167,114.167 105.833,116.167 106.5,119.5C 103.073,119.976 99.7395,119.976 96.5,119.5C 94.9707,119.529 93.804,120.196 93,121.5C 92.3828,120.551 92.5494,119.718 93.5,119C 89.4129,118.471 86.7463,116.304 85.5,112.5C 84.675,111.614 83.675,111.281 82.5,111.5C 82.6567,110.127 82.49,108.793 82,107.5C 78.4947,105.431 77.6614,102.931 79.5,100C 78.8333,99.6667 78.1667,99.3333 77.5,99C 80.8168,98.5017 84.1501,98.335 87.5,98.5 Z"/></g>
<g><path style="opacity:0.999" fill="#a4a19d" d="M 177.5,96.5 C 178.5,96.5 179.5,96.5 180.5,96.5C 180.5,97.5 180.5,98.5 180.5,99.5C 177.249,112.336 171.582,124.002 163.5,134.5C 164.609,132.446 165.609,130.279 166.5,128C 165.077,125.244 163.744,122.411 162.5,119.5C 160.33,116.719 157.663,115.886 154.5,117C 156.009,115.076 158.009,113.909 160.5,113.5C 161.216,115.482 162.383,117.149 164,118.5C 163.478,116.951 163.645,115.451 164.5,114C 163.07,113.522 161.737,112.188 160.5,110C 160.905,109.055 161.572,108.388 162.5,108C 161.643,107.311 160.977,106.478 160.5,105.5C 162.838,104.384 165.004,103.05 167,101.5C 167.333,101.833 167.667,102.167 168,102.5C 170.344,100.226 173.178,99.0589 176.5,99C 177.252,98.3292 177.586,97.4959 177.5,96.5 Z"/></g>
<g><path style="opacity:1" fill="#c6c3bf" d="M 87.5,97.5 C 87.5,97.8333 87.5,98.1667 87.5,98.5C 84.1501,98.335 80.8168,98.5017 77.5,99C 78.1667,99.3333 78.8333,99.6667 79.5,100C 77.6614,102.931 78.4947,105.431 82,107.5C 82.49,108.793 82.6567,110.127 82.5,111.5C 83.675,111.281 84.675,111.614 85.5,112.5C 86.7463,116.304 89.4129,118.471 93.5,119C 92.5494,119.718 92.3828,120.551 93,121.5C 93.804,120.196 94.9707,119.529 96.5,119.5C 99.7395,119.976 103.073,119.976 106.5,119.5C 105.833,116.167 107.167,114.167 110.5,113.5C 112.45,110.507 114.45,107.507 116.5,104.5C 113.326,101.497 109.66,99.8299 105.5,99.5C 110.87,99.3921 116.203,99.7255 121.5,100.5C 127.531,101.727 129.698,105.394 128,111.5C 124.724,117.108 121.057,122.442 117,127.5C 113.247,128.632 109.747,130.132 106.5,132C 102.83,132.279 99.163,132.112 95.5,131.5C 95.5875,128.402 95.0875,128.068 94,130.5C 89.4298,125.494 85.7631,120.494 83,115.5C 82.5,116 82,116.5 81.5,117C 81.9662,118.299 81.9662,119.799 81.5,121.5C 77.0845,114.105 73.9178,106.105 72,97.5C 71.1667,136.171 71.3334,174.838 72.5,213.5C 73.4168,212.873 74.4168,212.539 75.5,212.5C 74.1667,213.933 72.6667,215.267 71,216.5C 70.5,194.503 70.3334,172.503 70.5,150.5C 70.1671,132.155 70.5004,113.821 71.5,95.5C 76.7052,97.0875 82.0386,97.7542 87.5,97.5 Z"/></g>
<g><path style="opacity:0.986" fill="#1c1b19" d="M 108.5,94.5 C 104.688,95.3238 100.688,95.8238 96.5,96C 109.69,96.5849 122.69,96.0849 135.5,94.5C 135.833,94.5 136.167,94.5 136.5,94.5C 139.5,94.5 142.5,94.5 145.5,94.5C 150.167,94.5 154.833,94.5 159.5,94.5C 162.977,95.3227 166.644,95.8227 170.5,96C 169.263,96.2321 168.263,96.7321 167.5,97.5C 151.509,98.1664 135.509,98.4997 119.5,98.5C 108.815,98.6103 98.1482,98.277 87.5,97.5C 82.0386,97.7542 76.7052,97.0875 71.5,95.5C 70.5004,113.821 70.1671,132.155 70.5,150.5C 70.1667,150.5 69.8333,150.5 69.5,150.5C 70.1535,131.803 69.4869,113.47 67.5,95.5C 67.5,94.5 67.5,93.5 67.5,92.5C 81.1144,94.0713 94.7811,94.738 108.5,94.5 Z"/></g>
<g><path style="opacity:1" fill="#57544f" d="M 108.5,94.5 C 112.833,94.5 117.167,94.5 121.5,94.5C 126.167,94.5 130.833,94.5 135.5,94.5C 122.69,96.0849 109.69,96.5849 96.5,96C 100.688,95.8238 104.688,95.3238 108.5,94.5 Z"/></g>
<g><path style="opacity:1" fill="#bab8b2" d="M 121.5,100.5 C 126.177,100.835 130.844,101.335 135.5,102C 136.059,102.725 136.392,103.558 136.5,104.5C 133.931,108.858 131.931,113.524 130.5,118.5C 130.709,119.086 131.043,119.586 131.5,120C 129.126,122.039 127.126,124.372 125.5,127C 124.552,127.483 123.552,127.649 122.5,127.5C 121.801,129.995 120.801,132.328 119.5,134.5C 112.488,135.502 105.488,135.502 98.5,134.5C 97.5,134.833 96.5,135.167 95.5,135.5C 96.7682,137.047 98.4348,138.047 100.5,138.5C 101.675,137.145 102.675,137.312 103.5,139C 102.975,139.692 102.308,140.192 101.5,140.5C 100.268,139.855 98.9346,139.689 97.5,140C 97.8333,139.667 98.1667,139.333 98.5,139C 96.1523,138.654 94.3189,137.487 93,135.5C 92.3333,136.167 92.3333,136.833 93,137.5C 95.705,140.036 98.205,142.703 100.5,145.5C 91.7922,139.437 85.4588,131.437 81.5,121.5C 81.9662,119.799 81.9662,118.299 81.5,117C 82,116.5 82.5,116 83,115.5C 85.7631,120.494 89.4298,125.494 94,130.5C 95.0875,128.068 95.5875,128.402 95.5,131.5C 99.163,132.112 102.83,132.279 106.5,132C 109.747,130.132 113.247,128.632 117,127.5C 121.057,122.442 124.724,117.108 128,111.5C 129.698,105.394 127.531,101.727 121.5,100.5 Z"/></g>
<g><path style="opacity:1" fill="#9e9b94" d="M 137.5,100.5 C 144.872,101.951 152.205,103.618 159.5,105.5C 156.833,106.833 156.833,108.167 159.5,109.5C 156.369,110.797 154.036,112.964 152.5,116C 150.099,116.795 147.932,117.962 146,119.5C 141.245,128.424 134.411,135.09 125.5,139.5C 124.352,141.149 123.019,142.649 121.5,144C 118.173,144.61 114.839,145.11 111.5,145.5C 114.144,143.843 117.144,142.51 120.5,141.5C 121.262,140.372 121.929,139.205 122.5,138C 124.591,136.274 126.924,135.107 129.5,134.5C 132.642,128.496 136.476,122.829 141,117.5C 141.562,113.281 143.062,109.447 145.5,106C 145.355,105.228 145.022,104.561 144.5,104C 141.826,103.33 139.493,102.163 137.5,100.5 Z"/></g>
<g><path style="opacity:1" fill="#8f8c86" d="M 177.5,96.5 C 177.586,97.4959 177.252,98.3292 176.5,99C 173.178,99.0589 170.344,100.226 168,102.5C 167.667,102.167 167.333,101.833 167,101.5C 165.004,103.05 162.838,104.384 160.5,105.5C 160.977,106.478 161.643,107.311 162.5,108C 161.572,108.388 160.905,109.055 160.5,110C 161.737,112.188 163.07,113.522 164.5,114C 163.645,115.451 163.478,116.951 164,118.5C 162.383,117.149 161.216,115.482 160.5,113.5C 158.009,113.909 156.009,115.076 154.5,117C 157.663,115.886 160.33,116.719 162.5,119.5C 163.744,122.411 165.077,125.244 166.5,128C 165.609,130.279 164.609,132.446 163.5,134.5C 160.5,139.5 156.5,143.5 151.5,146.5C 152.739,142.521 155.072,139.354 158.5,137C 157.833,136.667 157.167,136.333 156.5,136C 157.833,134.667 157.833,133.333 156.5,132C 153.653,131.056 151.153,131.556 149,133.5C 148.586,133.043 148.086,132.709 147.5,132.5C 144.351,135.064 141.018,137.064 137.5,138.5C 137.5,139.5 137.5,140.5 137.5,141.5C 129.431,145.8 120.764,148.634 111.5,150C 112.416,150.278 113.082,150.778 113.5,151.5C 111.901,151.768 110.568,151.434 109.5,150.5C 108.235,149.521 106.901,148.521 105.5,147.5C 107.631,146.831 109.631,146.165 111.5,145.5C 114.839,145.11 118.173,144.61 121.5,144C 123.019,142.649 124.352,141.149 125.5,139.5C 134.411,135.09 141.245,128.424 146,119.5C 147.932,117.962 150.099,116.795 152.5,116C 154.036,112.964 156.369,110.797 159.5,109.5C 156.833,108.167 156.833,106.833 159.5,105.5C 152.205,103.618 144.872,101.951 137.5,100.5C 131.366,99.9143 125.366,99.2476 119.5,98.5C 135.509,98.4997 151.509,98.1664 167.5,97.5C 170.86,97.3841 174.193,97.0508 177.5,96.5 Z"/></g>
<g><path style="opacity:0.683" fill="#5e5e5d" d="M 180.5,96.5 C 180.833,96.5 181.167,96.5 181.5,96.5C 181.5,136.833 181.5,177.167 181.5,217.5C 180.662,217.158 180.328,216.492 180.5,215.5C 180.5,192.833 180.5,170.167 180.5,147.5C 180.053,131.642 180.053,115.642 180.5,99.5C 180.5,98.5 180.5,97.5 180.5,96.5 Z"/></g>
<g><path style="opacity:0.87" fill="#3e3e3e" d="M 67.5,95.5 C 69.4869,113.47 70.1535,131.803 69.5,150.5C 68.8596,159.266 68.1929,167.932 67.5,176.5C 67.5,149.5 67.5,122.5 67.5,95.5 Z"/></g>
<g><path style="opacity:1" fill="#aeaca5" d="M 87.5,98.5 C 87.5,98.1667 87.5,97.8333 87.5,97.5C 98.1482,98.277 108.815,98.6103 119.5,98.5C 125.366,99.2476 131.366,99.9143 137.5,100.5C 139.493,102.163 141.826,103.33 144.5,104C 145.022,104.561 145.355,105.228 145.5,106C 143.062,109.447 141.562,113.281 141,117.5C 136.476,122.829 132.642,128.496 129.5,134.5C 126.924,135.107 124.591,136.274 122.5,138C 121.929,139.205 121.262,140.372 120.5,141.5C 117.144,142.51 114.144,143.843 111.5,145.5C 109.631,146.165 107.631,146.831 105.5,147.5C 106.901,148.521 108.235,149.521 109.5,150.5C 105.756,150.072 102.756,148.405 100.5,145.5C 98.205,142.703 95.705,140.036 93,137.5C 92.3333,136.833 92.3333,136.167 93,135.5C 94.3189,137.487 96.1523,138.654 98.5,139C 98.1667,139.333 97.8333,139.667 97.5,140C 98.9346,139.689 100.268,139.855 101.5,140.5C 102.308,140.192 102.975,139.692 103.5,139C 102.675,137.312 101.675,137.145 100.5,138.5C 98.4348,138.047 96.7682,137.047 95.5,135.5C 96.5,135.167 97.5,134.833 98.5,134.5C 105.488,135.502 112.488,135.502 119.5,134.5C 120.801,132.328 121.801,129.995 122.5,127.5C 123.552,127.649 124.552,127.483 125.5,127C 127.126,124.372 129.126,122.039 131.5,120C 131.043,119.586 130.709,119.086 130.5,118.5C 131.931,113.524 133.931,108.858 136.5,104.5C 136.392,103.558 136.059,102.725 135.5,102C 130.844,101.335 126.177,100.835 121.5,100.5C 116.203,99.7255 110.87,99.3921 105.5,99.5C 99.4707,99.5745 93.4707,99.2412 87.5,98.5 Z"/></g>
<g><path style="opacity:1" fill="#6a6660" d="M 151.5,146.5 C 148.515,147.326 145.849,148.659 143.5,150.5C 142.791,151.404 141.791,151.737 140.5,151.5C 131.5,151.5 122.5,151.5 113.5,151.5C 113.082,150.778 112.416,150.278 111.5,150C 120.764,148.634 129.431,145.8 137.5,141.5C 137.5,140.5 137.5,139.5 137.5,138.5C 141.018,137.064 144.351,135.064 147.5,132.5C 148.086,132.709 148.586,133.043 149,133.5C 151.153,131.556 153.653,131.056 156.5,132C 157.833,133.333 157.833,134.667 156.5,136C 157.167,136.333 157.833,136.667 158.5,137C 155.072,139.354 152.739,142.521 151.5,146.5 Z"/></g>
<g><path style="opacity:0.979" fill="#1a1a1a" d="M 179.5,92.5 C 180.167,92.5 180.833,92.5 181.5,92.5C 182.675,92.281 183.675,92.6143 184.5,93.5C 183.672,137.125 183.172,180.792 183,224.5C 181.961,225.71 180.794,226.71 179.5,227.5C 179.167,226.833 178.833,226.167 178.5,225.5C 180.982,223.497 181.982,220.831 181.5,217.5C 181.5,177.167 181.5,136.833 181.5,96.5C 180.833,95.1667 180.167,93.8333 179.5,92.5 Z"/></g>
<g><path style="opacity:0.157" fill="#d9d7d4" d="M 151.5,146.5 C 149.421,148.873 146.754,150.206 143.5,150.5C 145.849,148.659 148.515,147.326 151.5,146.5 Z"/></g>
<g><path style="opacity:0.58" fill="#c9c8c5" d="M 113.5,151.5 C 122.5,151.5 131.5,151.5 140.5,151.5C 131.482,153.839 122.482,153.839 113.5,151.5 Z"/></g>
<g><path style="opacity:0.036" fill="#f7f7f7" d="M 180.5,147.5 C 180.5,170.167 180.5,192.833 180.5,215.5C 179.508,215.672 178.842,215.338 178.5,214.5C 179.167,192.167 179.833,169.833 180.5,147.5 Z"/></g>
<g><path style="opacity:0.439" fill="#a2a2a2" d="M 116.5,205.5 C 116.5,205.833 116.5,206.167 116.5,206.5C 102.538,206.637 88.8717,208.637 75.5,212.5C 79.4557,210.251 83.7891,208.751 88.5,208C 98.04,205.982 107.373,205.148 116.5,205.5 Z"/></g>
<g><path style="opacity:0.078" fill="#e5e5e5" d="M 147.5,206.5 C 143.298,206.817 139.298,206.483 135.5,205.5C 139.594,204.514 143.594,204.848 147.5,206.5 Z"/></g>
<g><path style="opacity:0.896" fill="#818181" d="M 135.5,205.5 C 139.298,206.483 143.298,206.817 147.5,206.5C 149.167,207.167 150.833,207.833 152.5,208.5C 151.624,208.369 150.957,208.702 150.5,209.5C 152.291,210.17 153.958,210.837 155.5,211.5C 149.64,211.283 143.973,210.617 138.5,209.5C 137.791,208.596 136.791,208.263 135.5,208.5C 135.389,207.883 135.056,207.383 134.5,207C 128.509,206.501 122.509,206.334 116.5,206.5C 116.5,206.167 116.5,205.833 116.5,205.5C 122.815,204.363 129.148,204.363 135.5,205.5 Z"/></g>
<g><path style="opacity:0.067" fill="#cdcdcd" d="M 147.5,206.5 C 153.441,206.678 159.107,207.678 164.5,209.5C 160.519,208.979 156.519,208.646 152.5,208.5C 150.833,207.833 149.167,207.167 147.5,206.5 Z"/></g>
<g><path style="opacity:0.157" fill="#cccccc" d="M 135.5,208.5 C 136.791,208.263 137.791,208.596 138.5,209.5C 118.575,208.403 98.9083,210.069 79.5,214.5C 87.7879,211.502 96.4545,209.669 105.5,209C 115.494,208.5 125.494,208.334 135.5,208.5 Z"/></g>
<g><path style="opacity:0.01" fill="#e8e8e8" d="M 155.5,211.5 C 157.735,211.205 159.735,211.539 161.5,212.5C 159.358,213.463 157.358,213.13 155.5,211.5 Z"/></g>
<g><path style="opacity:1" fill="#3b3b3b" d="M 152.5,208.5 C 156.519,208.646 160.519,208.979 164.5,209.5C 166.099,209.232 167.432,209.566 168.5,210.5C 171.047,211.999 173.714,213.499 176.5,215C 176.833,215.333 177.167,215.667 177.5,216C 176.552,216.483 175.552,216.649 174.5,216.5C 170.02,215.302 165.687,213.969 161.5,212.5C 159.735,211.539 157.735,211.205 155.5,211.5C 153.958,210.837 152.291,210.17 150.5,209.5C 150.957,208.702 151.624,208.369 152.5,208.5 Z"/></g>
<g><path style="opacity:0.169" fill="#b8b8b8" d="M 168.5,210.5 C 172.297,210.872 175.63,212.206 178.5,214.5C 178.842,215.338 179.508,215.672 180.5,215.5C 180.328,216.492 180.662,217.158 181.5,217.5C 181.982,220.831 180.982,223.497 178.5,225.5C 178.167,225.5 177.833,225.5 177.5,225.5C 180.664,221.165 179.664,218.165 174.5,216.5C 175.552,216.649 176.552,216.483 177.5,216C 177.167,215.667 176.833,215.333 176.5,215C 173.714,213.499 171.047,211.999 168.5,210.5 Z"/></g>
<g><path style="opacity:1" fill="#282828" d="M 69.5,150.5 C 69.8333,150.5 70.1667,150.5 70.5,150.5C 70.3334,172.503 70.5,194.503 71,216.5C 72.6667,215.267 74.1667,213.933 75.5,212.5C 88.8717,208.637 102.538,206.637 116.5,206.5C 122.509,206.334 128.509,206.501 134.5,207C 135.056,207.383 135.389,207.883 135.5,208.5C 125.494,208.334 115.494,208.5 105.5,209C 96.4545,209.669 87.7879,211.502 79.5,214.5C 77.8185,216.008 75.8185,217.008 73.5,217.5C 72.5041,217.414 71.6708,217.748 71,218.5C 70.2109,220.712 70.3775,222.712 71.5,224.5C 71.8212,226.048 72.8212,226.715 74.5,226.5C 76.403,226.796 78.0697,227.463 79.5,228.5C 81.8383,230.04 84.5049,230.706 87.5,230.5C 87.8333,230.5 88.1667,230.5 88.5,230.5C 91.5072,232.175 94.8405,232.841 98.5,232.5C 96.0392,233.531 93.3725,234.198 90.5,234.5C 87.8728,233.908 85.2062,233.575 82.5,233.5C 82.1667,233.5 81.8333,233.5 81.5,233.5C 80.2196,232.069 78.5529,231.402 76.5,231.5C 75.209,231.737 74.209,231.404 73.5,230.5C 71.8487,229.03 70.0153,227.697 68,226.5C 67.3988,224.863 66.8988,223.197 66.5,221.5C 67.4683,206.529 67.8016,191.529 67.5,176.5C 68.1929,167.932 68.8596,159.266 69.5,150.5 Z"/></g>
<g><path style="opacity:0.016" fill="#f2f2f1" d="M 73.5,217.5 C 72.1346,219.591 71.4679,221.924 71.5,224.5C 70.3775,222.712 70.2109,220.712 71,218.5C 71.6708,217.748 72.5041,217.414 73.5,217.5 Z"/></g>
<g><path style="opacity:0.051" fill="#bdbdbd" d="M 71.5,224.5 C 72.7095,224.932 73.7095,225.599 74.5,226.5C 72.8212,226.715 71.8212,226.048 71.5,224.5 Z"/></g>
<g><path style="opacity:0.949" fill="#5f5f5f" d="M 177.5,225.5 C 177.833,225.5 178.167,225.5 178.5,225.5C 178.833,226.167 179.167,226.833 179.5,227.5C 178.564,228.974 177.23,229.974 175.5,230.5C 174.257,227.894 172.924,227.894 171.5,230.5C 170.264,229.754 168.93,229.421 167.5,229.5C 170.678,227.991 174.011,226.658 177.5,225.5 Z"/></g>
<g><path style="opacity:0.11" fill="#d0d0d0" d="M 79.5,228.5 C 82.4282,228.565 85.0948,229.232 87.5,230.5C 84.5049,230.706 81.8383,230.04 79.5,228.5 Z"/></g>
<g><path style="opacity:0.412" fill="#b2b2b2" d="M 88.5,230.5 C 92.4248,230.43 96.0915,231.097 99.5,232.5C 99.1667,232.5 98.8333,232.5 98.5,232.5C 94.8405,232.841 91.5072,232.175 88.5,230.5 Z"/></g>
<g><path style="opacity:0.863" fill="#9e9e9e" d="M 167.5,229.5 C 163.262,231.956 158.596,232.956 153.5,232.5C 157.911,230.87 162.578,229.87 167.5,229.5 Z"/></g>
<g><path style="opacity:0.086" fill="#d2d2d2" d="M 76.5,231.5 C 78.5529,231.402 80.2196,232.069 81.5,233.5C 79.4471,233.598 77.7804,232.931 76.5,231.5 Z"/></g>
<g><path style="opacity:1" fill="#434343" d="M 175.5,230.5 C 174.833,230.5 174.5,230.833 174.5,231.5C 172.214,231.595 170.214,232.262 168.5,233.5C 166.095,234.768 163.428,235.435 160.5,235.5C 157.119,235.46 153.786,235.793 150.5,236.5C 150.611,235.883 150.944,235.383 151.5,235C 147.179,234.501 142.846,234.334 138.5,234.5C 138.5,234.167 138.5,233.833 138.5,233.5C 143.463,232.746 148.463,232.413 153.5,232.5C 158.596,232.956 163.262,231.956 167.5,229.5C 168.93,229.421 170.264,229.754 171.5,230.5C 172.924,227.894 174.257,227.894 175.5,230.5 Z"/></g>
<g><path style="opacity:0.02" fill="#dfdfdf" d="M 174.5,231.5 C 172.898,233.074 170.898,233.741 168.5,233.5C 170.214,232.262 172.214,231.595 174.5,231.5 Z"/></g>
<g><path style="opacity:0.078" fill="#e4e4e4" d="M 138.5,233.5 C 138.5,233.833 138.5,234.167 138.5,234.5C 130.5,234.5 122.5,234.5 114.5,234.5C 114.5,234.167 114.5,233.833 114.5,233.5C 122.808,233.444 130.808,233.444 138.5,233.5 Z"/></g>
<g><path style="opacity:0.006" fill="#d1d1d1" d="M 82.5,233.5 C 85.2062,233.575 87.8728,233.908 90.5,234.5C 90.5,234.833 90.5,235.167 90.5,235.5C 87.5718,235.435 84.9052,234.768 82.5,233.5 Z"/></g>
<g><path style="opacity:0.149" fill="#e8e8e8" d="M 91.5,235.5 C 93.6208,235.325 95.6208,235.659 97.5,236.5C 95.4021,237.484 93.4021,237.151 91.5,235.5 Z"/></g>
<g><path style="opacity:0.725" fill="#6e6e6e" d="M 98.5,232.5 C 98.8333,232.5 99.1667,232.5 99.5,232.5C 104.695,232.179 109.695,232.513 114.5,233.5C 114.5,233.833 114.5,234.167 114.5,234.5C 113.5,234.5 112.5,234.5 111.5,234.5C 111.5,235.5 111.5,236.5 111.5,237.5C 107.202,236.8 102.869,236.467 98.5,236.5C 98.1667,236.5 97.8333,236.5 97.5,236.5C 95.6208,235.659 93.6208,235.325 91.5,235.5C 91.1667,235.5 90.8333,235.5 90.5,235.5C 90.5,235.167 90.5,234.833 90.5,234.5C 93.3725,234.198 96.0392,233.531 98.5,232.5 Z"/></g>
<g><path style="opacity:0.977" fill="#0e0e0e" d="M 114.5,234.5 C 122.5,234.5 130.5,234.5 138.5,234.5C 142.846,234.334 147.179,234.501 151.5,235C 150.944,235.383 150.611,235.883 150.5,236.5C 137.522,237.378 124.522,237.711 111.5,237.5C 111.5,236.5 111.5,235.5 111.5,234.5C 112.5,234.5 113.5,234.5 114.5,234.5 Z"/></g>
<g><path style="opacity:0.415" fill="#bebebe" d="M 160.5,235.5 C 157.132,237.059 153.465,237.892 149.5,238C 142.333,238.167 135.167,238.333 128,238.5C 117.95,238.711 108.116,238.045 98.5,236.5C 102.869,236.467 107.202,236.8 111.5,237.5C 124.522,237.711 137.522,237.378 150.5,236.5C 153.786,235.793 157.119,235.46 160.5,235.5 Z"/></g>
</svg>
