<?xml version="1.0" encoding="UTF-8"?>
<!DOCTYPE svg PUBLIC "-//W3C//DTD SVG 1.1//EN" "http://www.w3.org/Graphics/SVG/1.1/DTD/svg11.dtd">
<svg xmlns="http://www.w3.org/2000/svg" version="1.1" width="250px" height="250px" style="shape-rendering:geometricPrecision; text-rendering:geometricPrecision; image-rendering:optimizeQuality; fill-rule:evenodd; clip-rule:evenodd" xmlns:xlink="http://www.w3.org/1999/xlink">
<g><path style="opacity:1" fill="#272c2e" d="M 120.5,31.5 C 123.879,31.6782 127.045,31.6782 130,31.5C 130.765,33.0657 130.598,34.3991 129.5,35.5C 129.167,35.5 128.833,35.5 128.5,35.5C 127.523,38.2869 127.19,41.2869 127.5,44.5C 131.5,44.5 135.5,44.5 139.5,44.5C 136.081,45.2239 132.081,45.8905 127.5,46.5C 127.167,46.5 126.833,46.5 126.5,46.5C 126.5,42.8333 126.5,39.1667 126.5,35.5C 123.001,35.741 122.668,34.9076 125.5,33C 123.618,32.8019 121.952,32.3019 120.5,31.5 Z"/></g>
<g><path style="opacity:0.8" fill="#6a6e6e" d="M 120.5,31.5 C 121.952,32.3019 123.618,32.8019 125.5,33C 122.668,34.9076 123.001,35.741 126.5,35.5C 126.5,39.1667 126.5,42.8333 126.5,46.5C 125.833,49.5 125.167,52.5 124.5,55.5C 124.5,52.5 124.5,49.5 124.5,46.5C 119.833,46.5 115.167,46.5 110.5,46.5C 115.316,45.6739 120.316,45.1739 125.5,45C 121.5,44.6667 117.5,44.3333 113.5,44C 114.373,42.955 115.373,42.1217 116.5,41.5C 118.635,43.369 121.302,44.0356 124.5,43.5C 124.663,41.1432 124.497,38.8098 124,36.5C 121.931,38.0854 119.764,39.4187 117.5,40.5C 117.5,39.8333 117.167,39.5 116.5,39.5C 118.641,38.1882 120.308,36.3549 121.5,34C 120.563,33.3083 119.897,33.475 119.5,34.5C 118.833,34.5 118.5,34.8333 118.5,35.5C 109.125,37.2914 99.7916,39.2914 90.5,41.5C 93.2583,40.0335 92.925,39.3668 89.5,39.5C 99.5326,36.0744 109.866,33.4077 120.5,31.5 Z M 116.5,41.5 C 117.167,41.5 117.5,41.1667 117.5,40.5C 119.764,39.4187 121.931,38.0854 124,36.5C 124.497,38.8098 124.663,41.1432 124.5,43.5C 121.302,44.0356 118.635,43.369 116.5,41.5 Z"/></g>
<g><path style="opacity:0.761" fill="#5f6563" d="M 135.5,31.5 C 149.514,35.0801 163.18,39.4135 176.5,44.5C 172.02,45.6624 167.687,45.6624 163.5,44.5C 164.873,44.6567 166.207,44.49 167.5,44C 157.002,40.9653 146.669,37.7986 136.5,34.5C 137.873,34.6567 139.207,34.49 140.5,34C 138.347,33.9005 136.681,33.0672 135.5,31.5 Z"/></g>
<g><path style="opacity:0.039" fill="#afb6b6" d="M 116.5,39.5 C 114.372,41.4025 112.039,43.0692 109.5,44.5C 101.549,43.6972 93.5485,43.1972 85.5,43C 86.9047,41.7308 88.5714,41.2308 90.5,41.5C 96.987,42.654 103.654,42.8206 110.5,42C 113.355,39.9692 116.022,37.8025 118.5,35.5C 119.167,35.5 119.5,35.1667 119.5,34.5C 119.897,33.475 120.563,33.3083 121.5,34C 120.308,36.3549 118.641,38.1882 116.5,39.5 Z"/></g>
<g><path style="opacity:0.241" fill="#a2a7a7" d="M 128.5,35.5 C 128.5,38.1667 128.5,40.8333 128.5,43.5C 131.713,43.81 134.713,43.4767 137.5,42.5C 138.5,42.8333 139.167,43.5 139.5,44.5C 135.5,44.5 131.5,44.5 127.5,44.5C 127.19,41.2869 127.523,38.2869 128.5,35.5 Z"/></g>
<g><path style="opacity:0.996" fill="#505554" d="M 89.5,39.5 C 92.925,39.3668 93.2583,40.0335 90.5,41.5C 88.5714,41.2308 86.9047,41.7308 85.5,43C 93.5485,43.1972 101.549,43.6972 109.5,44.5C 112.039,43.0692 114.372,41.4025 116.5,39.5C 117.167,39.5 117.5,39.8333 117.5,40.5C 117.5,41.1667 117.167,41.5 116.5,41.5C 115.373,42.1217 114.373,42.955 113.5,44C 117.5,44.3333 121.5,44.6667 125.5,45C 120.316,45.1739 115.316,45.6739 110.5,46.5C 104.018,50.9134 97.685,55.58 91.5,60.5C 93.8586,63.8514 96.1919,67.1847 98.5,70.5C 97.6522,71.625 96.6522,71.625 95.5,70.5C 93.2181,67.8784 90.8848,65.2117 88.5,62.5C 82.1667,67 75.8333,71.5 69.5,76C 68.0289,77.5833 67.0289,79.4166 66.5,81.5C 65.7784,81.9175 65.2784,82.5842 65,83.5C 64.6667,82.1667 64.3333,80.8333 64,79.5C 63.2828,80.0442 62.7828,80.7109 62.5,81.5C 53.5,88.1667 44.5,94.8333 35.5,101.5C 35.5858,100.504 35.2524,99.6708 34.5,99C 36.905,97.1025 37.5716,94.9358 36.5,92.5C 46.6503,76.5028 57.817,61.1695 70,46.5C 75.8157,42.3651 82.3157,40.0318 89.5,39.5 Z M 103.5,45.5 C 99.0634,50.591 93.7301,54.591 87.5,57.5C 85.0967,53.7151 82.43,50.0484 79.5,46.5C 87.4723,45.5023 95.4723,45.169 103.5,45.5 Z M 85.5,58.5 C 83.0737,61.7548 80.0737,64.5881 76.5,67C 74.2462,68.3767 72.0795,69.8767 70,71.5C 69.6012,71.2716 69.4346,70.9382 69.5,70.5C 71.7054,63.0501 74.2054,55.7168 77,48.5C 80.0785,51.6787 82.9118,55.012 85.5,58.5 Z M 71.5,49.5 C 72.1667,49.5 72.5,49.8333 72.5,50.5C 70.48,58.5777 68.1467,66.5777 65.5,74.5C 57.1587,81.3315 48.492,87.6649 39.5,93.5C 49.1787,78.1543 59.8454,63.4876 71.5,49.5 Z"/></g>
<g><path style="opacity:0.024" fill="#d3d5d5" d="M 72.5,50.5 C 72.5,49.8333 72.1667,49.5 71.5,49.5C 71.7828,48.7109 72.2828,48.0442 73,47.5C 73.7401,48.7494 73.5735,49.7494 72.5,50.5 Z"/></g>
<g><path style="opacity:0.667" fill="#919694" d="M 103.5,45.5 C 104.239,45.369 104.906,45.5357 105.5,46C 104.743,47.5122 103.743,48.8455 102.5,50C 98,53.1667 93.5,56.3333 89,59.5C 88.2828,58.9558 87.7828,58.2891 87.5,57.5C 93.7301,54.591 99.0634,50.591 103.5,45.5 Z"/></g>
<g><path style="opacity:0.775" fill="#595c5c" d="M 178.5,46.5 C 188.27,58.6056 197.27,71.2723 205.5,84.5C 204.075,82.9689 203.409,83.3023 203.5,85.5C 195.538,74.6866 187.705,63.6866 180,52.5C 181.366,58.7872 182.866,65.1205 184.5,71.5C 183.662,71.8417 183.328,72.5084 183.5,73.5C 180.568,66.4662 178.235,59.1329 176.5,51.5C 177.309,50.5313 178.309,49.6979 179.5,49C 178.748,48.3292 178.414,47.4959 178.5,46.5 Z"/></g>
<g><path style="opacity:0.247" fill="#a1a79a" d="M 127.5,55.5 C 127.335,58.5184 127.502,61.5184 128,64.5C 130.655,68.979 132.822,73.6457 134.5,78.5C 133.833,78.5 133.5,78.8333 133.5,79.5C 131.98,75.4755 130.146,71.4755 128,67.5C 127.802,69.3817 127.302,71.0484 126.5,72.5C 126.178,66.642 126.511,60.9753 127.5,55.5 Z"/></g>
<g><path style="opacity:0.514" fill="#8c918f" d="M 85.5,58.5 C 86.7994,60.1534 86.4661,61.6534 84.5,63C 79.5782,66.3776 74.7449,69.8776 70,73.5C 68.4542,72.4971 68.2875,71.4971 69.5,70.5C 69.4346,70.9382 69.6012,71.2716 70,71.5C 72.0795,69.8767 74.2462,68.3767 76.5,67C 80.0737,64.5881 83.0737,61.7548 85.5,58.5 Z"/></g>
<g><path style="opacity:0.698" fill="#5e645a" d="M 160.5,61.5 C 161.167,62.5 161.833,63.5 162.5,64.5C 159.38,68.792 156.047,72.9587 152.5,77C 153.252,77.6708 153.586,78.5041 153.5,79.5C 151.255,79.4588 150.588,78.6255 151.5,77C 150.244,76.5831 149.577,75.7498 149.5,74.5C 153.194,71.5273 156.694,68.194 160,64.5C 160.483,63.552 160.649,62.552 160.5,61.5 Z"/></g>
<g><path style="opacity:0.702" fill="#7d8383" d="M 124.5,60.5 C 125.55,70.486 125.55,80.486 124.5,90.5C 123.833,90.5 123.167,90.5 122.5,90.5C 121.833,90.5 121.5,90.1667 121.5,89.5C 123.026,79.8921 124.026,70.2254 124.5,60.5 Z"/></g>
<g><path style="opacity:0.814" fill="#424a49" d="M 126.5,46.5 C 126.833,46.5 127.167,46.5 127.5,46.5C 127.5,49.5 127.5,52.5 127.5,55.5C 126.511,60.9753 126.178,66.642 126.5,72.5C 126.5,77.5 126.5,82.5 126.5,87.5C 125.515,91.6344 125.182,95.9677 125.5,100.5C 125.5,100.833 125.5,101.167 125.5,101.5C 124.518,98.0381 124.185,94.3714 124.5,90.5C 125.55,80.486 125.55,70.486 124.5,60.5C 124.5,58.8333 124.5,57.1667 124.5,55.5C 125.167,52.5 125.833,49.5 126.5,46.5 Z"/></g>
<g><path style="opacity:0.769" fill="#989f7f" d="M 149.5,73.5 C 148.883,73.3893 148.383,73.056 148,72.5C 148.412,74.9952 148.245,77.3285 147.5,79.5C 147.672,78.5084 147.338,77.8417 146.5,77.5C 145.405,71.7436 144.239,66.0769 143,60.5C 143.667,59.1667 144.333,59.1667 145,60.5C 146.657,64.8031 148.157,69.1364 149.5,73.5 Z"/></g>
<g><path style="opacity:0.196" fill="#a7ab9e" d="M 146.5,77.5 C 146.328,78.4916 146.662,79.1583 147.5,79.5C 146.89,80.391 146.557,81.391 146.5,82.5C 146.167,82.5 145.833,82.5 145.5,82.5C 144.531,78.392 142.864,74.5586 140.5,71C 141.332,70.3123 141.998,70.479 142.5,71.5C 143.857,73.5654 145.19,75.5654 146.5,77.5 Z"/></g>
<g><path style="opacity:1" fill="#444846" d="M 135.5,31.5 C 136.681,33.0672 138.347,33.9005 140.5,34C 139.207,34.49 137.873,34.6567 136.5,34.5C 135.448,34.3505 134.448,34.5172 133.5,35C 137.167,38 140.833,41 144.5,44C 150.825,44.4995 157.158,44.6662 163.5,44.5C 167.687,45.6624 172.02,45.6624 176.5,44.5C 177.5,44.8333 178.167,45.5 178.5,46.5C 178.414,47.4959 178.748,48.3292 179.5,49C 178.309,49.6979 177.309,50.5313 176.5,51.5C 175.778,51.0825 175.278,50.4158 175,49.5C 172.667,52.5 170.333,55.5 168,58.5C 167.333,60.1667 167.333,61.8333 168,63.5C 173.206,67.3689 177.706,71.2022 181.5,75C 182.816,75.5281 183.483,75.0281 183.5,73.5C 183.328,72.5084 183.662,71.8417 184.5,71.5C 186.255,73.8035 187.422,76.4702 188,79.5C 194.157,85.2613 200.99,91.0946 208.5,97C 209.332,97.6877 209.998,97.521 210.5,96.5C 207.906,92.9744 205.573,89.3077 203.5,85.5C 203.409,83.3023 204.075,82.9689 205.5,84.5C 209.993,90.1477 213.993,96.1477 217.5,102.5C 217.813,105.247 217.48,107.914 216.5,110.5C 215.833,109.833 215.167,109.167 214.5,108.5C 211.941,109.608 209.608,110.941 207.5,112.5C 197.463,116.352 187.796,121.018 178.5,126.5C 178.5,125.167 177.833,124.5 176.5,124.5C 183.167,120.833 189.833,117.167 196.5,113.5C 196.369,112.761 196.536,112.094 197,111.5C 197.924,113.495 199.09,113.828 200.5,112.5C 204.854,110.368 209.187,108.035 213.5,105.5C 206.438,99.0985 199.105,93.0985 191.5,87.5C 190.133,84.8685 189.299,85.2018 189,88.5C 188.015,86.8251 187.181,85.1585 186.5,83.5C 186.5,82.8333 186.167,82.5 185.5,82.5C 185.167,81.5 184.5,80.8333 183.5,80.5C 181.116,78.1153 178.45,76.1153 175.5,74.5C 175.167,73.5 174.5,72.8333 173.5,72.5C 171.475,70.8036 169.475,69.137 167.5,67.5C 167.158,66.6618 166.492,66.3284 165.5,66.5C 165.027,65.0937 164.027,64.427 162.5,64.5C 161.833,63.5 161.167,62.5 160.5,61.5C 154.348,56.915 148.348,52.0817 142.5,47C 137.511,46.5007 132.511,46.3341 127.5,46.5C 132.081,45.8905 136.081,45.2239 139.5,44.5C 139.167,43.5 138.5,42.8333 137.5,42.5C 134.418,40.6281 131.751,38.2948 129.5,35.5C 130.598,34.3991 130.765,33.0657 130,31.5C 127.045,31.6782 123.879,31.6782 120.5,31.5C 125.504,29.5824 130.504,29.5824 135.5,31.5 Z M 148.5,47.5 C 149.097,46.8614 149.93,46.528 151,46.5C 158.476,47.2489 165.976,47.7489 173.5,48C 170.324,52.0065 166.991,55.8398 163.5,59.5C 158.481,55.4764 153.481,51.4764 148.5,47.5 Z"/></g>
<g><path style="opacity:0.588" fill="#a8bca4" d="M 95.5,70.5 C 96.6522,71.625 97.6522,71.625 98.5,70.5C 100.9,72.2964 102.567,74.6298 103.5,77.5C 102.5,77.5 101.5,77.5 100.5,77.5C 100.167,77.5 99.8333,77.5 99.5,77.5C 98.1497,73.9049 95.483,72.5715 91.5,73.5C 93.2191,72.9779 94.5525,71.9779 95.5,70.5 Z"/></g>
<g><path style="opacity:1" fill="#aec894" d="M 91.5,73.5 C 91.1667,74.8333 90.8333,76.1667 90.5,77.5C 88.5,78.8333 86.5,80.1667 84.5,81.5C 86.0941,78.2358 88.4275,75.5691 91.5,73.5 Z"/></g>
<g><path style="opacity:1" fill="#6e9e3f" d="M 91.5,73.5 C 95.483,72.5715 98.1497,73.9049 99.5,77.5C 99.8338,83.4989 100.167,89.4989 100.5,95.5C 99.5,95.5 98.5,95.5 97.5,95.5C 97.0615,89.1146 96.2281,82.7813 95,76.5C 94.6924,75.6919 94.1924,75.0253 93.5,74.5C 92.8589,75.9935 91.8589,76.9935 90.5,77.5C 90.8333,76.1667 91.1667,74.8333 91.5,73.5 Z"/></g>
<g><path style="opacity:1" fill="#567024" d="M 149.5,73.5 C 149.5,73.8333 149.5,74.1667 149.5,74.5C 149.577,75.7498 150.244,76.5831 151.5,77C 150.588,78.6255 151.255,79.4588 153.5,79.5C 154.167,79.5 154.5,79.8333 154.5,80.5C 154.5,82.1667 154.5,83.8333 154.5,85.5C 154.5,85.8333 154.5,86.1667 154.5,86.5C 153.833,86.5 153.167,86.5 152.5,86.5C 152.014,81.613 150.014,80.613 146.5,83.5C 146.5,83.1667 146.5,82.8333 146.5,82.5C 146.557,81.391 146.89,80.391 147.5,79.5C 148.245,77.3285 148.412,74.9952 148,72.5C 148.383,73.056 148.883,73.3893 149.5,73.5 Z"/></g>
<g><path style="opacity:0.282" fill="#a1a496" d="M 119.5,86.5 C 115.7,83.2169 113.2,79.2169 112,74.5C 115.281,78.073 117.781,82.073 119.5,86.5 Z"/></g>
<g><path style="opacity:0.949" fill="#97a56e" d="M 165.5,66.5 C 166.492,66.3284 167.158,66.6618 167.5,67.5C 166.938,72.9105 165.938,78.2439 164.5,83.5C 164.66,81.8008 164.494,80.1341 164,78.5C 162.951,81.1867 161.451,83.52 159.5,85.5C 158.356,84.8174 158.356,85.1507 159.5,86.5C 159.631,87.3764 159.298,88.0431 158.5,88.5C 156.84,87.8284 155.507,86.8284 154.5,85.5C 154.5,83.8333 154.5,82.1667 154.5,80.5C 155.29,81.6085 155.79,82.9419 156,84.5C 157.408,76.237 158.741,75.9036 160,83.5C 162.34,77.9806 164.173,72.3139 165.5,66.5 Z"/></g>
<g><path style="opacity:0.788" fill="#97987e" d="M 173.5,72.5 C 174.5,72.8333 175.167,73.5 175.5,74.5C 173.2,78.762 171.2,83.0953 169.5,87.5C 169.843,85.5168 169.176,84.1834 167.5,83.5C 169.5,79.8333 171.5,76.1667 173.5,72.5 Z"/></g>
<g><path style="opacity:1" fill="#5f8844" d="M 90.5,77.5 C 91.3055,82.0133 92.6389,86.3467 94.5,90.5C 93.8981,93.159 92.5648,93.8256 90.5,92.5C 91.2341,91.2921 91.5674,89.9587 91.5,88.5C 90.5,88.5 89.5,88.5 88.5,88.5C 88.5191,86.9397 88.8524,85.4397 89.5,84C 87.8851,80.9122 87.2184,81.4122 87.5,85.5C 86.5,85.5 85.5,85.5 84.5,85.5C 84.5,84.5 84.5,83.5 84.5,82.5C 84.5,82.1667 84.5,81.8333 84.5,81.5C 86.5,80.1667 88.5,78.8333 90.5,77.5 Z"/></g>
<g><path style="opacity:0.973" fill="#8ca858" d="M 134.5,78.5 C 136.664,80.822 138.331,83.4887 139.5,86.5C 137.692,87.9179 137.025,89.9179 137.5,92.5C 137.167,92.5 136.833,92.5 136.5,92.5C 135.707,88.1195 134.707,83.7862 133.5,79.5C 133.5,78.8333 133.833,78.5 134.5,78.5 Z"/></g>
<g><path style="opacity:0.427" fill="#545f57" d="M 145.5,82.5 C 145.833,82.5 146.167,82.5 146.5,82.5C 146.5,82.8333 146.5,83.1667 146.5,83.5C 146.5,83.8333 146.5,84.1667 146.5,84.5C 145.197,86.1423 143.864,87.8089 142.5,89.5C 141.662,89.1583 141.328,88.4916 141.5,87.5C 142.08,85.2512 143.413,83.5846 145.5,82.5 Z"/></g>
<g><path style="opacity:1" fill="#95bd8f" d="M 90.5,92.5 C 90.1667,92.5 89.8333,92.5 89.5,92.5C 87.6565,90.7211 86.9898,88.3878 87.5,85.5C 87.2184,81.4122 87.8851,80.9122 89.5,84C 88.8524,85.4397 88.5191,86.9397 88.5,88.5C 89.5,88.5 90.5,88.5 91.5,88.5C 91.5674,89.9587 91.2341,91.2921 90.5,92.5 Z"/></g>
<g><path style="opacity:0.831" fill="#384a2e" d="M 100.5,77.5 C 101.5,77.5 102.5,77.5 103.5,77.5C 105.167,78.5 106.5,79.8333 107.5,81.5C 107.137,85.3826 107.137,89.3826 107.5,93.5C 107.5,95.1667 107.5,96.8333 107.5,98.5C 107.167,99.1667 106.833,99.8333 106.5,100.5C 106.5,100.833 106.5,101.167 106.5,101.5C 105.167,101.833 103.833,102.167 102.5,102.5C 103.341,100.621 103.675,98.6208 103.5,96.5C 103.894,95.0328 104.227,93.5328 104.5,92C 102.387,87.3586 101.054,82.5252 100.5,77.5 Z"/></g>
<g><path style="opacity:1" fill="#648c4f" d="M 99.5,77.5 C 99.8333,77.5 100.167,77.5 100.5,77.5C 101.054,82.5252 102.387,87.3586 104.5,92C 104.227,93.5328 103.894,95.0328 103.5,96.5C 102.209,96.7373 101.209,96.404 100.5,95.5C 100.167,89.4989 99.8338,83.4989 99.5,77.5 Z"/></g>
<g><path style="opacity:0.027" fill="#b1b6b0" d="M 107.5,81.5 C 108.532,83.3784 109.866,85.0451 111.5,86.5C 110.662,86.8417 110.328,87.5084 110.5,88.5C 109.883,88.3893 109.383,88.056 109,87.5C 108.809,89.7078 108.309,91.7078 107.5,93.5C 107.137,89.3826 107.137,85.3826 107.5,81.5 Z"/></g>
<g><path style="opacity:1" fill="#6a8762" d="M 84.5,82.5 C 84.5,83.5 84.5,84.5 84.5,85.5C 85.5,85.5 86.5,85.5 87.5,85.5C 86.9898,88.3878 87.6565,90.7211 89.5,92.5C 87.7634,96.6995 88.43,100.366 91.5,103.5C 90.791,104.404 89.791,104.737 88.5,104.5C 88.1667,103.833 87.8333,103.167 87.5,102.5C 87.2671,99.4582 86.2671,96.7916 84.5,94.5C 83.1667,90.5 83.1667,86.5 84.5,82.5 Z"/></g>
<g><path style="opacity:0.498" fill="#696c6b" d="M 66.5,81.5 C 63.8682,91.7188 60.8682,101.719 57.5,111.5C 57.6567,110.127 57.49,108.793 57,107.5C 56.6264,109.491 55.793,111.158 54.5,112.5C 57.5772,102.358 60.5772,92.1916 63.5,82C 63.2716,81.6012 62.9382,81.4346 62.5,81.5C 62.7828,80.7109 63.2828,80.0442 64,79.5C 64.3333,80.8333 64.6667,82.1667 65,83.5C 65.2784,82.5842 65.7784,81.9175 66.5,81.5 Z"/></g>
<g><path style="opacity:0.718" fill="#697359" d="M 111.5,86.5 C 114.171,88.1206 116.171,90.4539 117.5,93.5C 118.116,94.7978 118.116,95.7978 117.5,96.5C 114.705,94.2486 112.372,91.5819 110.5,88.5C 110.328,87.5084 110.662,86.8417 111.5,86.5 Z"/></g>
<g><path style="opacity:0.816" fill="#84926a" d="M 183.5,80.5 C 184.5,80.8333 185.167,81.5 185.5,82.5C 181.589,87.3224 177.922,92.3224 174.5,97.5C 174.649,96.448 174.483,95.448 174,94.5C 173.184,95.8228 172.017,96.4894 170.5,96.5C 173.808,93.2246 176.642,89.558 179,85.5C 179.333,85.8333 179.667,86.1667 180,86.5C 181.421,84.5952 182.588,82.5952 183.5,80.5 Z"/></g>
<g><path style="opacity:0.753" fill="#676967" d="M 186.5,83.5 C 187.181,85.1585 188.015,86.8251 189,88.5C 189.299,85.2018 190.133,84.8685 191.5,87.5C 193.064,95.1917 195.397,103.025 198.5,111C 198.836,112.03 199.503,112.53 200.5,112.5C 199.09,113.828 197.924,113.495 197,111.5C 196.536,112.094 196.369,112.761 196.5,113.5C 194.833,109.5 193.167,105.5 191.5,101.5C 191.167,101.5 190.833,101.5 190.5,101.5C 190.804,100.85 191.137,100.183 191.5,99.5C 190.449,95.6088 188.949,91.9421 187,88.5C 186.506,86.8659 186.34,85.1992 186.5,83.5 Z"/></g>
<g><path style="opacity:1" fill="#659b18" d="M 152.5,86.5 C 154.181,91.083 153.681,95.4164 151,99.5C 149.844,105.468 149.011,111.468 148.5,117.5C 147.167,117.5 145.833,117.5 144.5,117.5C 141.932,110.769 140.432,103.769 140,96.5C 139.148,95.4293 138.315,94.4293 137.5,93.5C 137.5,93.1667 137.5,92.8333 137.5,92.5C 137.025,89.9179 137.692,87.9179 139.5,86.5C 140.167,86.8333 140.833,87.1667 141.5,87.5C 141.328,88.4916 141.662,89.1583 142.5,89.5C 144.167,92.8333 145.833,96.1667 147.5,99.5C 147.328,100.492 147.662,101.158 148.5,101.5C 149.206,102.557 149.539,102.224 149.5,100.5C 150.108,95.0557 149.442,90.0557 147.5,85.5C 147.5,84.8333 147.167,84.5 146.5,84.5C 146.5,84.1667 146.5,83.8333 146.5,83.5C 150.014,80.613 152.014,81.613 152.5,86.5 Z"/></g>
<g><path style="opacity:1" fill="#5a7915" d="M 164.5,83.5 C 164.343,84.8734 164.51,86.2068 165,87.5C 165.608,85.9336 166.442,84.6002 167.5,83.5C 169.176,84.1834 169.843,85.5168 169.5,87.5C 169.19,90.7131 169.523,93.7131 170.5,96.5C 172.017,96.4894 173.184,95.8228 174,94.5C 174.483,95.448 174.649,96.448 174.5,97.5C 173.737,99.3684 172.737,101.035 171.5,102.5C 172.025,97.882 170.692,96.882 167.5,99.5C 166.873,100.417 166.539,101.417 166.5,102.5C 164.903,103.09 163.569,104.09 162.5,105.5C 161.088,104.194 159.421,103.36 157.5,103C 156.518,100.262 155.852,97.4284 155.5,94.5C 154.735,91.9039 154.401,89.2372 154.5,86.5C 154.5,86.1667 154.5,85.8333 154.5,85.5C 155.507,86.8284 156.84,87.8284 158.5,88.5C 159.298,88.0431 159.631,87.3764 159.5,86.5C 159.5,86.1667 159.5,85.8333 159.5,85.5C 161.451,83.52 162.951,81.1867 164,78.5C 164.494,80.1341 164.66,81.8008 164.5,83.5 Z"/></g>
<g><path style="opacity:0.62" fill="#92a978" d="M 119.5,86.5 C 120.906,86.9731 121.573,87.9731 121.5,89.5C 121.5,90.1667 121.833,90.5 122.5,90.5C 123.301,92.0418 123.634,93.7085 123.5,95.5C 122.21,96.0577 121.377,97.0577 121,98.5C 120.667,98.1667 120.333,97.8333 120,97.5C 119.51,98.7932 119.343,100.127 119.5,101.5C 118.463,100.07 117.796,98.403 117.5,96.5C 118.116,95.7978 118.116,94.7978 117.5,93.5C 118.79,94.0577 119.623,95.0577 120,96.5C 120.388,93.1508 120.221,89.8175 119.5,86.5 Z"/></g>
<g><path style="opacity:0.6" fill="#5d6359" d="M 136.5,92.5 C 136.833,92.5 137.167,92.5 137.5,92.5C 137.5,92.8333 137.5,93.1667 137.5,93.5C 137.5,94.1667 137.5,94.8333 137.5,95.5C 135.5,97.8333 133.5,100.167 131.5,102.5C 131.158,101.662 130.492,101.328 129.5,101.5C 128.167,100.833 128.167,100.167 129.5,99.5C 129.435,99.9382 129.601,100.272 130,100.5C 132.758,98.2488 134.925,95.5821 136.5,92.5 Z"/></g>
<g><path style="opacity:0.153" fill="#bbd58d" d="M 147.5,85.5 C 149.442,90.0557 150.108,95.0557 149.5,100.5C 148.833,100.5 148.5,100.833 148.5,101.5C 147.662,101.158 147.328,100.492 147.5,99.5C 148.678,94.9787 148.678,90.3121 147.5,85.5 Z"/></g>
<g><path style="opacity:0.494" fill="#bdd1c0" d="M 84.5,94.5 C 86.2671,96.7916 87.2671,99.4582 87.5,102.5C 85.4152,100.316 84.4152,97.6489 84.5,94.5 Z"/></g>
<g><path style="opacity:0.106" fill="#adb7a4" d="M 126.5,87.5 C 125.885,91.9912 126.885,95.9912 129.5,99.5C 128.167,100.167 128.167,100.833 129.5,101.5C 129.167,102.167 128.833,102.833 128.5,103.5C 127.833,103.167 127.167,102.833 126.5,102.5C 126.672,101.508 126.338,100.842 125.5,100.5C 125.182,95.9677 125.515,91.6344 126.5,87.5 Z"/></g>
<g><path style="opacity:1" fill="#397204" d="M 152.5,86.5 C 153.167,86.5 153.833,86.5 154.5,86.5C 154.401,89.2372 154.735,91.9039 155.5,94.5C 154.176,102.378 153.843,110.378 154.5,118.5C 152.621,117.659 150.621,117.325 148.5,117.5C 149.011,111.468 149.844,105.468 151,99.5C 153.681,95.4164 154.181,91.083 152.5,86.5 Z"/></g>
<g><path style="opacity:1" fill="#2e3435" d="M 36.5,92.5 C 37.5716,94.9358 36.905,97.1025 34.5,99C 35.2524,99.6708 35.5858,100.504 35.5,101.5C 34.9595,102.561 34.6262,103.561 34.5,104.5C 33.8386,105.718 33.1719,107.051 32.5,108.5C 31.8182,107.757 31.1515,107.091 30.5,106.5C 30.3824,100.832 32.3824,96.1651 36.5,92.5 Z"/></g>
<g><path style="opacity:1" fill="#608332" d="M 137.5,93.5 C 138.315,94.4293 139.148,95.4293 140,96.5C 140.432,103.769 141.932,110.769 144.5,117.5C 143.833,117.833 143.167,118.167 142.5,118.5C 142.204,116.597 141.537,114.93 140.5,113.5C 140.5,113.167 140.5,112.833 140.5,112.5C 139.372,106.859 138.372,101.192 137.5,95.5C 137.5,94.8333 137.5,94.1667 137.5,93.5 Z"/></g>
<g><path style="opacity:1" fill="#40661d" d="M 100.5,95.5 C 101.209,96.404 102.209,96.7373 103.5,96.5C 103.675,98.6208 103.341,100.621 102.5,102.5C 100.078,104.65 97.4109,104.983 94.5,103.5C 93.5,103.5 92.5,103.5 91.5,103.5C 88.43,100.366 87.7634,96.6995 89.5,92.5C 89.8333,92.5 90.1667,92.5 90.5,92.5C 92.5648,93.8256 93.8981,93.159 94.5,90.5C 92.6389,86.3467 91.3055,82.0133 90.5,77.5C 91.8589,76.9935 92.8589,75.9935 93.5,74.5C 94.1924,75.0253 94.6924,75.6919 95,76.5C 96.2281,82.7813 97.0615,89.1146 97.5,95.5C 98.5,95.5 99.5,95.5 100.5,95.5 Z"/></g>
<g><path style="opacity:0.235" fill="#95a181" d="M 107.5,98.5 C 111.624,100.878 115.958,102.878 120.5,104.5C 121.625,105.348 121.625,106.348 120.5,107.5C 116.117,104.642 111.45,102.308 106.5,100.5C 106.833,99.8333 107.167,99.1667 107.5,98.5 Z"/></g>
<g><path style="opacity:0.345" fill="#a0a493" d="M 190.5,101.5 C 190.833,101.5 191.167,101.5 191.5,101.5C 187.857,104.135 184.19,106.801 180.5,109.5C 180.672,108.508 180.338,107.842 179.5,107.5C 182.678,104.742 186.345,102.742 190.5,101.5 Z"/></g>
<g><path style="opacity:0.765" fill="#7d9584" d="M 94.5,103.5 C 94.702,105.95 94.3686,108.283 93.5,110.5C 91.1097,109.109 89.4431,107.109 88.5,104.5C 89.791,104.737 90.791,104.404 91.5,103.5C 92.5,103.5 93.5,103.5 94.5,103.5 Z"/></g>
<g><path style="opacity:1" fill="#496731" d="M 123.5,95.5 C 123.665,99.1817 123.499,102.848 123,106.5C 122.617,107.056 122.117,107.389 121.5,107.5C 121.167,107.5 120.833,107.5 120.5,107.5C 121.625,106.348 121.625,105.348 120.5,104.5C 119.89,103.609 119.557,102.609 119.5,101.5C 119.343,100.127 119.51,98.7932 120,97.5C 120.333,97.8333 120.667,98.1667 121,98.5C 121.377,97.0577 122.21,96.0577 123.5,95.5 Z"/></g>
<g><path style="opacity:1" fill="#46613d" d="M 106.5,101.5 C 106.233,103.965 105.566,106.299 104.5,108.5C 106.054,109.895 105.721,110.561 103.5,110.5C 101.865,109.954 100.199,109.62 98.5,109.5C 98.5944,112.541 97.0944,114.207 94,114.5C 93.8091,116.708 93.3091,118.708 92.5,120.5C 90.5,119.167 88.8333,117.5 87.5,115.5C 87.5,115.167 87.5,114.833 87.5,114.5C 88.1667,114.5 88.8333,114.5 89.5,114.5C 90.1174,114.611 90.6174,114.944 91,115.5C 92.3717,114.09 93.205,112.423 93.5,110.5C 94.3686,108.283 94.702,105.95 94.5,103.5C 97.4109,104.983 100.078,104.65 102.5,102.5C 103.833,102.167 105.167,101.833 106.5,101.5 Z"/></g>
<g><path style="opacity:0.204" fill="#bde494" d="M 129.5,104.5 C 131.25,105.659 132.25,107.326 132.5,109.5C 130.75,108.341 129.75,106.674 129.5,104.5 Z"/></g>
<g><path style="opacity:0.498" fill="#8ea071" d="M 169.5,113.5 C 169.167,112.167 168.833,110.833 168.5,109.5C 169.13,107.25 170.13,105.25 171.5,103.5C 171.81,104.738 172.31,104.738 173,103.5C 175.958,98.051 179.792,94.051 184.5,91.5C 178.983,98.5526 173.983,105.886 169.5,113.5 Z"/></g>
<g><path style="opacity:1" fill="#568b1b" d="M 126.5,102.5 C 127.167,102.833 127.833,103.167 128.5,103.5C 128.5,104.167 128.833,104.5 129.5,104.5C 129.75,106.674 130.75,108.341 132.5,109.5C 132.328,110.492 132.662,111.158 133.5,111.5C 133.5,112.167 133.5,112.833 133.5,113.5C 132.167,113.5 130.833,113.5 129.5,113.5C 127.123,110.274 126.123,106.607 126.5,102.5 Z"/></g>
<g><path style="opacity:1" fill="#374b36" d="M 122.5,90.5 C 123.167,90.5 123.833,90.5 124.5,90.5C 124.185,94.3714 124.518,98.0381 125.5,101.5C 125.5,107.5 125.5,113.5 125.5,119.5C 124.662,119.842 124.328,120.508 124.5,121.5C 124.167,121.5 123.833,121.5 123.5,121.5C 123.904,116.601 123.237,111.934 121.5,107.5C 122.117,107.389 122.617,107.056 123,106.5C 123.499,102.848 123.665,99.1817 123.5,95.5C 123.634,93.7085 123.301,92.0418 122.5,90.5 Z"/></g>
<g><path style="opacity:1" fill="#566d3b" d="M 129.5,101.5 C 130.492,101.328 131.158,101.662 131.5,102.5C 132.735,105.301 134.235,107.968 136,110.5C 136.414,110.043 136.914,109.709 137.5,109.5C 138.735,110.34 139.735,111.34 140.5,112.5C 140.5,112.833 140.5,113.167 140.5,113.5C 138.263,112.551 135.929,111.884 133.5,111.5C 132.662,111.158 132.328,110.492 132.5,109.5C 132.25,107.326 131.25,105.659 129.5,104.5C 128.833,104.5 128.5,104.167 128.5,103.5C 128.833,102.833 129.167,102.167 129.5,101.5 Z"/></g>
<g><path style="opacity:1" fill="#3b651c" d="M 125.5,100.5 C 126.338,100.842 126.672,101.508 126.5,102.5C 126.123,106.607 127.123,110.274 129.5,113.5C 127.31,114.929 125.976,116.929 125.5,119.5C 125.5,113.5 125.5,107.5 125.5,101.5C 125.5,101.167 125.5,100.833 125.5,100.5 Z"/></g>
<g><path style="opacity:1" fill="#566657" d="M 120.5,107.5 C 120.833,107.5 121.167,107.5 121.5,107.5C 123.237,111.934 123.904,116.601 123.5,121.5C 123.5,121.833 123.5,122.167 123.5,122.5C 122.883,122.611 122.383,122.944 122,123.5C 117.761,120.71 115.261,116.71 114.5,111.5C 116.636,110.347 118.636,109.014 120.5,107.5 Z"/></g>
<g><path style="opacity:1" fill="#273e06" d="M 171.5,102.5 C 171.5,102.833 171.5,103.167 171.5,103.5C 170.13,105.25 169.13,107.25 168.5,109.5C 167.842,110.793 167.508,112.293 167.5,114C 168.305,117.166 168.972,120.333 169.5,123.5C 169.5,123.833 169.5,124.167 169.5,124.5C 168.722,125.156 168.056,125.989 167.5,127C 167.57,127.765 167.903,128.265 168.5,128.5C 164.576,130.462 160.576,132.462 156.5,134.5C 156.75,132.326 157.75,130.659 159.5,129.5C 161.197,126.165 161.53,122.665 160.5,119C 162.124,113.321 164.124,107.821 166.5,102.5C 166.539,101.417 166.873,100.417 167.5,99.5C 170.692,96.882 172.025,97.882 171.5,102.5 Z"/></g>
<g><path style="opacity:1" fill="#93d331" d="M 73.5,117.5 C 73.5569,116.391 73.8902,115.391 74.5,114.5C 77.4824,114.037 80.4824,113.704 83.5,113.5C 83.5,114.5 83.5,115.5 83.5,116.5C 80.9354,117.642 78.2687,118.642 75.5,119.5C 74.2867,119.253 73.62,118.586 73.5,117.5 Z"/></g>
<g><path style="opacity:1" fill="#5a7e46" d="M 104.5,108.5 C 107.941,109.193 111.275,110.193 114.5,111.5C 115.261,116.71 117.761,120.71 122,123.5C 122.383,122.944 122.883,122.611 123.5,122.5C 123.3,131.506 122.966,140.506 122.5,149.5C 122.167,149.5 121.833,149.5 121.5,149.5C 121.5,148.167 121.5,146.833 121.5,145.5C 121.5,144.833 121.5,144.167 121.5,143.5C 121.666,137.491 121.499,131.491 121,125.5C 120.617,124.944 120.117,124.611 119.5,124.5C 118.432,123.566 117.099,123.232 115.5,123.5C 115.858,119.05 114.192,115.55 110.5,113C 108.613,112.22 106.946,112.387 105.5,113.5C 104.957,113.56 104.624,113.893 104.5,114.5C 105.548,116.456 106.048,118.456 106,120.5C 102.524,117.814 102.024,118.147 104.5,121.5C 103.311,122.429 101.978,122.762 100.5,122.5C 100.5,120.167 100.5,117.833 100.5,115.5C 99.209,115.263 98.209,115.596 97.5,116.5C 95.6824,114.922 94.6824,115.422 94.5,118C 96.2431,121.649 97.2431,125.482 97.5,129.5C 97.1667,129.5 96.8333,129.5 96.5,129.5C 96.1667,129.5 95.8333,129.5 95.5,129.5C 96.075,125.845 95.075,122.845 92.5,120.5C 93.3091,118.708 93.8091,116.708 94,114.5C 97.0944,114.207 98.5944,112.541 98.5,109.5C 100.199,109.62 101.865,109.954 103.5,110.5C 105.721,110.561 106.054,109.895 104.5,108.5 Z"/></g>
<g><path style="opacity:1" fill="#294f08" d="M 133.5,111.5 C 135.929,111.884 138.263,112.551 140.5,113.5C 141.537,114.93 142.204,116.597 142.5,118.5C 141.559,120.05 140.893,121.716 140.5,123.5C 138.196,120.188 135.863,116.854 133.5,113.5C 133.5,112.833 133.5,112.167 133.5,111.5 Z"/></g>
<g><path style="opacity:1" fill="#2f4d05" d="M 155.5,94.5 C 155.852,97.4284 156.518,100.262 157.5,103C 159.421,103.36 161.088,104.194 162.5,105.5C 163.569,104.09 164.903,103.09 166.5,102.5C 164.124,107.821 162.124,113.321 160.5,119C 161.53,122.665 161.197,126.165 159.5,129.5C 159.5,127.833 159.5,126.167 159.5,124.5C 157.833,124.5 156.167,124.5 154.5,124.5C 154.5,122.5 154.5,120.5 154.5,118.5C 153.843,110.378 154.176,102.378 155.5,94.5 Z"/></g>
<g><path style="opacity:1" fill="#a2be93" d="M 89.5,114.5 C 88.8333,114.5 88.1667,114.5 87.5,114.5C 83.059,111.892 78.7256,111.892 74.5,114.5C 73.8902,115.391 73.5569,116.391 73.5,117.5C 73.1667,117.5 72.8333,117.5 72.5,117.5C 72.1667,117.5 71.8333,117.5 71.5,117.5C 70.6981,118.952 70.1981,120.618 70,122.5C 69.0053,121.934 68.172,121.267 67.5,120.5C 69.2433,117.25 71.5766,114.416 74.5,112C 78.1667,111.333 81.8333,111.333 85.5,112C 87.0664,112.608 88.3998,113.442 89.5,114.5 Z"/></g>
<g><path style="opacity:1" fill="#90de69" d="M 129.5,113.5 C 130.833,113.5 132.167,113.5 133.5,113.5C 133.629,115.216 133.962,116.883 134.5,118.5C 133.463,120.683 131.963,121.016 130,119.5C 129.05,120.022 128.216,120.689 127.5,121.5C 126.52,124.086 126.187,126.753 126.5,129.5C 126.167,129.5 125.833,129.5 125.5,129.5C 125.5,126.167 125.5,122.833 125.5,119.5C 125.976,116.929 127.31,114.929 129.5,113.5 Z"/></g>
<g><path style="opacity:0.996" fill="#607040" d="M 179.5,107.5 C 180.338,107.842 180.672,108.508 180.5,109.5C 176.803,114.191 173.136,118.858 169.5,123.5C 168.972,120.333 168.305,117.166 167.5,114C 167.508,112.293 167.842,110.793 168.5,109.5C 168.833,110.833 169.167,112.167 169.5,113.5C 169.351,114.552 169.517,115.552 170,116.5C 172.379,112.62 175.546,109.62 179.5,107.5 Z"/></g>
<g><path style="opacity:1" fill="#6b9f39" d="M 87.5,114.5 C 87.5,114.833 87.5,115.167 87.5,115.5C 87.4606,116.583 87.1272,117.583 86.5,118.5C 84.2418,119.799 81.9084,120.799 79.5,121.5C 79.44,120.957 79.1067,120.624 78.5,120.5C 74.377,123.958 72.377,122.958 72.5,117.5C 72.8333,117.5 73.1667,117.5 73.5,117.5C 73.62,118.586 74.2867,119.253 75.5,119.5C 78.2687,118.642 80.9354,117.642 83.5,116.5C 83.5,115.5 83.5,114.5 83.5,113.5C 80.4824,113.704 77.4824,114.037 74.5,114.5C 78.7256,111.892 83.059,111.892 87.5,114.5 Z"/></g>
<g><path style="opacity:1" fill="#588629" d="M 105.5,113.5 C 106.946,112.387 108.613,112.22 110.5,113C 114.192,115.55 115.858,119.05 115.5,123.5C 117.099,123.232 118.432,123.566 119.5,124.5C 118.833,124.5 118.167,124.5 117.5,124.5C 116.5,124.5 115.5,124.5 114.5,124.5C 114.768,126.099 114.434,127.432 113.5,128.5C 111.5,128.5 109.5,128.5 107.5,128.5C 107.5,128.167 107.5,127.833 107.5,127.5C 109.167,127.5 110.833,127.5 112.5,127.5C 111.734,121.967 109.4,117.301 105.5,113.5 Z"/></g>
<g><path style="opacity:1" fill="#87bd65" d="M 148.5,117.5 C 150.621,117.325 152.621,117.659 154.5,118.5C 154.5,120.5 154.5,122.5 154.5,124.5C 156.167,124.5 157.833,124.5 159.5,124.5C 159.5,126.167 159.5,127.833 159.5,129.5C 157.75,130.659 156.75,132.326 156.5,134.5C 156.167,134.5 155.833,134.5 155.5,134.5C 154.177,132.238 152.843,129.904 151.5,127.5C 154.229,125.633 153.896,124.633 150.5,124.5C 150.66,122.801 150.494,121.134 150,119.5C 149.722,120.416 149.222,121.082 148.5,121.5C 148.5,120.167 148.5,118.833 148.5,117.5 Z"/></g>
<g><path style="opacity:1" fill="#bbcbc0" d="M 34.5,104.5 C 35.1667,105.167 35.8333,105.833 36.5,106.5C 34.663,106.639 34.3296,107.306 35.5,108.5C 37.9154,109.305 40.2487,110.305 42.5,111.5C 43.1067,111.376 43.44,111.043 43.5,110.5C 57.8284,118.329 71.8284,126.662 85.5,135.5C 82.8127,135.664 80.146,135.497 77.5,135C 73.4452,134.078 69.7786,132.411 66.5,130C 64.8659,129.506 63.1992,129.34 61.5,129.5C 60.5,129.5 59.5,129.5 58.5,129.5C 57.3192,127.933 55.6526,127.099 53.5,127C 54.1667,126.667 54.8333,126.333 55.5,126C 53.1261,126.402 50.7928,126.236 48.5,125.5C 47.5713,124.311 47.238,122.978 47.5,121.5C 45.6096,121.297 44.1096,121.963 43,123.5C 41.3117,122.675 41.1451,121.675 42.5,120.5C 40.684,119.058 38.684,118.558 36.5,119C 37.6922,120.945 37.6922,122.945 36.5,125C 38.9819,132.253 41.3152,139.586 43.5,147C 43.1667,147.333 42.8333,147.667 42.5,148C 43.2798,150.698 44.6131,153.031 46.5,155C 45.9558,155.717 45.2891,156.217 44.5,156.5C 38.1027,142.148 32.7694,127.315 28.5,112C 28.9543,110.061 29.621,108.228 30.5,106.5C 31.1515,107.091 31.8182,107.757 32.5,108.5C 33.1719,107.051 33.8386,105.718 34.5,104.5 Z"/></g>
<g><path style="opacity:1" fill="#537a24" d="M 97.5,116.5 C 98.5342,120.908 99.8676,125.241 101.5,129.5C 101.281,131.915 99.9477,132.915 97.5,132.5C 97.5,131.5 97.5,130.5 97.5,129.5C 97.2431,125.482 96.2431,121.649 94.5,118C 94.6824,115.422 95.6824,114.922 97.5,116.5 Z"/></g>
<g><path style="opacity:1" fill="#a2b1a7" d="M 217.5,102.5 C 219.407,108.689 219.574,115.022 218,121.5C 212.773,139.267 205.94,156.267 197.5,172.5C 197.5,171.5 197.5,170.5 197.5,169.5C 200.367,163.756 202.7,157.756 204.5,151.5C 205.497,151.53 206.164,151.03 206.5,150C 206.924,146.517 208.09,143.35 210,140.5C 211.146,136.181 211.813,131.848 212,127.5C 211.71,125.956 211.044,124.623 210,123.5C 209.333,124.833 208.333,125.833 207,126.5C 206.161,123.326 204.495,120.659 202,118.5C 200.324,119.061 198.991,120.061 198,121.5C 197.316,120.216 197.483,119.049 198.5,118C 202.201,116.326 205.868,114.659 209.5,113C 208.906,112.536 208.239,112.369 207.5,112.5C 209.608,110.941 211.941,109.608 214.5,108.5C 215.167,109.167 215.833,109.833 216.5,110.5C 217.48,107.914 217.813,105.247 217.5,102.5 Z"/></g>
<g><path style="opacity:1" fill="#4d772a" d="M 71.5,117.5 C 71.8333,117.5 72.1667,117.5 72.5,117.5C 72.377,122.958 74.377,123.958 78.5,120.5C 79.1067,120.624 79.44,120.957 79.5,121.5C 79.5,122.5 79.5,123.5 79.5,124.5C 77.5,124.5 75.5,124.5 73.5,124.5C 72.0762,122.485 71.4095,120.152 71.5,117.5 Z"/></g>
<g><path style="opacity:1" fill="#9bdf68" d="M 144.5,117.5 C 145.833,117.5 147.167,117.5 148.5,117.5C 148.5,118.833 148.5,120.167 148.5,121.5C 148.608,126.87 148.275,132.203 147.5,137.5C 145.215,138.546 142.882,138.546 140.5,137.5C 138.983,137.489 137.816,136.823 137,135.5C 136.578,133.645 136.078,131.811 135.5,130C 137.672,128.24 139.339,126.074 140.5,123.5C 140.893,121.716 141.559,120.05 142.5,118.5C 143.167,118.167 143.833,117.833 144.5,117.5 Z"/></g>
<g><path style="opacity:0.792" fill="#636b60" d="M 169.5,124.5 C 171.5,125.833 173.5,125.833 175.5,124.5C 173.579,126.269 171.246,127.603 168.5,128.5C 167.903,128.265 167.57,127.765 167.5,127C 168.056,125.989 168.722,125.156 169.5,124.5 Z"/></g>
<g><path style="opacity:1" fill="#355327" d="M 87.5,115.5 C 88.8333,117.5 90.5,119.167 92.5,120.5C 95.075,122.845 96.075,125.845 95.5,129.5C 93.6289,126.859 90.9623,125.526 87.5,125.5C 88.0826,129.929 86.4159,131.263 82.5,129.5C 79.0078,128.59 76.0078,126.924 73.5,124.5C 75.5,124.5 77.5,124.5 79.5,124.5C 79.5,123.5 79.5,122.5 79.5,121.5C 81.9084,120.799 84.2418,119.799 86.5,118.5C 87.1272,117.583 87.4606,116.583 87.5,115.5 Z"/></g>
<g><path style="opacity:1" fill="#345419" d="M 105.5,113.5 C 109.4,117.301 111.734,121.967 112.5,127.5C 110.833,127.5 109.167,127.5 107.5,127.5C 105.833,127.5 104.167,127.5 102.5,127.5C 103.478,132.996 101.478,134.996 96.5,133.5C 96.5,132.167 96.5,130.833 96.5,129.5C 96.8333,129.5 97.1667,129.5 97.5,129.5C 97.5,130.5 97.5,131.5 97.5,132.5C 99.9477,132.915 101.281,131.915 101.5,129.5C 99.8676,125.241 98.5342,120.908 97.5,116.5C 98.209,115.596 99.209,115.263 100.5,115.5C 100.5,117.833 100.5,120.167 100.5,122.5C 101.978,122.762 103.311,122.429 104.5,121.5C 102.024,118.147 102.524,117.814 106,120.5C 106.048,118.456 105.548,116.456 104.5,114.5C 104.624,113.893 104.957,113.56 105.5,113.5 Z"/></g>
<g><path style="opacity:1" fill="#84968a" d="M 207.5,112.5 C 208.239,112.369 208.906,112.536 209.5,113C 205.868,114.659 202.201,116.326 198.5,118C 197.483,119.049 197.316,120.216 198,121.5C 198.991,120.061 200.324,119.061 202,118.5C 204.495,120.659 206.161,123.326 207,126.5C 208.333,125.833 209.333,124.833 210,123.5C 211.044,124.623 211.71,125.956 212,127.5C 211.813,131.848 211.146,136.181 210,140.5C 208.09,143.35 206.924,146.517 206.5,150C 206.164,151.03 205.497,151.53 204.5,151.5C 204.631,150.761 204.464,150.094 204,149.5C 202.423,152.675 200.59,153.009 198.5,150.5C 197.692,152.423 197.192,154.423 197,156.5C 195.559,155.74 194.059,155.074 192.5,154.5C 190.484,155.706 188.484,155.706 186.5,154.5C 188.513,152.826 190.18,150.826 191.5,148.5C 190.271,147.719 188.938,147.219 187.5,147C 188.252,146.329 188.586,145.496 188.5,144.5C 189.289,144.217 189.956,143.717 190.5,143C 188.527,142.505 186.527,142.338 184.5,142.5C 184.062,142.565 183.728,142.399 183.5,142C 184.061,140.324 185.061,138.991 186.5,138C 185.5,137.667 184.5,137.333 183.5,137C 184.598,136.23 184.598,135.397 183.5,134.5C 184.048,132.468 185.381,131.468 187.5,131.5C 187.316,128.679 188.649,127.012 191.5,126.5C 192.386,125.675 192.719,124.675 192.5,123.5C 194.199,123.66 195.866,123.494 197.5,123C 196.833,122.667 196.167,122.333 195.5,122C 196.711,121.107 196.711,120.274 195.5,119.5C 191.66,121.921 187.66,124.088 183.5,126C 182.167,126.667 182.167,127.333 183.5,128C 181.482,128.505 179.482,129.005 177.5,129.5C 177.263,128.209 177.596,127.209 178.5,126.5C 187.796,121.018 197.463,116.352 207.5,112.5 Z"/></g>
<g><path style="opacity:1" fill="#83d849" d="M 134.5,118.5 C 134.436,122.22 133.936,125.886 133,129.5C 130.303,129.135 128.136,129.135 126.5,129.5C 126.187,126.753 126.52,124.086 127.5,121.5C 128.216,120.689 129.05,120.022 130,119.5C 131.963,121.016 133.463,120.683 134.5,118.5 Z"/></g>
<g><path style="opacity:1" fill="#b7c8ba" d="M 58.5,129.5 C 54.5872,128.758 50.7539,129.424 47,131.5C 46.6667,131.167 46.3333,130.833 46,130.5C 45.1859,132.902 45.3526,135.235 46.5,137.5C 47.1924,136.975 47.6924,136.308 48,135.5C 49.2227,137.985 50.7227,138.152 52.5,136C 50.7536,135.529 49.087,134.862 47.5,134C 50.4369,134.011 53.2702,133.845 56,133.5C 56.5,134 57,134.5 57.5,135C 54.7854,135.875 53.4521,137.708 53.5,140.5C 51.6453,140.272 50.8119,140.939 51,142.5C 52.7337,143.249 54.567,143.749 56.5,144C 59.0521,147.031 58.7187,149.864 55.5,152.5C 56.6507,153.731 57.8173,153.731 59,152.5C 59.3589,155.544 60.0255,155.878 61,153.5C 61.3345,155.503 62.1679,157.17 63.5,158.5C 61.9397,158.519 60.4397,158.852 59,159.5C 57.779,158.728 56.779,157.728 56,156.5C 53.9061,158.559 52.7394,161.059 52.5,164C 53.9638,171.575 56.6305,178.575 60.5,185C 60.1667,186.667 59.8333,188.333 59.5,190C 61.5239,192.881 62.8573,196.047 63.5,199.5C 65.4286,199.231 67.0953,199.731 68.5,201C 68.1235,204.634 69.1235,208.134 71.5,211.5C 70.019,212.944 70.3523,213.611 72.5,213.5C 72.5,214.167 72.5,214.833 72.5,215.5C 70.5487,214.718 69.0487,213.384 68,211.5C 59.0523,193.609 51.219,175.276 44.5,156.5C 45.2891,156.217 45.9558,155.717 46.5,155C 44.6131,153.031 43.2798,150.698 42.5,148C 42.8333,147.667 43.1667,147.333 43.5,147C 41.3152,139.586 38.9819,132.253 36.5,125C 37.6922,122.945 37.6922,120.945 36.5,119C 38.684,118.558 40.684,119.058 42.5,120.5C 41.1451,121.675 41.3117,122.675 43,123.5C 44.1096,121.963 45.6096,121.297 47.5,121.5C 47.238,122.978 47.5713,124.311 48.5,125.5C 50.7928,126.236 53.1261,126.402 55.5,126C 54.8333,126.333 54.1667,126.667 53.5,127C 55.6526,127.099 57.3192,127.933 58.5,129.5 Z"/></g>
<g><path style="opacity:1" fill="#b2c3b3" d="M 58.5,129.5 C 59.5,129.5 60.5,129.5 61.5,129.5C 62.2411,132.413 62.7411,135.413 63,138.5C 63.3333,136.5 63.6667,134.5 64,132.5C 64.8238,133.808 65.3238,135.308 65.5,137C 67.2556,137.202 68.9223,137.702 70.5,138.5C 68.8647,139.681 67.198,139.681 65.5,138.5C 64.6433,139.736 63.9766,141.069 63.5,142.5C 65.686,143.221 67.8526,143.887 70,144.5C 70.1171,145.95 69.9505,147.45 69.5,149C 69.5093,150.404 70.0093,151.57 71,152.5C 72.0113,151.663 73.1779,151.33 74.5,151.5C 74.2909,155.751 76.2909,158.417 80.5,159.5C 78.3896,163.092 75.3896,164.092 71.5,162.5C 70.5,162.833 69.8333,163.5 69.5,164.5C 70.8419,165.876 72.1752,167.209 73.5,168.5C 74.7362,167.754 76.0695,167.421 77.5,167.5C 77.8333,169.5 78.1667,171.5 78.5,173.5C 80.5,173.5 82.5,173.5 84.5,173.5C 84.6287,171.784 84.962,170.117 85.5,168.5C 87.1537,170.56 88.1537,173.06 88.5,176C 88.0426,176.414 87.7093,176.914 87.5,177.5C 88.4415,177.489 89.1081,177.989 89.5,179C 89.1377,180.225 88.6377,181.391 88,182.5C 87.2904,181.027 86.1238,180.36 84.5,180.5C 84.5,181.833 84.5,183.167 84.5,184.5C 85.8221,184.67 86.9887,184.337 88,183.5C 88.7811,184.729 89.2811,186.062 89.5,187.5C 87.567,190.239 85.9003,193.573 84.5,197.5C 82.6203,197.229 81.287,197.896 80.5,199.5C 79.596,200.209 79.2627,201.209 79.5,202.5C 80.8734,202.343 82.2068,202.51 83.5,203C 81.567,203.251 79.7337,203.751 78,204.5C 77.304,207.478 76.804,210.478 76.5,213.5C 78.3797,213.229 79.713,213.896 80.5,215.5C 78.1438,215.684 75.4771,215.684 72.5,215.5C 72.5,214.833 72.5,214.167 72.5,213.5C 76.6131,209.539 77.2798,205.039 74.5,200C 75.5,199.667 76.5,199.333 77.5,199C 75.5594,198.257 73.7261,198.424 72,199.5C 71.6886,198.258 72.1886,197.258 73.5,196.5C 72.9234,194.45 71.5901,193.45 69.5,193.5C 69.238,192.022 69.5713,190.689 70.5,189.5C 73.5027,188.915 76.5027,188.248 79.5,187.5C 76.4179,187.292 73.2512,187.292 70,187.5C 69.5,187.167 69,186.833 68.5,186.5C 69.325,185.614 70.325,185.281 71.5,185.5C 71.5,184.5 71.5,183.5 71.5,182.5C 69.8333,182.5 68.1667,182.5 66.5,182.5C 66.332,178.99 65.9987,175.49 65.5,172C 65.6227,169.254 66.6227,166.921 68.5,165C 65.9649,163.397 64.2982,161.231 63.5,158.5C 62.1679,157.17 61.3345,155.503 61,153.5C 60.0255,155.878 59.3589,155.544 59,152.5C 57.8173,153.731 56.6507,153.731 55.5,152.5C 58.7187,149.864 59.0521,147.031 56.5,144C 54.567,143.749 52.7337,143.249 51,142.5C 50.8119,140.939 51.6453,140.272 53.5,140.5C 53.4521,137.708 54.7854,135.875 57.5,135C 57,134.5 56.5,134 56,133.5C 53.2702,133.845 50.4369,134.011 47.5,134C 49.087,134.862 50.7536,135.529 52.5,136C 50.7227,138.152 49.2227,137.985 48,135.5C 47.6924,136.308 47.1924,136.975 46.5,137.5C 45.3526,135.235 45.1859,132.902 46,130.5C 46.3333,130.833 46.6667,131.167 47,131.5C 50.7539,129.424 54.5872,128.758 58.5,129.5 Z"/></g>
<g><path style="opacity:1" fill="#62a431" d="M 155.5,134.5 C 153.819,136.008 151.819,137.008 149.5,137.5C 148.833,137.5 148.167,137.5 147.5,137.5C 148.275,132.203 148.608,126.87 148.5,121.5C 149.222,121.082 149.722,120.416 150,119.5C 150.494,121.134 150.66,122.801 150.5,124.5C 153.896,124.633 154.229,125.633 151.5,127.5C 152.843,129.904 154.177,132.238 155.5,134.5 Z"/></g>
<g><path style="opacity:1" fill="#6bb049" d="M 117.5,124.5 C 118.167,124.5 118.833,124.5 119.5,124.5C 120.117,124.611 120.617,124.944 121,125.5C 121.499,131.491 121.666,137.491 121.5,143.5C 118.802,143.155 116.802,141.822 115.5,139.5C 117.117,140.038 118.784,140.371 120.5,140.5C 120.193,137.72 119.193,135.22 117.5,133C 118.022,132.05 118.689,131.216 119.5,130.5C 117.914,128.827 117.247,126.827 117.5,124.5 Z"/></g>
<g><path style="opacity:1" fill="#3c4a44" d="M 35.5,101.5 C 41.3344,105.921 47.6678,109.588 54.5,112.5C 55.793,111.158 56.6264,109.491 57,107.5C 57.49,108.793 57.6567,110.127 57.5,111.5C 57.2965,113.39 57.9632,114.89 59.5,116C 62.3118,117.328 64.9784,118.828 67.5,120.5C 68.172,121.267 69.0053,121.934 70,122.5C 70.1981,120.618 70.6981,118.952 71.5,117.5C 71.4095,120.152 72.0762,122.485 73.5,124.5C 76.0078,126.924 79.0078,128.59 82.5,129.5C 89.3136,134.39 96.3136,138.39 103.5,141.5C 105.904,140.992 106.571,139.825 105.5,138C 106.577,137.53 107.577,137.697 108.5,138.5C 109.182,141.495 110.182,144.495 111.5,147.5C 114.273,148.97 117.106,150.303 120,151.5C 120.765,151.43 121.265,151.097 121.5,150.5C 122.833,151.5 124.167,152.5 125.5,153.5C 123.735,154.461 121.735,154.795 119.5,154.5C 112.532,149.678 105.199,145.344 97.5,141.5C 93.7283,139.066 89.7283,137.066 85.5,135.5C 71.8284,126.662 57.8284,118.329 43.5,110.5C 41.0038,109.42 38.6705,108.086 36.5,106.5C 35.8333,105.833 35.1667,105.167 34.5,104.5C 34.6262,103.561 34.9595,102.561 35.5,101.5 Z"/></g>
<g><path style="opacity:1" fill="#14380e" d="M 123.5,121.5 C 123.833,121.5 124.167,121.5 124.5,121.5C 124.5,130.833 124.5,140.167 124.5,149.5C 123.833,149.5 123.167,149.5 122.5,149.5C 122.966,140.506 123.3,131.506 123.5,122.5C 123.5,122.167 123.5,121.833 123.5,121.5 Z"/></g>
<g><path style="opacity:1" fill="#88ce6a" d="M 107.5,128.5 C 109.5,128.5 111.5,128.5 113.5,128.5C 112.054,132.51 112.72,136.177 115.5,139.5C 113.147,137.899 110.98,135.899 109,133.5C 107.991,131.975 107.491,130.308 107.5,128.5 Z"/></g>
<g><path style="opacity:1" fill="#2b4a1d" d="M 107.5,127.5 C 107.5,127.833 107.5,128.167 107.5,128.5C 107.491,130.308 107.991,131.975 109,133.5C 110.98,135.899 113.147,137.899 115.5,139.5C 116.802,141.822 118.802,143.155 121.5,143.5C 121.5,144.167 121.5,144.833 121.5,145.5C 118.972,144.989 116.472,144.322 114,143.5C 113.167,143.833 112.333,144.167 111.5,144.5C 114.274,147.22 117.607,148.887 121.5,149.5C 121.5,149.833 121.5,150.167 121.5,150.5C 121.265,151.097 120.765,151.43 120,151.5C 117.106,150.303 114.273,148.97 111.5,147.5C 110.182,144.495 109.182,141.495 108.5,138.5C 107.19,135.261 105.357,134.928 103,137.5C 101.189,136.922 99.3553,136.422 97.5,136C 96.7476,135.329 96.4142,134.496 96.5,133.5C 101.478,134.996 103.478,132.996 102.5,127.5C 104.167,127.5 105.833,127.5 107.5,127.5 Z"/></g>
<g><path style="opacity:1" fill="#4e802e" d="M 125.5,119.5 C 125.5,122.833 125.5,126.167 125.5,129.5C 125.2,134.099 125.533,138.599 126.5,143C 129.833,143.667 133.167,143.667 136.5,143C 137.38,141.644 137.714,140.144 137.5,138.5C 138.791,138.737 139.791,138.404 140.5,137.5C 142.882,138.546 145.215,138.546 147.5,137.5C 148.167,137.5 148.833,137.5 149.5,137.5C 141.621,142.271 133.288,146.271 124.5,149.5C 124.5,140.167 124.5,130.833 124.5,121.5C 124.328,120.508 124.662,119.842 125.5,119.5 Z"/></g>
<g><path style="opacity:1" fill="#879a8c" d="M 183.5,134.5 C 184.598,135.397 184.598,136.23 183.5,137C 184.5,137.333 185.5,137.667 186.5,138C 185.061,138.991 184.061,140.324 183.5,142C 183.728,142.399 184.062,142.565 184.5,142.5C 183.122,143.234 181.622,143.901 180,144.5C 178.301,143.594 176.467,143.261 174.5,143.5C 174.808,145.924 174.474,148.257 173.5,150.5C 172.522,150.023 171.689,149.357 171,148.5C 170.529,150.246 169.862,151.913 169,153.5C 168.667,152.833 168.333,152.167 168,151.5C 166.915,152.736 166.082,154.069 165.5,155.5C 165.561,157.592 166.561,159.092 168.5,160C 167.663,161.011 167.33,162.178 167.5,163.5C 163.833,163.5 160.167,163.5 156.5,163.5C 156.682,161.409 156.348,159.409 155.5,157.5C 156.833,156.5 158.167,155.5 159.5,154.5C 157.681,153.68 156.014,152.68 154.5,151.5C 156.792,149.968 159.125,148.301 161.5,146.5C 163.105,145.57 164.605,145.57 166,146.5C 171.289,144.285 172.789,140.451 170.5,135C 171.672,134.647 172.838,134.813 174,135.5C 174.5,135.333 175,135.167 175.5,135C 174.167,134.333 174.167,133.667 175.5,133C 177.891,132.713 180.224,132.213 182.5,131.5C 182.593,132.472 182.926,133.472 183.5,134.5 Z"/></g>
<g><path style="opacity:1" fill="#1c2c1b" d="M 95.5,129.5 C 95.8333,129.5 96.1667,129.5 96.5,129.5C 96.5,130.833 96.5,132.167 96.5,133.5C 96.4142,134.496 96.7476,135.329 97.5,136C 99.3553,136.422 101.189,136.922 103,137.5C 105.357,134.928 107.19,135.261 108.5,138.5C 107.577,137.697 106.577,137.53 105.5,138C 106.571,139.825 105.904,140.992 103.5,141.5C 96.3136,138.39 89.3136,134.39 82.5,129.5C 86.4159,131.263 88.0826,129.929 87.5,125.5C 90.9623,125.526 93.6289,126.859 95.5,129.5 Z"/></g>
<g><path style="opacity:1" fill="#7cd24b" d="M 117.5,124.5 C 117.247,126.827 117.914,128.827 119.5,130.5C 118.689,131.216 118.022,132.05 117.5,133C 119.193,135.22 120.193,137.72 120.5,140.5C 118.784,140.371 117.117,140.038 115.5,139.5C 112.72,136.177 112.054,132.51 113.5,128.5C 114.434,127.432 114.768,126.099 114.5,124.5C 115.5,124.5 116.5,124.5 117.5,124.5 Z"/></g>
<g><path style="opacity:1" fill="#5bab1f" d="M 133.5,113.5 C 135.863,116.854 138.196,120.188 140.5,123.5C 139.339,126.074 137.672,128.24 135.5,130C 136.078,131.811 136.578,133.645 137,135.5C 137.816,136.823 138.983,137.489 140.5,137.5C 139.791,138.404 138.791,138.737 137.5,138.5C 137.714,140.144 137.38,141.644 136.5,143C 133.167,143.667 129.833,143.667 126.5,143C 125.533,138.599 125.2,134.099 125.5,129.5C 125.833,129.5 126.167,129.5 126.5,129.5C 128.136,129.135 130.303,129.135 133,129.5C 133.936,125.886 134.436,122.22 134.5,118.5C 133.962,116.883 133.629,115.216 133.5,113.5 Z"/></g>
<g><path style="opacity:1" fill="#b8c8b8" d="M 61.5,129.5 C 63.1992,129.34 64.8659,129.506 66.5,130C 69.7786,132.411 73.4452,134.078 77.5,135C 80.146,135.497 82.8127,135.664 85.5,135.5C 89.7283,137.066 93.7283,139.066 97.5,141.5C 97.5106,143.017 98.1772,144.184 99.5,145C 98.1667,145.667 98.1667,146.333 99.5,147C 96.3513,147.274 93.3513,146.608 90.5,145C 89.8742,144.25 89.3742,143.416 89,142.5C 86.0219,142.328 83.0219,142.995 80,144.5C 79.3333,145.833 79.3333,147.167 80,148.5C 80.3333,148.167 80.6667,147.833 81,147.5C 81.227,150.06 82.5603,151.726 85,152.5C 90.8814,150.193 94.3814,152.193 95.5,158.5C 94.1667,158.833 92.8333,159.167 91.5,159.5C 89.0759,158.979 86.7426,158.312 84.5,157.5C 84.7733,159.451 84.1066,160.951 82.5,162C 84.1712,163.843 85.1712,166.009 85.5,168.5C 84.962,170.117 84.6287,171.784 84.5,173.5C 82.5,173.5 80.5,173.5 78.5,173.5C 78.1667,171.5 77.8333,169.5 77.5,167.5C 76.0695,167.421 74.7362,167.754 73.5,168.5C 72.1752,167.209 70.8419,165.876 69.5,164.5C 69.8333,163.5 70.5,162.833 71.5,162.5C 75.3896,164.092 78.3896,163.092 80.5,159.5C 76.2909,158.417 74.2909,155.751 74.5,151.5C 73.1779,151.33 72.0113,151.663 71,152.5C 70.0093,151.57 69.5093,150.404 69.5,149C 69.9505,147.45 70.1171,145.95 70,144.5C 67.8526,143.887 65.686,143.221 63.5,142.5C 63.9766,141.069 64.6433,139.736 65.5,138.5C 67.198,139.681 68.8647,139.681 70.5,138.5C 68.9223,137.702 67.2556,137.202 65.5,137C 65.3238,135.308 64.8238,133.808 64,132.5C 63.6667,134.5 63.3333,136.5 63,138.5C 62.7411,135.413 62.2411,132.413 61.5,129.5 Z"/></g>
<g><path style="opacity:1" fill="#50654a" d="M 160.5,136.5 C 155.312,140.263 149.645,143.263 143.5,145.5C 148.336,141.245 154.002,138.245 160.5,136.5 Z"/></g>
<g><path style="opacity:1" fill="#192a19" d="M 175.5,124.5 C 175.833,124.5 176.167,124.5 176.5,124.5C 177.833,124.5 178.5,125.167 178.5,126.5C 177.596,127.209 177.263,128.209 177.5,129.5C 171.799,131.626 166.132,133.959 160.5,136.5C 154.002,138.245 148.336,141.245 143.5,145.5C 142.508,145.328 141.842,145.662 141.5,146.5C 136.167,148.833 130.833,151.167 125.5,153.5C 124.167,152.5 122.833,151.5 121.5,150.5C 121.5,150.167 121.5,149.833 121.5,149.5C 121.833,149.5 122.167,149.5 122.5,149.5C 123.167,149.5 123.833,149.5 124.5,149.5C 133.288,146.271 141.621,142.271 149.5,137.5C 151.819,137.008 153.819,136.008 155.5,134.5C 155.833,134.5 156.167,134.5 156.5,134.5C 160.576,132.462 164.576,130.462 168.5,128.5C 171.246,127.603 173.579,126.269 175.5,124.5 Z"/></g>
<g><path style="opacity:1" fill="#619940" d="M 121.5,145.5 C 121.5,146.833 121.5,148.167 121.5,149.5C 117.607,148.887 114.274,147.22 111.5,144.5C 112.333,144.167 113.167,143.833 114,143.5C 116.472,144.322 118.972,144.989 121.5,145.5 Z"/></g>
<g><path style="opacity:1" fill="#b2c4b3" d="M 97.5,141.5 C 105.199,145.344 112.532,149.678 119.5,154.5C 124.386,156.167 124.386,157.333 119.5,158C 113.79,163.978 108.456,170.145 103.5,176.5C 101.865,177.681 100.198,177.681 98.5,176.5C 97.3482,178.397 97.6815,180.064 99.5,181.5C 97.1843,183.331 95.3509,185.665 94,188.5C 92.8525,187.542 91.8525,187.875 91,189.5C 88.8164,192.797 86.983,196.13 85.5,199.5C 84.4693,200.355 83.3026,201.022 82,201.5C 80.9701,201.164 80.4701,200.497 80.5,199.5C 81.287,197.896 82.6203,197.229 84.5,197.5C 85.9003,193.573 87.567,190.239 89.5,187.5C 89.2811,186.062 88.7811,184.729 88,183.5C 86.9887,184.337 85.8221,184.67 84.5,184.5C 84.5,183.167 84.5,181.833 84.5,180.5C 86.1238,180.36 87.2904,181.027 88,182.5C 88.6377,181.391 89.1377,180.225 89.5,179C 89.1081,177.989 88.4415,177.489 87.5,177.5C 87.7093,176.914 88.0426,176.414 88.5,176C 88.1537,173.06 87.1537,170.56 85.5,168.5C 85.1712,166.009 84.1712,163.843 82.5,162C 84.1066,160.951 84.7733,159.451 84.5,157.5C 86.7426,158.312 89.0759,158.979 91.5,159.5C 92.8333,159.167 94.1667,158.833 95.5,158.5C 94.3814,152.193 90.8814,150.193 85,152.5C 82.5603,151.726 81.227,150.06 81,147.5C 80.6667,147.833 80.3333,148.167 80,148.5C 79.3333,147.167 79.3333,145.833 80,144.5C 83.0219,142.995 86.0219,142.328 89,142.5C 89.3742,143.416 89.8742,144.25 90.5,145C 93.3513,146.608 96.3513,147.274 99.5,147C 98.1667,146.333 98.1667,145.667 99.5,145C 98.1772,144.184 97.5106,143.017 97.5,141.5 Z"/></g>
<g><path style="opacity:1" fill="#8ea193" d="M 183.5,134.5 C 182.926,133.472 182.593,132.472 182.5,131.5C 180.224,132.213 177.891,132.713 175.5,133C 174.167,133.667 174.167,134.333 175.5,135C 175,135.167 174.5,135.333 174,135.5C 172.838,134.813 171.672,134.647 170.5,135C 172.789,140.451 171.289,144.285 166,146.5C 164.605,145.57 163.105,145.57 161.5,146.5C 159.125,148.301 156.792,149.968 154.5,151.5C 151.203,151.329 150.869,151.995 153.5,153.5C 152.726,154.711 151.893,154.711 151,153.5C 150.517,154.448 150.351,155.448 150.5,156.5C 148.5,156.167 146.5,155.833 144.5,155.5C 144.5,156.5 144.5,157.5 144.5,158.5C 145.873,158.343 147.207,158.51 148.5,159C 147.027,159.71 146.36,160.876 146.5,162.5C 144.694,159.662 143.694,159.995 143.5,163.5C 139.733,164.074 136.733,162.907 134.5,160C 136.574,160.227 138.574,160.061 140.5,159.5C 141.809,157.76 141.476,156.427 139.5,155.5C 138.167,155.5 136.833,155.5 135.5,155.5C 135.5,154.5 135.5,153.5 135.5,152.5C 138.521,151.033 141.521,149.367 144.5,147.5C 143.675,146.614 142.675,146.281 141.5,146.5C 141.842,145.662 142.508,145.328 143.5,145.5C 149.645,143.263 155.312,140.263 160.5,136.5C 166.132,133.959 171.799,131.626 177.5,129.5C 179.482,129.005 181.482,128.505 183.5,128C 182.167,127.333 182.167,126.667 183.5,126C 187.66,124.088 191.66,121.921 195.5,119.5C 196.711,120.274 196.711,121.107 195.5,122C 196.167,122.333 196.833,122.667 197.5,123C 195.866,123.494 194.199,123.66 192.5,123.5C 192.719,124.675 192.386,125.675 191.5,126.5C 188.649,127.012 187.316,128.679 187.5,131.5C 185.381,131.468 184.048,132.468 183.5,134.5 Z"/></g>
<g><path style="opacity:1" fill="#819486" d="M 154.5,151.5 C 156.014,152.68 157.681,153.68 159.5,154.5C 158.167,155.5 156.833,156.5 155.5,157.5C 156.348,159.409 156.682,161.409 156.5,163.5C 160.167,163.5 163.833,163.5 167.5,163.5C 167.33,162.178 167.663,161.011 168.5,160C 166.561,159.092 165.561,157.592 165.5,155.5C 166.847,154.829 168.014,154.829 169,155.5C 169.915,154.672 170.581,153.672 171,152.5C 171.182,155.226 171.682,157.893 172.5,160.5C 173.251,159.624 173.751,158.624 174,157.5C 177.314,160.755 177.148,163.755 173.5,166.5C 174.025,167.192 174.692,167.692 175.5,168C 172.144,169.922 168.978,169.755 166,167.5C 166.195,169.126 166.195,170.793 166,172.5C 164.057,171.193 162.223,171.193 160.5,172.5C 159.486,173.765 157.986,174.431 156,174.5C 151.063,175.23 149.396,173.23 151,168.5C 154.358,164.873 154.025,164.206 150,166.5C 149.31,164.65 148.144,163.316 146.5,162.5C 146.36,160.876 147.027,159.71 148.5,159C 147.207,158.51 145.873,158.343 144.5,158.5C 144.5,157.5 144.5,156.5 144.5,155.5C 146.5,155.833 148.5,156.167 150.5,156.5C 150.351,155.448 150.517,154.448 151,153.5C 151.893,154.711 152.726,154.711 153.5,153.5C 150.869,151.995 151.203,151.329 154.5,151.5 Z"/></g>
<g><path style="opacity:1" fill="#7f9082" d="M 188.5,144.5 C 188.586,145.496 188.252,146.329 187.5,147C 188.938,147.219 190.271,147.719 191.5,148.5C 190.18,150.826 188.513,152.826 186.5,154.5C 188.484,155.706 190.484,155.706 192.5,154.5C 194.059,155.074 195.559,155.74 197,156.5C 197.192,154.423 197.692,152.423 198.5,150.5C 200.59,153.009 202.423,152.675 204,149.5C 204.464,150.094 204.631,150.761 204.5,151.5C 202.7,157.756 200.367,163.756 197.5,169.5C 196.073,171.148 195.24,173.148 195,175.5C 192.891,176.035 192.391,177.035 193.5,178.5C 192.675,179.386 191.675,179.719 190.5,179.5C 190.67,180.822 190.337,181.989 189.5,183C 190.167,183.333 190.833,183.667 191.5,184C 190.333,184.5 189.5,185.333 189,186.5C 186.745,181.961 185.911,177.295 186.5,172.5C 186.121,170.787 185.121,169.787 183.5,169.5C 183.279,168.265 182.612,167.265 181.5,166.5C 183.542,165.497 183.875,164.163 182.5,162.5C 183.244,159.557 183.744,156.557 184,153.5C 184.318,151.939 185.151,150.772 186.5,150C 183.35,146.385 184.016,144.551 188.5,144.5 Z"/></g>
<g><path style="opacity:1" fill="#9ab19f" d="M 135.5,152.5 C 135.5,153.5 135.5,154.5 135.5,155.5C 136.833,155.5 138.167,155.5 139.5,155.5C 137.712,158.066 135.879,158.066 134,155.5C 133.085,156.328 132.419,157.328 132,158.5C 131.586,158.043 131.086,157.709 130.5,157.5C 130.167,158.5 129.833,159.5 129.5,160.5C 130.279,162.776 131.279,164.942 132.5,167C 132.265,167.873 131.931,168.707 131.5,169.5C 137.332,169.835 140.832,172.835 142,178.5C 148.063,181.728 152.563,186.395 155.5,192.5C 156.325,193.386 157.325,193.719 158.5,193.5C 158.833,195.5 159.167,197.5 159.5,199.5C 161.681,199.284 163.347,200.117 164.5,202C 161.833,203 161.833,204 164.5,205C 162.657,205.159 161.991,205.659 162.5,206.5C 162.53,207.497 162.03,208.164 161,208.5C 158.23,207.652 155.397,207.319 152.5,207.5C 152.613,204.951 151.946,202.618 150.5,200.5C 152.708,198.79 155.041,197.29 157.5,196C 155.89,194.505 154.224,194.339 152.5,195.5C 147.265,191.119 146.265,191.952 149.5,198C 149.167,198.5 148.833,199 148.5,199.5C 147.614,198.675 147.281,197.675 147.5,196.5C 144.001,196.259 143.668,197.092 146.5,199C 145.034,199.635 143.7,200.469 142.5,201.5C 141.289,200.726 141.289,199.893 142.5,199C 141.833,198.667 141.167,198.333 140.5,198C 143.464,197.16 143.797,196.16 141.5,195C 142.973,194.29 143.64,193.124 143.5,191.5C 140.572,191.852 137.738,192.518 135,193.5C 134.311,192.643 133.478,191.977 132.5,191.5C 131.167,192.833 129.833,192.833 128.5,191.5C 127.702,191.957 127.369,192.624 127.5,193.5C 126.022,193.762 124.689,193.429 123.5,192.5C 125.371,189.766 126.371,186.766 126.5,183.5C 127.822,183.33 128.989,183.663 130,184.5C 130.5,184 131,183.5 131.5,183C 129.104,182.121 126.771,181.454 124.5,181C 124.167,180.667 123.833,180.333 123.5,180C 124.951,180.263 126.284,180.096 127.5,179.5C 125.32,175.456 122.486,174.79 119,177.5C 118.996,175.632 119.496,173.798 120.5,172C 118.009,168.612 117.343,168.779 118.5,172.5C 118.062,173.506 117.396,173.506 116.5,172.5C 115.591,170.596 114.591,168.762 113.5,167C 115.735,163.262 118.735,160.429 122.5,158.5C 123.672,158.919 124.672,159.585 125.5,160.5C 126.59,159.609 126.59,158.609 125.5,157.5C 128.32,154.679 131.653,153.013 135.5,152.5 Z"/></g>
<g><path style="opacity:1" fill="#a2b9a8" d="M 141.5,146.5 C 142.675,146.281 143.675,146.614 144.5,147.5C 141.521,149.367 138.521,151.033 135.5,152.5C 131.653,153.013 128.32,154.679 125.5,157.5C 126.59,158.609 126.59,159.609 125.5,160.5C 124.672,159.585 123.672,158.919 122.5,158.5C 118.735,160.429 115.735,163.262 113.5,167C 114.591,168.762 115.591,170.596 116.5,172.5C 117.396,173.506 118.062,173.506 118.5,172.5C 117.343,168.779 118.009,168.612 120.5,172C 119.496,173.798 118.996,175.632 119,177.5C 122.486,174.79 125.32,175.456 127.5,179.5C 126.284,180.096 124.951,180.263 123.5,180C 123.833,180.333 124.167,180.667 124.5,181C 126.771,181.454 129.104,182.121 131.5,183C 131,183.5 130.5,184 130,184.5C 128.989,183.663 127.822,183.33 126.5,183.5C 126.371,186.766 125.371,189.766 123.5,192.5C 124.689,193.429 126.022,193.762 127.5,193.5C 128.552,193.771 129.885,193.938 131.5,194C 131.957,194.414 132.291,194.914 132.5,195.5C 130.07,197.949 127.737,199.783 125.5,201C 125.946,202.726 126.779,204.226 128,205.5C 128.893,204.289 129.726,204.289 130.5,205.5C 129.391,206.965 129.891,207.965 132,208.5C 132.333,207.167 132.667,205.833 133,204.5C 133.739,205.574 134.739,206.241 136,206.5C 144.296,203.67 149.463,206.337 151.5,214.5C 152.833,214.5 154.167,214.5 155.5,214.5C 161.833,214.5 168.167,214.5 174.5,214.5C 151.835,215.394 129.002,216.06 106,216.5C 99.9902,216.499 94.1568,216.166 88.5,215.5C 96.1299,214.637 103.797,214.47 111.5,215C 110.833,213.667 109.833,212.667 108.5,212C 109.849,211.228 110.682,210.061 111,208.5C 111.383,209.056 111.883,209.389 112.5,209.5C 114.592,209.439 116.092,208.439 117,206.5C 118.569,206.847 120.402,207.014 122.5,207C 125.08,204.88 125.08,202.713 122.5,200.5C 123.025,199.808 123.692,199.308 124.5,199C 124.167,198.667 123.833,198.333 123.5,198C 124.833,198 126.167,198 127.5,198C 125.465,195.667 123.298,193.5 121,191.5C 119.887,192.711 118.72,192.711 117.5,191.5C 115.745,189.023 114.912,186.356 115,183.5C 115.743,185.645 116.576,185.811 117.5,184C 115.779,182.061 113.946,180.228 112,178.5C 111.081,183.575 109.248,184.242 106.5,180.5C 105.494,180.938 105.494,181.604 106.5,182.5C 104.926,183.631 103.259,183.798 101.5,183C 102.939,182.009 103.939,180.676 104.5,179C 102.939,178.812 102.272,179.645 102.5,181.5C 101.5,181.5 100.5,181.5 99.5,181.5C 97.6815,180.064 97.3482,178.397 98.5,176.5C 100.198,177.681 101.865,177.681 103.5,176.5C 108.456,170.145 113.79,163.978 119.5,158C 124.386,157.333 124.386,156.167 119.5,154.5C 121.735,154.795 123.735,154.461 125.5,153.5C 130.833,151.167 136.167,148.833 141.5,146.5 Z"/></g>
<g><path style="opacity:1" fill="#809586" d="M 184.5,142.5 C 186.527,142.338 188.527,142.505 190.5,143C 189.956,143.717 189.289,144.217 188.5,144.5C 184.016,144.551 183.35,146.385 186.5,150C 185.151,150.772 184.318,151.939 184,153.5C 183.744,156.557 183.244,159.557 182.5,162.5C 183.875,164.163 183.542,165.497 181.5,166.5C 182.612,167.265 183.279,168.265 183.5,169.5C 181.214,170.34 180.881,171.84 182.5,174C 181.344,176.633 180.344,179.3 179.5,182C 177.61,180.355 175.277,179.188 172.5,178.5C 172.587,175.402 172.087,175.068 171,177.5C 170.444,175.405 169.944,175.238 169.5,177C 171.075,178.12 172.075,179.62 172.5,181.5C 171.308,185.417 169.974,185.417 168.5,181.5C 165.787,183.931 162.787,184.598 159.5,183.5C 158.374,182.142 158.374,180.808 159.5,179.5C 161.968,178.197 164.301,176.697 166.5,175C 165.216,174.316 164.049,174.483 163,175.5C 162.148,174.429 161.315,173.429 160.5,172.5C 162.223,171.193 164.057,171.193 166,172.5C 166.195,170.793 166.195,169.126 166,167.5C 168.978,169.755 172.144,169.922 175.5,168C 174.692,167.692 174.025,167.192 173.5,166.5C 177.148,163.755 177.314,160.755 174,157.5C 173.751,158.624 173.251,159.624 172.5,160.5C 171.682,157.893 171.182,155.226 171,152.5C 170.581,153.672 169.915,154.672 169,155.5C 168.014,154.829 166.847,154.829 165.5,155.5C 166.082,154.069 166.915,152.736 168,151.5C 168.333,152.167 168.667,152.833 169,153.5C 169.862,151.913 170.529,150.246 171,148.5C 171.689,149.357 172.522,150.023 173.5,150.5C 174.474,148.257 174.808,145.924 174.5,143.5C 176.467,143.261 178.301,143.594 180,144.5C 181.622,143.901 183.122,143.234 184.5,142.5 Z"/></g>
<g><path style="opacity:1" fill="#869b8c" d="M 183.5,169.5 C 185.121,169.787 186.121,170.787 186.5,172.5C 185.911,177.295 186.745,181.961 189,186.5C 189.5,185.333 190.333,184.5 191.5,184C 190.833,183.667 190.167,183.333 189.5,183C 190.337,181.989 190.67,180.822 190.5,179.5C 191.675,179.719 192.675,179.386 193.5,178.5C 192.391,177.035 192.891,176.035 195,175.5C 195.24,173.148 196.073,171.148 197.5,169.5C 197.5,170.5 197.5,171.5 197.5,172.5C 191.838,186.656 185.505,200.489 178.5,214C 177.207,214.49 175.873,214.657 174.5,214.5C 168.167,214.5 161.833,214.5 155.5,214.5C 160.153,213.797 164.819,212.63 169.5,211C 170.517,209.951 170.684,208.784 170,207.5C 168.641,206.635 167.474,205.635 166.5,204.5C 164.382,199.606 161.715,194.939 158.5,190.5C 158.667,190.167 158.833,189.833 159,189.5C 160.314,190.313 161.481,191.313 162.5,192.5C 163.842,190.658 165.509,189.158 167.5,188C 165.109,186.965 162.776,186.798 160.5,187.5C 159.738,186.372 159.071,185.205 158.5,184C 158.728,183.601 159.062,183.435 159.5,183.5C 162.787,184.598 165.787,183.931 168.5,181.5C 169.974,185.417 171.308,185.417 172.5,181.5C 172.075,179.62 171.075,178.12 169.5,177C 169.944,175.238 170.444,175.405 171,177.5C 172.087,175.068 172.587,175.402 172.5,178.5C 175.277,179.188 177.61,180.355 179.5,182C 180.344,179.3 181.344,176.633 182.5,174C 180.881,171.84 181.214,170.34 183.5,169.5 Z"/></g>
<g><path style="opacity:1" fill="#b6c8b8" d="M 63.5,158.5 C 64.2982,161.231 65.9649,163.397 68.5,165C 66.6227,166.921 65.6227,169.254 65.5,172C 65.9987,175.49 66.332,178.99 66.5,182.5C 68.1667,182.5 69.8333,182.5 71.5,182.5C 71.5,183.5 71.5,184.5 71.5,185.5C 70.325,185.281 69.325,185.614 68.5,186.5C 69,186.833 69.5,187.167 70,187.5C 73.2512,187.292 76.4179,187.292 79.5,187.5C 76.5027,188.248 73.5027,188.915 70.5,189.5C 69.5713,190.689 69.238,192.022 69.5,193.5C 71.5901,193.45 72.9234,194.45 73.5,196.5C 72.1886,197.258 71.6886,198.258 72,199.5C 73.7261,198.424 75.5594,198.257 77.5,199C 76.5,199.333 75.5,199.667 74.5,200C 77.2798,205.039 76.6131,209.539 72.5,213.5C 70.3523,213.611 70.019,212.944 71.5,211.5C 69.1235,208.134 68.1235,204.634 68.5,201C 67.0953,199.731 65.4286,199.231 63.5,199.5C 62.8573,196.047 61.5239,192.881 59.5,190C 59.8333,188.333 60.1667,186.667 60.5,185C 56.6305,178.575 53.9638,171.575 52.5,164C 52.7394,161.059 53.9061,158.559 56,156.5C 56.779,157.728 57.779,158.728 59,159.5C 60.4397,158.852 61.9397,158.519 63.5,158.5 Z"/></g>
<g><path style="opacity:1" fill="#889e8f" d="M 139.5,155.5 C 141.476,156.427 141.809,157.76 140.5,159.5C 138.574,160.061 136.574,160.227 134.5,160C 136.733,162.907 139.733,164.074 143.5,163.5C 143.694,159.995 144.694,159.662 146.5,162.5C 148.144,163.316 149.31,164.65 150,166.5C 154.025,164.206 154.358,164.873 151,168.5C 149.396,173.23 151.063,175.23 156,174.5C 157.986,174.431 159.486,173.765 160.5,172.5C 161.315,173.429 162.148,174.429 163,175.5C 164.049,174.483 165.216,174.316 166.5,175C 164.301,176.697 161.968,178.197 159.5,179.5C 158.374,180.808 158.374,182.142 159.5,183.5C 159.062,183.435 158.728,183.601 158.5,184C 159.071,185.205 159.738,186.372 160.5,187.5C 162.776,186.798 165.109,186.965 167.5,188C 165.509,189.158 163.842,190.658 162.5,192.5C 161.481,191.313 160.314,190.313 159,189.5C 158.833,189.833 158.667,190.167 158.5,190.5C 161.715,194.939 164.382,199.606 166.5,204.5C 165.817,206.176 164.483,206.843 162.5,206.5C 161.991,205.659 162.657,205.159 164.5,205C 161.833,204 161.833,203 164.5,202C 163.347,200.117 161.681,199.284 159.5,199.5C 159.167,197.5 158.833,195.5 158.5,193.5C 157.325,193.719 156.325,193.386 155.5,192.5C 152.563,186.395 148.063,181.728 142,178.5C 140.832,172.835 137.332,169.835 131.5,169.5C 131.931,168.707 132.265,167.873 132.5,167C 131.279,164.942 130.279,162.776 129.5,160.5C 129.833,159.5 130.167,158.5 130.5,157.5C 131.086,157.709 131.586,158.043 132,158.5C 132.419,157.328 133.085,156.328 134,155.5C 135.879,158.066 137.712,158.066 139.5,155.5 Z"/></g>
<g><path style="opacity:1" fill="#98ae9f" d="M 112.5,209.5 C 111.883,209.389 111.383,209.056 111,208.5C 110.682,210.061 109.849,211.228 108.5,212C 109.833,212.667 110.833,213.667 111.5,215C 103.797,214.47 96.1299,214.637 88.5,215.5C 85.8333,215.5 83.1667,215.5 80.5,215.5C 79.713,213.896 78.3797,213.229 76.5,213.5C 76.804,210.478 77.304,207.478 78,204.5C 79.7337,203.751 81.567,203.251 83.5,203C 82.2068,202.51 80.8734,202.343 79.5,202.5C 79.2627,201.209 79.596,200.209 80.5,199.5C 80.4701,200.497 80.9701,201.164 82,201.5C 83.3026,201.022 84.4693,200.355 85.5,199.5C 87.0481,199.179 87.7148,198.179 87.5,196.5C 90.3455,196.191 91.8455,194.525 92,191.5C 92.4935,193.134 92.6602,194.801 92.5,196.5C 95.7787,194.929 99.1121,193.262 102.5,191.5C 101.271,190.719 99.938,190.219 98.5,190C 100.932,188.905 103.098,187.405 105,185.5C 106.032,187.145 107.199,187.478 108.5,186.5C 109.722,188.909 109.055,190.742 106.5,192C 107.833,193 109.167,194 110.5,195C 109.376,195.249 108.376,195.749 107.5,196.5C 108.716,197.096 110.049,197.263 111.5,197C 112.337,198.011 112.67,199.178 112.5,200.5C 111.5,200.5 110.5,200.5 109.5,200.5C 109.5,201.5 109.5,202.5 109.5,203.5C 110.5,203.5 111.5,203.5 112.5,203.5C 111.62,205.611 111.62,207.611 112.5,209.5 Z"/></g>
<g><path style="opacity:1" fill="#9db4a4" d="M 162.5,206.5 C 164.483,206.843 165.817,206.176 166.5,204.5C 167.474,205.635 168.641,206.635 170,207.5C 170.684,208.784 170.517,209.951 169.5,211C 164.819,212.63 160.153,213.797 155.5,214.5C 154.167,214.5 152.833,214.5 151.5,214.5C 149.463,206.337 144.296,203.67 136,206.5C 134.739,206.241 133.739,205.574 133,204.5C 132.667,205.833 132.333,207.167 132,208.5C 129.891,207.965 129.391,206.965 130.5,205.5C 129.726,204.289 128.893,204.289 128,205.5C 126.779,204.226 125.946,202.726 125.5,201C 127.737,199.783 130.07,197.949 132.5,195.5C 132.291,194.914 131.957,194.414 131.5,194C 129.885,193.938 128.552,193.771 127.5,193.5C 127.369,192.624 127.702,191.957 128.5,191.5C 129.833,192.833 131.167,192.833 132.5,191.5C 133.478,191.977 134.311,192.643 135,193.5C 137.738,192.518 140.572,191.852 143.5,191.5C 143.64,193.124 142.973,194.29 141.5,195C 143.797,196.16 143.464,197.16 140.5,198C 141.167,198.333 141.833,198.667 142.5,199C 141.289,199.893 141.289,200.726 142.5,201.5C 143.7,200.469 145.034,199.635 146.5,199C 143.668,197.092 144.001,196.259 147.5,196.5C 147.281,197.675 147.614,198.675 148.5,199.5C 148.833,199 149.167,198.5 149.5,198C 146.265,191.952 147.265,191.119 152.5,195.5C 154.224,194.339 155.89,194.505 157.5,196C 155.041,197.29 152.708,198.79 150.5,200.5C 151.946,202.618 152.613,204.951 152.5,207.5C 155.397,207.319 158.23,207.652 161,208.5C 162.03,208.164 162.53,207.497 162.5,206.5 Z"/></g>
<g><path style="opacity:1" fill="#9db4a4" d="M 112.5,209.5 C 111.62,207.611 111.62,205.611 112.5,203.5C 111.5,203.5 110.5,203.5 109.5,203.5C 109.5,202.5 109.5,201.5 109.5,200.5C 110.5,200.5 111.5,200.5 112.5,200.5C 112.67,199.178 112.337,198.011 111.5,197C 110.049,197.263 108.716,197.096 107.5,196.5C 108.376,195.749 109.376,195.249 110.5,195C 109.167,194 107.833,193 106.5,192C 109.055,190.742 109.722,188.909 108.5,186.5C 107.199,187.478 106.032,187.145 105,185.5C 103.098,187.405 100.932,188.905 98.5,190C 99.938,190.219 101.271,190.719 102.5,191.5C 99.1121,193.262 95.7787,194.929 92.5,196.5C 92.6602,194.801 92.4935,193.134 92,191.5C 91.8455,194.525 90.3455,196.191 87.5,196.5C 87.7148,198.179 87.0481,199.179 85.5,199.5C 86.983,196.13 88.8164,192.797 91,189.5C 91.8525,187.875 92.8525,187.542 94,188.5C 95.3509,185.665 97.1843,183.331 99.5,181.5C 100.5,181.5 101.5,181.5 102.5,181.5C 102.272,179.645 102.939,178.812 104.5,179C 103.939,180.676 102.939,182.009 101.5,183C 103.259,183.798 104.926,183.631 106.5,182.5C 105.494,181.604 105.494,180.938 106.5,180.5C 109.248,184.242 111.081,183.575 112,178.5C 113.946,180.228 115.779,182.061 117.5,184C 116.576,185.811 115.743,185.645 115,183.5C 114.912,186.356 115.745,189.023 117.5,191.5C 118.72,192.711 119.887,192.711 121,191.5C 123.298,193.5 125.465,195.667 127.5,198C 126.167,198 124.833,198 123.5,198C 123.833,198.333 124.167,198.667 124.5,199C 123.692,199.308 123.025,199.808 122.5,200.5C 125.08,202.713 125.08,204.88 122.5,207C 120.402,207.014 118.569,206.847 117,206.5C 116.092,208.439 114.592,209.439 112.5,209.5 Z"/></g>
</svg>
