<?xml version="1.0" encoding="UTF-8"?>
<!DOCTYPE svg PUBLIC "-//W3C//DTD SVG 1.1//EN" "http://www.w3.org/Graphics/SVG/1.1/DTD/svg11.dtd">
<svg xmlns="http://www.w3.org/2000/svg" version="1.1" width="250px" height="250px" style="shape-rendering:geometricPrecision; text-rendering:geometricPrecision; image-rendering:optimizeQuality; fill-rule:evenodd; clip-rule:evenodd" xmlns:xlink="http://www.w3.org/1999/xlink">
<g><path style="opacity:0.046" fill="#fcfcfb" d="M 167.5,46.5 C 152.796,46.6096 138.129,45.9429 123.5,44.5C 106.832,45.6508 90.1657,46.8175 73.5,48C 72.5842,48.2784 71.9175,48.7784 71.5,49.5C 71.1667,49.5 70.8333,49.5 70.5,49.5C 70.1667,49.5 69.8333,49.5 69.5,49.5C 70.0577,48.2101 71.0577,47.3768 72.5,47C 104.635,41.9803 136.301,41.8136 167.5,46.5 Z"/></g>
<g><path style="opacity:1" fill="#f4f4f2" d="M 172.5,50.5 C 168.647,51.4498 164.98,52.7831 161.5,54.5C 145.548,55.4699 129.548,55.8033 113.5,55.5C 105.16,55.6664 96.8267,55.4997 88.5,55C 84.7745,53.4649 81.1078,51.9649 77.5,50.5C 78.2625,49.7321 79.2625,49.2321 80.5,49C 111.39,45.317 142.057,45.817 172.5,50.5 Z"/></g>
<g><path style="opacity:0.984" fill="#d4d5d2" d="M 167.5,46.5 C 170.187,46.3359 172.854,46.5026 175.5,47C 177.32,47.2004 178.653,48.0337 179.5,49.5C 179.167,49.5 178.833,49.5 178.5,49.5C 176.435,49.5172 174.435,49.8505 172.5,50.5C 142.057,45.817 111.39,45.317 80.5,49C 79.2625,49.2321 78.2625,49.7321 77.5,50.5C 75.5,50.1667 73.5,49.8333 71.5,49.5C 71.9175,48.7784 72.5842,48.2784 73.5,48C 90.1657,46.8175 106.832,45.6508 123.5,44.5C 138.129,45.9429 152.796,46.6096 167.5,46.5 Z"/></g>
<g><path style="opacity:1" fill="#656567" d="M 178.5,49.5 C 178.443,50.609 178.11,51.609 177.5,52.5C 172.643,54.7586 167.643,56.7586 162.5,58.5C 160.891,57.3346 160.557,56.0012 161.5,54.5C 164.98,52.7831 168.647,51.4498 172.5,50.5C 174.435,49.8505 176.435,49.5172 178.5,49.5 Z"/></g>
<g><path style="opacity:1" fill="#f3f3f3" d="M 177.5,52.5 C 184.748,63.9929 191.748,75.6596 198.5,87.5C 198.649,88.552 198.483,89.552 198,90.5C 196.324,89.9389 194.991,88.9389 194,87.5C 193.692,88.3081 193.192,88.9747 192.5,89.5C 191.304,89.1543 191.304,88.6543 192.5,88C 189.967,87.1477 187.967,87.8144 186.5,90C 187.609,91.813 186.942,92.6463 184.5,92.5C 184.579,91.0695 184.246,89.7362 183.5,88.5C 180.837,87.8076 178.337,86.8076 176,85.5C 174.739,85.7591 173.739,86.4258 173,87.5C 172.617,86.944 172.117,86.6107 171.5,86.5C 171.443,85.391 171.11,84.391 170.5,83.5C 169.345,79.2025 167.679,75.2025 165.5,71.5C 164.707,67.1195 163.707,62.7862 162.5,58.5C 167.643,56.7586 172.643,54.7586 177.5,52.5 Z"/></g>
<g><path style="opacity:1" fill="#696968" d="M 70.5,49.5 C 70.8333,49.5 71.1667,49.5 71.5,49.5C 73.5,49.8333 75.5,50.1667 77.5,50.5C 81.1078,51.9649 84.7745,53.4649 88.5,55C 96.8267,55.4997 105.16,55.6664 113.5,55.5C 112.198,57.0276 110.531,58.0276 108.5,58.5C 102.833,58.5 97.1667,58.5 91.5,58.5C 84.2999,55.7271 77.2999,52.7271 70.5,49.5 Z"/></g>
<g><path style="opacity:1" fill="#868586" d="M 161.5,54.5 C 160.557,56.0012 160.891,57.3346 162.5,58.5C 163.707,62.7862 164.707,67.1195 165.5,71.5C 163.494,68.1403 161.994,64.4737 161,60.5C 160.092,58.5614 158.592,57.5614 156.5,57.5C 143.178,56.556 129.845,56.3893 116.5,57C 115.584,57.2784 114.918,57.7784 114.5,58.5C 112.5,58.5 110.5,58.5 108.5,58.5C 110.531,58.0276 112.198,57.0276 113.5,55.5C 129.548,55.8033 145.548,55.4699 161.5,54.5 Z"/></g>
<g><path style="opacity:0.09" fill="#e3e3de" d="M 65.5,55.5 C 65.2503,57.674 64.2503,59.3406 62.5,60.5C 62.7497,58.326 63.7497,56.6594 65.5,55.5 Z"/></g>
<g><path style="opacity:1" fill="#666563" d="M 156.5,57.5 C 156.5,57.8333 156.5,58.1667 156.5,58.5C 145.833,58.5 135.167,58.5 124.5,58.5C 124.44,57.9569 124.107,57.6236 123.5,57.5C 122.215,67.5112 122.215,77.5112 123.5,87.5C 123.036,90.3493 122.369,93.016 121.5,95.5C 121.5,83.1667 121.5,70.8333 121.5,58.5C 119.167,58.5 116.833,58.5 114.5,58.5C 114.918,57.7784 115.584,57.2784 116.5,57C 129.845,56.3893 143.178,56.556 156.5,57.5 Z"/></g>
<g><path style="opacity:1" fill="#f3f3f3" d="M 80.5,79.5 C 75.131,93.2673 70.131,107.267 65.5,121.5C 65.1667,121.5 64.8333,121.5 64.5,121.5C 61.4842,121.159 58.8175,119.993 56.5,118C 50.7942,113.489 45.1276,108.989 39.5,104.5C 49.1667,87.8333 58.8333,71.1667 68.5,54.5C 69.1667,54.1667 69.8333,53.8333 70.5,53.5C 75.719,55.5733 81.0524,57.2399 86.5,58.5C 84.9154,65.5908 82.9154,72.5908 80.5,79.5 Z"/></g>
<g><path style="opacity:1" fill="#faf9f9" d="M 91.5,59.5 C 96.5186,59.7522 101.519,60.2522 106.5,61C 109.458,61.2293 111.958,62.396 114,64.5C 115.085,63.7069 116.252,63.0402 117.5,62.5C 118.775,66.8512 118.775,71.1845 117.5,75.5C 119.168,77.3417 120.168,79.5083 120.5,82C 119.807,85.913 118.807,89.7463 117.5,93.5C 115.183,94.7099 113.183,94.2099 111.5,92C 107.442,91.2334 103.442,91.4001 99.5,92.5C 99.1667,92.8333 98.8333,93.1667 98.5,93.5C 102.281,95.9538 102.448,98.6205 99,101.5C 98.0497,100.978 97.2164,100.311 96.5,99.5C 96.8231,92.2784 93.4897,88.1117 86.5,87C 86.7205,85.2015 87.0539,83.3682 87.5,81.5C 85.8955,79.8211 85.2289,77.8211 85.5,75.5C 86.6552,72.5431 87.6552,69.5431 88.5,66.5C 89.2638,63.9823 90.2638,61.649 91.5,59.5 Z"/></g>
<g><path style="opacity:1" fill="#f9f8f8" d="M 124.5,58.5 C 135.167,58.5 145.833,58.5 156.5,58.5C 157.458,58.9528 158.292,59.6195 159,60.5C 160.802,65.0952 162.302,69.7619 163.5,74.5C 163.737,78.2733 163.237,81.9399 162,85.5C 161.282,86.4506 160.449,86.6172 159.5,86C 160.554,84.6124 160.72,83.1124 160,81.5C 159.667,82.1667 159.333,82.8333 159,83.5C 158,82.1667 157,80.8333 156,79.5C 154.293,81.9088 153.46,84.5755 153.5,87.5C 156.5,87.5 159.5,87.5 162.5,87.5C 162.216,90.2538 161.549,92.9205 160.5,95.5C 159.614,94.675 159.281,93.675 159.5,92.5C 154.179,92.1797 149.012,91.8464 144,91.5C 142.872,93.3453 142.372,95.3453 142.5,97.5C 147.119,97.6839 151.786,98.0173 156.5,98.5C 152.029,100.439 147.529,102.106 143,103.5C 142.667,103.167 142.333,102.833 142,102.5C 141.692,103.308 141.192,103.975 140.5,104.5C 139.583,103.873 138.583,103.539 137.5,103.5C 133.639,101.315 129.806,98.9813 126,96.5C 125.83,87.324 125.33,78.324 124.5,69.5C 124.5,65.8333 124.5,62.1667 124.5,58.5 Z"/></g>
<g><path style="opacity:0.11" fill="#e7e7e7" d="M 58.5,67.5 C 58.573,69.0269 57.9063,70.0269 56.5,70.5C 56.427,68.9731 57.0937,67.9731 58.5,67.5 Z"/></g>
<g><path style="opacity:0.8" fill="#9b9a9c" d="M 178.5,49.5 C 178.833,49.5 179.167,49.5 179.5,49.5C 190.587,66.6661 200.92,84.3328 210.5,102.5C 209.604,101.494 208.938,101.494 208.5,102.5C 204.919,97.672 201.585,92.672 198.5,87.5C 191.748,75.6596 184.748,63.9929 177.5,52.5C 178.11,51.609 178.443,50.609 178.5,49.5 Z"/></g>
<g><path style="opacity:1" fill="#3c3a36" d="M 124.5,58.5 C 124.5,62.1667 124.5,65.8333 124.5,69.5C 124.666,78.5062 124.5,87.5062 124,96.5C 122.841,97.566 122.008,97.2327 121.5,95.5C 122.369,93.016 123.036,90.3493 123.5,87.5C 122.215,77.5112 122.215,67.5112 123.5,57.5C 124.107,57.6236 124.44,57.9569 124.5,58.5 Z"/></g>
<g><path style="opacity:1" fill="#939395" d="M 165.5,71.5 C 167.679,75.2025 169.345,79.2025 170.5,83.5C 167.772,80.0317 166.105,76.0317 165.5,71.5 Z"/></g>
<g><path style="opacity:1" fill="#f4f4f1" d="M 163.5,74.5 C 169.266,88.9516 174.766,103.618 180,118.5C 180.748,120.84 180.248,122.84 178.5,124.5C 176.708,124.366 175.042,124.699 173.5,125.5C 171.833,125.5 170.167,125.5 168.5,125.5C 168.5,124.833 168.167,124.5 167.5,124.5C 165.337,122.917 163.004,121.584 160.5,120.5C 160.5,119.833 160.5,119.167 160.5,118.5C 162.784,118.025 164.784,117.025 166.5,115.5C 168.389,114.396 170.055,113.063 171.5,111.5C 171.5,111.167 171.5,110.833 171.5,110.5C 173.109,105.79 171.442,104.457 166.5,106.5C 164.566,108.724 162.899,111.058 161.5,113.5C 158.343,110.465 154.677,109.798 150.5,111.5C 149.5,111.5 148.5,111.5 147.5,111.5C 144.167,108.833 140.833,106.167 137.5,103.5C 138.583,103.539 139.583,103.873 140.5,104.5C 141.192,103.975 141.692,103.308 142,102.5C 142.333,102.833 142.667,103.167 143,103.5C 147.529,102.106 152.029,100.439 156.5,98.5C 151.786,98.0173 147.119,97.6839 142.5,97.5C 142.372,95.3453 142.872,93.3453 144,91.5C 149.012,91.8464 154.179,92.1797 159.5,92.5C 159.281,93.675 159.614,94.675 160.5,95.5C 161.549,92.9205 162.216,90.2538 162.5,87.5C 159.5,87.5 156.5,87.5 153.5,87.5C 153.46,84.5755 154.293,81.9088 156,79.5C 157,80.8333 158,82.1667 159,83.5C 159.333,82.8333 159.667,82.1667 160,81.5C 160.72,83.1124 160.554,84.6124 159.5,86C 160.449,86.6172 161.282,86.4506 162,85.5C 163.237,81.9399 163.737,78.2733 163.5,74.5 Z"/></g>
<g><path style="opacity:0.118" fill="#d5d5d5" d="M 51.5,79.5 C 51.573,81.0269 50.9063,82.0269 49.5,82.5C 49.427,80.9731 50.0937,79.9731 51.5,79.5 Z"/></g>
<g><path style="opacity:1" fill="#f5f5f4" d="M 91.5,59.5 C 91.5,59.1667 91.5,58.8333 91.5,58.5C 97.1667,58.5 102.833,58.5 108.5,58.5C 110.5,58.5 112.5,58.5 114.5,58.5C 116.833,58.5 119.167,58.5 121.5,58.5C 121.5,70.8333 121.5,83.1667 121.5,95.5C 106.817,105.729 91.8173,116.395 76.5,127.5C 72.7018,126.867 70.3685,124.701 69.5,121C 74.6189,105.653 79.9522,90.4864 85.5,75.5C 85.2289,77.8211 85.8955,79.8211 87.5,81.5C 87.0539,83.3682 86.7205,85.2015 86.5,87C 93.4897,88.1117 96.8231,92.2784 96.5,99.5C 97.2164,100.311 98.0497,100.978 99,101.5C 102.448,98.6205 102.281,95.9538 98.5,93.5C 98.8333,93.1667 99.1667,92.8333 99.5,92.5C 103.442,91.4001 107.442,91.2334 111.5,92C 113.183,94.2099 115.183,94.7099 117.5,93.5C 118.807,89.7463 119.807,85.913 120.5,82C 120.168,79.5083 119.168,77.3417 117.5,75.5C 118.775,71.1845 118.775,66.8512 117.5,62.5C 116.252,63.0402 115.085,63.7069 114,64.5C 111.958,62.396 109.458,61.2293 106.5,61C 101.519,60.2522 96.5186,59.7522 91.5,59.5 Z"/></g>
<g><path style="opacity:1" fill="#edeeee" d="M 198.5,87.5 C 201.585,92.672 204.919,97.672 208.5,102.5C 208.5,102.833 208.5,103.167 208.5,103.5C 201.164,110.162 193.164,115.829 184.5,120.5C 184.167,120.5 183.833,120.5 183.5,120.5C 183.072,117.215 182.072,114.215 180.5,111.5C 179.883,111.389 179.383,111.056 179,110.5C 176.768,102.381 174.268,94.3812 171.5,86.5C 172.117,86.6107 172.617,86.944 173,87.5C 173.739,86.4258 174.739,85.7591 176,85.5C 178.337,86.8076 180.837,87.8076 183.5,88.5C 184.246,89.7362 184.579,91.0695 184.5,92.5C 186.942,92.6463 187.609,91.813 186.5,90C 187.967,87.8144 189.967,87.1477 192.5,88C 191.304,88.6543 191.304,89.1543 192.5,89.5C 193.192,88.9747 193.692,88.3081 194,87.5C 194.991,88.9389 196.324,89.9389 198,90.5C 198.483,89.552 198.649,88.552 198.5,87.5 Z"/></g>
<g><path style="opacity:1" fill="#f1f2eb" d="M 141.5,111.5 C 140.5,111.5 139.5,111.5 138.5,111.5C 136.201,110.222 133.868,108.889 131.5,107.5C 130.692,109.423 130.192,111.423 130,113.5C 129.617,112.944 129.117,112.611 128.5,112.5C 128.453,109.432 127.953,106.432 127,103.5C 126.501,107.152 126.335,110.818 126.5,114.5C 126.5,114.833 126.5,115.167 126.5,115.5C 125.833,115.5 125.167,115.5 124.5,115.5C 124.724,111.485 123.557,110.819 121,113.5C 119.923,112.571 118.756,111.904 117.5,111.5C 117.539,110.244 117.039,109.244 116,108.5C 115.667,110.5 115.333,112.5 115,114.5C 113.684,111.312 113.184,107.978 113.5,104.5C 116.554,102.129 119.887,100.129 123.5,98.5C 129.567,102.855 135.567,107.188 141.5,111.5 Z"/></g>
<g><path style="opacity:1" fill="#a4a5a9" d="M 88.5,66.5 C 87.6552,69.5431 86.6552,72.5431 85.5,75.5C 79.9522,90.4864 74.6189,105.653 69.5,121C 70.3685,124.701 72.7018,126.867 76.5,127.5C 75.1439,129.538 73.4773,129.872 71.5,128.5C 69.7087,125.868 67.7087,123.535 65.5,121.5C 70.131,107.267 75.131,93.2673 80.5,79.5C 83.0013,75.3454 85.168,70.3454 87,64.5C 87.2784,65.4158 87.7784,66.0825 88.5,66.5 Z"/></g>
<g><path style="opacity:0.91" fill="#949495" d="M 69.5,49.5 C 69.8333,49.5 70.1667,49.5 70.5,49.5C 77.2999,52.7271 84.2999,55.7271 91.5,58.5C 91.5,58.8333 91.5,59.1667 91.5,59.5C 90.2638,61.649 89.2638,63.9823 88.5,66.5C 87.7784,66.0825 87.2784,65.4158 87,64.5C 85.168,70.3454 83.0013,75.3454 80.5,79.5C 82.9154,72.5908 84.9154,65.5908 86.5,58.5C 81.0524,57.2399 75.719,55.5733 70.5,53.5C 69.8333,53.8333 69.1667,54.1667 68.5,54.5C 58.8333,71.1667 49.1667,87.8333 39.5,104.5C 45.1276,108.989 50.7942,113.489 56.5,118C 58.8175,119.993 61.4842,121.159 64.5,121.5C 63.1667,122.833 61.8333,124.167 60.5,125.5C 60.4894,123.983 59.8228,122.816 58.5,122C 52.053,117.887 45.8863,113.387 40,108.5C 39.8019,110.382 39.3019,112.048 38.5,113.5C 38.6602,111.801 38.4935,110.134 38,108.5C 37.6667,108.833 37.3333,109.167 37,109.5C 36.8255,114.351 36.3255,119.018 35.5,123.5C 35.161,116.426 35.661,109.426 37,102.5C 40.9413,95.601 45.108,88.9343 49.5,82.5C 50.9063,82.0269 51.573,81.0269 51.5,79.5C 52.4097,76.0078 54.0764,73.0078 56.5,70.5C 57.9063,70.0269 58.573,69.0269 58.5,67.5C 59.0787,64.6689 60.412,62.3356 62.5,60.5C 64.2503,59.3406 65.2503,57.674 65.5,55.5C 65.8449,52.8021 67.1782,50.8021 69.5,49.5 Z"/></g>
<g><path style="opacity:1" fill="#555558" d="M 156.5,58.5 C 156.5,58.1667 156.5,57.8333 156.5,57.5C 158.592,57.5614 160.092,58.5614 161,60.5C 161.994,64.4737 163.494,68.1403 165.5,71.5C 166.105,76.0317 167.772,80.0317 170.5,83.5C 171.11,84.391 171.443,85.391 171.5,86.5C 174.268,94.3812 176.768,102.381 179,110.5C 179.383,111.056 179.883,111.389 180.5,111.5C 180.751,115.249 181.417,118.915 182.5,122.5C 181.395,123.6 180.062,124.267 178.5,124.5C 180.248,122.84 180.748,120.84 180,118.5C 174.766,103.618 169.266,88.9516 163.5,74.5C 162.302,69.7619 160.802,65.0952 159,60.5C 158.292,59.6195 157.458,58.9528 156.5,58.5 Z"/></g>
<g><path style="opacity:1" fill="#a4b177" d="M 171.5,110.5 C 171.5,109.5 171.5,108.5 171.5,107.5C 166.669,107.305 165.003,109.305 166.5,113.5C 166.5,114.167 166.5,114.833 166.5,115.5C 164.784,117.025 162.784,118.025 160.5,118.5C 160.167,118.5 159.833,118.5 159.5,118.5C 159.5,117.167 159.5,115.833 159.5,114.5C 160.492,114.672 161.158,114.338 161.5,113.5C 162.899,111.058 164.566,108.724 166.5,106.5C 171.442,104.457 173.109,105.79 171.5,110.5 Z"/></g>
<g><path style="opacity:1" fill="#dae0ce" d="M 110.5,106.5 C 111.179,109.987 112.179,113.487 113.5,117C 112.956,117.717 112.289,118.217 111.5,118.5C 111.293,115.759 110.293,113.426 108.5,111.5C 108.12,109.302 108.787,107.635 110.5,106.5 Z"/></g>
<g><path style="opacity:1" fill="#7f8277" d="M 128.5,112.5 C 128.5,113.167 128.5,113.833 128.5,114.5C 127.833,114.5 127.167,114.5 126.5,114.5C 126.335,110.818 126.501,107.152 127,103.5C 127.953,106.432 128.453,109.432 128.5,112.5 Z"/></g>
<g><path style="opacity:1" fill="#97b23c" d="M 171.5,110.5 C 171.5,110.833 171.5,111.167 171.5,111.5C 169.716,111.893 168.05,112.559 166.5,113.5C 165.003,109.305 166.669,107.305 171.5,107.5C 171.5,108.5 171.5,109.5 171.5,110.5 Z"/></g>
<g><path style="opacity:1" fill="#e5efc5" d="M 161.5,113.5 C 161.158,114.338 160.492,114.672 159.5,114.5C 159.027,113.094 158.027,112.427 156.5,112.5C 156.167,112.5 155.833,112.5 155.5,112.5C 153.81,111.983 152.143,111.65 150.5,111.5C 154.677,109.798 158.343,110.465 161.5,113.5 Z"/></g>
<g><path style="opacity:1" fill="#ecf0e8" d="M 108.5,114.5 C 109.167,118.5 109.833,122.5 110.5,126.5C 110.5,127.833 110.5,129.167 110.5,130.5C 108.381,130.532 107.048,129.532 106.5,127.5C 104.556,122.608 102.89,117.608 101.5,112.5C 103.297,111.27 105.297,110.604 107.5,110.5C 107.232,112.099 107.566,113.432 108.5,114.5 Z"/></g>
<g><path style="opacity:1" fill="#e4f0a7" d="M 171.5,111.5 C 170.055,113.063 168.389,114.396 166.5,115.5C 166.5,114.833 166.5,114.167 166.5,113.5C 168.05,112.559 169.716,111.893 171.5,111.5 Z"/></g>
<g><path style="opacity:1" fill="#e0e1e1" d="M 209.5,106.5 C 210.096,117.365 211.096,128.198 212.5,139C 212.333,140.833 212.167,142.667 212,144.5C 211.617,143.944 211.117,143.611 210.5,143.5C 202.842,137.174 195.508,130.508 188.5,123.5C 189.648,121.245 191.314,119.412 193.5,118C 199.068,114.393 204.402,110.56 209.5,106.5 Z"/></g>
<g><path style="opacity:1" fill="#d1d6bf" d="M 117.5,111.5 C 118.756,111.904 119.923,112.571 121,113.5C 123.557,110.819 124.724,111.485 124.5,115.5C 124.167,115.5 123.833,115.5 123.5,115.5C 122.5,115.5 121.5,115.5 120.5,115.5C 120.799,117.604 120.466,119.604 119.5,121.5C 118.702,121.043 118.369,120.376 118.5,119.5C 118.167,116.833 117.833,114.167 117.5,111.5 Z"/></g>
<g><path style="opacity:1" fill="#a4b06a" d="M 138.5,111.5 C 138.5,112.167 138.5,112.833 138.5,113.5C 137.962,115.117 137.629,116.784 137.5,118.5C 135.833,118.5 134.167,118.5 132.5,118.5C 132.944,116.887 133.944,115.72 135.5,115C 134.207,114.51 132.873,114.343 131.5,114.5C 131.5,115.5 131.5,116.5 131.5,117.5C 130.5,117.5 129.5,117.5 128.5,117.5C 128.5,116.5 128.5,115.5 128.5,114.5C 128.5,113.833 128.5,113.167 128.5,112.5C 129.117,112.611 129.617,112.944 130,113.5C 130.192,111.423 130.692,109.423 131.5,107.5C 133.868,108.889 136.201,110.222 138.5,111.5 Z"/></g>
<g><path style="opacity:1" fill="#afc97e" d="M 145.5,111.5 C 145.719,112.675 145.386,113.675 144.5,114.5C 143.452,113.452 142.452,112.452 141.5,111.5C 142.833,110.167 144.167,110.167 145.5,111.5 Z"/></g>
<g><path style="opacity:1" fill="#e9e9ea" d="M 60.5,125.5 C 53.4572,131.878 46.1239,137.878 38.5,143.5C 37.5139,139.03 37.1805,134.363 37.5,129.5C 37.8333,124.167 38.1667,118.833 38.5,113.5C 39.3019,112.048 39.8019,110.382 40,108.5C 45.8863,113.387 52.053,117.887 58.5,122C 59.8228,122.816 60.4894,123.983 60.5,125.5 Z"/></g>
<g><path style="opacity:1" fill="#5d6c18" d="M 138.5,111.5 C 139.5,111.5 140.5,111.5 141.5,111.5C 142.452,112.452 143.452,113.452 144.5,114.5C 145.386,113.675 145.719,112.675 145.5,111.5C 146.167,111.5 146.5,111.833 146.5,112.5C 147.209,113.404 148.209,113.737 149.5,113.5C 149.719,114.675 149.386,115.675 148.5,116.5C 146.402,116.957 144.736,117.957 143.5,119.5C 142.833,119.5 142.167,119.5 141.5,119.5C 141.611,118.883 141.944,118.383 142.5,118C 140.93,116.603 139.596,115.103 138.5,113.5C 138.5,112.833 138.5,112.167 138.5,111.5 Z"/></g>
<g><path style="opacity:1" fill="#8c9b5a" d="M 147.5,111.5 C 148.5,111.5 149.5,111.5 150.5,111.5C 152.143,111.65 153.81,111.983 155.5,112.5C 153.692,113.918 153.025,115.918 153.5,118.5C 152.515,116.494 151.182,114.827 149.5,113.5C 148.209,113.737 147.209,113.404 146.5,112.5C 147.167,112.5 147.5,112.167 147.5,111.5 Z"/></g>
<g><path style="opacity:1" fill="#87898c" d="M 208.5,103.5 C 209.404,104.209 209.737,105.209 209.5,106.5C 204.402,110.56 199.068,114.393 193.5,118C 191.314,119.412 189.648,121.245 188.5,123.5C 187.26,122.341 185.926,121.341 184.5,120.5C 193.164,115.829 201.164,110.162 208.5,103.5 Z"/></g>
<g><path style="opacity:1" fill="#b5ca44" d="M 156.5,112.5 C 158.027,112.427 159.027,113.094 159.5,114.5C 159.5,115.833 159.5,117.167 159.5,118.5C 158.683,120.969 158.183,123.635 158,126.5C 157.617,127.056 157.117,127.389 156.5,127.5C 156.022,122.349 156.022,117.349 156.5,112.5 Z"/></g>
<g><path style="opacity:1" fill="#9c9da3" d="M 180.5,111.5 C 182.072,114.215 183.072,117.215 183.5,120.5C 183.5,121.167 183.5,121.833 183.5,122.5C 183.167,122.5 182.833,122.5 182.5,122.5C 181.417,118.915 180.751,115.249 180.5,111.5 Z"/></g>
<g><path style="opacity:1" fill="#5e5d59" d="M 124.5,69.5 C 125.33,78.324 125.83,87.324 126,96.5C 129.806,98.9813 133.639,101.315 137.5,103.5C 140.833,106.167 144.167,108.833 147.5,111.5C 147.5,112.167 147.167,112.5 146.5,112.5C 146.5,111.833 146.167,111.5 145.5,111.5C 144.167,110.167 142.833,110.167 141.5,111.5C 135.567,107.188 129.567,102.855 123.5,98.5C 119.887,100.129 116.554,102.129 113.5,104.5C 111.821,104.285 110.821,104.952 110.5,106.5C 108.787,107.635 108.12,109.302 108.5,111.5C 108.5,112.5 108.5,113.5 108.5,114.5C 107.566,113.432 107.232,112.099 107.5,110.5C 105.297,110.604 103.297,111.27 101.5,112.5C 100.29,112.932 99.2905,113.599 98.5,114.5C 93.1419,119.186 87.4753,123.519 81.5,127.5C 78.1857,128.41 77.8523,129.743 80.5,131.5C 82.0251,134.457 81.3584,135.124 78.5,133.5C 78.1667,133.5 77.8333,133.5 77.5,133.5C 76.8333,133.167 76.1667,132.833 75.5,132.5C 73.8608,131.527 72.5274,130.194 71.5,128.5C 73.4773,129.872 75.1439,129.538 76.5,127.5C 91.8173,116.395 106.817,105.729 121.5,95.5C 122.008,97.2327 122.841,97.566 124,96.5C 124.5,87.5062 124.666,78.5062 124.5,69.5 Z"/></g>
<g><path style="opacity:1" fill="#858776" d="M 101.5,112.5 C 102.89,117.608 104.556,122.608 106.5,127.5C 105.391,127.443 104.391,127.11 103.5,126.5C 102.956,122.9 101.956,119.4 100.5,116C 100.164,114.97 99.4972,114.47 98.5,114.5C 99.2905,113.599 100.29,112.932 101.5,112.5 Z"/></g>
<g><path style="opacity:1" fill="#829031" d="M 138.5,113.5 C 139.596,115.103 140.93,116.603 142.5,118C 141.944,118.383 141.611,118.883 141.5,119.5C 141.5,120.167 141.5,120.833 141.5,121.5C 139.532,119.685 137.198,119.185 134.5,120C 133.402,120.77 133.402,121.603 134.5,122.5C 133.662,122.842 133.328,123.508 133.5,124.5C 131.155,123.012 130.821,121.012 132.5,118.5C 134.167,118.5 135.833,118.5 137.5,118.5C 137.629,116.784 137.962,115.117 138.5,113.5 Z"/></g>
<g><path style="opacity:1" fill="#778762" d="M 113.5,104.5 C 113.184,107.978 113.684,111.312 115,114.5C 115.333,112.5 115.667,110.5 116,108.5C 117.039,109.244 117.539,110.244 117.5,111.5C 117.833,114.167 118.167,116.833 118.5,119.5C 117.698,120.952 117.198,122.618 117,124.5C 116.586,124.043 116.086,123.709 115.5,123.5C 114.818,124.243 114.151,124.909 113.5,125.5C 113.122,123.079 112.455,120.746 111.5,118.5C 112.289,118.217 112.956,117.717 113.5,117C 112.179,113.487 111.179,109.987 110.5,106.5C 110.821,104.952 111.821,104.285 113.5,104.5 Z"/></g>
<g><path style="opacity:1" fill="#525824" d="M 149.5,113.5 C 151.182,114.827 152.515,116.494 153.5,118.5C 154.92,121.261 155.587,124.261 155.5,127.5C 154.833,127.5 154.167,127.5 153.5,127.5C 154.093,124.404 153.093,122.071 150.5,120.5C 149.83,122.291 149.163,123.958 148.5,125.5C 147.508,125.672 146.842,125.338 146.5,124.5C 148.765,124.559 149.098,123.726 147.5,122C 146.644,120.405 145.311,119.572 143.5,119.5C 144.736,117.957 146.402,116.957 148.5,116.5C 149.386,115.675 149.719,114.675 149.5,113.5 Z"/></g>
<g><path style="opacity:0.786" fill="#777777" d="M 38.5,113.5 C 38.1667,118.833 37.8333,124.167 37.5,129.5C 36.6862,131.631 36.1862,133.964 36,136.5C 35.501,132.179 35.3343,127.846 35.5,123.5C 36.3255,119.018 36.8255,114.351 37,109.5C 37.3333,109.167 37.6667,108.833 38,108.5C 38.4935,110.134 38.6602,111.801 38.5,113.5 Z"/></g>
<g><path style="opacity:1" fill="#edebe4" d="M 98.5,114.5 C 99.4972,114.47 100.164,114.97 100.5,116C 101.956,119.4 102.956,122.9 103.5,126.5C 102.432,127.434 101.099,127.768 99.5,127.5C 98.5987,126.71 97.9321,125.71 97.5,124.5C 95.8042,120.978 95.1375,121.644 95.5,126.5C 92.0489,126.538 88.7156,127.205 85.5,128.5C 84.1508,128.154 82.8175,127.821 81.5,127.5C 87.4753,123.519 93.1419,119.186 98.5,114.5 Z"/></g>
<g><path style="opacity:1" fill="#829a1f" d="M 155.5,112.5 C 155.833,112.5 156.167,112.5 156.5,112.5C 156.022,117.349 156.022,122.349 156.5,127.5C 156.167,127.5 155.833,127.5 155.5,127.5C 155.587,124.261 154.92,121.261 153.5,118.5C 153.025,115.918 153.692,113.918 155.5,112.5 Z"/></g>
<g><path style="opacity:1" fill="#596937" d="M 126.5,114.5 C 127.167,114.5 127.833,114.5 128.5,114.5C 128.5,115.5 128.5,116.5 128.5,117.5C 129.5,117.5 130.5,117.5 131.5,117.5C 131.5,116.5 131.5,115.5 131.5,114.5C 132.873,114.343 134.207,114.51 135.5,115C 133.944,115.72 132.944,116.887 132.5,118.5C 130.821,121.012 131.155,123.012 133.5,124.5C 132.725,126.612 132.725,128.612 133.5,130.5C 131.616,130.288 130.283,129.288 129.5,127.5C 129.167,128.167 128.833,128.833 128.5,129.5C 127.017,126.388 127.35,123.555 129.5,121C 128.167,121 126.833,121 125.5,121C 126.406,119.301 126.739,117.467 126.5,115.5C 126.5,115.167 126.5,114.833 126.5,114.5 Z"/></g>
<g><path style="opacity:1" fill="#2e270f" d="M 141.5,119.5 C 142.167,119.5 142.833,119.5 143.5,119.5C 145.311,119.572 146.644,120.405 147.5,122C 149.098,123.726 148.765,124.559 146.5,124.5C 144.999,123.248 143.332,122.248 141.5,121.5C 141.5,120.833 141.5,120.167 141.5,119.5 Z"/></g>
<g><path style="opacity:1" fill="#93895a" d="M 160.5,120.5 C 163.004,121.584 165.337,122.917 167.5,124.5C 164.833,125.167 164.833,125.833 167.5,126.5C 165.782,127.224 163.948,127.891 162,128.5C 161.605,125.793 161.105,123.127 160.5,120.5 Z"/></g>
<g><path style="opacity:1" fill="#414127" d="M 167.5,124.5 C 168.167,124.5 168.5,124.833 168.5,125.5C 168.5,126.167 168.167,126.5 167.5,126.5C 164.833,125.833 164.833,125.167 167.5,124.5 Z"/></g>
<g><path style="opacity:1" fill="#b4c957" d="M 141.5,121.5 C 143.332,122.248 144.999,123.248 146.5,124.5C 146.842,125.338 147.508,125.672 148.5,125.5C 150.175,127.456 149.842,128.789 147.5,129.5C 142.72,127.944 138.387,125.611 134.5,122.5C 133.402,121.603 133.402,120.77 134.5,120C 137.198,119.185 139.532,119.685 141.5,121.5 Z"/></g>
<g><path style="opacity:1" fill="#7a7b7a" d="M 64.5,128.5 C 66.688,127.377 69.0213,127.377 71.5,128.5C 72.5274,130.194 73.8608,131.527 75.5,132.5C 74.609,133.11 73.609,133.443 72.5,133.5C 69.8159,131.807 67.1492,130.14 64.5,128.5 Z"/></g>
<g><path style="opacity:1" fill="#4d5a23" d="M 123.5,115.5 C 123.666,119.846 123.499,124.179 123,128.5C 121.793,130.44 121.626,132.273 122.5,134C 121.517,134.591 120.85,134.257 120.5,133C 119.852,131.56 119.519,130.06 119.5,128.5C 117.983,127.265 116.316,127.265 114.5,128.5C 113.614,127.675 113.281,126.675 113.5,125.5C 114.151,124.909 114.818,124.243 115.5,123.5C 116.086,123.709 116.586,124.043 117,124.5C 117.198,122.618 117.698,120.952 118.5,119.5C 118.369,120.376 118.702,121.043 119.5,121.5C 120.466,119.604 120.799,117.604 120.5,115.5C 121.5,115.5 122.5,115.5 123.5,115.5 Z"/></g>
<g><path style="opacity:1" fill="#778b2d" d="M 153.5,127.5 C 153.586,128.496 153.252,129.329 152.5,130C 153.448,130.483 154.448,130.649 155.5,130.5C 155.5,132.833 155.5,135.167 155.5,137.5C 156.5,137.5 157.5,137.5 158.5,137.5C 158.167,138.5 157.5,139.167 156.5,139.5C 153.508,138.868 152.841,137.201 154.5,134.5C 153.478,133.646 152.645,132.646 152,131.5C 150.378,130.901 148.878,130.234 147.5,129.5C 149.842,128.789 150.175,127.456 148.5,125.5C 149.163,123.958 149.83,122.291 150.5,120.5C 153.093,122.071 154.093,124.404 153.5,127.5 Z"/></g>
<g><path style="opacity:1" fill="#dde185" d="M 159.5,118.5 C 159.833,118.5 160.167,118.5 160.5,118.5C 160.5,119.167 160.5,119.833 160.5,120.5C 161.105,123.127 161.605,125.793 162,128.5C 163.948,127.891 165.782,127.224 167.5,126.5C 168.167,126.5 168.5,126.167 168.5,125.5C 170.167,125.5 171.833,125.5 173.5,125.5C 172.8,128.2 171.134,129.867 168.5,130.5C 165.121,130.515 162.121,131.515 159.5,133.5C 158.471,131.483 157.471,129.483 156.5,127.5C 157.117,127.389 157.617,127.056 158,126.5C 158.183,123.635 158.683,120.969 159.5,118.5 Z"/></g>
<g><path style="opacity:1" fill="#495038" d="M 178.5,124.5 C 174.475,128.844 169.808,132.511 164.5,135.5C 164.5,135.167 164.5,134.833 164.5,134.5C 165.527,132.806 166.861,131.473 168.5,130.5C 171.134,129.867 172.8,128.2 173.5,125.5C 175.042,124.699 176.708,124.366 178.5,124.5 Z"/></g>
<g><path style="opacity:1" fill="#d5d4af" d="M 97.5,124.5 C 96.596,125.209 96.2627,126.209 96.5,127.5C 94.4116,129.02 92.0783,130.02 89.5,130.5C 86.6146,130.194 83.9479,130.527 81.5,131.5C 81.1667,131.5 80.8333,131.5 80.5,131.5C 77.8523,129.743 78.1857,128.41 81.5,127.5C 82.8175,127.821 84.1508,128.154 85.5,128.5C 88.7156,127.205 92.0489,126.538 95.5,126.5C 95.1375,121.644 95.8042,120.978 97.5,124.5 Z"/></g>
<g><path style="opacity:1" fill="#79874f" d="M 123.5,115.5 C 123.833,115.5 124.167,115.5 124.5,115.5C 125.167,115.5 125.833,115.5 126.5,115.5C 126.739,117.467 126.406,119.301 125.5,121C 126.833,121 128.167,121 129.5,121C 127.35,123.555 127.017,126.388 128.5,129.5C 128.833,128.833 129.167,128.167 129.5,127.5C 130.283,129.288 131.616,130.288 133.5,130.5C 134.167,131.5 134.833,132.5 135.5,133.5C 134.5,133.5 133.5,133.5 132.5,133.5C 132.5,134.833 132.5,136.167 132.5,137.5C 131.5,137.5 130.5,137.5 129.5,137.5C 129.5,138.5 129.5,139.5 129.5,140.5C 128.693,144.021 128.026,147.688 127.5,151.5C 126.897,153.19 125.897,154.69 124.5,156C 125.167,156.333 125.833,156.667 126.5,157C 123.428,159.06 120.762,158.893 118.5,156.5C 119.962,155.542 121.295,154.376 122.5,153C 121.833,152.667 121.167,152.333 120.5,152C 120.653,150.439 120.986,148.605 121.5,146.5C 120.452,140.403 119.119,134.736 117.5,129.5C 117.957,128.702 118.624,128.369 119.5,128.5C 119.519,130.06 119.852,131.56 120.5,133C 120.85,134.257 121.517,134.591 122.5,134C 121.626,132.273 121.793,130.44 123,128.5C 123.499,124.179 123.666,119.846 123.5,115.5 Z"/></g>
<g><path style="opacity:1" fill="#3d4e14" d="M 124.5,123.5 C 125.239,123.369 125.906,123.536 126.5,124C 125.412,128.577 125.412,133.244 126.5,138C 125.89,139.947 125.057,141.781 124,143.5C 124.377,136.893 124.544,130.226 124.5,123.5 Z"/></g>
<g><path style="opacity:1" fill="#51650e" d="M 134.5,122.5 C 138.387,125.611 142.72,127.944 147.5,129.5C 148.878,130.234 150.378,130.901 152,131.5C 152.645,132.646 153.478,133.646 154.5,134.5C 152.841,137.201 153.508,138.868 156.5,139.5C 155.081,140.451 153.415,140.784 151.5,140.5C 151.843,138.517 151.176,137.183 149.5,136.5C 148.791,137.404 147.791,137.737 146.5,137.5C 147.801,139.672 148.801,142.005 149.5,144.5C 145.838,144.277 142.505,143.277 139.5,141.5C 139.5,141.167 139.5,140.833 139.5,140.5C 141.527,140.662 143.527,140.495 145.5,140C 143.449,137.98 141.116,136.48 138.5,135.5C 138.5,135.167 138.5,134.833 138.5,134.5C 139.332,133.671 138.999,132.838 137.5,132C 136.255,131.209 134.922,130.709 133.5,130.5C 132.725,128.612 132.725,126.612 133.5,124.5C 133.328,123.508 133.662,122.842 134.5,122.5 Z"/></g>
<g><path style="opacity:1" fill="#59585a" d="M 183.5,120.5 C 183.833,120.5 184.167,120.5 184.5,120.5C 185.926,121.341 187.26,122.341 188.5,123.5C 195.508,130.508 202.842,137.174 210.5,143.5C 210.821,145.048 211.821,145.715 213.5,145.5C 213.34,143.801 213.506,142.134 214,140.5C 214.667,142.5 214.667,144.5 214,146.5C 213.901,148.653 213.067,150.319 211.5,151.5C 210.215,149.548 208.549,147.882 206.5,146.5C 199.726,140.273 192.726,134.273 185.5,128.5C 184.694,127.272 183.694,126.272 182.5,125.5C 182.557,124.391 182.89,123.391 183.5,122.5C 183.5,121.833 183.5,121.167 183.5,120.5 Z"/></g>
<g><path style="opacity:1" fill="#b0b570" d="M 81.5,131.5 C 83.9479,130.527 86.6146,130.194 89.5,130.5C 88.6993,132.042 88.366,133.708 88.5,135.5C 87.5,135.5 86.5,135.5 85.5,135.5C 85.5,134.167 85.5,132.833 85.5,131.5C 84.1667,131.5 82.8333,131.5 81.5,131.5 Z"/></g>
<g><path style="opacity:1" fill="#69772b" d="M 96.5,127.5 C 98.6545,129.617 99.6545,132.284 99.5,135.5C 97.0712,135.415 95.0712,134.415 93.5,132.5C 92.2613,132.942 91.2613,133.609 90.5,134.5C 89.8333,134.833 89.1667,135.167 88.5,135.5C 88.366,133.708 88.6993,132.042 89.5,130.5C 92.0783,130.02 94.4116,129.02 96.5,127.5 Z"/></g>
<g><path style="opacity:1" fill="#78816d" d="M 182.5,122.5 C 182.833,122.5 183.167,122.5 183.5,122.5C 182.89,123.391 182.557,124.391 182.5,125.5C 180.246,126.415 178.246,127.748 176.5,129.5C 177.025,130.192 177.692,130.692 178.5,131C 176.212,131.822 173.878,132.489 171.5,133C 167.929,135.421 164.262,137.587 160.5,139.5C 161.5,137.833 162.833,136.5 164.5,135.5C 169.808,132.511 174.475,128.844 178.5,124.5C 180.062,124.267 181.395,123.6 182.5,122.5 Z"/></g>
<g><path style="opacity:1" fill="#243802" d="M 133.5,130.5 C 134.922,130.709 136.255,131.209 137.5,132C 138.999,132.838 139.332,133.671 138.5,134.5C 137.609,133.89 136.609,133.557 135.5,133.5C 134.833,132.5 134.167,131.5 133.5,130.5 Z"/></g>
<g><path style="opacity:1" fill="#9dbb29" d="M 149.5,136.5 C 143.436,134.771 138.436,131.437 134.5,126.5C 140.739,127.619 146.406,130.452 151.5,135C 150.584,135.278 149.918,135.778 149.5,136.5 Z"/></g>
<g><path style="opacity:1" fill="#778154" d="M 103.5,126.5 C 104.391,127.11 105.391,127.443 106.5,127.5C 107.048,129.532 108.381,130.532 110.5,130.5C 110.5,129.167 110.5,127.833 110.5,126.5C 110.833,126.5 111.167,126.5 111.5,126.5C 111.5,127.833 111.5,129.167 111.5,130.5C 111.631,131.239 111.464,131.906 111,132.5C 110.333,131.167 109.667,131.167 109,132.5C 108.517,133.448 108.351,134.448 108.5,135.5C 109.5,135.5 110.5,135.5 111.5,135.5C 111.5,136.833 111.5,138.167 111.5,139.5C 110.5,139.5 109.5,139.5 108.5,139.5C 109.091,138.849 109.757,138.182 110.5,137.5C 108.838,136.673 107.505,135.507 106.5,134C 106.833,133.667 107.167,133.333 107.5,133C 104.433,131.611 101.767,129.778 99.5,127.5C 101.099,127.768 102.432,127.434 103.5,126.5 Z"/></g>
<g><path style="opacity:1" fill="#839234" d="M 168.5,130.5 C 166.861,131.473 165.527,132.806 164.5,134.5C 162.589,135.075 160.922,136.075 159.5,137.5C 159.5,136.167 159.5,134.833 159.5,133.5C 162.121,131.515 165.121,130.515 168.5,130.5 Z"/></g>
<g><path style="opacity:1" fill="#859741" d="M 135.5,133.5 C 136.609,133.557 137.609,133.89 138.5,134.5C 138.5,134.833 138.5,135.167 138.5,135.5C 137.325,135.281 136.325,135.614 135.5,136.5C 136.193,137.518 136.859,138.518 137.5,139.5C 135.833,138.833 134.167,138.167 132.5,137.5C 132.5,136.167 132.5,134.833 132.5,133.5C 133.5,133.5 134.5,133.5 135.5,133.5 Z"/></g>
<g><path style="opacity:1" fill="#a7bd31" d="M 153.5,127.5 C 154.167,127.5 154.833,127.5 155.5,127.5C 155.833,127.5 156.167,127.5 156.5,127.5C 157.471,129.483 158.471,131.483 159.5,133.5C 159.5,134.833 159.5,136.167 159.5,137.5C 159.167,137.5 158.833,137.5 158.5,137.5C 157.5,137.5 156.5,137.5 155.5,137.5C 155.5,135.167 155.5,132.833 155.5,130.5C 154.448,130.649 153.448,130.483 152.5,130C 153.252,129.329 153.586,128.496 153.5,127.5 Z"/></g>
<g><path style="opacity:1" fill="#e7e9e3" d="M 64.5,128.5 C 67.1492,130.14 69.8159,131.807 72.5,133.5C 71.8262,135.024 70.8262,136.358 69.5,137.5C 70.248,140.636 68.9146,142.636 65.5,143.5C 62.7146,142.694 59.8813,142.028 57,141.5C 53.1119,141.538 52.6119,142.704 55.5,145C 58.9712,147.072 62.6379,148.572 66.5,149.5C 67.8062,150.467 68.4729,151.801 68.5,153.5C 66.8333,153.5 65.1667,153.5 63.5,153.5C 58.661,154.266 53.9943,155.266 49.5,156.5C 49.5654,156.938 49.3988,157.272 49,157.5C 47.0126,156.782 45.1792,155.782 43.5,154.5C 43.358,152.306 43.6914,149.973 44.5,147.5C 50.5616,140.436 57.2283,134.103 64.5,128.5 Z"/></g>
<g><path style="opacity:1" fill="#4b5327" d="M 132.5,137.5 C 134.167,138.167 135.833,138.833 137.5,139.5C 138.167,139.833 138.833,140.167 139.5,140.5C 139.5,140.833 139.5,141.167 139.5,141.5C 138.503,141.47 137.836,141.97 137.5,143C 138.056,144.011 138.722,144.844 139.5,145.5C 138.127,145.343 136.793,145.51 135.5,146C 136.598,146.77 136.598,147.603 135.5,148.5C 134.833,147.833 134.167,147.167 133.5,146.5C 132.279,145.972 131.113,145.305 130,144.5C 129.544,143.256 130.044,142.423 131.5,142C 130.956,141.283 130.289,140.783 129.5,140.5C 129.5,139.5 129.5,138.5 129.5,137.5C 130.5,137.5 131.5,137.5 132.5,137.5 Z"/></g>
<g><path style="opacity:0.735" fill="#a2a3a3" d="M 35.5,123.5 C 35.3343,127.846 35.501,132.179 36,136.5C 36.1862,133.964 36.6862,131.631 37.5,129.5C 37.1805,134.363 37.5139,139.03 38.5,143.5C 38.1788,145.048 37.1788,145.715 35.5,145.5C 35.7947,143.265 35.4614,141.265 34.5,139.5C 34.1786,133.974 34.5119,128.64 35.5,123.5 Z"/></g>
<g><path style="opacity:1" fill="#545e41" d="M 80.5,131.5 C 80.8333,131.5 81.1667,131.5 81.5,131.5C 82.8333,131.5 84.1667,131.5 85.5,131.5C 85.5,132.833 85.5,134.167 85.5,135.5C 86.5,135.5 87.5,135.5 88.5,135.5C 89.1667,135.167 89.8333,134.833 90.5,134.5C 91.1029,137.175 92.4362,139.508 94.5,141.5C 94.0618,141.435 93.7284,141.601 93.5,142C 94.4162,142.374 95.2496,142.874 96,143.5C 96.9668,148.083 98.4668,152.416 100.5,156.5C 97.7496,153.339 95.7496,149.673 94.5,145.5C 91.2844,142.396 87.6177,140.063 83.5,138.5C 82.5637,137.026 81.2303,136.026 79.5,135.5C 79.1667,134.833 78.8333,134.167 78.5,133.5C 81.3584,135.124 82.0251,134.457 80.5,131.5 Z"/></g>
<g><path style="opacity:1" fill="#1d2412" d="M 118.5,156.5 C 118.167,156.5 117.833,156.5 117.5,156.5C 116.167,155.167 114.833,153.833 113.5,152.5C 114.575,151.287 115.241,149.787 115.5,148C 113.803,142.115 112.469,136.282 111.5,130.5C 111.5,129.167 111.5,127.833 111.5,126.5C 112.414,129.297 114.414,132.13 117.5,135C 114.833,135.667 114.833,136.333 117.5,137C 114.833,137.667 114.833,138.333 117.5,139C 116.833,139.333 116.167,139.667 115.5,140C 116.567,142.801 117.9,145.468 119.5,148C 119.675,150.744 119.341,153.577 118.5,156.5 Z"/></g>
<g><path style="opacity:1" fill="#4c5632" d="M 108.5,111.5 C 110.293,113.426 111.293,115.759 111.5,118.5C 112.455,120.746 113.122,123.079 113.5,125.5C 113.281,126.675 113.614,127.675 114.5,128.5C 116.316,127.265 117.983,127.265 119.5,128.5C 118.624,128.369 117.957,128.702 117.5,129.5C 119.119,134.736 120.452,140.403 121.5,146.5C 120.986,148.605 120.653,150.439 120.5,152C 121.167,152.333 121.833,152.667 122.5,153C 121.295,154.376 119.962,155.542 118.5,156.5C 119.341,153.577 119.675,150.744 119.5,148C 117.9,145.468 116.567,142.801 115.5,140C 116.167,139.667 116.833,139.333 117.5,139C 114.833,138.333 114.833,137.667 117.5,137C 114.833,136.333 114.833,135.667 117.5,135C 114.414,132.13 112.414,129.297 111.5,126.5C 111.167,126.5 110.833,126.5 110.5,126.5C 109.833,122.5 109.167,118.5 108.5,114.5C 108.5,113.5 108.5,112.5 108.5,111.5 Z"/></g>
<g><path style="opacity:1" fill="#92ae18" d="M 138.5,135.5 C 141.116,136.48 143.449,137.98 145.5,140C 143.527,140.495 141.527,140.662 139.5,140.5C 138.833,140.167 138.167,139.833 137.5,139.5C 136.859,138.518 136.193,137.518 135.5,136.5C 136.325,135.614 137.325,135.281 138.5,135.5 Z"/></g>
<g><path style="opacity:1" fill="#9ba07a" d="M 182.5,125.5 C 183.694,126.272 184.694,127.272 185.5,128.5C 183.565,129.15 181.565,129.483 179.5,129.5C 178.72,132.101 177.054,134.101 174.5,135.5C 176.167,136.667 177.833,137.833 179.5,139C 184.167,139.333 188.833,139.667 193.5,140C 193.957,140.414 194.291,140.914 194.5,141.5C 193.23,142.288 192.23,143.288 191.5,144.5C 188.602,145.723 186.269,147.723 184.5,150.5C 182.379,150.325 180.379,150.659 178.5,151.5C 175.456,149.989 172.122,149.322 168.5,149.5C 172.982,148.674 177.649,148.174 182.5,148C 183.056,147.617 183.389,147.117 183.5,146.5C 185.132,145.168 186.799,143.835 188.5,142.5C 185.522,141.647 182.522,140.981 179.5,140.5C 175.192,139.35 170.859,139.35 166.5,140.5C 166.167,140.5 165.833,140.5 165.5,140.5C 164.448,140.351 163.448,140.517 162.5,141C 161.601,142.652 160.601,144.152 159.5,145.5C 158.522,145.189 157.855,144.522 157.5,143.5C 158.63,142.378 159.297,141.044 159.5,139.5C 159.833,139.5 160.167,139.5 160.5,139.5C 164.262,137.587 167.929,135.421 171.5,133C 173.878,132.489 176.212,131.822 178.5,131C 177.692,130.692 177.025,130.192 176.5,129.5C 178.246,127.748 180.246,126.415 182.5,125.5 Z"/></g>
<g><path style="opacity:0.396" fill="#777779" d="M 210.5,102.5 C 211.29,103.609 211.79,104.942 212,106.5C 213.725,121.473 214.725,136.473 215,151.5C 213.97,153.346 212.804,155.013 211.5,156.5C 211.5,154.833 211.5,153.167 211.5,151.5C 213.067,150.319 213.901,148.653 214,146.5C 214.667,144.5 214.667,142.5 214,140.5C 213.506,142.134 213.34,143.801 213.5,145.5C 211.821,145.715 210.821,145.048 210.5,143.5C 211.117,143.611 211.617,143.944 212,144.5C 212.167,142.667 212.333,140.833 212.5,139C 211.096,128.198 210.096,117.365 209.5,106.5C 209.737,105.209 209.404,104.209 208.5,103.5C 208.5,103.167 208.5,102.833 208.5,102.5C 208.938,101.494 209.604,101.494 210.5,102.5 Z"/></g>
<g><path style="opacity:1" fill="#adb090" d="M 75.5,132.5 C 76.1667,132.833 76.8333,133.167 77.5,133.5C 76.828,134.267 75.9947,134.934 75,135.5C 73.0637,138.859 71.8971,142.192 71.5,145.5C 71.1667,145.5 70.8333,145.5 70.5,145.5C 70.6495,144.448 70.4828,143.448 70,142.5C 68.6534,144.466 67.1534,144.799 65.5,143.5C 68.9146,142.636 70.248,140.636 69.5,137.5C 70.8262,136.358 71.8262,135.024 72.5,133.5C 73.609,133.443 74.609,133.11 75.5,132.5 Z"/></g>
<g><path style="opacity:1" fill="#a8bc7e" d="M 79.5,135.5 C 81.2303,136.026 82.5637,137.026 83.5,138.5C 83.7038,141.518 84.0371,144.518 84.5,147.5C 83.8485,146.909 83.1818,146.243 82.5,145.5C 82.3903,147.098 82.057,148.765 81.5,150.5C 82.3202,152.111 83.6536,152.778 85.5,152.5C 85.5,152.833 85.5,153.167 85.5,153.5C 85.4142,154.496 85.7476,155.329 86.5,156C 82.8666,155.578 79.2,154.911 75.5,154C 74.4293,153.148 73.4293,152.315 72.5,151.5C 74.9201,151.292 77.2534,151.626 79.5,152.5C 80.7879,150.701 80.7879,149.035 79.5,147.5C 78.7057,145.127 77.7057,142.794 76.5,140.5C 76.9572,138.402 77.9572,136.736 79.5,135.5 Z"/></g>
<g><path style="opacity:1" fill="#c1d17c" d="M 179.5,140.5 C 179.953,141.458 180.619,142.292 181.5,143C 177.623,143.729 173.789,143.562 170,142.5C 169.5,142.667 169,142.833 168.5,143C 169.774,143.977 169.774,144.811 168.5,145.5C 167.022,145.762 165.689,145.429 164.5,144.5C 165.63,143.378 166.297,142.044 166.5,140.5C 170.859,139.35 175.192,139.35 179.5,140.5 Z"/></g>
<g><path style="opacity:1" fill="#0e1600" d="M 133.5,139.5 C 135.476,140.427 135.809,141.76 134.5,143.5C 132.3,142.675 131.966,141.342 133.5,139.5 Z"/></g>
<g><path style="opacity:1" fill="#363616" d="M 164.5,134.5 C 164.5,134.833 164.5,135.167 164.5,135.5C 162.833,136.5 161.5,137.833 160.5,139.5C 160.167,139.5 159.833,139.5 159.5,139.5C 156.833,141.167 154.167,142.833 151.5,144.5C 150.833,144.5 150.167,144.5 149.5,144.5C 148.801,142.005 147.801,139.672 146.5,137.5C 147.791,137.737 148.791,137.404 149.5,136.5C 151.176,137.183 151.843,138.517 151.5,140.5C 153.415,140.784 155.081,140.451 156.5,139.5C 157.5,139.167 158.167,138.5 158.5,137.5C 158.833,137.5 159.167,137.5 159.5,137.5C 160.922,136.075 162.589,135.075 164.5,134.5 Z"/></g>
<g><path style="opacity:1" fill="#464548" d="M 64.5,121.5 C 64.8333,121.5 65.1667,121.5 65.5,121.5C 67.7087,123.535 69.7087,125.868 71.5,128.5C 69.0213,127.377 66.688,127.377 64.5,128.5C 57.2283,134.103 50.5616,140.436 44.5,147.5C 39.1785,149.066 37.8452,152.066 40.5,156.5C 42.354,159.837 41.6874,160.837 38.5,159.5C 34.7234,153.284 33.3901,146.617 34.5,139.5C 35.4614,141.265 35.7947,143.265 35.5,145.5C 37.1788,145.715 38.1788,145.048 38.5,143.5C 46.1239,137.878 53.4572,131.878 60.5,125.5C 61.8333,124.167 63.1667,122.833 64.5,121.5 Z"/></g>
<g><path style="opacity:1" fill="#313d15" d="M 97.5,124.5 C 97.9321,125.71 98.5987,126.71 99.5,127.5C 101.767,129.778 104.433,131.611 107.5,133C 107.167,133.333 106.833,133.667 106.5,134C 107.505,135.507 108.838,136.673 110.5,137.5C 109.757,138.182 109.091,138.849 108.5,139.5C 106.621,139.607 106.288,139.107 107.5,138C 105.697,136.738 104.364,135.071 103.5,133C 102.552,132.517 101.552,132.351 100.5,132.5C 100.34,134.199 100.506,135.866 101,137.5C 103.716,139.72 104.549,142.387 103.5,145.5C 100.747,143.73 97.7469,142.397 94.5,141.5C 92.4362,139.508 91.1029,137.175 90.5,134.5C 91.2613,133.609 92.2613,132.942 93.5,132.5C 95.0712,134.415 97.0712,135.415 99.5,135.5C 99.6545,132.284 98.6545,129.617 96.5,127.5C 96.2627,126.209 96.596,125.209 97.5,124.5 Z"/></g>
<g><path style="opacity:1" fill="#889c6a" d="M 65.5,143.5 C 67.1534,144.799 68.6534,144.466 70,142.5C 70.4828,143.448 70.6495,144.448 70.5,145.5C 68.1432,145.337 65.8098,145.503 63.5,146C 64.7101,147.039 65.7101,148.206 66.5,149.5C 62.6379,148.572 58.9712,147.072 55.5,145C 52.6119,142.704 53.1119,141.538 57,141.5C 59.8813,142.028 62.7146,142.694 65.5,143.5 Z"/></g>
<g><path style="opacity:1" fill="#7b855d" d="M 77.5,133.5 C 77.8333,133.5 78.1667,133.5 78.5,133.5C 78.8333,134.167 79.1667,134.833 79.5,135.5C 77.9572,136.736 76.9572,138.402 76.5,140.5C 77.7057,142.794 78.7057,145.127 79.5,147.5C 78.9032,148.139 78.0698,148.472 77,148.5C 75.159,147.438 73.3257,146.438 71.5,145.5C 71.8971,142.192 73.0637,138.859 75,135.5C 75.9947,134.934 76.828,134.267 77.5,133.5 Z"/></g>
<g><path style="opacity:1" fill="#15180f" d="M 108.5,139.5 C 108.196,140.15 107.863,140.817 107.5,141.5C 109.503,144.499 110.503,147.833 110.5,151.5C 107.222,151.271 104.889,149.271 103.5,145.5C 104.549,142.387 103.716,139.72 101,137.5C 100.506,135.866 100.34,134.199 100.5,132.5C 101.552,132.351 102.552,132.517 103.5,133C 104.364,135.071 105.697,136.738 107.5,138C 106.288,139.107 106.621,139.607 108.5,139.5 Z"/></g>
<g><path style="opacity:1" fill="#282718" d="M 139.5,141.5 C 142.505,143.277 145.838,144.277 149.5,144.5C 150.167,144.5 150.833,144.5 151.5,144.5C 151.167,145.167 150.833,145.833 150.5,146.5C 150.167,146.5 149.833,146.5 149.5,146.5C 145.482,149.193 141.482,151.859 137.5,154.5C 136.455,153.205 135.455,151.872 134.5,150.5C 133.377,152.289 132.044,152.622 130.5,151.5C 131.065,149.491 132.065,147.824 133.5,146.5C 134.167,147.167 134.833,147.833 135.5,148.5C 136.449,149.152 137.615,149.486 139,149.5C 141.326,149.051 143.493,148.217 145.5,147C 143.75,145.681 141.75,145.181 139.5,145.5C 138.722,144.844 138.056,144.011 137.5,143C 137.836,141.97 138.503,141.47 139.5,141.5 Z"/></g>
<g><path style="opacity:1" fill="#899852" d="M 179.5,140.5 C 182.522,140.981 185.522,141.647 188.5,142.5C 186.799,143.835 185.132,145.168 183.5,146.5C 178.305,146.821 173.305,146.487 168.5,145.5C 169.774,144.811 169.774,143.977 168.5,143C 169,142.833 169.5,142.667 170,142.5C 173.789,143.562 177.623,143.729 181.5,143C 180.619,142.292 179.953,141.458 179.5,140.5 Z"/></g>
<g><path style="opacity:1" fill="#525b38" d="M 111.5,130.5 C 112.469,136.282 113.803,142.115 115.5,148C 115.241,149.787 114.575,151.287 113.5,152.5C 112.391,152.443 111.391,152.11 110.5,151.5C 110.503,147.833 109.503,144.499 107.5,141.5C 107.863,140.817 108.196,140.15 108.5,139.5C 109.5,139.5 110.5,139.5 111.5,139.5C 111.5,138.167 111.5,136.833 111.5,135.5C 110.5,135.5 109.5,135.5 108.5,135.5C 108.351,134.448 108.517,133.448 109,132.5C 109.667,131.167 110.333,131.167 111,132.5C 111.464,131.906 111.631,131.239 111.5,130.5 Z"/></g>
<g><path style="opacity:1" fill="#766f5c" d="M 159.5,139.5 C 159.297,141.044 158.63,142.378 157.5,143.5C 157.855,144.522 158.522,145.189 159.5,145.5C 158.713,147.104 157.38,147.771 155.5,147.5C 155.737,148.791 155.404,149.791 154.5,150.5C 153.167,149.167 151.833,147.833 150.5,146.5C 150.833,145.833 151.167,145.167 151.5,144.5C 154.167,142.833 156.833,141.167 159.5,139.5 Z"/></g>
<g><path style="opacity:1" fill="#735928" d="M 139.5,145.5 C 141.75,145.181 143.75,145.681 145.5,147C 143.493,148.217 141.326,149.051 139,149.5C 137.615,149.486 136.449,149.152 135.5,148.5C 136.598,147.603 136.598,146.77 135.5,146C 136.793,145.51 138.127,145.343 139.5,145.5 Z"/></g>
<g><path style="opacity:1" fill="#a3ab73" d="M 165.5,140.5 C 165.833,140.5 166.167,140.5 166.5,140.5C 166.297,142.044 165.63,143.378 164.5,144.5C 165.689,145.429 167.022,145.762 168.5,145.5C 173.305,146.487 178.305,146.821 183.5,146.5C 183.389,147.117 183.056,147.617 182.5,148C 177.649,148.174 172.982,148.674 168.5,149.5C 166.058,149.119 165.391,149.786 166.5,151.5C 164.955,152.452 163.288,152.785 161.5,152.5C 160.167,152.5 158.833,152.5 157.5,152.5C 157.5,151.167 157.5,149.833 157.5,148.5C 161.407,147.188 164.074,144.521 165.5,140.5 Z"/></g>
<g><path style="opacity:1" fill="#a89186" d="M 191.5,144.5 C 192.978,144.238 194.311,144.571 195.5,145.5C 192.727,149.052 189.06,150.719 184.5,150.5C 186.269,147.723 188.602,145.723 191.5,144.5 Z"/></g>
<g><path style="opacity:1" fill="#8ba662" d="M 70.5,145.5 C 70.8333,145.5 71.1667,145.5 71.5,145.5C 73.3257,146.438 75.159,147.438 77,148.5C 78.0698,148.472 78.9032,148.139 79.5,147.5C 80.7879,149.035 80.7879,150.701 79.5,152.5C 77.2534,151.626 74.9201,151.292 72.5,151.5C 70.7028,150.27 68.7028,149.604 66.5,149.5C 65.7101,148.206 64.7101,147.039 63.5,146C 65.8098,145.503 68.1432,145.337 70.5,145.5 Z"/></g>
<g><path style="opacity:1" fill="#e5e5e0" d="M 185.5,128.5 C 192.726,134.273 199.726,140.273 206.5,146.5C 206.877,148.258 207.544,149.925 208.5,151.5C 207.167,152.833 205.833,154.167 204.5,155.5C 199.096,156.731 193.763,157.064 188.5,156.5C 184.149,155.139 179.816,154.139 175.5,153.5C 176.71,153.068 177.71,152.401 178.5,151.5C 180.379,150.659 182.379,150.325 184.5,150.5C 189.06,150.719 192.727,149.052 195.5,145.5C 194.311,144.571 192.978,144.238 191.5,144.5C 192.23,143.288 193.23,142.288 194.5,141.5C 194.291,140.914 193.957,140.414 193.5,140C 188.833,139.667 184.167,139.333 179.5,139C 177.833,137.833 176.167,136.667 174.5,135.5C 177.054,134.101 178.72,132.101 179.5,129.5C 181.565,129.483 183.565,129.15 185.5,128.5 Z"/></g>
<g><path style="opacity:1" fill="#c7d8b2" d="M 84.5,147.5 C 85.3007,149.042 85.634,150.708 85.5,152.5C 83.6536,152.778 82.3202,152.111 81.5,150.5C 82.057,148.765 82.3903,147.098 82.5,145.5C 83.1818,146.243 83.8485,146.909 84.5,147.5 Z"/></g>
<g><path style="opacity:1" fill="#808b64" d="M 83.5,138.5 C 87.6177,140.063 91.2844,142.396 94.5,145.5C 95.7496,149.673 97.7496,153.339 100.5,156.5C 97.6316,157.383 94.9649,158.716 92.5,160.5C 91.6457,159.368 91.6457,158.035 92.5,156.5C 94.1033,156.688 95.4366,156.188 96.5,155C 93.8694,152.023 90.8694,149.523 87.5,147.5C 86.5344,149.396 86.2011,151.396 86.5,153.5C 86.1667,153.5 85.8333,153.5 85.5,153.5C 85.5,153.167 85.5,152.833 85.5,152.5C 85.634,150.708 85.3007,149.042 84.5,147.5C 84.0371,144.518 83.7038,141.518 83.5,138.5 Z"/></g>
<g><path style="opacity:1" fill="#9c8f75" d="M 149.5,146.5 C 149.833,146.5 150.167,146.5 150.5,146.5C 151.833,147.833 153.167,149.167 154.5,150.5C 153.766,151.708 153.433,153.041 153.5,154.5C 151.5,154.5 149.5,154.5 147.5,154.5C 147.963,151.779 148.629,149.112 149.5,146.5 Z"/></g>
<g><path style="opacity:1" fill="#505e3e" d="M 92.5,156.5 C 91.8333,155.833 91.1667,155.167 90.5,154.5C 89.4324,153.566 88.099,153.232 86.5,153.5C 86.2011,151.396 86.5344,149.396 87.5,147.5C 90.8694,149.523 93.8694,152.023 96.5,155C 95.4366,156.188 94.1033,156.688 92.5,156.5 Z"/></g>
<g><path style="opacity:1" fill="#363d22" d="M 129.5,140.5 C 130.289,140.783 130.956,141.283 131.5,142C 130.044,142.423 129.544,143.256 130,144.5C 131.113,145.305 132.279,145.972 133.5,146.5C 132.065,147.824 131.065,149.491 130.5,151.5C 132.044,152.622 133.377,152.289 134.5,150.5C 135.455,151.872 136.455,153.205 137.5,154.5C 133.378,159.392 128.045,161.892 121.5,162C 122.738,162.69 122.738,163.19 121.5,163.5C 120.833,163.167 120.167,162.833 119.5,162.5C 119.5,161.5 119.5,160.5 119.5,159.5C 126.33,161.338 128.997,158.671 127.5,151.5C 128.026,147.688 128.693,144.021 129.5,140.5 Z"/></g>
<g><path style="opacity:1" fill="#708354" d="M 66.5,149.5 C 68.7028,149.604 70.7028,150.27 72.5,151.5C 73.4293,152.315 74.4293,153.148 75.5,154C 79.2,154.911 82.8666,155.578 86.5,156C 85.7476,155.329 85.4142,154.496 85.5,153.5C 85.8333,153.5 86.1667,153.5 86.5,153.5C 88.099,153.232 89.4324,153.566 90.5,154.5C 89.8347,156.698 89.1681,159.031 88.5,161.5C 79.2925,157.06 69.6259,155.727 59.5,157.5C 59.33,158.822 59.6634,159.989 60.5,161C 63.2507,161.943 65.9174,162.776 68.5,163.5C 64.2953,163.809 60.2953,163.143 56.5,161.5C 56.4894,159.983 55.8228,158.816 54.5,158C 55.1667,157.333 55.8333,156.667 56.5,156C 59.1667,155.667 61.8333,155.333 64.5,155C 63.944,154.617 63.6107,154.117 63.5,153.5C 65.1667,153.5 66.8333,153.5 68.5,153.5C 68.4729,151.801 67.8062,150.467 66.5,149.5 Z"/></g>
<g><path style="opacity:1" fill="#736855" d="M 168.5,149.5 C 172.122,149.322 175.456,149.989 178.5,151.5C 177.71,152.401 176.71,153.068 175.5,153.5C 169.196,153.453 167.53,156.119 170.5,161.5C 167.911,161.539 165.911,160.539 164.5,158.5C 162.856,158.286 161.356,158.62 160,159.5C 157.784,156.308 158.284,153.975 161.5,152.5C 163.288,152.785 164.955,152.452 166.5,151.5C 165.391,149.786 166.058,149.119 168.5,149.5 Z"/></g>
<g><path style="opacity:1" fill="#8e816e" d="M 175.5,153.5 C 179.816,154.139 184.149,155.139 188.5,156.5C 188.5,157.5 188.5,158.5 188.5,159.5C 184.482,160.671 180.482,160.671 176.5,159.5C 175.081,160.005 174.415,161.005 174.5,162.5C 172.901,162.768 171.568,162.434 170.5,161.5C 167.53,156.119 169.196,153.453 175.5,153.5 Z"/></g>
<g><path style="opacity:1" fill="#92a669" d="M 90.5,154.5 C 91.1667,155.167 91.8333,155.833 92.5,156.5C 91.6457,158.035 91.6457,159.368 92.5,160.5C 91.015,163.083 88.6817,164.416 85.5,164.5C 85.6309,163.624 85.2975,162.957 84.5,162.5C 83.377,164.289 82.0436,164.622 80.5,163.5C 81.0253,162.808 81.6919,162.308 82.5,162C 82.1667,161.667 81.8333,161.333 81.5,161C 77.6115,160.938 74.1115,159.771 71,157.5C 69.6012,158.227 68.1012,158.727 66.5,159C 65.1667,159.667 65.1667,160.333 66.5,161C 71.0756,161.272 75.4089,162.105 79.5,163.5C 75.8333,163.5 72.1667,163.5 68.5,163.5C 65.9174,162.776 63.2507,161.943 60.5,161C 59.6634,159.989 59.33,158.822 59.5,157.5C 69.6259,155.727 79.2925,157.06 88.5,161.5C 89.1681,159.031 89.8347,156.698 90.5,154.5 Z"/></g>
<g><path style="opacity:1" fill="#ccceca" d="M 44.5,147.5 C 43.6914,149.973 43.358,152.306 43.5,154.5C 45.1792,155.782 47.0126,156.782 49,157.5C 49.3988,157.272 49.5654,156.938 49.5,156.5C 52.0892,157.419 54.0892,159.086 55.5,161.5C 54.0484,162.302 52.3817,162.802 50.5,163C 49.7894,164.255 48.956,165.421 48,166.5C 45.2519,163.266 42.7519,159.932 40.5,156.5C 37.8452,152.066 39.1785,149.066 44.5,147.5 Z"/></g>
<g><path style="opacity:1" fill="#99a088" d="M 63.5,153.5 C 63.6107,154.117 63.944,154.617 64.5,155C 61.8333,155.333 59.1667,155.667 56.5,156C 55.8333,156.667 55.1667,157.333 54.5,158C 55.8228,158.816 56.4894,159.983 56.5,161.5C 56.1667,161.5 55.8333,161.5 55.5,161.5C 54.0892,159.086 52.0892,157.419 49.5,156.5C 53.9943,155.266 58.661,154.266 63.5,153.5 Z"/></g>
<g><path style="opacity:1" fill="#696760" d="M 149.5,146.5 C 148.629,149.112 147.963,151.779 147.5,154.5C 149.405,159.427 147.738,161.594 142.5,161C 141.692,159.294 140.359,158.461 138.5,158.5C 137.687,157.347 136.687,157.347 135.5,158.5C 133.832,160.015 132.499,161.682 131.5,163.5C 130.041,163.433 128.708,163.766 127.5,164.5C 125.833,164.5 124.167,164.5 122.5,164.5C 122.5,166.833 122.5,169.167 122.5,171.5C 121.414,171.38 120.747,170.713 120.5,169.5C 121.156,167.547 121.489,165.547 121.5,163.5C 122.738,163.19 122.738,162.69 121.5,162C 128.045,161.892 133.378,159.392 137.5,154.5C 141.482,151.859 145.482,149.193 149.5,146.5 Z"/></g>
<g><path style="opacity:1" fill="#d4d4d2" d="M 206.5,146.5 C 208.549,147.882 210.215,149.548 211.5,151.5C 207.399,157.517 203.399,163.683 199.5,170C 196.753,169.543 193.92,169.043 191,168.5C 189.408,168.605 187.908,168.939 186.5,169.5C 184.076,169.808 181.743,169.474 179.5,168.5C 178.833,167.167 177.833,166.167 176.5,165.5C 176.522,166.995 176.189,168.662 175.5,170.5C 173.232,168.09 172.899,165.423 174.5,162.5C 174.415,161.005 175.081,160.005 176.5,159.5C 180.482,160.671 184.482,160.671 188.5,159.5C 188.5,158.5 188.5,157.5 188.5,156.5C 193.763,157.064 199.096,156.731 204.5,155.5C 205.833,154.167 207.167,152.833 208.5,151.5C 207.544,149.925 206.877,148.258 206.5,146.5 Z"/></g>
<g><path style="opacity:1" fill="#676d4e" d="M 147.5,154.5 C 149.5,154.5 151.5,154.5 153.5,154.5C 154.216,156.556 154.883,158.723 155.5,161C 154.552,161.483 153.552,161.649 152.5,161.5C 152.657,160.127 152.49,158.793 152,157.5C 150.848,159.649 149.348,161.482 147.5,163C 144.843,163.127 142.177,162.96 139.5,162.5C 139.567,161.041 139.234,159.708 138.5,158.5C 140.359,158.461 141.692,159.294 142.5,161C 147.738,161.594 149.405,159.427 147.5,154.5 Z"/></g>
<g><path style="opacity:1" fill="#5b6935" d="M 127.5,151.5 C 128.997,158.671 126.33,161.338 119.5,159.5C 119.5,160.5 119.5,161.5 119.5,162.5C 118.5,162.167 117.833,161.5 117.5,160.5C 117.5,159.167 117.5,157.833 117.5,156.5C 117.833,156.5 118.167,156.5 118.5,156.5C 120.762,158.893 123.428,159.06 126.5,157C 125.833,156.667 125.167,156.333 124.5,156C 125.897,154.69 126.897,153.19 127.5,151.5 Z"/></g>
<g><path style="opacity:1" fill="#adbf7d" d="M 117.5,160.5 C 117.833,161.5 118.5,162.167 119.5,162.5C 118.791,163.404 117.791,163.737 116.5,163.5C 115.833,168.833 115.167,168.833 114.5,163.5C 114.167,162.833 113.833,162.167 113.5,161.5C 114.708,160.766 116.041,160.433 117.5,160.5 Z"/></g>
<g><path style="opacity:1" fill="#787c68" d="M 164.5,158.5 C 165.911,160.539 167.911,161.539 170.5,161.5C 171.568,162.434 172.901,162.768 174.5,162.5C 172.899,165.423 173.232,168.09 175.5,170.5C 176.189,168.662 176.522,166.995 176.5,165.5C 177.833,166.167 178.833,167.167 179.5,168.5C 181.743,169.474 184.076,169.808 186.5,169.5C 183.579,170.194 180.579,171.027 177.5,172C 178.337,173.011 178.67,174.178 178.5,175.5C 176.339,175.174 174.506,174.174 173,172.5C 172.86,169.957 172.194,167.623 171,165.5C 169.989,166.337 168.822,166.67 167.5,166.5C 168.091,169.675 167.091,172.009 164.5,173.5C 163.167,173.5 161.833,173.5 160.5,173.5C 149.069,173.368 138.069,173.035 127.5,172.5C 127.5,169.833 127.5,167.167 127.5,164.5C 128.708,163.766 130.041,163.433 131.5,163.5C 131.489,165.017 130.823,166.184 129.5,167C 131.717,168.275 134.051,169.275 136.5,170C 144.566,170.238 152.566,171.071 160.5,172.5C 161.894,172.379 163.228,172.046 164.5,171.5C 165.711,170.726 165.711,169.893 164.5,169C 159.81,168.497 155.143,167.83 150.5,167C 150.043,166.586 149.709,166.086 149.5,165.5C 155.514,163.25 161.681,162.916 168,164.5C 168.5,164.167 169,163.833 169.5,163.5C 167.631,162.376 165.631,161.543 163.5,161C 164.252,160.329 164.586,159.496 164.5,158.5 Z"/></g>
<g><path style="opacity:1" fill="#75894c" d="M 85.5,164.5 C 84.0821,166.308 82.0821,166.975 79.5,166.5C 79.5,165.5 79.5,164.5 79.5,163.5C 75.4089,162.105 71.0756,161.272 66.5,161C 65.1667,160.333 65.1667,159.667 66.5,159C 68.1012,158.727 69.6012,158.227 71,157.5C 74.1115,159.771 77.6115,160.938 81.5,161C 81.8333,161.333 82.1667,161.667 82.5,162C 81.6919,162.308 81.0253,162.808 80.5,163.5C 82.0436,164.622 83.377,164.289 84.5,162.5C 85.2975,162.957 85.6309,163.624 85.5,164.5 Z"/></g>
<g><path style="opacity:1" fill="#8a986a" d="M 165.5,140.5 C 164.074,144.521 161.407,147.188 157.5,148.5C 157.5,149.833 157.5,151.167 157.5,152.5C 158.833,152.5 160.167,152.5 161.5,152.5C 158.284,153.975 157.784,156.308 160,159.5C 161.356,158.62 162.856,158.286 164.5,158.5C 164.586,159.496 164.252,160.329 163.5,161C 165.631,161.543 167.631,162.376 169.5,163.5C 169,163.833 168.5,164.167 168,164.5C 161.681,162.916 155.514,163.25 149.5,165.5C 149.709,166.086 150.043,166.586 150.5,167C 155.143,167.83 159.81,168.497 164.5,169C 165.711,169.893 165.711,170.726 164.5,171.5C 163.228,172.046 161.894,172.379 160.5,172.5C 152.566,171.071 144.566,170.238 136.5,170C 134.051,169.275 131.717,168.275 129.5,167C 130.823,166.184 131.489,165.017 131.5,163.5C 132.499,161.682 133.832,160.015 135.5,158.5C 136.687,157.347 137.687,157.347 138.5,158.5C 139.234,159.708 139.567,161.041 139.5,162.5C 142.177,162.96 144.843,163.127 147.5,163C 149.348,161.482 150.848,159.649 152,157.5C 152.49,158.793 152.657,160.127 152.5,161.5C 153.552,161.649 154.552,161.483 155.5,161C 154.883,158.723 154.216,156.556 153.5,154.5C 153.433,153.041 153.766,151.708 154.5,150.5C 155.404,149.791 155.737,148.791 155.5,147.5C 157.38,147.771 158.713,147.104 159.5,145.5C 160.601,144.152 161.601,142.652 162.5,141C 163.448,140.517 164.448,140.351 165.5,140.5 Z"/></g>
<g><path style="opacity:1" fill="#93987c" d="M 113.5,161.5 C 113.833,162.167 114.167,162.833 114.5,163.5C 112.585,163.216 110.919,163.549 109.5,164.5C 107.903,165.09 106.569,166.09 105.5,167.5C 104.708,166.3 104.708,164.967 105.5,163.5C 108.006,162.25 110.673,161.584 113.5,161.5 Z"/></g>
<g><path style="opacity:1" fill="#565656" d="M 40.5,156.5 C 42.7519,159.932 45.2519,163.266 48,166.5C 48.956,165.421 49.7894,164.255 50.5,163C 52.3817,162.802 54.0484,162.302 55.5,161.5C 55.8333,161.5 56.1667,161.5 56.5,161.5C 56.5,162.5 56.5,163.5 56.5,164.5C 63.1667,164.833 69.8333,165.167 76.5,165.5C 76.67,166.822 76.3366,167.989 75.5,169C 77.4432,168.695 79.4432,168.695 81.5,169C 79.2263,170.355 79.2263,171.855 81.5,173.5C 85.3856,174.847 89.0523,176.347 92.5,178C 95.7958,174.444 97.2958,170.277 97,165.5C 96.1841,164.177 95.0174,163.511 93.5,163.5C 93.974,159.843 95.3074,159.676 97.5,163C 100.49,163.847 101.824,162.68 101.5,159.5C 104.5,159.167 105.833,160.5 105.5,163.5C 104.708,164.967 104.708,166.3 105.5,167.5C 106.569,166.09 107.903,165.09 109.5,164.5C 111.948,164.085 113.281,165.085 113.5,167.5C 113.215,169.569 112.048,170.902 110,171.5C 109.506,173.134 109.34,174.801 109.5,176.5C 113.5,176.5 117.5,176.5 121.5,176.5C 118.703,177.998 115.87,179.665 113,181.5C 111.417,181.507 109.751,181.174 108,180.5C 107.667,182.5 107.333,184.5 107,186.5C 105.413,186.342 103.913,187.009 102.5,188.5C 101.554,187.069 100.388,185.736 99,184.5C 97.2835,185.552 96.2835,184.886 96,182.5C 95.5065,184.134 95.3398,185.801 95.5,187.5C 94.1266,187.657 92.7932,187.49 91.5,187C 92.8882,186.111 92.7215,185.611 91,185.5C 89.1659,187.756 87.4992,187.756 86,185.5C 83.8487,188.112 83.0153,188.112 83.5,185.5C 82.3717,184.738 81.2051,184.071 80,183.5C 76.1046,186.299 72.7713,185.633 70,181.5C 69.6924,182.308 69.1924,182.975 68.5,183.5C 66.074,181.052 63.574,181.052 61,183.5C 60.2196,180.488 59.0529,177.655 57.5,175C 59.9288,174.549 60.0955,173.715 58,172.5C 56.6285,172.243 55.1285,172.577 53.5,173.5C 51.5248,171.863 49.5248,170.196 47.5,168.5C 46.479,169.002 46.3123,169.668 47,170.5C 50.0544,171.324 50.8878,172.991 49.5,175.5C 45.8461,170.204 42.1794,164.871 38.5,159.5C 41.6874,160.837 42.354,159.837 40.5,156.5 Z"/></g>
<g><path style="opacity:1" fill="#53594c" d="M 94.5,141.5 C 97.7469,142.397 100.747,143.73 103.5,145.5C 104.889,149.271 107.222,151.271 110.5,151.5C 111.391,152.11 112.391,152.443 113.5,152.5C 114.833,153.833 116.167,155.167 117.5,156.5C 117.5,157.833 117.5,159.167 117.5,160.5C 116.041,160.433 114.708,160.766 113.5,161.5C 110.673,161.584 108.006,162.25 105.5,163.5C 105.833,160.5 104.5,159.167 101.5,159.5C 101.824,162.68 100.49,163.847 97.5,163C 95.3074,159.676 93.974,159.843 93.5,163.5C 92.6981,164.952 92.1981,166.618 92,168.5C 90.8668,166.789 89.3668,166.289 87.5,167C 84.164,168.121 82.164,170.287 81.5,173.5C 79.2263,171.855 79.2263,170.355 81.5,169C 79.4432,168.695 77.4432,168.695 75.5,169C 76.3366,167.989 76.67,166.822 76.5,165.5C 69.8333,165.167 63.1667,164.833 56.5,164.5C 56.5,163.5 56.5,162.5 56.5,161.5C 60.2953,163.143 64.2953,163.809 68.5,163.5C 72.1667,163.5 75.8333,163.5 79.5,163.5C 79.5,164.5 79.5,165.5 79.5,166.5C 82.0821,166.975 84.0821,166.308 85.5,164.5C 88.6817,164.416 91.015,163.083 92.5,160.5C 94.9649,158.716 97.6316,157.383 100.5,156.5C 98.4668,152.416 96.9668,148.083 96,143.5C 95.2496,142.874 94.4162,142.374 93.5,142C 93.7284,141.601 94.0618,141.435 94.5,141.5 Z"/></g>
<g><path style="opacity:1" fill="#6b7458" d="M 119.5,162.5 C 120.167,162.833 120.833,163.167 121.5,163.5C 121.489,165.547 121.156,167.547 120.5,169.5C 120.747,170.713 121.414,171.38 122.5,171.5C 122.5,173.167 122.5,174.833 122.5,176.5C 122.167,176.5 121.833,176.5 121.5,176.5C 117.5,176.5 113.5,176.5 109.5,176.5C 109.34,174.801 109.506,173.134 110,171.5C 112.048,170.902 113.215,169.569 113.5,167.5C 113.281,165.085 111.948,164.085 109.5,164.5C 110.919,163.549 112.585,163.216 114.5,163.5C 115.167,168.833 115.833,168.833 116.5,163.5C 117.791,163.737 118.791,163.404 119.5,162.5 Z"/></g>
<g><path style="opacity:1" fill="#636261" d="M 93.5,163.5 C 95.0174,163.511 96.1841,164.177 97,165.5C 97.2958,170.277 95.7958,174.444 92.5,178C 89.0523,176.347 85.3856,174.847 81.5,173.5C 82.164,170.287 84.164,168.121 87.5,167C 89.3668,166.289 90.8668,166.789 92,168.5C 92.1981,166.618 92.6981,164.952 93.5,163.5 Z"/></g>
<g><path style="opacity:1" fill="#7b7b7c" d="M 131.5,210.5 C 129.836,209.051 129.002,207.051 129,204.5C 128.829,196.989 128.329,189.655 127.5,182.5C 127.5,181.833 127.5,181.167 127.5,180.5C 129.074,178.898 129.741,176.898 129.5,174.5C 131.924,174.192 134.257,174.526 136.5,175.5C 135.033,175.723 133.533,176.056 132,176.5C 131.64,178.421 130.806,180.088 129.5,181.5C 129.833,181.833 130.167,182.167 130.5,182.5C 132.76,182.767 135.093,182.267 137.5,181C 133.02,180.707 132.687,179.874 136.5,178.5C 137.086,178.709 137.586,179.043 138,179.5C 139.377,175.348 140.877,175.848 142.5,181C 142.333,181.5 142.167,182 142,182.5C 140.951,181.483 139.784,181.316 138.5,182C 140.493,183.999 142.827,185.499 145.5,186.5C 144.45,188.102 145.117,188.935 147.5,189C 146.069,189.465 144.903,190.299 144,191.5C 143.282,190.549 142.449,190.383 141.5,191C 144.095,193.253 143.928,195.42 141,197.5C 139.989,196.663 138.822,196.33 137.5,196.5C 137.541,192.757 136.874,192.59 135.5,196C 136.647,198.085 135.98,199.585 133.5,200.5C 136.066,204.008 135.566,204.341 132,201.5C 131.308,202.025 130.808,202.692 130.5,203.5C 131.833,204.5 131.833,205.5 130.5,206.5C 132.58,207.528 132.914,208.862 131.5,210.5 Z"/></g>
<g><path style="opacity:1" fill="#4e4c4f" d="M 102.5,188.5 C 100.723,188.786 99.0564,189.453 97.5,190.5C 94.151,189.33 90.8177,189.33 87.5,190.5C 88.3029,193.054 87.3029,194.888 84.5,196C 85.5,196.333 86.5,196.667 87.5,197C 85.741,198.008 84.5743,199.508 84,201.5C 83.586,201.043 83.086,200.709 82.5,200.5C 81.4096,201.727 80.0762,202.56 78.5,203C 79.056,203.383 79.3893,203.883 79.5,204.5C 75.2811,205.086 71.6145,204.086 68.5,201.5C 67.7025,201.957 67.3691,202.624 67.5,203.5C 61.0043,194.515 55.0043,185.181 49.5,175.5C 50.8878,172.991 50.0544,171.324 47,170.5C 46.3123,169.668 46.479,169.002 47.5,168.5C 49.5248,170.196 51.5248,171.863 53.5,173.5C 55.1285,172.577 56.6285,172.243 58,172.5C 60.0955,173.715 59.9288,174.549 57.5,175C 59.0529,177.655 60.2196,180.488 61,183.5C 63.574,181.052 66.074,181.052 68.5,183.5C 69.1924,182.975 69.6924,182.308 70,181.5C 72.7713,185.633 76.1046,186.299 80,183.5C 81.2051,184.071 82.3717,184.738 83.5,185.5C 83.0153,188.112 83.8487,188.112 86,185.5C 87.4992,187.756 89.1659,187.756 91,185.5C 92.7215,185.611 92.8882,186.111 91.5,187C 92.7932,187.49 94.1266,187.657 95.5,187.5C 95.3398,185.801 95.5065,184.134 96,182.5C 96.2835,184.886 97.2835,185.552 99,184.5C 100.388,185.736 101.554,187.069 102.5,188.5 Z"/></g>
<g><path style="opacity:1" fill="#5e5d5d" d="M 211.5,151.5 C 211.5,153.167 211.5,154.833 211.5,156.5C 201.887,172.89 191.887,189.057 181.5,205C 172.978,207.254 164.311,208.754 155.5,209.5C 153.143,209.663 150.81,209.497 148.5,209C 149.5,208.667 150.5,208.333 151.5,208C 156.974,207.116 162.14,205.616 167,203.5C 168.356,204.38 169.856,204.714 171.5,204.5C 171.281,203.325 171.614,202.325 172.5,201.5C 173.258,202.811 174.258,203.311 175.5,203C 175.043,202.586 174.709,202.086 174.5,201.5C 175.836,198.528 177.336,198.195 179,200.5C 178.393,198.418 177.56,196.251 176.5,194C 176.667,193.5 176.833,193 177,192.5C 178.316,193.974 179.316,195.641 180,197.5C 180.202,195.744 180.702,194.078 181.5,192.5C 183.507,190.992 185.174,189.158 186.5,187C 185.638,184.266 184.805,184.099 184,186.5C 182.385,185.344 182.385,184.011 184,182.5C 188.5,182.504 192.333,180.671 195.5,177C 190.961,174.597 188.794,175.764 189,180.5C 187.491,179.91 185.991,179.244 184.5,178.5C 185.603,178.002 186.603,177.669 187.5,177.5C 186.147,176.476 185.48,175.143 185.5,173.5C 179.019,172.803 178.019,175.136 182.5,180.5C 180.675,181.571 179.508,180.904 179,178.5C 178.667,179.167 178.333,179.833 178,180.5C 177,179.5 176,178.5 175,177.5C 173.602,178.051 172.268,178.384 171,178.5C 171.959,172.495 171.125,172.161 168.5,177.5C 170.044,180.421 169.044,182.087 165.5,182.5C 164.893,182.376 164.56,182.043 164.5,181.5C 166.076,179.334 167.409,176.834 168.5,174C 167.207,173.51 165.873,173.343 164.5,173.5C 167.091,172.009 168.091,169.675 167.5,166.5C 168.822,166.67 169.989,166.337 171,165.5C 172.194,167.623 172.86,169.957 173,172.5C 174.506,174.174 176.339,175.174 178.5,175.5C 178.67,174.178 178.337,173.011 177.5,172C 180.579,171.027 183.579,170.194 186.5,169.5C 187.908,168.939 189.408,168.605 191,168.5C 193.92,169.043 196.753,169.543 199.5,170C 203.399,163.683 207.399,157.517 211.5,151.5 Z"/></g>
<g><path style="opacity:1" fill="#6f6f70" d="M 127.5,172.5 C 138.069,173.035 149.069,173.368 160.5,173.5C 163.742,178.287 163.075,179.287 158.5,176.5C 157.808,177.025 157.308,177.692 157,178.5C 155.266,177.751 153.433,177.251 151.5,177C 150.874,176.25 150.374,175.416 150,174.5C 149.069,176.459 148.236,178.459 147.5,180.5C 148.262,180.911 149.262,181.077 150.5,181C 149.483,182.049 149.316,183.216 150,184.5C 150.914,183.346 151.747,183.513 152.5,185C 150.5,185.333 148.5,185.667 146.5,186C 148.055,187.646 149.721,187.979 151.5,187C 148.646,189.078 148.312,191.245 150.5,193.5C 149.675,194.386 148.675,194.719 147.5,194.5C 147.651,197.718 148.484,198.051 150,195.5C 151.308,198.73 152.308,202.064 153,205.5C 153.5,204.333 154.333,203.5 155.5,203C 151.864,200.581 151.53,197.748 154.5,194.5C 154.906,195.557 154.906,196.891 154.5,198.5C 156.75,198.819 158.75,198.319 160.5,197C 159.833,196.667 159.167,196.333 158.5,196C 161.236,194.221 162.57,192.055 162.5,189.5C 163.429,190.689 163.762,192.022 163.5,193.5C 167.214,194.069 167.881,195.569 165.5,198C 166.424,199.811 167.257,199.645 168,197.5C 168.333,197.833 168.667,198.167 169,198.5C 168.98,195.972 169.313,193.639 170,191.5C 171.84,192.833 172.34,192.666 171.5,191C 175.827,190.509 179.16,188.509 181.5,185C 180.335,183.916 179.002,183.083 177.5,182.5C 177.167,183.167 176.833,183.833 176.5,184.5C 175.188,183.54 173.854,183.706 172.5,185C 168.167,185.667 163.833,185.667 159.5,185C 160.993,183.844 160.826,183.01 159,182.5C 157.452,183.684 155.952,183.517 154.5,182C 157.817,181.502 161.15,181.335 164.5,181.5C 164.56,182.043 164.893,182.376 165.5,182.5C 169.044,182.087 170.044,180.421 168.5,177.5C 171.125,172.161 171.959,172.495 171,178.5C 172.268,178.384 173.602,178.051 175,177.5C 176,178.5 177,179.5 178,180.5C 178.333,179.833 178.667,179.167 179,178.5C 179.508,180.904 180.675,181.571 182.5,180.5C 178.019,175.136 179.019,172.803 185.5,173.5C 185.48,175.143 186.147,176.476 187.5,177.5C 186.603,177.669 185.603,178.002 184.5,178.5C 185.991,179.244 187.491,179.91 189,180.5C 188.794,175.764 190.961,174.597 195.5,177C 192.333,180.671 188.5,182.504 184,182.5C 182.385,184.011 182.385,185.344 184,186.5C 184.805,184.099 185.638,184.266 186.5,187C 185.174,189.158 183.507,190.992 181.5,192.5C 180.702,194.078 180.202,195.744 180,197.5C 179.316,195.641 178.316,193.974 177,192.5C 176.833,193 176.667,193.5 176.5,194C 177.56,196.251 178.393,198.418 179,200.5C 177.336,198.195 175.836,198.528 174.5,201.5C 174.709,202.086 175.043,202.586 175.5,203C 174.258,203.311 173.258,202.811 172.5,201.5C 171.614,202.325 171.281,203.325 171.5,204.5C 169.856,204.714 168.356,204.38 167,203.5C 162.14,205.616 156.974,207.116 151.5,208C 150.5,208.333 149.5,208.667 148.5,209C 150.81,209.497 153.143,209.663 155.5,209.5C 152.689,210.475 149.689,211.142 146.5,211.5C 147.598,210.603 147.598,209.77 146.5,209C 145.167,208.833 143.833,208.667 142.5,208.5C 139.04,209.911 135.374,210.578 131.5,210.5C 132.914,208.862 132.58,207.528 130.5,206.5C 131.833,205.5 131.833,204.5 130.5,203.5C 130.808,202.692 131.308,202.025 132,201.5C 135.566,204.341 136.066,204.008 133.5,200.5C 135.98,199.585 136.647,198.085 135.5,196C 136.874,192.59 137.541,192.757 137.5,196.5C 138.822,196.33 139.989,196.663 141,197.5C 143.928,195.42 144.095,193.253 141.5,191C 142.449,190.383 143.282,190.549 144,191.5C 144.903,190.299 146.069,189.465 147.5,189C 145.117,188.935 144.45,188.102 145.5,186.5C 142.827,185.499 140.493,183.999 138.5,182C 139.784,181.316 140.951,181.483 142,182.5C 142.167,182 142.333,181.5 142.5,181C 140.877,175.848 139.377,175.348 138,179.5C 137.586,179.043 137.086,178.709 136.5,178.5C 132.687,179.874 133.02,180.707 137.5,181C 135.093,182.267 132.76,182.767 130.5,182.5C 130.167,182.167 129.833,181.833 129.5,181.5C 130.806,180.088 131.64,178.421 132,176.5C 133.533,176.056 135.033,175.723 136.5,175.5C 134.257,174.526 131.924,174.192 129.5,174.5C 129.741,176.898 129.074,178.898 127.5,180.5C 127.5,177.833 127.5,175.167 127.5,172.5 Z"/></g>
<g><path style="opacity:1" fill="#7a7978" d="M 160.5,173.5 C 161.833,173.5 163.167,173.5 164.5,173.5C 165.873,173.343 167.207,173.51 168.5,174C 167.409,176.834 166.076,179.334 164.5,181.5C 161.15,181.335 157.817,181.502 154.5,182C 155.952,183.517 157.452,183.684 159,182.5C 160.826,183.01 160.993,183.844 159.5,185C 163.833,185.667 168.167,185.667 172.5,185C 173.854,183.706 175.188,183.54 176.5,184.5C 176.833,183.833 177.167,183.167 177.5,182.5C 179.002,183.083 180.335,183.916 181.5,185C 179.16,188.509 175.827,190.509 171.5,191C 172.34,192.666 171.84,192.833 170,191.5C 169.313,193.639 168.98,195.972 169,198.5C 168.667,198.167 168.333,197.833 168,197.5C 167.257,199.645 166.424,199.811 165.5,198C 167.881,195.569 167.214,194.069 163.5,193.5C 163.762,192.022 163.429,190.689 162.5,189.5C 162.57,192.055 161.236,194.221 158.5,196C 159.167,196.333 159.833,196.667 160.5,197C 158.75,198.319 156.75,198.819 154.5,198.5C 154.906,196.891 154.906,195.557 154.5,194.5C 151.53,197.748 151.864,200.581 155.5,203C 154.333,203.5 153.5,204.333 153,205.5C 152.308,202.064 151.308,198.73 150,195.5C 148.484,198.051 147.651,197.718 147.5,194.5C 148.675,194.719 149.675,194.386 150.5,193.5C 148.312,191.245 148.646,189.078 151.5,187C 149.721,187.979 148.055,187.646 146.5,186C 148.5,185.667 150.5,185.333 152.5,185C 151.747,183.513 150.914,183.346 150,184.5C 149.316,183.216 149.483,182.049 150.5,181C 149.262,181.077 148.262,180.911 147.5,180.5C 148.236,178.459 149.069,176.459 150,174.5C 150.374,175.416 150.874,176.25 151.5,177C 153.433,177.251 155.266,177.751 157,178.5C 157.308,177.692 157.808,177.025 158.5,176.5C 163.075,179.287 163.742,178.287 160.5,173.5 Z"/></g>
<g><path style="opacity:1" fill="#4a494e" d="M 121.5,176.5 C 121.833,176.5 122.167,176.5 122.5,176.5C 122.777,186.568 122.111,196.568 120.5,206.5C 119.167,206.167 117.833,205.833 116.5,205.5C 117.381,204.029 118.714,203.196 120.5,203C 119.663,201.989 119.33,200.822 119.5,199.5C 118.07,199.421 116.736,199.754 115.5,200.5C 112.326,197.744 108.66,195.744 104.5,194.5C 104.167,194.833 103.833,195.167 103.5,195.5C 104.802,197.201 106.469,198.368 108.5,199C 106.133,199.374 104.3,200.541 103,202.5C 99.9294,199.221 96.596,199.221 93,202.5C 92.228,202.355 91.5613,202.022 91,201.5C 90,204.167 89,204.167 88,201.5C 87.6258,202.416 87.1258,203.25 86.5,204C 84.1902,204.497 81.8568,204.663 79.5,204.5C 79.3893,203.883 79.056,203.383 78.5,203C 80.0762,202.56 81.4096,201.727 82.5,200.5C 83.086,200.709 83.586,201.043 84,201.5C 84.5743,199.508 85.741,198.008 87.5,197C 86.5,196.667 85.5,196.333 84.5,196C 87.3029,194.888 88.3029,193.054 87.5,190.5C 90.8177,189.33 94.151,189.33 97.5,190.5C 99.0564,189.453 100.723,188.786 102.5,188.5C 103.913,187.009 105.413,186.342 107,186.5C 107.333,184.5 107.667,182.5 108,180.5C 109.751,181.174 111.417,181.507 113,181.5C 115.87,179.665 118.703,177.998 121.5,176.5 Z"/></g>
<g><path style="opacity:1" fill="#5c5c5f" d="M 127.5,182.5 C 128.329,189.655 128.829,196.989 129,204.5C 129.002,207.051 129.836,209.051 131.5,210.5C 135.374,210.578 139.04,209.911 142.5,208.5C 143.833,208.667 145.167,208.833 146.5,209C 147.598,209.77 147.598,210.603 146.5,211.5C 140.806,212.472 135.14,213.639 129.5,215C 126.304,215.805 123.304,215.638 120.5,214.5C 122.857,214.663 125.19,214.497 127.5,214C 124.833,213.333 124.833,212.667 127.5,212C 126.806,207.532 126.14,203.032 125.5,198.5C 127.379,193.4 128.046,188.067 127.5,182.5 Z"/></g>
<g><path style="opacity:0.518" fill="#3b3b3e" d="M 127.5,164.5 C 127.5,167.167 127.5,169.833 127.5,172.5C 127.5,175.167 127.5,177.833 127.5,180.5C 127.5,181.167 127.5,181.833 127.5,182.5C 128.046,188.067 127.379,193.4 125.5,198.5C 126.14,203.032 126.806,207.532 127.5,212C 124.833,212.667 124.833,213.333 127.5,214C 125.19,214.497 122.857,214.663 120.5,214.5C 103.825,212.11 87.1581,209.61 70.5,207C 68.5743,206.578 67.5743,205.411 67.5,203.5C 67.3691,202.624 67.7025,201.957 68.5,201.5C 71.6145,204.086 75.2811,205.086 79.5,204.5C 81.8568,204.663 84.1902,204.497 86.5,204C 87.1258,203.25 87.6258,202.416 88,201.5C 89,204.167 90,204.167 91,201.5C 91.5613,202.022 92.228,202.355 93,202.5C 96.596,199.221 99.9294,199.221 103,202.5C 104.3,200.541 106.133,199.374 108.5,199C 106.469,198.368 104.802,197.201 103.5,195.5C 103.833,195.167 104.167,194.833 104.5,194.5C 108.66,195.744 112.326,197.744 115.5,200.5C 116.736,199.754 118.07,199.421 119.5,199.5C 119.33,200.822 119.663,201.989 120.5,203C 118.714,203.196 117.381,204.029 116.5,205.5C 117.833,205.833 119.167,206.167 120.5,206.5C 122.111,196.568 122.777,186.568 122.5,176.5C 122.5,174.833 122.5,173.167 122.5,171.5C 122.5,169.167 122.5,166.833 122.5,164.5C 124.167,164.5 125.833,164.5 127.5,164.5 Z"/></g>
</svg>
