<?xml version="1.0" encoding="UTF-8"?>
<!DOCTYPE svg PUBLIC "-//W3C//DTD SVG 1.1//EN" "http://www.w3.org/Graphics/SVG/1.1/DTD/svg11.dtd">
<svg xmlns="http://www.w3.org/2000/svg" version="1.1" width="250px" height="250px" style="shape-rendering:geometricPrecision; text-rendering:geometricPrecision; image-rendering:optimizeQuality; fill-rule:evenodd; clip-rule:evenodd" xmlns:xlink="http://www.w3.org/1999/xlink">
<g><path style="opacity:0.918" fill="#b5a6a2" d="M 125.5,9.5 C 127.5,9.5 128.5,10.5 128.5,12.5C 130.287,19.6921 129.287,20.1921 125.5,14C 123.843,13.2748 122.843,13.7748 122.5,15.5C 121.921,18.3311 120.588,20.6644 118.5,22.5C 117.624,22.6309 116.957,22.2975 116.5,21.5C 118,18.5 119.5,15.5 121,12.5C 122.129,10.8588 123.629,9.85883 125.5,9.5 Z"/></g>
<g><path style="opacity:0.106" fill="#eee1df" d="M 128.5,12.5 C 130.674,15.5154 132.341,18.8487 133.5,22.5C 132.25,22.4226 131.417,21.756 131,20.5C 130.833,21 130.667,21.5 130.5,22C 133.948,28.7202 136.948,35.5535 139.5,42.5C 135.185,35.2042 131.352,27.5375 128,19.5C 126.907,17.6508 125.574,15.9842 124,14.5C 123.617,15.056 123.117,15.3893 122.5,15.5C 122.843,13.7748 123.843,13.2748 125.5,14C 129.287,20.1921 130.287,19.6921 128.5,12.5 Z"/></g>
<g><path style="opacity:0.129" fill="#efe4e1" d="M 133.5,22.5 C 136.008,26.1822 138.008,30.1822 139.5,34.5C 135.925,31.35 133.925,27.35 133.5,22.5 Z"/></g>
<g><path style="opacity:0.082" fill="#f6ece9" d="M 107.5,36.5 C 106.59,39.9922 104.924,42.9922 102.5,45.5C 103.41,42.0078 105.076,39.0078 107.5,36.5 Z"/></g>
<g><path style="opacity:0.933" fill="#b7a6a2" d="M 103.5,48.5 C 102.596,47.791 102.263,46.791 102.5,45.5C 104.924,42.9922 106.59,39.9922 107.5,36.5C 107.66,34.847 108.326,33.5137 109.5,32.5C 110.79,31.9423 111.623,30.9423 112,29.5C 112.667,30.5 112.667,31.5 112,32.5C 108.868,37.7679 106.035,43.1013 103.5,48.5 Z"/></g>
<g><path style="opacity:0.259" fill="#e7dad5" d="M 125.5,9.5 C 123.629,9.85883 122.129,10.8588 121,12.5C 119.5,15.5 118,18.5 116.5,21.5C 116.957,22.2975 117.624,22.6309 118.5,22.5C 113.888,31.389 109.555,40.389 105.5,49.5C 104.508,49.6716 103.842,49.3382 103.5,48.5C 106.035,43.1013 108.868,37.7679 112,32.5C 112.667,31.5 112.667,30.5 112,29.5C 111.623,30.9423 110.79,31.9423 109.5,32.5C 112.774,24.0647 117.107,16.2314 122.5,9C 123.749,8.25988 124.749,8.42654 125.5,9.5 Z"/></g>
<g><path style="opacity:0.827" fill="#cbbab5" d="M 133.5,22.5 C 133.925,27.35 135.925,31.35 139.5,34.5C 142.737,40.643 145.737,46.9764 148.5,53.5C 149.167,56.5 149.833,59.5 150.5,62.5C 149.857,60.9236 148.857,59.5903 147.5,58.5C 147.167,58.5 146.833,58.5 146.5,58.5C 146.672,57.5084 146.338,56.8417 145.5,56.5C 145.5,55.8333 145.5,55.1667 145.5,54.5C 144.925,51.0458 143.258,48.3791 140.5,46.5C 140.167,45.1667 139.833,43.8333 139.5,42.5C 136.948,35.5535 133.948,28.7202 130.5,22C 130.667,21.5 130.833,21 131,20.5C 131.417,21.756 132.25,22.4226 133.5,22.5 Z"/></g>
<g><path style="opacity:0.953" fill="#d1cbb1" d="M 102.5,45.5 C 102.263,46.791 102.596,47.791 103.5,48.5C 103.842,49.3382 104.508,49.6716 105.5,49.5C 107.727,50.4006 108.727,52.0672 108.5,54.5C 108.167,54.5 107.833,54.5 107.5,54.5C 107.182,52.1816 105.848,50.8483 103.5,50.5C 101.163,51.843 99.1634,53.5096 97.5,55.5C 98.6589,51.8487 100.326,48.5154 102.5,45.5 Z"/></g>
<g><path style="opacity:1" fill="#d2d69f" d="M 76.5,54.5 C 75.1667,53.1667 73.8333,53.1667 72.5,54.5C 72.3692,50.3482 70.8692,49.6815 68,52.5C 66.9914,54.0249 66.4914,55.6916 66.5,57.5C 65.8333,57.5 65.1667,57.5 64.5,57.5C 65.4866,54.8544 66.4866,52.1878 67.5,49.5C 68.4383,48.4471 69.605,47.7804 71,47.5C 72.9206,49.7458 74.7539,52.0791 76.5,54.5 Z"/></g>
<g><path style="opacity:0.125" fill="#ebebd5" d="M 140.5,46.5 C 143.258,48.3791 144.925,51.0458 145.5,54.5C 144.167,55.1667 144.167,55.8333 145.5,56.5C 145.328,57.4916 145.662,58.1583 146.5,58.5C 146.5,61.1667 146.5,63.8333 146.5,66.5C 147.5,66.5 148.5,66.5 149.5,66.5C 149.037,63.779 148.371,61.1123 147.5,58.5C 148.857,59.5903 149.857,60.9236 150.5,62.5C 152.081,66.9234 150.415,68.5901 145.5,67.5C 145.806,64.6146 145.473,61.9479 144.5,59.5C 144.672,58.5084 144.338,57.8417 143.5,57.5C 143.167,57.5 142.833,57.5 142.5,57.5C 143.026,48.1685 139.193,45.5018 131,49.5C 129.684,52.6883 129.184,56.0217 129.5,59.5C 129.167,59.5 128.833,59.5 128.5,59.5C 126.377,49.2939 130.377,44.9606 140.5,46.5 Z M 146.5,58.5 C 146.833,58.5 147.167,58.5 147.5,58.5C 148.371,61.1123 149.037,63.779 149.5,66.5C 148.5,66.5 147.5,66.5 146.5,66.5C 146.5,63.8333 146.5,61.1667 146.5,58.5 Z"/></g>
<g><path style="opacity:0.009" fill="#eff1dd" d="M 108.5,54.5 C 109.833,54.5 111.167,54.5 112.5,54.5C 112.157,56.4832 112.824,57.8166 114.5,58.5C 113.833,59.8333 112.833,60.8333 111.5,61.5C 111.5,60.8333 111.5,60.1667 111.5,59.5C 111.762,58.0222 111.429,56.6888 110.5,55.5C 109.056,56.981 108.389,56.6477 108.5,54.5 Z"/></g>
<g><path style="opacity:0.22" fill="#e8ebcf" d="M 128.5,59.5 C 128.833,60.8333 129.167,60.8333 129.5,59.5C 130.82,61.4632 132.154,63.4632 133.5,65.5C 132.167,65.1667 130.833,64.8333 129.5,64.5C 128.233,60.1833 125.567,58.5166 121.5,59.5C 123.609,57.0243 125.943,57.0243 128.5,59.5 Z"/></g>
<g><path style="opacity:1" fill="#727c3a" d="M 142.5,57.5 C 140.298,61.5693 138.965,65.9027 138.5,70.5C 136.5,69.1667 134.833,67.5 133.5,65.5C 132.154,63.4632 130.82,61.4632 129.5,59.5C 129.184,56.0217 129.684,52.6883 131,49.5C 139.193,45.5018 143.026,48.1685 142.5,57.5 Z"/></g>
<g><path style="opacity:1" fill="#aaac7c" d="M 86.5,58.5 C 85.9569,58.56 85.6236,58.8933 85.5,59.5C 87.0863,61.1727 87.7529,63.1727 87.5,65.5C 86.8333,66.1667 86.1667,66.8333 85.5,67.5C 85.7947,65.2646 85.4614,63.2646 84.5,61.5C 84.2671,59.9382 83.6005,58.6049 82.5,57.5C 82.9169,56.8761 83.5836,56.5427 84.5,56.5C 85.7133,56.7472 86.38,57.4138 86.5,58.5 Z"/></g>
<g><path style="opacity:0.063" fill="#ecebc6" d="M 76.5,54.5 C 79.4692,55.825 82.4692,55.825 85.5,54.5C 86.8333,55.8333 88.1667,57.1667 89.5,58.5C 90.8333,57.5 92.1667,56.5 93.5,55.5C 94.865,56.8069 96.1984,56.8069 97.5,55.5C 94.8731,56.9462 92.2064,58.6128 89.5,60.5C 88.4822,59.8075 87.4822,59.1408 86.5,58.5C 86.38,57.4138 85.7133,56.7472 84.5,56.5C 83.5836,56.5427 82.9169,56.8761 82.5,57.5C 80.8008,57.6602 79.1341,57.4935 77.5,57C 76.7476,56.3292 76.4142,55.4959 76.5,54.5 Z"/></g>
<g><path style="opacity:1" fill="#becc5e" d="M 72.5,54.5 C 72.2436,56.7925 72.5769,58.9592 73.5,61C 71.8447,63.5074 71.0114,66.3408 71,69.5C 68.088,66.0128 66.588,62.0128 66.5,57.5C 66.4914,55.6916 66.9914,54.0249 68,52.5C 70.8692,49.6815 72.3692,50.3482 72.5,54.5 Z"/></g>
<g><path style="opacity:1" fill="#757834" d="M 76.5,54.5 C 76.4142,55.4959 76.7476,56.3292 77.5,57C 79.1341,57.4935 80.8008,57.6602 82.5,57.5C 83.6005,58.6049 84.2671,59.9382 84.5,61.5C 83.7797,64.0601 82.113,65.8935 79.5,67C 80.7588,69.672 80.0921,71.8386 77.5,73.5C 76.5344,75.396 76.2011,77.396 76.5,79.5C 75.6909,77.7078 75.1909,75.7078 75,73.5C 74.3292,72.7476 73.4959,72.4142 72.5,72.5C 71.0641,72.7142 69.3974,72.3809 67.5,71.5C 67.573,69.9731 66.9063,68.9731 65.5,68.5C 65.0578,64.8455 64.7244,61.1788 64.5,57.5C 65.1667,57.5 65.8333,57.5 66.5,57.5C 66.588,62.0128 68.088,66.0128 71,69.5C 71.0114,66.3408 71.8447,63.5074 73.5,61C 72.5769,58.9592 72.2436,56.7925 72.5,54.5C 73.8333,53.1667 75.1667,53.1667 76.5,54.5 Z"/></g>
<g><path style="opacity:0.137" fill="#edefd7" d="M 64.5,57.5 C 64.7244,61.1788 65.0578,64.8455 65.5,68.5C 63.4309,64.9563 63.0976,61.2896 64.5,57.5 Z"/></g>
<g><path style="opacity:1" fill="#adb57f" d="M 107.5,54.5 C 107.833,54.5 108.167,54.5 108.5,54.5C 108.389,56.6477 109.056,56.981 110.5,55.5C 111.429,56.6888 111.762,58.0222 111.5,59.5C 110.167,60.1667 110.167,60.8333 111.5,61.5C 111.643,63.2624 111.309,64.9291 110.5,66.5C 109.575,67.5624 108.575,67.5624 107.5,66.5C 107.881,64.0582 107.214,63.3915 105.5,64.5C 104.374,63.1916 104.374,61.8583 105.5,60.5C 107.074,58.8984 107.741,56.8984 107.5,54.5 Z"/></g>
<g><path style="opacity:1" fill="#7d8549" d="M 114.5,58.5 C 117,61.6491 117,64.9825 114.5,68.5C 111.921,68.3939 109.588,69.0605 107.5,70.5C 107.5,69.1667 107.5,67.8333 107.5,66.5C 108.575,67.5624 109.575,67.5624 110.5,66.5C 111.309,64.9291 111.643,63.2624 111.5,61.5C 112.833,60.8333 113.833,59.8333 114.5,58.5 Z"/></g>
<g><path style="opacity:1" fill="#bdc7a9" d="M 114.5,58.5 C 115.793,57.3552 116.959,57.6885 118,59.5C 118.147,64.4788 119.313,64.8121 121.5,60.5C 120.977,63.8898 120.143,67.2231 119,70.5C 117.989,71.3366 116.822,71.67 115.5,71.5C 115.443,70.391 115.11,69.391 114.5,68.5C 117,64.9825 117,61.6491 114.5,58.5 Z"/></g>
<g><path style="opacity:1" fill="#616336" d="M 84.5,61.5 C 85.4614,63.2646 85.7947,65.2646 85.5,67.5C 85.6716,68.4916 85.3382,69.1583 84.5,69.5C 82.5,70.8333 80.8333,72.5 79.5,74.5C 79.5,75.1667 79.5,75.8333 79.5,76.5C 79.7329,78.0618 80.3995,79.3951 81.5,80.5C 79.6431,81.7652 77.9764,81.4318 76.5,79.5C 76.2011,77.396 76.5344,75.396 77.5,73.5C 80.0921,71.8386 80.7588,69.672 79.5,67C 82.113,65.8935 83.7797,64.0601 84.5,61.5 Z"/></g>
<g><path style="opacity:1" fill="#83893f" d="M 107.5,54.5 C 107.741,56.8984 107.074,58.8984 105.5,60.5C 105.539,58.6412 104.706,57.3079 103,56.5C 100.989,60.7698 99.9891,65.1031 100,69.5C 98.4006,71.0356 96.5672,71.5356 94.5,71C 92.6769,70.0027 91.0103,68.8361 89.5,67.5C 89.1667,66.5 88.5,65.8333 87.5,65.5C 87.7529,63.1727 87.0863,61.1727 85.5,59.5C 85.6236,58.8933 85.9569,58.56 86.5,58.5C 87.4822,59.1408 88.4822,59.8075 89.5,60.5C 92.2064,58.6128 94.8731,56.9462 97.5,55.5C 99.1634,53.5096 101.163,51.843 103.5,50.5C 105.848,50.8483 107.182,52.1816 107.5,54.5 Z"/></g>
<g><path style="opacity:1" fill="#a2a77f" d="M 144.5,59.5 C 145.473,61.9479 145.806,64.6146 145.5,67.5C 150.415,68.5901 152.081,66.9234 150.5,62.5C 152.964,65.2155 155.13,64.8822 157,61.5C 157.464,62.0944 157.631,62.7611 157.5,63.5C 156.883,63.6107 156.383,63.944 156,64.5C 155.667,67.1667 155.333,69.8333 155,72.5C 154.667,72.1667 154.333,71.8333 154,71.5C 153.809,73.7078 153.309,75.7078 152.5,77.5C 151.665,76.0568 150.332,75.0568 148.5,74.5C 148.92,72.674 148.92,70.674 148.5,68.5C 147.167,68.5 145.833,68.5 144.5,68.5C 144.5,65.5 144.5,62.5 144.5,59.5 Z"/></g>
<g><path style="opacity:0.235" fill="#e2dfd3" d="M 148.5,53.5 C 150.382,56.2537 152.049,59.2537 153.5,62.5C 155.071,60.585 157.071,59.585 159.5,59.5C 159.248,63.611 158.748,67.611 158,71.5C 159.754,73.25 161.921,73.9167 164.5,73.5C 164.251,76.0021 163.917,78.5021 163.5,81C 163.454,82.728 163.954,84.228 165,85.5C 166.233,82.1259 167.4,78.7926 168.5,75.5C 168.326,78.8738 167.826,82.2072 167,85.5C 166.292,86.3805 165.458,87.0472 164.5,87.5C 161.43,84.3662 160.763,80.6995 162.5,76.5C 163.043,76.44 163.376,76.1067 163.5,75.5C 161.994,74.2528 160.494,74.2528 159,75.5C 158.333,74.8333 157.667,74.1667 157,73.5C 156.457,70.1322 156.624,66.7989 157.5,63.5C 157.631,62.7611 157.464,62.0944 157,61.5C 155.13,64.8822 152.964,65.2155 150.5,62.5C 149.833,59.5 149.167,56.5 148.5,53.5 Z"/></g>
<g><path style="opacity:1" fill="#394115" d="M 142.5,57.5 C 142.833,57.5 143.167,57.5 143.5,57.5C 144.197,62.6403 143.197,67.307 140.5,71.5C 139.508,71.6716 138.842,71.3382 138.5,70.5C 138.965,65.9027 140.298,61.5693 142.5,57.5 Z"/></g>
<g><path style="opacity:0.082" fill="#e8efd2" d="M 65.5,68.5 C 66.9063,68.9731 67.573,69.9731 67.5,71.5C 66.0937,71.0269 65.427,70.0269 65.5,68.5 Z"/></g>
<g><path style="opacity:0.09" fill="#eaeeda" d="M 179.5,82.5 C 181.458,77.5738 180.625,73.2405 177,69.5C 175.007,70.914 172.84,71.914 170.5,72.5C 172.6,69.1981 175.434,68.1981 179,69.5C 180.84,71.6808 182.007,74.1808 182.5,77C 182.387,79.3987 181.387,81.2321 179.5,82.5 Z"/></g>
<g><path style="opacity:0.039" fill="#d7e2c6" d="M 84.5,69.5 C 83.8333,72.1667 82.1667,73.8333 79.5,74.5C 80.8333,72.5 82.5,70.8333 84.5,69.5 Z"/></g>
<g><path style="opacity:1" fill="#5a5e2c" d="M 105.5,60.5 C 104.374,61.8583 104.374,63.1916 105.5,64.5C 107.214,63.3915 107.881,64.0582 107.5,66.5C 107.5,67.8333 107.5,69.1667 107.5,70.5C 107.167,71.5 106.5,72.1667 105.5,72.5C 104.694,69.5776 103.694,69.2442 102.5,71.5C 102.752,73.0729 103.418,74.4062 104.5,75.5C 104.5,76.1667 104.5,76.8333 104.5,77.5C 103.417,77.5394 102.417,77.8728 101.5,78.5C 100.749,77.624 100.249,76.624 100,75.5C 98.5944,76.6682 97.4277,76.3348 96.5,74.5C 96.9839,75.7808 96.3173,76.7808 94.5,77.5C 94.5654,77.0618 94.3988,76.7284 94,76.5C 92.0749,78.2132 89.9082,79.5465 87.5,80.5C 89.0453,81.4519 90.712,81.7852 92.5,81.5C 92.5,82.5 92.5,83.5 92.5,84.5C 90.2646,84.2053 88.2646,84.5386 86.5,85.5C 85.0047,85.5852 84.0047,84.9185 83.5,83.5C 84.2458,82.2638 84.5792,80.9305 84.5,79.5C 86.6064,76.9454 88.9398,74.6121 91.5,72.5C 90.5435,70.9246 89.8769,69.258 89.5,67.5C 91.0103,68.8361 92.6769,70.0027 94.5,71C 96.5672,71.5356 98.4006,71.0356 100,69.5C 99.9891,65.1031 100.989,60.7698 103,56.5C 104.706,57.3079 105.539,58.6412 105.5,60.5 Z"/></g>
<g><path style="opacity:0.125" fill="#dcddc6" d="M 105.5,72.5 C 105.737,73.791 105.404,74.791 104.5,75.5C 103.418,74.4062 102.752,73.0729 102.5,71.5C 103.694,69.2442 104.694,69.5776 105.5,72.5 Z"/></g>
<g><path style="opacity:1" fill="#9dae67" d="M 114.5,68.5 C 115.11,69.391 115.443,70.391 115.5,71.5C 114.883,71.3893 114.383,71.056 114,70.5C 113.235,73.1959 112.068,75.6959 110.5,78C 108.402,78.6776 106.402,78.5109 104.5,77.5C 104.5,76.8333 104.5,76.1667 104.5,75.5C 105.404,74.791 105.737,73.791 105.5,72.5C 106.5,72.1667 107.167,71.5 107.5,70.5C 109.588,69.0605 111.921,68.3939 114.5,68.5 Z"/></g>
<g><path style="opacity:1" fill="#b2b76d" d="M 67.5,71.5 C 69.3974,72.3809 71.0641,72.7142 72.5,72.5C 73.9094,74.3049 74.4094,76.3049 74,78.5C 73.2917,77.6195 72.4584,76.9528 71.5,76.5C 70.8333,76.5 70.1667,76.5 69.5,76.5C 69.6085,74.4862 68.9418,72.8195 67.5,71.5 Z"/></g>
<g><path style="opacity:1" fill="#929d66" d="M 129.5,64.5 C 125.283,64.2149 123.117,66.2149 123,70.5C 122.097,71.7014 120.931,72.5348 119.5,73C 120.745,73.7914 122.078,74.2914 123.5,74.5C 123.263,75.791 123.596,76.791 124.5,77.5C 124.631,78.2389 124.464,78.9056 124,79.5C 122.961,78.2899 121.794,77.2899 120.5,76.5C 117.355,71.1308 116.021,71.4641 116.5,77.5C 116.167,77.5 115.833,77.5 115.5,77.5C 115.5,75.5 115.5,73.5 115.5,71.5C 116.822,71.67 117.989,71.3366 119,70.5C 120.143,67.2231 120.977,63.8898 121.5,60.5C 121.5,60.1667 121.5,59.8333 121.5,59.5C 125.567,58.5166 128.233,60.1833 129.5,64.5 Z"/></g>
<g><path style="opacity:1" fill="#b1be91" d="M 120.5,76.5 C 118.599,79.2946 116.933,82.2946 115.5,85.5C 114.957,85.44 114.624,85.1067 114.5,84.5C 115.577,82.2706 116.244,79.9372 116.5,77.5C 116.021,71.4641 117.355,71.1308 120.5,76.5 Z"/></g>
<g><path style="opacity:0.255" fill="#d6dac2" d="M 170.5,72.5 C 170.5,73.1667 170.5,73.8333 170.5,74.5C 169.833,74.8333 169.167,75.1667 168.5,75.5C 168.427,73.9731 169.094,72.9731 170.5,72.5 Z"/></g>
<g><path style="opacity:0.055" fill="#edf1db" d="M 124.5,77.5 C 123.596,76.791 123.263,75.791 123.5,74.5C 123.81,73.2617 124.31,73.2617 125,74.5C 125.74,75.7494 125.573,76.7494 124.5,77.5 Z"/></g>
<g><path style="opacity:0.278" fill="#dad9b8" d="M 61.5,78.5 C 60.1851,77.5244 58.8518,76.5244 57.5,75.5C 57.1667,75.8333 56.8333,76.1667 56.5,76.5C 57.5588,78.5336 58.5588,80.5336 59.5,82.5C 55.8243,79.8059 53.8243,76.1392 53.5,71.5C 57.6465,72.1128 60.3132,74.4462 61.5,78.5 Z"/></g>
<g><path style="opacity:0.388" fill="#d4d4b7" d="M 87.5,65.5 C 88.5,65.8333 89.1667,66.5 89.5,67.5C 89.8769,69.258 90.5435,70.9246 91.5,72.5C 88.9398,74.6121 86.6064,76.9454 84.5,79.5C 83.391,79.5569 82.391,79.8902 81.5,80.5C 80.3995,79.3951 79.7329,78.0618 79.5,76.5C 80.4822,77.1408 81.4822,77.8075 82.5,78.5C 87.8286,75.5181 89.4953,71.1848 87.5,65.5 Z"/></g>
<g><path style="opacity:1" fill="#b8bba1" d="M 157.5,63.5 C 156.624,66.7989 156.457,70.1322 157,73.5C 157.667,74.1667 158.333,74.8333 159,75.5C 160.494,74.2528 161.994,74.2528 163.5,75.5C 163.376,76.1067 163.043,76.44 162.5,76.5C 162.565,76.0618 162.399,75.7284 162,75.5C 160.416,76.8613 158.582,77.528 156.5,77.5C 155.883,77.3893 155.383,77.056 155,76.5C 154.208,79.1064 152.708,81.1064 150.5,82.5C 149.167,83.1667 147.833,83.8333 146.5,84.5C 146.062,84.5654 145.728,84.3988 145.5,84C 147.729,81.5997 150.063,79.433 152.5,77.5C 153.309,75.7078 153.809,73.7078 154,71.5C 154.333,71.8333 154.667,72.1667 155,72.5C 155.333,69.8333 155.667,67.1667 156,64.5C 156.383,63.944 156.883,63.6107 157.5,63.5 Z"/></g>
<g><path style="opacity:1" fill="#7c8a47" d="M 143.5,57.5 C 144.338,57.8417 144.672,58.5084 144.5,59.5C 144.5,62.5 144.5,65.5 144.5,68.5C 145.833,68.5 147.167,68.5 148.5,68.5C 148.92,70.674 148.92,72.674 148.5,74.5C 150.332,75.0568 151.665,76.0568 152.5,77.5C 150.063,79.433 147.729,81.5997 145.5,84C 145.728,84.3988 146.062,84.5654 146.5,84.5C 146.44,85.0431 146.107,85.3764 145.5,85.5C 143.871,79.5547 140.205,76.888 134.5,77.5C 136.67,75.6667 138.67,73.6667 140.5,71.5C 143.197,67.307 144.197,62.6403 143.5,57.5 Z"/></g>
<g><path style="opacity:0.686" fill="#cfd0b1" d="M 69.5,77.5 C 68.7347,80.0961 68.4013,82.7628 68.5,85.5C 65.1447,84.1448 62.8114,81.8114 61.5,78.5C 63.4628,79.9599 65.2962,81.6266 67,83.5C 67.0367,81.0261 67.87,79.0261 69.5,77.5 Z"/></g>
<g><path style="opacity:0.235" fill="#caceae" d="M 94.5,77.5 C 94.3404,79.153 93.6737,80.4863 92.5,81.5C 90.712,81.7852 89.0453,81.4519 87.5,80.5C 89.9082,79.5465 92.0749,78.2132 94,76.5C 94.3988,76.7284 94.5654,77.0618 94.5,77.5 Z"/></g>
<g><path style="opacity:1" fill="#838e4b" d="M 115.5,71.5 C 115.5,73.5 115.5,75.5 115.5,77.5C 114.993,78.8589 113.993,79.8589 112.5,80.5C 113.705,81.9948 113.705,83.3281 112.5,84.5C 112.586,83.5041 112.252,82.6708 111.5,82C 107.305,81.6683 103.305,80.835 99.5,79.5C 98.8106,78.2264 97.9772,78.2264 97,79.5C 96.3425,82.2848 95.5091,84.9514 94.5,87.5C 92.1998,85.7982 89.5331,85.1315 86.5,85.5C 88.2646,84.5386 90.2646,84.2053 92.5,84.5C 92.5,83.5 92.5,82.5 92.5,81.5C 93.6737,80.4863 94.3404,79.153 94.5,77.5C 96.3173,76.7808 96.9839,75.7808 96.5,74.5C 97.4277,76.3348 98.5944,76.6682 100,75.5C 100.249,76.624 100.749,77.624 101.5,78.5C 102.417,77.8728 103.417,77.5394 104.5,77.5C 106.402,78.5109 108.402,78.6776 110.5,78C 112.068,75.6959 113.235,73.1959 114,70.5C 114.383,71.056 114.883,71.3893 115.5,71.5 Z"/></g>
<g><path style="opacity:1" fill="#888e42" d="M 72.5,72.5 C 73.4959,72.4142 74.3292,72.7476 75,73.5C 75.1909,75.7078 75.6909,77.7078 76.5,79.5C 77.9764,81.4318 79.6431,81.7652 81.5,80.5C 82.391,79.8902 83.391,79.5569 84.5,79.5C 84.5792,80.9305 84.2458,82.2638 83.5,83.5C 84.0047,84.9185 85.0047,85.5852 86.5,85.5C 86.5,86.1667 86.5,86.8333 86.5,87.5C 84.9557,87.2969 83.6223,86.6302 82.5,85.5C 81.8933,85.6236 81.56,85.9569 81.5,86.5C 77.522,82.3488 75.522,83.3488 75.5,89.5C 73.5168,89.1568 72.1834,89.8235 71.5,91.5C 70.3303,89.7215 68.6636,88.7215 66.5,88.5C 65.5084,88.6716 64.8417,88.3382 64.5,87.5C 66.4147,87.7845 68.0813,87.4511 69.5,86.5C 70.9778,86.762 72.3112,86.4287 73.5,85.5C 72.0668,82.667 71.4001,79.667 71.5,76.5C 72.4584,76.9528 73.2917,77.6195 74,78.5C 74.4094,76.3049 73.9094,74.3049 72.5,72.5 Z"/></g>
<g><path style="opacity:1" fill="#495022" d="M 129.5,64.5 C 130.833,64.8333 132.167,65.1667 133.5,65.5C 134.833,67.5 136.5,69.1667 138.5,70.5C 138.842,71.3382 139.508,71.6716 140.5,71.5C 138.67,73.6667 136.67,75.6667 134.5,77.5C 133.209,78.5417 133.209,79.7083 134.5,81C 133.212,81.2387 132.212,80.7387 131.5,79.5C 129.694,76.6618 128.694,76.9952 128.5,80.5C 122.453,82.7218 118.62,87.0552 117,93.5C 116.546,91.4636 115.713,89.6303 114.5,88C 114.743,87.0979 115.077,86.2646 115.5,85.5C 116.933,82.2946 118.599,79.2946 120.5,76.5C 121.794,77.2899 122.961,78.2899 124,79.5C 124.464,78.9056 124.631,78.2389 124.5,77.5C 125.573,76.7494 125.74,75.7494 125,74.5C 124.31,73.2617 123.81,73.2617 123.5,74.5C 122.078,74.2914 120.745,73.7914 119.5,73C 120.931,72.5348 122.097,71.7014 123,70.5C 123.117,66.2149 125.283,64.2149 129.5,64.5 Z"/></g>
<g><path style="opacity:0.051" fill="#dfe0bf" d="M 59.5,82.5 C 61.5,83.8333 63.1667,85.5 64.5,87.5C 61.8333,86.8333 60.1667,85.1667 59.5,82.5 Z"/></g>
<g><path style="opacity:1" fill="#6d7140" d="M 61.5,78.5 C 62.8114,81.8114 65.1447,84.1448 68.5,85.5C 69.1667,85.5 69.5,85.8333 69.5,86.5C 68.0813,87.4511 66.4147,87.7845 64.5,87.5C 63.1667,85.5 61.5,83.8333 59.5,82.5C 58.5588,80.5336 57.5588,78.5336 56.5,76.5C 56.8333,76.1667 57.1667,75.8333 57.5,75.5C 58.8518,76.5244 60.1851,77.5244 61.5,78.5 Z"/></g>
<g><path style="opacity:1" fill="#888b66" d="M 162.5,76.5 C 160.763,80.6995 161.43,84.3662 164.5,87.5C 164.44,88.0431 164.107,88.3764 163.5,88.5C 162.186,87.6872 161.019,86.6872 160,85.5C 159.998,82.9488 159.164,80.9488 157.5,79.5C 157.167,78.8333 156.833,78.1667 156.5,77.5C 158.582,77.528 160.416,76.8613 162,75.5C 162.399,75.7284 162.565,76.0618 162.5,76.5 Z"/></g>
<g><path style="opacity:1" fill="#40441e" d="M 69.5,76.5 C 70.1667,76.5 70.8333,76.5 71.5,76.5C 71.4001,79.667 72.0668,82.667 73.5,85.5C 72.3112,86.4287 70.9778,86.762 69.5,86.5C 69.5,85.8333 69.1667,85.5 68.5,85.5C 68.4013,82.7628 68.7347,80.0961 69.5,77.5C 69.5,77.1667 69.5,76.8333 69.5,76.5 Z"/></g>
<g><path style="opacity:1" fill="#6f773d" d="M 179.5,82.5 C 178.305,82.8656 177.639,83.699 177.5,85C 178,86.5 178.5,88 179,89.5C 180.609,90.1466 182.109,90.98 183.5,92C 182.101,92.5946 180.768,92.4279 179.5,91.5C 176.852,93.4424 174.185,93.7757 171.5,92.5C 172.147,91.7261 172.48,90.7261 172.5,89.5C 170.65,86.7961 169.65,83.7961 169.5,80.5C 173.648,79.5989 175.981,76.9322 176.5,72.5C 173.405,72.6263 171.572,74.293 171,77.5C 170.517,76.552 170.351,75.552 170.5,74.5C 170.5,73.8333 170.5,73.1667 170.5,72.5C 172.84,71.914 175.007,70.914 177,69.5C 180.625,73.2405 181.458,77.5738 179.5,82.5 Z"/></g>
<g><path style="opacity:1" fill="#7b7e35" d="M 81.5,86.5 C 83.14,89.1492 84.8067,91.8159 86.5,94.5C 87.4519,92.9547 87.7852,91.288 87.5,89.5C 88.3092,91.0276 88.9759,92.6943 89.5,94.5C 87.0181,96.5027 86.0181,99.1694 86.5,102.5C 85.017,100.906 83.517,99.2395 82,97.5C 81.5357,98.0944 81.369,98.7611 81.5,99.5C 77.7623,97.303 74.429,94.6363 71.5,91.5C 72.1834,89.8235 73.5168,89.1568 75.5,89.5C 75.522,83.3488 77.522,82.3488 81.5,86.5 Z"/></g>
<g><path style="opacity:0.161" fill="#dadbbd" d="M 86.5,85.5 C 89.5331,85.1315 92.1998,85.7982 94.5,87.5C 93.9216,90.2804 93.2549,92.9471 92.5,95.5C 91.8333,95.5 91.5,95.1667 91.5,94.5C 90.8333,94.5 90.1667,94.5 89.5,94.5C 88.9759,92.6943 88.3092,91.0276 87.5,89.5C 87.6716,88.5084 87.3382,87.8417 86.5,87.5C 86.5,86.8333 86.5,86.1667 86.5,85.5 Z M 91.5,94.5 C 90.3124,92.2779 89.3124,89.9446 88.5,87.5C 89.6507,86.269 90.8173,86.269 92,87.5C 92.7958,90.0385 92.6291,92.3718 91.5,94.5 Z"/></g>
<g><path style="opacity:1" fill="#58622a" d="M 134.5,77.5 C 140.205,76.888 143.871,79.5547 145.5,85.5C 146.107,85.3764 146.44,85.0431 146.5,84.5C 147.833,83.8333 149.167,83.1667 150.5,82.5C 150.193,86.7145 147.86,88.7145 143.5,88.5C 142.336,88.8346 141.003,88.8346 139.5,88.5C 138.833,88.5 138.167,88.5 137.5,88.5C 138.509,87.0609 138.176,85.7276 136.5,84.5C 135.614,85.325 135.281,86.325 135.5,87.5C 134.883,87.6107 134.383,87.944 134,88.5C 132.618,86.5578 130.785,85.2245 128.5,84.5C 129.263,82.6316 130.263,80.9649 131.5,79.5C 132.212,80.7387 133.212,81.2387 134.5,81C 133.209,79.7083 133.209,78.5417 134.5,77.5 Z"/></g>
<g><path style="opacity:0.118" fill="#d7dac3" d="M 137.5,88.5 C 136.508,88.6716 135.842,88.3382 135.5,87.5C 135.281,86.325 135.614,85.325 136.5,84.5C 138.176,85.7276 138.509,87.0609 137.5,88.5 Z"/></g>
<g><path style="opacity:1" fill="#a7ac4b" d="M 86.5,87.5 C 87.3382,87.8417 87.6716,88.5084 87.5,89.5C 87.7852,91.288 87.4519,92.9547 86.5,94.5C 84.8067,91.8159 83.14,89.1492 81.5,86.5C 81.56,85.9569 81.8933,85.6236 82.5,85.5C 83.6223,86.6302 84.9557,87.2969 86.5,87.5 Z"/></g>
<g><path style="opacity:1" fill="#868f3f" d="M 99.5,79.5 C 103.305,80.835 107.305,81.6683 111.5,82C 112.252,82.6708 112.586,83.5041 112.5,84.5C 112.018,85.4163 111.685,86.4163 111.5,87.5C 113.195,88.8302 114.195,91.1636 114.5,94.5C 113.21,93.9423 112.377,92.9423 112,91.5C 111.517,92.448 111.351,93.448 111.5,94.5C 110.5,94.5 109.5,94.5 108.5,94.5C 108.721,93.2652 109.388,92.2652 110.5,91.5C 108.997,89.5784 106.997,88.4117 104.5,88C 102.938,83.9197 101.438,83.7531 100,87.5C 98.1884,84.9543 98.0217,82.2877 99.5,79.5 Z"/></g>
<g><path style="opacity:1" fill="#313a19" d="M 156.5,77.5 C 156.833,78.1667 157.167,78.8333 157.5,79.5C 156.938,82.546 156.271,85.546 155.5,88.5C 154.167,89.1667 152.833,89.8333 151.5,90.5C 149.135,91.0084 146.801,91.6751 144.5,92.5C 143.614,91.675 143.281,90.675 143.5,89.5C 143.5,89.1667 143.5,88.8333 143.5,88.5C 147.86,88.7145 150.193,86.7145 150.5,82.5C 152.708,81.1064 154.208,79.1064 155,76.5C 155.383,77.056 155.883,77.3893 156.5,77.5 Z"/></g>
<g><path style="opacity:1" fill="#57612d" d="M 171.5,92.5 C 170.21,91.9423 169.377,90.9423 169,89.5C 168.487,90.5266 167.987,91.5266 167.5,92.5C 165.64,93.9387 163.973,95.6053 162.5,97.5C 161.833,97.5 161.5,97.8333 161.5,98.5C 158.805,100.179 156.305,102.179 154,104.5C 153.056,103.737 152.556,102.737 152.5,101.5C 153.228,99.8453 153.395,98.1786 153,96.5C 152.243,98.3146 151.41,99.9812 150.5,101.5C 150.5,99.8333 150.5,98.1667 150.5,96.5C 146.349,96.0993 143.015,97.4326 140.5,100.5C 139.903,100.265 139.57,99.7648 139.5,99C 140.272,97.779 141.272,96.779 142.5,96C 141.833,95.6667 141.167,95.3333 140.5,95C 141.229,92.9419 142.229,91.1086 143.5,89.5C 143.281,90.675 143.614,91.675 144.5,92.5C 146.801,91.6751 149.135,91.0084 151.5,90.5C 151.489,92.0174 150.823,93.1841 149.5,94C 151.367,94.7112 152.867,94.2112 154,92.5C 154.464,93.0944 154.631,93.7611 154.5,94.5C 154.337,96.8568 154.503,99.1902 155,101.5C 157.203,99.3312 158.036,96.6646 157.5,93.5C 157.923,91.2188 157.256,89.5521 155.5,88.5C 156.271,85.546 156.938,82.546 157.5,79.5C 159.164,80.9488 159.998,82.9488 160,85.5C 161.019,86.6872 162.186,87.6872 163.5,88.5C 164.107,88.3764 164.44,88.0431 164.5,87.5C 165.458,87.0472 166.292,86.3805 167,85.5C 167.826,82.2072 168.326,78.8738 168.5,75.5C 169.167,75.1667 169.833,74.8333 170.5,74.5C 170.351,75.552 170.517,76.552 171,77.5C 171.572,74.293 173.405,72.6263 176.5,72.5C 175.981,76.9322 173.648,79.5989 169.5,80.5C 169.65,83.7961 170.65,86.7961 172.5,89.5C 172.48,90.7261 172.147,91.7261 171.5,92.5 Z"/></g>
<g><path style="opacity:1" fill="#747d3e" d="M 115.5,77.5 C 115.833,77.5 116.167,77.5 116.5,77.5C 116.244,79.9372 115.577,82.2706 114.5,84.5C 114.624,85.1067 114.957,85.44 115.5,85.5C 115.077,86.2646 114.743,87.0979 114.5,88C 115.713,89.6303 116.546,91.4636 117,93.5C 118.62,87.0552 122.453,82.7218 128.5,80.5C 128.694,76.9952 129.694,76.6618 131.5,79.5C 130.263,80.9649 129.263,82.6316 128.5,84.5C 124.84,89.1598 120.84,93.4931 116.5,97.5C 116.218,96.2223 115.551,95.2223 114.5,94.5C 114.195,91.1636 113.195,88.8302 111.5,87.5C 111.685,86.4163 112.018,85.4163 112.5,84.5C 113.705,83.3281 113.705,81.9948 112.5,80.5C 113.993,79.8589 114.993,78.8589 115.5,77.5 Z"/></g>
<g><path style="opacity:1" fill="#616d2d" d="M 99.5,79.5 C 98.0217,82.2877 98.1884,84.9543 100,87.5C 101.438,83.7531 102.938,83.9197 104.5,88C 106.997,88.4117 108.997,89.5784 110.5,91.5C 109.388,92.2652 108.721,93.2652 108.5,94.5C 108.5,94.8333 108.5,95.1667 108.5,95.5C 105.763,95.5987 103.096,95.2653 100.5,94.5C 100.249,92.8297 99.5822,91.3297 98.5,90C 98.8333,89.6667 99.1667,89.3333 99.5,89C 97.7525,88.6481 96.0858,88.1481 94.5,87.5C 95.5091,84.9514 96.3425,82.2848 97,79.5C 97.9772,78.2264 98.8106,78.2264 99.5,79.5 Z"/></g>
<g><path style="opacity:1" fill="#8f995c" d="M 155.5,88.5 C 157.256,89.5521 157.923,91.2188 157.5,93.5C 156.391,93.5569 155.391,93.8902 154.5,94.5C 154.631,93.7611 154.464,93.0944 154,92.5C 152.867,94.2112 151.367,94.7112 149.5,94C 150.823,93.1841 151.489,92.0174 151.5,90.5C 152.833,89.8333 154.167,89.1667 155.5,88.5 Z"/></g>
<g><path style="opacity:0.039" fill="#eeeedd" d="M 179.5,82.5 C 179.34,84.1992 179.506,85.8659 180,87.5C 182.391,88.4291 184.225,89.9291 185.5,92C 184.968,94.0197 183.635,94.853 181.5,94.5C 181.657,95.8734 181.49,97.2068 181,98.5C 178.767,100.733 176.6,102.9 174.5,105C 176.123,108.035 177.457,111.201 178.5,114.5C 177.833,114.167 177.167,113.833 176.5,113.5C 175.317,110.297 173.984,107.13 172.5,104C 174.839,101.161 177.506,98.6615 180.5,96.5C 180.167,96.1667 179.833,95.8333 179.5,95.5C 177.473,96.5133 175.473,97.5133 173.5,98.5C 171.544,100.175 170.211,99.8418 169.5,97.5C 168.463,96.0697 167.796,94.403 167.5,92.5C 167.987,91.5266 168.487,90.5266 169,89.5C 169.377,90.9423 170.21,91.9423 171.5,92.5C 174.185,93.7757 176.852,93.4424 179.5,91.5C 180.768,92.4279 182.101,92.5946 183.5,92C 182.109,90.98 180.609,90.1466 179,89.5C 178.5,88 178,86.5 177.5,85C 177.639,83.699 178.305,82.8656 179.5,82.5 Z M 169.5,97.5 C 169.248,93.1787 170.915,92.6787 174.5,96C 173.095,97.2692 171.429,97.7692 169.5,97.5 Z"/></g>
<g><path style="opacity:1" fill="#3b441c" d="M 128.5,84.5 C 130.785,85.2245 132.618,86.5578 134,88.5C 134.383,87.944 134.883,87.6107 135.5,87.5C 135.842,88.3382 136.508,88.6716 137.5,88.5C 138.167,88.5 138.833,88.5 139.5,88.5C 139.628,90.6547 139.128,92.6547 138,94.5C 134.693,92.0626 131.193,92.2293 127.5,95C 126.177,95.8159 125.511,96.9826 125.5,98.5C 121.875,100.36 120.208,103.027 120.5,106.5C 120.389,107.117 120.056,107.617 119.5,108C 120.571,108.852 121.571,109.685 122.5,110.5C 120.833,110.5 119.167,110.5 117.5,110.5C 116.245,106.155 115.911,101.822 116.5,97.5C 120.84,93.4931 124.84,89.1598 128.5,84.5 Z"/></g>
<g><path style="opacity:0.082" fill="#ccd5c4" d="M 128.5,86.5 C 129.532,88.503 129.198,90.503 127.5,92.5C 126.5,92.1667 125.833,91.5 125.5,90.5C 126.524,89.1482 127.524,87.8149 128.5,86.5 Z"/></g>
<g><path style="opacity:1" fill="#686d3f" d="M 94.5,87.5 C 96.0858,88.1481 97.7525,88.6481 99.5,89C 99.1667,89.3333 98.8333,89.6667 98.5,90C 99.5822,91.3297 100.249,92.8297 100.5,94.5C 101.511,96.4024 101.678,98.4024 101,100.5C 100.583,99.244 99.7498,98.5774 98.5,98.5C 99.172,95.0921 98.172,92.4255 95.5,90.5C 94.3664,92.4385 94.6997,94.1052 96.5,95.5C 96.5,96.5 96.5,97.5 96.5,98.5C 93.6623,99.1705 91.1623,100.504 89,102.5C 88.3333,101.833 88.3333,101.167 89,100.5C 90.586,99.624 92.086,98.624 93.5,97.5C 93.1373,96.8165 92.8039,96.1499 92.5,95.5C 93.2549,92.9471 93.9216,90.2804 94.5,87.5 Z"/></g>
<g><path style="opacity:0.125" fill="#dfe0c7" d="M 98.5,98.5 C 97.8333,98.5 97.1667,98.5 96.5,98.5C 96.5,97.5 96.5,96.5 96.5,95.5C 94.6997,94.1052 94.3664,92.4385 95.5,90.5C 98.172,92.4255 99.172,95.0921 98.5,98.5 Z"/></g>
<g><path style="opacity:1" fill="#768444" d="M 143.5,88.5 C 143.5,88.8333 143.5,89.1667 143.5,89.5C 142.229,91.1086 141.229,92.9419 140.5,95C 141.167,95.3333 141.833,95.6667 142.5,96C 141.272,96.779 140.272,97.779 139.5,99C 139.57,99.7648 139.903,100.265 140.5,100.5C 140.842,101.338 141.508,101.672 142.5,101.5C 139.914,102.415 137.914,104.082 136.5,106.5C 136.937,103.193 136.27,100.193 134.5,97.5C 132.184,98.4963 130.517,100.163 129.5,102.5C 128.667,101.5 127.833,100.5 127,99.5C 125.893,100.712 125.393,100.379 125.5,98.5C 125.511,96.9826 126.177,95.8159 127.5,95C 131.193,92.2293 134.693,92.0626 138,94.5C 139.128,92.6547 139.628,90.6547 139.5,88.5C 141.003,88.8346 142.336,88.8346 143.5,88.5 Z"/></g>
<g><path style="opacity:0.165" fill="#e0e3cd" d="M 157.5,93.5 C 158.036,96.6646 157.203,99.3312 155,101.5C 154.503,99.1902 154.337,96.8568 154.5,94.5C 155.391,93.8902 156.391,93.5569 157.5,93.5 Z"/></g>
<g><path style="opacity:1" fill="#2a3516" d="M 150.5,101.5 C 149.895,103.481 148.895,103.815 147.5,102.5C 146.081,101.549 144.415,101.216 142.5,101.5C 141.508,101.672 140.842,101.338 140.5,100.5C 143.015,97.4326 146.349,96.0993 150.5,96.5C 150.5,98.1667 150.5,99.8333 150.5,101.5 Z"/></g>
<g><path style="opacity:0.902" fill="#a7a98f" d="M 176.5,113.5 C 176.167,113.5 175.833,113.5 175.5,113.5C 175.167,113.5 174.833,113.5 174.5,113.5C 173.372,109.91 171.705,106.577 169.5,103.5C 167.955,102.548 166.288,102.215 164.5,102.5C 163.5,102.5 162.5,102.5 161.5,102.5C 160.833,102.5 160.167,102.5 159.5,102.5C 163.312,101.676 167.312,101.176 171.5,101C 173.935,100.925 174.602,100.092 173.5,98.5C 175.473,97.5133 177.473,96.5133 179.5,95.5C 179.833,95.8333 180.167,96.1667 180.5,96.5C 177.506,98.6615 174.839,101.161 172.5,104C 173.984,107.13 175.317,110.297 176.5,113.5 Z"/></g>
<g><path style="opacity:0.714" fill="#d1cbbb" d="M 74.5,98.5 C 75.791,98.2627 76.791,98.596 77.5,99.5C 76.914,101.84 75.914,104.007 74.5,106C 75.9423,106.377 76.9423,107.21 77.5,108.5C 73.3418,107.328 69.6751,105.328 66.5,102.5C 67.9305,102.421 69.2638,102.754 70.5,103.5C 71.8872,101.79 73.2206,100.123 74.5,98.5 Z"/></g>
<g><path style="opacity:1" fill="#b8ba6a" d="M 86.5,102.5 C 86.8333,103.5 87.5,104.167 88.5,104.5C 89.9371,108.22 91.2704,111.886 92.5,115.5C 92.5,116.833 92.5,118.167 92.5,119.5C 91.5,119.5 90.5,119.5 89.5,119.5C 89.6347,117.446 88.968,115.779 87.5,114.5C 87.5,113.833 87.5,113.167 87.5,112.5C 86.2895,107.749 84.2895,103.416 81.5,99.5C 81.369,98.7611 81.5357,98.0944 82,97.5C 83.517,99.2395 85.017,100.906 86.5,102.5 Z"/></g>
<g><path style="opacity:1" fill="#525724" d="M 89.5,94.5 C 90.1667,94.5 90.8333,94.5 91.5,94.5C 91.5,95.1667 91.8333,95.5 92.5,95.5C 92.8039,96.1499 93.1373,96.8165 93.5,97.5C 92.086,98.624 90.586,99.624 89,100.5C 88.3333,101.167 88.3333,101.833 89,102.5C 91.1623,100.504 93.6623,99.1705 96.5,98.5C 97.1667,98.5 97.8333,98.5 98.5,98.5C 99.7498,98.5774 100.583,99.244 101,100.5C 101.678,98.4024 101.511,96.4024 100.5,94.5C 103.096,95.2653 105.763,95.5987 108.5,95.5C 110.323,96.4933 111.656,97.9933 112.5,100C 111.419,101.371 110.585,102.871 110,104.5C 108.698,105.085 107.531,105.751 106.5,106.5C 106.5,107.167 106.167,107.5 105.5,107.5C 104.265,107.279 103.265,106.612 102.5,105.5C 101.943,107.332 100.943,108.665 99.5,109.5C 98.8333,109.5 98.1667,109.5 97.5,109.5C 96.3129,108.466 95.4796,107.133 95,105.5C 92.5359,106.909 90.3692,106.576 88.5,104.5C 87.5,104.167 86.8333,103.5 86.5,102.5C 86.0181,99.1694 87.0181,96.5027 89.5,94.5 Z"/></g>
<g><path style="opacity:1" fill="#5a642f" d="M 136.5,106.5 C 133.298,103.941 131.631,104.941 131.5,109.5C 133.167,109.5 134.833,109.5 136.5,109.5C 136.5,110.5 136.5,111.5 136.5,112.5C 133.789,112.185 131.456,112.852 129.5,114.5C 128.232,112.613 126.399,111.613 124,111.5C 122.624,111.684 121.791,112.351 121.5,113.5C 119.186,114.179 118.853,115.512 120.5,117.5C 119.667,119.167 118.833,120.833 118,122.5C 117.781,121.062 117.281,119.729 116.5,118.5C 114.91,120.146 113.91,122.146 113.5,124.5C 111.302,124.591 110.969,123.925 112.5,122.5C 114.411,118.696 116.078,114.696 117.5,110.5C 119.167,110.5 120.833,110.5 122.5,110.5C 124.857,110.663 127.19,110.497 129.5,110C 130.517,108.951 130.684,107.784 130,106.5C 128.287,105.122 126.953,103.455 126,101.5C 125.248,104.421 123.415,106.087 120.5,106.5C 120.208,103.027 121.875,100.36 125.5,98.5C 125.393,100.379 125.893,100.712 127,99.5C 127.833,100.5 128.667,101.5 129.5,102.5C 130.517,100.163 132.184,98.4963 134.5,97.5C 136.27,100.193 136.937,103.193 136.5,106.5 Z"/></g>
<g><path style="opacity:0.133" fill="#f2f0d7" d="M 64.5,101.5 C 62.8008,101.34 61.1341,101.506 59.5,102C 62.6902,104.364 65.6902,106.864 68.5,109.5C 67.9213,112.331 66.588,114.664 64.5,116.5C 65.9279,113.988 66.4279,111.322 66,108.5C 62.9964,106.326 60.1631,103.992 57.5,101.5C 57.8869,100.28 58.7202,99.6135 60,99.5C 61.7275,99.899 63.2275,100.566 64.5,101.5 Z"/></g>
<g><path style="opacity:1" fill="#96a358" d="M 142.5,101.5 C 144.415,101.216 146.081,101.549 147.5,102.5C 147.5,103.167 147.5,103.833 147.5,104.5C 146.833,105.5 146.167,106.5 145.5,107.5C 142.91,107.918 140.577,108.918 138.5,110.5C 137.817,110.137 137.15,109.804 136.5,109.5C 134.833,109.5 133.167,109.5 131.5,109.5C 131.631,104.941 133.298,103.941 136.5,106.5C 137.914,104.082 139.914,102.415 142.5,101.5 Z"/></g>
<g><path style="opacity:1" fill="#83874f" d="M 167.5,92.5 C 167.796,94.403 168.463,96.0697 169.5,97.5C 170.211,99.8418 171.544,100.175 173.5,98.5C 174.602,100.092 173.935,100.925 171.5,101C 167.312,101.176 163.312,101.676 159.5,102.5C 158.711,102.783 158.044,103.283 157.5,104C 160.047,106.054 162.714,107.887 165.5,109.5C 166.607,112.636 166.607,115.469 165.5,118C 169.114,118.936 172.78,119.436 176.5,119.5C 176.167,117.5 175.833,115.5 175.5,113.5C 175.833,113.5 176.167,113.5 176.5,113.5C 177.379,115.228 178.046,117.061 178.5,119C 178.049,122.641 176.215,123.474 173,121.5C 169.473,123.449 165.973,123.783 162.5,122.5C 162.938,122.565 163.272,122.399 163.5,122C 161.681,121.26 160.348,120.093 159.5,118.5C 161.385,116.947 162.385,114.947 162.5,112.5C 163.151,113.091 163.818,113.757 164.5,114.5C 165.521,113.998 165.688,113.332 165,112.5C 162.888,109.716 160.221,107.716 157,106.5C 152.046,110.298 152.546,112.632 158.5,113.5C 158.167,114.5 157.5,115.167 156.5,115.5C 156.265,114.903 155.765,114.57 155,114.5C 152.747,115.377 150.581,116.377 148.5,117.5C 148.119,116.069 147.119,115.236 145.5,115C 149.637,112.572 151.471,109.072 151,104.5C 149.607,107.125 148.441,107.125 147.5,104.5C 147.5,103.833 147.5,103.167 147.5,102.5C 148.895,103.815 149.895,103.481 150.5,101.5C 151.41,99.9812 152.243,98.3146 153,96.5C 153.395,98.1786 153.228,99.8453 152.5,101.5C 152.556,102.737 153.056,103.737 154,104.5C 156.305,102.179 158.805,100.179 161.5,98.5C 162.99,100.28 164.99,100.946 167.5,100.5C 167.504,96.6696 165.838,95.6696 162.5,97.5C 163.973,95.6053 165.64,93.9387 167.5,92.5 Z M 156.5,108.5 C 161.659,109.36 162.159,110.694 158,112.5C 157.25,111.874 156.416,111.374 155.5,111C 156.252,110.329 156.586,109.496 156.5,108.5 Z"/></g>
<g><path style="opacity:0.827" fill="#d7d6ae" d="M 161.5,98.5 C 161.5,97.8333 161.833,97.5 162.5,97.5C 165.838,95.6696 167.504,96.6696 167.5,100.5C 164.99,100.946 162.99,100.28 161.5,98.5 Z"/></g>
<g><path style="opacity:0.184" fill="#e6e8c2" d="M 66.5,88.5 C 68.6636,88.7215 70.3303,89.7215 71.5,91.5C 74.429,94.6363 77.7623,97.303 81.5,99.5C 84.2895,103.416 86.2895,107.749 87.5,112.5C 83.5252,112.514 80.1918,111.181 77.5,108.5C 80.1922,109.009 82.6922,110.009 85,111.5C 84.7848,106.069 82.2848,102.069 77.5,99.5C 76.791,98.596 75.791,98.2627 74.5,98.5C 71.5074,95.4988 68.8407,92.1654 66.5,88.5 Z"/></g>
<g><path style="opacity:1" fill="#a2b457" d="M 114.5,94.5 C 115.551,95.2223 116.218,96.2223 116.5,97.5C 115.325,97.281 114.325,97.6143 113.5,98.5C 114.372,100.45 115.039,102.45 115.5,104.5C 114.621,106.23 113.288,107.563 111.5,108.5C 109.944,107.453 108.277,106.786 106.5,106.5C 107.531,105.751 108.698,105.085 110,104.5C 110.585,102.871 111.419,101.371 112.5,100C 111.656,97.9933 110.323,96.4933 108.5,95.5C 108.5,95.1667 108.5,94.8333 108.5,94.5C 109.5,94.5 110.5,94.5 111.5,94.5C 111.351,93.448 111.517,92.448 112,91.5C 112.377,92.9423 113.21,93.9423 114.5,94.5 Z"/></g>
<g><path style="opacity:1" fill="#1d240d" d="M 122.5,110.5 C 121.571,109.685 120.571,108.852 119.5,108C 120.056,107.617 120.389,107.117 120.5,106.5C 123.415,106.087 125.248,104.421 126,101.5C 126.953,103.455 128.287,105.122 130,106.5C 130.684,107.784 130.517,108.951 129.5,110C 127.19,110.497 124.857,110.663 122.5,110.5 Z"/></g>
<g><path style="opacity:0.196" fill="#ecebd0" d="M 159.5,102.5 C 160.167,102.5 160.833,102.5 161.5,102.5C 163.499,106.435 166.666,109.101 171,110.5C 170.524,106.519 168.358,103.852 164.5,102.5C 166.288,102.215 167.955,102.548 169.5,103.5C 171.705,106.577 173.372,109.91 174.5,113.5C 171.378,112.439 168.378,111.105 165.5,109.5C 162.714,107.887 160.047,106.054 157.5,104C 158.044,103.283 158.711,102.783 159.5,102.5 Z M 161.5,102.5 C 162.5,102.5 163.5,102.5 164.5,102.5C 168.358,103.852 170.524,106.519 171,110.5C 166.666,109.101 163.499,106.435 161.5,102.5 Z"/></g>
<g><path style="opacity:0.118" fill="#e7e9cb" d="M 162.5,112.5 C 161.041,112.433 159.708,112.766 158.5,113.5C 152.546,112.632 152.046,110.298 157,106.5C 160.221,107.716 162.888,109.716 165,112.5C 165.688,113.332 165.521,113.998 164.5,114.5C 163.818,113.757 163.151,113.091 162.5,112.5 Z M 156.5,108.5 C 156.586,109.496 156.252,110.329 155.5,111C 156.416,111.374 157.25,111.874 158,112.5C 162.159,110.694 161.659,109.36 156.5,108.5 Z"/></g>
<g><path style="opacity:0.157" fill="#f0f4d5" d="M 97.5,109.5 C 98.1667,109.5 98.8333,109.5 99.5,109.5C 99.6716,110.492 99.3382,111.158 98.5,111.5C 97.3774,110.243 96.7107,110.576 96.5,112.5C 96.1667,112.5 95.8333,112.5 95.5,112.5C 95.2852,110.821 95.9519,109.821 97.5,109.5 Z"/></g>
<g><path style="opacity:1" fill="#6e7433" d="M 116.5,97.5 C 115.911,101.822 116.245,106.155 117.5,110.5C 116.078,114.696 114.411,118.696 112.5,122.5C 112.565,122.062 112.399,121.728 112,121.5C 109.951,122.714 108.451,124.38 107.5,126.5C 105.518,126.005 103.518,125.505 101.5,125C 104.304,122.27 107.638,120.27 111.5,119C 108.635,118.817 105.969,118.317 103.5,117.5C 105.833,117.5 108.167,117.5 110.5,117.5C 110.5,115.5 110.5,113.5 110.5,111.5C 112.167,111.5 113.833,111.5 115.5,111.5C 115.5,109.167 115.5,106.833 115.5,104.5C 115.039,102.45 114.372,100.45 113.5,98.5C 114.325,97.6143 115.325,97.281 116.5,97.5 Z"/></g>
<g><path style="opacity:1" fill="#7e7e45" d="M 64.5,101.5 C 65.4916,101.328 66.1583,101.662 66.5,102.5C 69.6751,105.328 73.3418,107.328 77.5,108.5C 80.1918,111.181 83.5252,112.514 87.5,112.5C 87.5,113.167 87.5,113.833 87.5,114.5C 82.7971,114.563 78.1304,114.229 73.5,113.5C 71.6508,112.407 69.9842,111.074 68.5,109.5C 65.6902,106.864 62.6902,104.364 59.5,102C 61.1341,101.506 62.8008,101.34 64.5,101.5 Z"/></g>
<g><path style="opacity:1" fill="#848342" d="M 88.5,104.5 C 90.3692,106.576 92.5359,106.909 95,105.5C 95.4796,107.133 96.3129,108.466 97.5,109.5C 95.9519,109.821 95.2852,110.821 95.5,112.5C 95.5,113.167 95.5,113.833 95.5,114.5C 93.6701,110.392 92.6701,110.725 92.5,115.5C 91.2704,111.886 89.9371,108.22 88.5,104.5 Z"/></g>
<g><path style="opacity:1" fill="#87953f" d="M 115.5,104.5 C 115.5,106.833 115.5,109.167 115.5,111.5C 113.833,111.5 112.167,111.5 110.5,111.5C 110.5,113.5 110.5,115.5 110.5,117.5C 108.167,117.5 105.833,117.5 103.5,117.5C 102.5,117.5 101.5,117.5 100.5,117.5C 100.443,113.245 102.109,109.912 105.5,107.5C 106.167,107.5 106.5,107.167 106.5,106.5C 108.277,106.786 109.944,107.453 111.5,108.5C 113.288,107.563 114.621,106.23 115.5,104.5 Z"/></g>
<g><path style="opacity:1" fill="#a4ac58" d="M 129.5,114.5 C 129.5,114.833 129.5,115.167 129.5,115.5C 127.833,115.5 126.167,115.5 124.5,115.5C 122.973,115.573 121.973,114.906 121.5,113.5C 121.791,112.351 122.624,111.684 124,111.5C 126.399,111.613 128.232,112.613 129.5,114.5 Z"/></g>
<g><path style="opacity:1" fill="#3b4320" d="M 145.5,107.5 C 145.938,107.435 146.272,107.601 146.5,108C 145.392,111.268 143.392,113.768 140.5,115.5C 139.833,115.5 139.167,115.5 138.5,115.5C 137.221,116.968 135.554,117.635 133.5,117.5C 132.167,116.833 130.833,116.167 129.5,115.5C 129.5,115.167 129.5,114.833 129.5,114.5C 131.456,112.852 133.789,112.185 136.5,112.5C 136.5,111.5 136.5,110.5 136.5,109.5C 137.15,109.804 137.817,110.137 138.5,110.5C 140.577,108.918 142.91,107.918 145.5,107.5 Z"/></g>
<g><path style="opacity:1" fill="#5f6634" d="M 147.5,104.5 C 148.441,107.125 149.607,107.125 151,104.5C 151.471,109.072 149.637,112.572 145.5,115C 147.119,115.236 148.119,116.069 148.5,117.5C 146.634,118.014 144.8,118.68 143,119.5C 142.235,119.43 141.735,119.097 141.5,118.5C 141.737,117.209 141.404,116.209 140.5,115.5C 143.392,113.768 145.392,111.268 146.5,108C 146.272,107.601 145.938,107.435 145.5,107.5C 146.167,106.5 146.833,105.5 147.5,104.5 Z"/></g>
<g><path style="opacity:0.314" fill="#e1e3c6" d="M 98.5,111.5 C 98.448,113.903 98.7814,116.236 99.5,118.5C 98.1667,118.5 96.8333,118.5 95.5,118.5C 95.5,117.167 95.5,115.833 95.5,114.5C 96.3382,114.158 96.6716,113.492 96.5,112.5C 97.1667,112.167 97.8333,111.833 98.5,111.5 Z"/></g>
<g><path style="opacity:1" fill="#656438" d="M 124.5,115.5 C 126.167,115.5 127.833,115.5 129.5,115.5C 130.833,116.167 132.167,116.833 133.5,117.5C 133.5,118.5 133.5,119.5 133.5,120.5C 132.292,119.766 130.959,119.433 129.5,119.5C 129.657,120.873 129.49,122.207 129,123.5C 128.14,120.367 126.64,117.7 124.5,115.5 Z"/></g>
<g><path style="opacity:0.184" fill="#e2e9c6" d="M 138.5,115.5 C 139.167,115.5 139.833,115.5 140.5,115.5C 141.404,116.209 141.737,117.209 141.5,118.5C 140.5,118.5 139.5,118.5 138.5,118.5C 138.5,117.5 138.5,116.5 138.5,115.5 Z"/></g>
<g><path style="opacity:1" fill="#c3cea0" d="M 156.5,115.5 C 155.292,118.044 153.292,119.378 150.5,119.5C 148.007,119.869 147.34,119.203 148.5,117.5C 150.581,116.377 152.747,115.377 155,114.5C 155.765,114.57 156.265,114.903 156.5,115.5 Z"/></g>
<g><path style="opacity:1" fill="#9fa64a" d="M 165.5,109.5 C 168.378,111.105 171.378,112.439 174.5,113.5C 174.833,113.5 175.167,113.5 175.5,113.5C 175.833,115.5 176.167,117.5 176.5,119.5C 172.78,119.436 169.114,118.936 165.5,118C 166.607,115.469 166.607,112.636 165.5,109.5 Z"/></g>
<g><path style="opacity:1" fill="#39351b" d="M 121.5,113.5 C 121.973,114.906 122.973,115.573 124.5,115.5C 126.64,117.7 128.14,120.367 129,123.5C 129.49,122.207 129.657,120.873 129.5,119.5C 130.959,119.433 132.292,119.766 133.5,120.5C 134.919,121.451 136.585,121.784 138.5,121.5C 138.351,122.552 138.517,123.552 139,124.5C 140.27,122.422 141.77,122.088 143.5,123.5C 143.5,124.167 143.5,124.833 143.5,125.5C 139.4,124.995 135.4,124.995 131.5,125.5C 128.833,125.5 126.167,125.5 123.5,125.5C 122.852,123.914 122.352,122.247 122,120.5C 121.51,121.793 121.343,123.127 121.5,124.5C 118.833,124.5 116.167,124.5 113.5,124.5C 113.91,122.146 114.91,120.146 116.5,118.5C 117.281,119.729 117.781,121.062 118,122.5C 118.833,120.833 119.667,119.167 120.5,117.5C 118.853,115.512 119.186,114.179 121.5,113.5 Z"/></g>
<g><path style="opacity:1" fill="#4f552a" d="M 162.5,112.5 C 162.385,114.947 161.385,116.947 159.5,118.5C 156.807,119.847 154.14,121.18 151.5,122.5C 149.519,121.895 149.185,120.895 150.5,119.5C 153.292,119.378 155.292,118.044 156.5,115.5C 157.5,115.167 158.167,114.5 158.5,113.5C 159.708,112.766 161.041,112.433 162.5,112.5 Z"/></g>
<g><path style="opacity:1" fill="#86884b" d="M 138.5,115.5 C 138.5,116.5 138.5,117.5 138.5,118.5C 139.5,118.5 140.5,118.5 141.5,118.5C 141.735,119.097 142.235,119.43 143,119.5C 144.8,118.68 146.634,118.014 148.5,117.5C 147.34,119.203 148.007,119.869 150.5,119.5C 149.185,120.895 149.519,121.895 151.5,122.5C 150.469,123.249 149.302,123.915 148,124.5C 146.644,123.62 145.144,123.286 143.5,123.5C 141.77,122.088 140.27,122.422 139,124.5C 138.517,123.552 138.351,122.552 138.5,121.5C 136.585,121.784 134.919,121.451 133.5,120.5C 133.5,119.5 133.5,118.5 133.5,117.5C 135.554,117.635 137.221,116.968 138.5,115.5 Z"/></g>
<g><path style="opacity:0.176" fill="#ecead5" d="M 73.5,113.5 C 78.1304,114.229 82.7971,114.563 87.5,114.5C 88.968,115.779 89.6347,117.446 89.5,119.5C 89.1667,120.5 88.5,121.167 87.5,121.5C 86.8333,121.833 86.1667,122.167 85.5,122.5C 78.8333,122.5 72.1667,122.5 65.5,122.5C 65.2291,120.62 65.8958,119.287 67.5,118.5C 67.5858,119.496 67.2524,120.329 66.5,121C 73.608,121.924 80.608,121.591 87.5,120C 88.8163,118.022 88.3163,116.522 86,115.5C 85.6667,115.833 85.3333,116.167 85,116.5C 81.9243,115.712 78.7577,115.212 75.5,115C 74.5842,114.722 73.9175,114.222 73.5,113.5 Z"/></g>
<g><path style="opacity:1" fill="#575224" d="M 95.5,114.5 C 95.5,115.833 95.5,117.167 95.5,118.5C 96.8333,118.5 98.1667,118.5 99.5,118.5C 99.6107,119.117 99.944,119.617 100.5,120C 98.61,121.891 97.11,124.058 96,126.5C 94.8393,125.005 93.6727,123.505 92.5,122C 93.6932,119.676 93.6932,117.51 92.5,115.5C 92.6701,110.725 93.6701,110.392 95.5,114.5 Z"/></g>
<g><path style="opacity:1" fill="#7b754f" d="M 159.5,118.5 C 160.348,120.093 161.681,121.26 163.5,122C 163.272,122.399 162.938,122.565 162.5,122.5C 156.274,124.13 149.94,125.13 143.5,125.5C 143.5,124.833 143.5,124.167 143.5,123.5C 145.144,123.286 146.644,123.62 148,124.5C 149.302,123.915 150.469,123.249 151.5,122.5C 154.14,121.18 156.807,119.847 159.5,118.5 Z"/></g>
<g><path style="opacity:1" fill="#868545" d="M 105.5,107.5 C 102.109,109.912 100.443,113.245 100.5,117.5C 101.5,117.5 102.5,117.5 103.5,117.5C 105.969,118.317 108.635,118.817 111.5,119C 107.638,120.27 104.304,122.27 101.5,125C 103.518,125.505 105.518,126.005 107.5,126.5C 107.5,126.833 107.5,127.167 107.5,127.5C 104.615,127.194 101.948,127.527 99.5,128.5C 95.7604,128.759 92.0938,128.426 88.5,127.5C 87.5344,125.604 87.2011,123.604 87.5,121.5C 88.5,121.167 89.1667,120.5 89.5,119.5C 90.5,119.5 91.5,119.5 92.5,119.5C 92.5,118.167 92.5,116.833 92.5,115.5C 93.6932,117.51 93.6932,119.676 92.5,122C 93.6727,123.505 94.8393,125.005 96,126.5C 97.11,124.058 98.61,121.891 100.5,120C 99.944,119.617 99.6107,119.117 99.5,118.5C 98.7814,116.236 98.448,113.903 98.5,111.5C 99.3382,111.158 99.6716,110.492 99.5,109.5C 100.943,108.665 101.943,107.332 102.5,105.5C 103.265,106.612 104.265,107.279 105.5,107.5 Z"/></g>
<g><path style="opacity:1" fill="#877f64" d="M 123.5,125.5 C 118.13,125.392 112.797,125.725 107.5,126.5C 108.451,124.38 109.951,122.714 112,121.5C 112.399,121.728 112.565,122.062 112.5,122.5C 110.969,123.925 111.302,124.591 113.5,124.5C 116.167,124.5 118.833,124.5 121.5,124.5C 121.343,123.127 121.51,121.793 122,120.5C 122.352,122.247 122.852,123.914 123.5,125.5 Z"/></g>
<g><path style="opacity:1" fill="#ad9f99" d="M 68.5,109.5 C 69.9842,111.074 71.6508,112.407 73.5,113.5C 72.448,113.351 71.448,113.517 70.5,114C 69.6006,115.652 68.6006,117.152 67.5,118.5C 65.8958,119.287 65.2291,120.62 65.5,122.5C 64.3775,124.288 64.2109,126.288 65,128.5C 66.1799,130.86 67.3466,133.193 68.5,135.5C 68.5,136.167 68.1667,136.5 67.5,136.5C 65.4076,133.16 63.4076,129.66 61.5,126C 62.6621,122.853 63.6621,119.686 64.5,116.5C 66.588,114.664 67.9213,112.331 68.5,109.5 Z"/></g>
<g><path style="opacity:1" fill="#ab9a88" d="M 176.5,113.5 C 177.167,113.833 177.833,114.167 178.5,114.5C 179.338,114.842 179.672,115.508 179.5,116.5C 179.993,118.806 180.326,121.139 180.5,123.5C 178.358,125.765 176.691,128.432 175.5,131.5C 165.506,132.928 155.506,134.261 145.5,135.5C 146.163,133.196 146.83,130.863 147.5,128.5C 145.604,127.534 143.604,127.201 141.5,127.5C 138.059,126.903 134.725,126.237 131.5,125.5C 135.4,124.995 139.4,124.995 143.5,125.5C 149.94,125.13 156.274,124.13 162.5,122.5C 165.973,123.783 169.473,123.449 173,121.5C 176.215,123.474 178.049,122.641 178.5,119C 178.046,117.061 177.379,115.228 176.5,113.5 Z"/></g>
<g><path style="opacity:1" fill="#c6b6a5" d="M 65.5,122.5 C 72.1667,122.5 78.8333,122.5 85.5,122.5C 85.0156,125.788 86.0156,128.455 88.5,130.5C 90.6074,131.468 92.9407,131.802 95.5,131.5C 95.5,132.5 95.5,133.5 95.5,134.5C 88.1667,134.5 80.8333,134.5 73.5,134.5C 71.7839,134.629 70.1172,134.962 68.5,135.5C 67.3466,133.193 66.1799,130.86 65,128.5C 64.2109,126.288 64.3775,124.288 65.5,122.5 Z"/></g>
<g><path style="opacity:1" fill="#a09468" d="M 87.5,121.5 C 87.2011,123.604 87.5344,125.604 88.5,127.5C 92.0938,128.426 95.7604,128.759 99.5,128.5C 96.1244,130.082 92.4578,130.749 88.5,130.5C 86.0156,128.455 85.0156,125.788 85.5,122.5C 86.1667,122.167 86.8333,121.833 87.5,121.5 Z"/></g>
<g><path style="opacity:1" fill="#cab9a4" d="M 123.5,125.5 C 126.167,125.5 128.833,125.5 131.5,125.5C 134.725,126.237 138.059,126.903 141.5,127.5C 145.298,133.425 143.298,135.758 135.5,134.5C 122.94,134.975 110.274,134.475 97.5,133C 100.596,130.579 103.929,128.745 107.5,127.5C 107.5,127.167 107.5,126.833 107.5,126.5C 112.797,125.725 118.13,125.392 123.5,125.5 Z"/></g>
<g><path style="opacity:1" fill="#c2a994" d="M 107.5,127.5 C 103.929,128.745 100.596,130.579 97.5,133C 110.274,134.475 122.94,134.975 135.5,134.5C 143.298,135.758 145.298,133.425 141.5,127.5C 143.604,127.201 145.604,127.534 147.5,128.5C 146.83,130.863 146.163,133.196 145.5,135.5C 144.713,137.104 143.38,137.771 141.5,137.5C 118.677,136.498 96.0103,135.498 73.5,134.5C 80.8333,134.5 88.1667,134.5 95.5,134.5C 95.5,133.5 95.5,132.5 95.5,131.5C 92.9407,131.802 90.6074,131.468 88.5,130.5C 92.4578,130.749 96.1244,130.082 99.5,128.5C 101.948,127.527 104.615,127.194 107.5,127.5 Z"/></g>
<g><path style="opacity:1" fill="#d2a899" d="M 177.5,133.5 C 177.027,134.906 176.027,135.573 174.5,135.5C 169.288,136.047 164.288,137.047 159.5,138.5C 155.321,139.226 151.321,139.226 147.5,138.5C 157.5,136.833 167.5,135.167 177.5,133.5 Z"/></g>
<g><path style="opacity:1" fill="#b2907d" d="M 73.5,134.5 C 96.0103,135.498 118.677,136.498 141.5,137.5C 141.821,139.048 142.821,139.715 144.5,139.5C 144.291,140.922 143.791,142.255 143,143.5C 141.908,141.883 140.408,140.883 138.5,140.5C 133.5,140.5 128.5,140.5 123.5,140.5C 122.167,140.5 120.833,140.5 119.5,140.5C 126.321,139.671 133.321,139.171 140.5,139C 119.334,138.102 98.1676,137.269 77,136.5C 74.6392,136.504 72.4726,136.837 70.5,137.5C 69.5084,137.328 68.8417,137.662 68.5,138.5C 67.6618,138.158 67.3284,137.492 67.5,136.5C 68.1667,136.5 68.5,136.167 68.5,135.5C 70.1172,134.962 71.7839,134.629 73.5,134.5 Z"/></g>
<g><path style="opacity:1" fill="#cbac98" d="M 119.5,140.5 C 114.303,140.364 109.137,140.697 104,141.5C 94.9239,139.636 85.7572,138.636 76.5,138.5C 75.1667,138.5 73.8333,138.5 72.5,138.5C 71.8333,138.5 71.5,138.833 71.5,139.5C 70.6618,139.158 70.3284,138.492 70.5,137.5C 72.4726,136.837 74.6392,136.504 77,136.5C 98.1676,137.269 119.334,138.102 140.5,139C 133.321,139.171 126.321,139.671 119.5,140.5 Z"/></g>
<g><path style="opacity:1" fill="#a27f6c" d="M 180.5,123.5 C 178.92,126.659 177.92,129.993 177.5,133.5C 167.5,135.167 157.5,136.833 147.5,138.5C 146.075,136.969 145.409,137.302 145.5,139.5C 145.167,139.5 144.833,139.5 144.5,139.5C 142.821,139.715 141.821,139.048 141.5,137.5C 143.38,137.771 144.713,137.104 145.5,135.5C 155.506,134.261 165.506,132.928 175.5,131.5C 176.691,128.432 178.358,125.765 180.5,123.5 Z"/></g>
<g><path style="opacity:0.471" fill="#f3eae5" d="M 64.5,116.5 C 63.6621,119.686 62.6621,122.853 61.5,126C 63.4076,129.66 65.4076,133.16 67.5,136.5C 67.3284,137.492 67.6618,138.158 68.5,138.5C 71.6744,145.846 75.5077,152.846 80,159.5C 80.49,160.793 80.6567,162.127 80.5,163.5C 73.5064,152.186 67.0064,140.52 61,128.5C 60.4613,123.954 61.628,119.954 64.5,116.5 Z"/></g>
<g><path style="opacity:1" fill="#c6b6a3" d="M 76.5,138.5 C 85.7572,138.636 94.9239,139.636 104,141.5C 109.137,140.697 114.303,140.364 119.5,140.5C 120.833,140.5 122.167,140.5 123.5,140.5C 127.634,141.485 131.968,141.818 136.5,141.5C 136.899,147.671 136.232,153.671 134.5,159.5C 133.521,156.375 133.187,153.042 133.5,149.5C 130.454,149.817 128.787,148.484 128.5,145.5C 126.605,142.08 123.938,141.58 120.5,144C 121.672,144.419 122.672,145.085 123.5,146C 120.312,146.755 117.145,147.589 114,148.5C 112.347,148.18 111.347,147.18 111,145.5C 110.277,148.583 108.61,151.583 106,154.5C 105.25,153.874 104.416,153.374 103.5,153C 104.654,152.086 104.487,151.253 103,150.5C 101.927,152.547 100.761,154.547 99.5,156.5C 100.348,158.409 100.682,160.409 100.5,162.5C 99.1667,162.5 97.8333,162.5 96.5,162.5C 96.5,163.5 96.5,164.5 96.5,165.5C 95.5,165.5 94.5,165.5 93.5,165.5C 93.2407,161.932 91.2407,160.599 87.5,161.5C 87.2886,158.384 86.9553,155.55 86.5,153C 87.5,151.333 88.5,149.667 89.5,148C 87.6797,147.021 86.513,145.521 86,143.5C 84.3831,144.536 84.2164,145.703 85.5,147C 82.0743,148.238 80.4077,147.071 80.5,143.5C 79.5,143.5 78.5,143.5 77.5,143.5C 77.634,141.708 77.3007,140.042 76.5,138.5 Z"/></g>
<g><path style="opacity:1" fill="#c3b4a3" d="M 72.5,138.5 C 73.8333,138.5 75.1667,138.5 76.5,138.5C 77.3007,140.042 77.634,141.708 77.5,143.5C 78.5,143.5 79.5,143.5 80.5,143.5C 80.4077,147.071 82.0743,148.238 85.5,147C 84.2164,145.703 84.3831,144.536 86,143.5C 86.513,145.521 87.6797,147.021 89.5,148C 88.5,149.667 87.5,151.333 86.5,153C 86.9553,155.55 87.2886,158.384 87.5,161.5C 91.2407,160.599 93.2407,161.932 93.5,165.5C 94.5,165.5 95.5,165.5 96.5,165.5C 96.5,164.5 96.5,163.5 96.5,162.5C 97.8333,162.5 99.1667,162.5 100.5,162.5C 100.682,160.409 100.348,158.409 99.5,156.5C 100.761,154.547 101.927,152.547 103,150.5C 104.487,151.253 104.654,152.086 103.5,153C 104.416,153.374 105.25,153.874 106,154.5C 108.61,151.583 110.277,148.583 111,145.5C 111.347,147.18 112.347,148.18 114,148.5C 117.145,147.589 120.312,146.755 123.5,146C 122.672,145.085 121.672,144.419 120.5,144C 123.938,141.58 126.605,142.08 128.5,145.5C 126.534,146.255 126.2,147.421 127.5,149C 125.5,149.333 123.5,149.667 121.5,150C 124.182,152.33 123.849,152.83 120.5,151.5C 119.719,152.729 119.219,154.062 119,155.5C 118.505,153.527 118.338,151.527 118.5,149.5C 116.143,149.337 113.81,149.503 111.5,150C 111.5,152 111.5,154 111.5,156C 107.855,156.95 104.689,158.117 102,159.5C 101.5,161.5 101,163.5 100.5,165.5C 101.488,169.838 101.822,174.338 101.5,179C 99.7505,180.319 97.7505,180.819 95.5,180.5C 87.8389,166.536 80.1722,152.536 72.5,138.5 Z"/></g>
<g><path style="opacity:1" fill="#beb1a0" d="M 128.5,145.5 C 128.787,148.484 130.454,149.817 133.5,149.5C 133.187,153.042 133.521,156.375 134.5,159.5C 134.752,162.32 134.252,164.986 133,167.5C 131.989,168.337 130.822,168.67 129.5,168.5C 129.665,172.182 129.499,175.848 129,179.5C 126.895,178.689 124.895,177.689 123,176.5C 121.7,177.452 120.533,177.452 119.5,176.5C 121.259,167.689 119.926,167.355 115.5,175.5C 115.931,172.952 115.931,170.285 115.5,167.5C 113.522,170.926 112.022,174.593 111,178.5C 109.027,179.64 107.193,180.973 105.5,182.5C 106.376,183.251 107.376,183.751 108.5,184C 106.624,185.375 104.624,186.542 102.5,187.5C 103.857,191.299 105.524,194.966 107.5,198.5C 107.457,199.416 107.124,200.083 106.5,200.5C 102.833,193.833 99.1667,187.167 95.5,180.5C 97.7505,180.819 99.7505,180.319 101.5,179C 101.822,174.338 101.488,169.838 100.5,165.5C 101,163.5 101.5,161.5 102,159.5C 104.689,158.117 107.855,156.95 111.5,156C 111.5,154 111.5,152 111.5,150C 113.81,149.503 116.143,149.337 118.5,149.5C 118.338,151.527 118.505,153.527 119,155.5C 119.219,154.062 119.719,152.729 120.5,151.5C 123.849,152.83 124.182,152.33 121.5,150C 123.5,149.667 125.5,149.333 127.5,149C 126.2,147.421 126.534,146.255 128.5,145.5 Z"/></g>
<g><path style="opacity:1" fill="#7b695f" d="M 173.5,137.5 C 168.326,148.518 162.66,159.185 156.5,169.5C 161.491,158.85 166.491,148.183 171.5,137.5C 172.429,136.45 173.095,136.45 173.5,137.5 Z"/></g>
<g><path style="opacity:1" fill="#c5a28e" d="M 144.5,139.5 C 144.833,139.5 145.167,139.5 145.5,139.5C 143.157,152.258 140.49,164.925 137.5,177.5C 132.622,194.221 129.289,211.221 127.5,228.5C 126.955,230.593 126.122,232.593 125,234.5C 124.821,230.975 124.321,227.641 123.5,224.5C 123.952,220.837 124.452,217.17 125,213.5C 131.245,193.971 135.745,174.137 138.5,154C 137.652,150.662 137.985,147.329 139.5,144C 139.011,142.862 138.678,141.695 138.5,140.5C 140.408,140.883 141.908,141.883 143,143.5C 143.791,142.255 144.291,140.922 144.5,139.5 Z"/></g>
<g><path style="opacity:0.078" fill="#e9ddd6" d="M 179.5,116.5 C 181.533,117.898 182.533,119.898 182.5,122.5C 181.007,126.823 179.507,131.156 178,135.5C 175.417,138.997 173.084,142.664 171,146.5C 157.804,172.228 144.637,197.894 131.5,223.5C 131.5,222.833 131.5,222.167 131.5,221.5C 136.167,211.5 140.833,201.5 145.5,191.5C 150.192,184.784 153.858,177.45 156.5,169.5C 162.66,159.185 168.326,148.518 173.5,137.5C 174.338,137.158 174.672,136.492 174.5,135.5C 176.027,135.573 177.027,134.906 177.5,133.5C 177.92,129.993 178.92,126.659 180.5,123.5C 180.326,121.139 179.993,118.806 179.5,116.5 Z"/></g>
<g><path style="opacity:1" fill="#aa9a88" d="M 174.5,135.5 C 174.672,136.492 174.338,137.158 173.5,137.5C 173.095,136.45 172.429,136.45 171.5,137.5C 166.491,148.183 161.491,158.85 156.5,169.5C 154.774,171.942 153.274,174.609 152,177.5C 149.74,180.445 146.907,182.779 143.5,184.5C 142.066,182.78 141.233,180.78 141,178.5C 140.667,179.5 140.333,180.5 140,181.5C 139.505,179.527 139.338,177.527 139.5,175.5C 142.641,164.311 145.474,152.978 148,141.5C 150.73,141.155 153.563,140.989 156.5,141C 158.119,140.764 159.119,139.931 159.5,138.5C 164.288,137.047 169.288,136.047 174.5,135.5 Z"/></g>
<g><path style="opacity:0.573" fill="#f2e2dc" d="M 80.5,163.5 C 83.1348,166.079 85.3015,169.079 87,172.5C 98.7513,193.072 109.751,214.072 120,235.5C 120.893,236.711 121.726,236.711 122.5,235.5C 116.982,225.803 111.649,215.97 106.5,206C 106.836,204.97 107.503,204.47 108.5,204.5C 111.655,210.139 114.821,215.806 118,221.5C 119.264,223.607 121.097,224.607 123.5,224.5C 124.321,227.641 124.821,230.975 125,234.5C 126.122,232.593 126.955,230.593 127.5,228.5C 128.593,226.651 129.926,224.984 131.5,223.5C 129.874,229.218 127.207,234.385 123.5,239C 121.255,238.805 119.422,237.638 118,235.5C 105.219,211.604 92.7192,187.604 80.5,163.5 Z"/></g>
<g><path style="opacity:1" fill="#b1907c" d="M 147.5,138.5 C 151.321,139.226 155.321,139.226 159.5,138.5C 159.119,139.931 158.119,140.764 156.5,141C 153.563,140.989 150.73,141.155 148,141.5C 145.474,152.978 142.641,164.311 139.5,175.5C 138.833,176.167 138.167,176.833 137.5,177.5C 140.49,164.925 143.157,152.258 145.5,139.5C 145.409,137.302 146.075,136.969 147.5,138.5 Z"/></g>
<g><path style="opacity:1" fill="#b7a999" d="M 123.5,140.5 C 128.5,140.5 133.5,140.5 138.5,140.5C 138.678,141.695 139.011,142.862 139.5,144C 137.985,147.329 137.652,150.662 138.5,154C 135.745,174.137 131.245,193.971 125,213.5C 124.452,217.17 123.952,220.837 123.5,224.5C 121.097,224.607 119.264,223.607 118,221.5C 114.821,215.806 111.655,210.139 108.5,204.5C 108.167,203.5 107.5,202.833 106.5,202.5C 106.5,201.833 106.5,201.167 106.5,200.5C 107.124,200.083 107.457,199.416 107.5,198.5C 105.524,194.966 103.857,191.299 102.5,187.5C 104.624,186.542 106.624,185.375 108.5,184C 107.376,183.751 106.376,183.251 105.5,182.5C 107.193,180.973 109.027,179.64 111,178.5C 112.022,174.593 113.522,170.926 115.5,167.5C 115.931,170.285 115.931,172.952 115.5,175.5C 119.926,167.355 121.259,167.689 119.5,176.5C 120.533,177.452 121.7,177.452 123,176.5C 124.895,177.689 126.895,178.689 129,179.5C 129.499,175.848 129.665,172.182 129.5,168.5C 130.822,168.67 131.989,168.337 133,167.5C 134.252,164.986 134.752,162.32 134.5,159.5C 136.232,153.671 136.899,147.671 136.5,141.5C 131.968,141.818 127.634,141.485 123.5,140.5 Z"/></g>
<g><path style="opacity:1" fill="#a9968f" d="M 70.5,137.5 C 70.3284,138.492 70.6618,139.158 71.5,139.5C 82.4772,160.008 93.3105,180.675 104,201.5C 104.671,202.252 105.504,202.586 106.5,202.5C 107.5,202.833 108.167,203.5 108.5,204.5C 107.503,204.47 106.836,204.97 106.5,206C 111.649,215.97 116.982,225.803 122.5,235.5C 121.726,236.711 120.893,236.711 120,235.5C 109.751,214.072 98.7513,193.072 87,172.5C 85.3015,169.079 83.1348,166.079 80.5,163.5C 80.6567,162.127 80.49,160.793 80,159.5C 75.5077,152.846 71.6744,145.846 68.5,138.5C 68.8417,137.662 69.5084,137.328 70.5,137.5 Z"/></g>
<g><path style="opacity:1" fill="#f1e7df" d="M 72.5,138.5 C 80.1722,152.536 87.8389,166.536 95.5,180.5C 99.1667,187.167 102.833,193.833 106.5,200.5C 106.5,201.167 106.5,201.833 106.5,202.5C 105.504,202.586 104.671,202.252 104,201.5C 93.3105,180.675 82.4772,160.008 71.5,139.5C 71.5,138.833 71.8333,138.5 72.5,138.5 Z"/></g>
<g><path style="opacity:1" fill="#a18d7d" d="M 156.5,169.5 C 153.858,177.45 150.192,184.784 145.5,191.5C 139.672,201.152 134.338,211.152 129.5,221.5C 129.97,222.463 130.637,222.463 131.5,221.5C 131.5,222.167 131.5,222.833 131.5,223.5C 129.926,224.984 128.593,226.651 127.5,228.5C 129.289,211.221 132.622,194.221 137.5,177.5C 138.167,176.833 138.833,176.167 139.5,175.5C 139.338,177.527 139.505,179.527 140,181.5C 140.333,180.5 140.667,179.5 141,178.5C 141.233,180.78 142.066,182.78 143.5,184.5C 146.907,182.779 149.74,180.445 152,177.5C 153.274,174.609 154.774,171.942 156.5,169.5 Z"/></g>
<g><path style="opacity:1" fill="#84685f" d="M 145.5,191.5 C 140.833,201.5 136.167,211.5 131.5,221.5C 130.637,222.463 129.97,222.463 129.5,221.5C 134.338,211.152 139.672,201.152 145.5,191.5 Z"/></g>
</svg>
