<svg width="40" height="40" viewBox="0 0 40 40" fill="none" xmlns="http://www.w3.org/2000/svg">
<circle cx="20" cy="20" r="20" fill="#F5F5F5"/>
<g clip-path="url(#clip0_36_360)">
<path d="M28.2814 15.0591C28.1473 14.9801 27.9823 14.9746 27.8432 15.0445C27.7044 15.1145 27.6105 15.2501 27.5939 15.4047C27.5774 15.5551 27.5517 15.7054 27.5196 15.8631C26.6222 19.9358 24.8201 21.9167 22.0087 21.9167H17.8837C17.6662 21.9171 17.4789 22.0703 17.4354 22.2834L16.0604 28.7285L15.8148 30.3693C15.6735 31.1155 16.1639 31.8348 16.91 31.9761C16.9923 31.9916 17.0758 31.9997 17.1595 32H19.9187C20.5511 32.002 21.1024 31.5704 21.2524 30.956L22.3671 26.5001H24.7587C27.5811 26.5001 29.5317 24.2497 30.2513 20.1632C30.7263 18.2173 29.9405 16.1813 28.2814 15.0591Z" fill="#03A9F4"/>
<path d="M27.4173 11.6335C26.5116 10.6062 25.2118 10.0123 23.8423 10H16.2523C15.1164 9.99393 14.1494 10.825 13.9845 11.9488L11.6278 27.6706C11.5149 28.4215 12.0321 29.1218 12.7831 29.2347C12.8512 29.245 12.9201 29.2501 12.989 29.25H16.509C16.7265 29.2496 16.9138 29.0964 16.9573 28.8834L18.2544 22.8334H22.0127C25.2742 22.8334 27.4293 20.5536 28.4193 16.05C28.4591 15.8705 28.4897 15.6891 28.5109 15.5064C28.7407 14.117 28.3399 12.6975 27.4173 11.6335Z" fill="#283593"/>
</g>
<defs>
<clipPath id="clip0_36_360">
<rect width="22" height="22" fill="white" transform="translate(10 10)"/>
</clipPath>
</defs>
</svg>
