<svg width="83" height="90" viewBox="0 0 83 90" fill="none" xmlns="http://www.w3.org/2000/svg">
<circle cx="37" cy="53" r="37" fill="#46A358" fill-opacity="0.13"/>
<g clip-path="url(#clip0_1_4598)">
<path d="M22.2488 40.7766C39.0215 39.0238 55.9382 41.7144 72.6697 39.29C73.4514 39.1753 73.1181 37.9918 72.3406 38.1064C55.7283 40.5104 38.9063 37.8075 22.2488 39.548C21.4671 39.6299 21.4589 40.8585 22.2488 40.7766Z" fill="#727272"/>
<path d="M22.0841 39.5726C20.4467 40.0804 20.6524 42.21 21.5205 43.3403C22.9439 45.1913 26.1405 45.2323 28.2263 45.0357C29.012 44.962 29.0162 43.7334 28.2263 43.8071C26.8769 43.9341 25.4781 43.9218 24.1658 43.5368C23.4829 43.3362 22.7629 43.0536 22.3721 42.4147C22.1705 42.083 21.7838 40.9527 22.4132 40.7602C23.1702 40.5227 22.8452 39.3351 22.0841 39.5726Z" fill="#727272"/>
<path d="M69.7816 39.6749C70.6496 39.6217 71.4889 39.4742 72.3528 39.3596C73.7228 39.1753 74.4263 39.5439 74.6649 40.9772C74.8624 42.1689 74.1095 42.517 73.0481 42.8528C72.5462 43.0126 72.0196 43.1108 71.5012 43.2132C70.1148 43.4835 68.7243 43.6187 67.3132 43.6678C66.5233 43.6965 66.5192 44.9251 67.3132 44.8964C69.7199 44.8104 76.4792 44.7203 76.2159 40.9322C76.15 39.9861 75.2326 38.6798 74.3728 38.2538C73.0892 37.615 71.0898 38.3644 69.7775 38.4463C68.9917 38.4955 68.9876 39.7241 69.7816 39.6749Z" fill="#727272"/>
<path d="M24.0548 44.7735C23.8861 47.374 20.924 48.8442 19.3525 50.6298C18.1183 52.0344 17.1474 53.6521 16.4439 55.3762C14.93 59.0701 14.642 63.2105 15.4113 67.1051C16.9952 75.0949 23.0592 81.6883 30.633 84.5182C31.3777 84.7967 31.6986 83.609 30.9622 83.3346C23.0962 80.3942 16.9829 73.0268 16.2999 64.5783C15.9749 60.5649 16.8265 56.3877 19.0769 53.0091C20.9446 50.2079 25.0545 48.4142 25.289 44.7735C25.3383 43.9872 24.1042 43.9872 24.0548 44.7735Z" fill="#727272"/>
<path d="M70.8225 44.2494C70.8225 47.4805 73.1798 49.5077 75.5782 51.3137C77.6393 52.8617 79.2356 54.3688 80.2517 56.7973C81.1362 58.9064 81.6258 61.1833 81.7368 63.4644C82.14 71.8556 77.2444 79.6448 69.7199 83.3101C69.0082 83.6582 69.6294 84.7189 70.3411 84.3708C77.3308 80.9676 82.2593 74.0507 82.9176 66.3024C83.2508 62.3833 82.5679 58.0668 80.5685 54.6309C78.3675 50.8428 72.0567 49.1064 72.0525 44.2494C72.0567 43.459 70.8225 43.459 70.8225 44.2494Z" fill="#727272"/>
<path d="M30.2668 83.6172C29.4687 85.3823 30.9003 86.9057 32.6776 86.9876C34.607 87.0818 36.6435 86.6354 38.577 86.5535C40.8191 86.4553 43.0613 86.4512 45.3034 86.4839C53.6712 86.6109 62.0349 87.2456 70.3658 86.1153C70.6496 86.0785 70.7936 85.7672 70.8183 85.5215C70.8841 84.8335 70.8265 84.3257 70.6249 83.6787C70.3904 82.9251 69.2015 83.2486 69.436 84.0063C69.6458 84.5018 69.6952 85.0096 69.5841 85.5215C69.7363 85.325 69.8844 85.1284 70.0366 84.9277C63.5407 85.8082 56.9871 85.5871 50.4541 85.3823C47.2863 85.284 44.1144 85.1939 40.9467 85.2471C39.4986 85.2717 38.0504 85.3291 36.6023 85.4273C35.8124 85.4806 35.0267 85.5543 34.2409 85.6321C33.6608 85.6894 30.4437 86.185 31.3282 84.2274C31.6532 83.5189 30.5918 82.8965 30.2668 83.6172Z" fill="#727272"/>
<path d="M22.0801 51.2236C17.0528 57.3788 16.662 65.9707 21.175 72.5232C21.3972 72.8467 21.932 72.5395 21.7098 72.2119C17.3614 65.9011 17.6617 57.6041 22.5203 51.6536C22.763 51.3547 22.331 50.9165 22.0801 51.2236Z" fill="#727272"/>
<path d="M22.4133 74.8042C22.8165 75.3857 23.2773 75.9222 23.7915 76.4095C24.0795 76.6798 24.5156 76.2498 24.2276 75.9754C23.7504 75.525 23.3225 75.0335 22.944 74.4971C22.7219 74.1735 22.1871 74.4766 22.4133 74.8042Z" fill="#727272"/>
<path d="M25.865 78.3385C26.264 78.3385 26.264 77.7242 25.865 77.7242C25.4659 77.7242 25.4659 78.3385 25.865 78.3385Z" fill="#727272"/>
<path d="M69.6294 44.2822C69.3126 45.4616 69.0411 46.6492 69.506 47.8287C69.938 48.9221 70.8142 49.9091 71.5589 50.8141C73.3443 52.9764 76.9976 55.1592 77.1703 58.1734C77.1909 58.5665 77.808 58.5706 77.7874 58.1734C77.6599 55.9169 75.9896 54.4712 74.451 53.0051C73.4595 52.0591 72.5257 51.0558 71.67 49.9828C71.094 49.2579 70.444 48.4921 70.1108 47.6198C69.7035 46.5591 69.938 45.5148 70.2218 44.4501C70.3247 44.0651 69.7282 43.9013 69.6294 44.2822Z" fill="#727272"/>
<path d="M77.4378 59.5986C77.5242 60.3849 77.6105 61.1711 77.6969 61.9574C77.7381 62.3465 78.3593 62.3506 78.314 61.9574C78.2276 61.1711 78.1412 60.3849 78.0549 59.5986C78.0137 59.2095 77.3966 59.2054 77.4378 59.5986Z" fill="#727272"/>
<path d="M77.4954 63.575C77.5406 63.8044 77.5036 64.0214 77.4172 64.2344C77.3555 64.39 77.4872 64.5702 77.6311 64.6111C77.808 64.6603 77.9479 64.5497 78.0096 64.3982C78.1372 64.0788 78.1536 63.747 78.0878 63.4112C78.0179 63.0263 77.4213 63.1901 77.4954 63.575Z" fill="#727272"/>
<path d="M50.7423 59.0824C52.2151 56.2976 54.9879 54.4752 58.2091 54.6349C62.0434 54.8233 66.0751 58.1446 63.3887 62.0679C61.813 64.3653 58.9826 65.8519 56.8968 67.662C54.5806 69.6728 52.4619 71.8883 50.5078 74.2554C50.0059 74.8615 50.8739 75.7338 51.3799 75.1236C54.3585 71.5157 57.7278 68.4647 61.4304 65.6144C63.9029 63.706 66.6387 60.8106 65.1371 57.4566C63.8947 54.68 60.4636 53.3163 57.5715 53.3982C54.1651 53.4965 51.2442 55.4949 49.6726 58.4599C49.3065 59.1602 50.372 59.7827 50.7423 59.0824Z" fill="#727272"/>
<path d="M50.4502 58.1283C47.8131 55.1756 44.5219 52.1328 40.2516 52.3539C37.0838 52.5178 34.3563 54.9094 33.8996 58.0587C33.336 61.8959 36.2158 65.2623 39.0215 67.486C42.469 70.2175 47.6691 71.1636 50.2486 74.8657C50.697 75.5127 51.7666 74.8984 51.3141 74.2473C49.7055 71.9376 47.3647 70.7499 44.8798 69.5541C41.7203 68.0348 38.606 66.155 36.5737 63.2228C34.3069 59.9589 34.6813 54.9667 39.075 53.7709C43.3741 52.6038 46.9944 56.1093 49.5739 58.9965C50.1046 59.5903 50.9767 58.718 50.4502 58.1283Z" fill="#727272"/>
</g>
<g clip-path="url(#clip1_1_4598)">
<path d="M46.472 12.629C45.2831 14.782 43.4689 16.507 41.1405 17.4C40.2314 17.7507 39.0343 17.7303 39.1536 16.4866C39.2276 15.7118 40.0668 15.039 40.6757 14.676C41.7123 14.0562 43.0411 13.8523 44.1559 13.3711C44.8799 13.0571 44.2547 12.001 43.5347 12.315C41.5437 13.1754 39.3634 13.3793 38.2321 15.4671C37.6274 16.5844 37.4299 18.1381 38.7916 18.7742C40.2684 19.4634 42.3006 18.3501 43.5265 17.5672C45.2296 16.4825 46.5666 15.0022 47.5333 13.2447C47.92 12.5556 46.8546 11.9357 46.472 12.629Z" fill="#46A358"/>
<path d="M43.8968 12.1191C42.3994 12.2822 40.9143 12.2904 39.4293 12.0131C38.8863 11.9111 38.3474 11.7725 37.8208 11.6053C37.3765 11.4748 36.9487 11.3158 36.525 11.1241C35.8955 10.333 35.9573 9.89262 36.7183 9.79476C38.948 8.09024 42.4323 9.88039 44.6209 10.7082C45.3655 10.9895 45.6863 9.80699 44.95 9.5297C43.0453 8.80793 40.9555 7.72324 38.8616 7.95567C37.6604 8.08616 34.8918 8.60404 34.5709 10.1006C33.8304 13.5667 42.1073 13.5422 43.8968 13.3465C44.6785 13.2568 44.6867 12.0335 43.8968 12.1191Z" fill="#46A358"/>
<path d="M45.353 9.55003C43.4812 8.07795 41.8192 5.78623 41.9097 3.30286C41.9509 2.19777 42.6584 1.72883 43.6828 2.22632C44.2463 2.49953 44.6372 3.19683 44.9457 3.72287C45.6615 4.95436 45.9618 6.3612 46.2251 7.74357C46.3732 8.51427 47.5621 8.18805 47.414 7.41735C47.019 5.35399 46.4554 3.20499 44.9169 1.66358C44.0078 0.754236 42.4939 -0.289679 41.4243 0.933659C38.9231 3.79219 42.1977 8.61622 44.4808 10.4145C45.0979 10.8998 45.9782 10.0394 45.353 9.55003Z" fill="#46A358"/>
<path d="M47.3853 7.75594C47.6568 5.79045 48.5207 2.05111 50.7998 1.41498C52.9184 0.827776 52.7086 4.20419 52.1162 5.3215C51.5197 6.44697 50.3473 7.50312 49.4957 8.44509C48.9691 9.02821 49.8371 9.89678 50.3678 9.30958C51.5896 7.95576 53.4161 6.40212 53.6794 4.49779C53.8851 3.02163 53.774 0.791076 52.1326 0.138629C50.6352 -0.456729 49.1543 0.897098 48.3027 1.9614C47.048 3.52727 46.4639 5.4683 46.1923 7.42157C46.0854 8.20042 47.2743 8.5348 47.3853 7.75594Z" fill="#46A358"/>
<path d="M50.454 9.46468C51.8897 8.27396 54.5555 7.44617 56.3079 8.51863C58.5787 9.91324 55.3618 10.7492 54.3004 10.8185C53.165 10.896 52.0296 10.8267 50.9024 10.6962C50.1167 10.6065 50.1208 11.8298 50.9024 11.9195C52.7454 12.1316 55.2342 12.4048 56.9497 11.4995C58.0152 10.9368 58.7803 9.57478 58.1262 8.42892C57.394 7.14442 55.333 6.8345 53.996 6.87121C52.3381 6.92014 50.8448 7.55627 49.586 8.60019C48.9731 9.10583 49.8493 9.97033 50.454 9.46468Z" fill="#46A358"/>
<path d="M50.5858 11.8786C51.857 12.3434 53.1199 13.0448 53.8439 14.2274C54.749 15.7117 54.7695 18.4438 52.1367 17.9341C49.8207 17.4855 48.1464 15.047 47.6733 12.9306C47.5005 12.164 46.3116 12.4862 46.4844 13.2569C46.904 15.1408 47.953 16.8045 49.5245 17.9586C50.7586 18.8679 52.9266 19.9526 54.3787 18.9209C55.872 17.8607 55.872 15.6668 55.1974 14.1581C54.3993 12.3801 52.7003 11.3485 50.9232 10.696C50.1662 10.4269 49.8453 11.6094 50.5858 11.8786Z" fill="#46A358"/>
<path d="M38.1046 15.2469C34.5009 17.4 31.8434 19.7977 31.214 24.112C30.527 28.7974 31.6254 33.6949 32.6291 38.2579C32.7978 39.0286 33.9867 38.7024 33.818 37.9317C32.9294 33.8947 32.0203 29.7109 32.2959 25.5556C32.5962 21.0252 34.9658 18.5499 38.7216 16.3072C39.4045 15.8994 38.7874 14.8391 38.1046 15.2469Z" fill="#46A358"/>
<path d="M54.0085 13.8644C59.0479 14.2559 62.6145 18.2685 63.9679 22.8641C65.4407 27.8676 64.6179 33.1361 63.8157 38.1762C63.6923 38.9469 64.8812 39.2772 65.0046 38.5025C65.9425 32.5897 66.8846 26.3099 64.4616 20.6091C62.6268 16.2907 58.8175 13.0163 54.0085 12.6411C53.2145 12.5799 53.2186 13.8033 54.0085 13.8644Z" fill="#46A358"/>
<path d="M39.3263 17.7833C33.2996 22.1302 35.2536 31.9577 36.4713 38.0662C36.6235 38.8369 37.8165 38.5107 37.6602 37.74C37.0226 34.543 36.4302 31.3093 36.4919 28.0389C36.5536 24.8582 37.1583 20.8498 39.9475 18.8394C40.5851 18.3786 39.9721 17.3184 39.3263 17.7833Z" fill="#46A358"/>
<path d="M46.0936 13.8278C43.8516 17.249 42.4035 21.074 41.877 25.1273C41.6014 27.2518 41.5808 29.4049 41.8358 31.5335C42.1115 33.8579 42.8643 36.0925 43.144 38.4168C43.2345 39.1875 44.4728 39.1998 44.3782 38.4168C43.8927 34.3594 42.6421 30.6242 42.9712 26.473C43.3127 22.1628 44.7937 18.0605 47.1632 14.4435C47.591 13.7829 46.5256 13.1712 46.0936 13.8278Z" fill="#46A358"/>
<path d="M49.1088 17.6079C50.9477 20.6173 51.3344 24.0223 51.6552 27.4598C51.9885 31.0361 52.26 34.6164 52.4903 38.2007C52.5397 38.9837 53.7738 38.9878 53.7245 38.2007C53.4653 34.1433 53.1732 30.0859 52.7536 26.0408C52.4245 22.8642 51.8692 19.7528 50.1743 16.9881C49.7629 16.3193 48.6933 16.931 49.1088 17.6079Z" fill="#46A358"/>
<path d="M54.7242 18.1789C59.3193 23.9082 59.4715 31.2237 59.307 38.2049C59.2905 38.9919 60.5246 38.9919 60.5411 38.2049C60.7139 30.8404 60.4177 23.3291 55.5963 17.3144C55.1027 16.6986 54.2347 17.5713 54.7242 18.1789Z" fill="#46A358"/>
<path d="M46.9532 19.6713C46.8833 19.9445 46.8174 20.2136 46.7475 20.4868C46.6529 20.8701 47.2453 21.0333 47.344 20.6499C47.4139 20.3767 47.4798 20.1076 47.5497 19.8344C47.6443 19.4551 47.0519 19.292 46.9532 19.6713Z" fill="#46A358"/>
<path d="M48.2861 21.7957C48.2861 22.1015 48.2861 22.4074 48.2861 22.7132C48.2861 23.1088 48.9032 23.1088 48.9032 22.7132C48.9032 22.4074 48.9032 22.1015 48.9032 21.7957C48.9032 21.4002 48.2861 21.4002 48.2861 21.7957Z" fill="#46A358"/>
<path d="M45.3077 23.7328C45.2748 24.1732 45.2377 24.6177 45.2048 25.0581C45.176 25.4495 45.7931 25.4495 45.8219 25.0581C45.8548 24.6177 45.8918 24.1732 45.9247 23.7328C45.9535 23.3413 45.3365 23.3413 45.3077 23.7328Z" fill="#46A358"/>
<path d="M49.3147 25.8735C49.3147 26.2813 49.3147 26.6891 49.3147 27.0968C49.3147 27.4924 49.9318 27.4924 49.9318 27.0968C49.9318 26.6891 49.9318 26.2813 49.9318 25.8735C49.9318 25.478 49.3147 25.478 49.3147 25.8735Z" fill="#46A358"/>
<path d="M46.9492 28.1163C46.9492 28.5567 46.9492 29.0012 46.9492 29.4416C46.9492 29.8371 47.5663 29.8371 47.5663 29.4416C47.5663 29.0012 47.5663 28.5567 47.5663 28.1163C47.5663 27.7208 46.9492 27.7208 46.9492 28.1163Z" fill="#46A358"/>
<path d="M45.6123 32.6019C45.6123 33.2135 45.6123 33.8252 45.6123 34.4369C45.6123 34.8324 46.2294 34.8324 46.2294 34.4369C46.2294 33.8252 46.2294 33.2135 46.2294 32.6019C46.2294 32.2063 45.6123 32.2063 45.6123 32.6019Z" fill="#46A358"/>
<path d="M43.7816 28.6016C43.8515 29.0094 43.9256 29.4171 43.9955 29.8249C44.0613 30.2123 44.6578 30.0492 44.592 29.6618C44.522 29.254 44.448 28.8462 44.3781 28.4385C44.3081 28.0552 43.7116 28.2183 43.7816 28.6016Z" fill="#46A358"/>
<path d="M48.5001 34.6409C48.533 35.0486 48.5701 35.4564 48.603 35.8642C48.6359 36.2557 49.2529 36.2557 49.22 35.8642C49.1871 35.4564 49.1501 35.0486 49.1172 34.6409C49.0843 34.2494 48.4631 34.2453 48.5001 34.6409Z" fill="#46A358"/>
<path d="M50.3472 30.0533C50.3801 30.4611 50.4172 30.8689 50.4501 31.2766C50.483 31.664 51.1 31.6681 51.0671 31.2766C51.0342 30.8689 50.9972 30.4611 50.9643 30.0533C50.9314 29.6618 50.3143 29.6577 50.3472 30.0533Z" fill="#46A358"/>
<path d="M57.4311 16.401C57.9083 16.8128 58.3855 17.2247 58.8627 17.6325C59.163 17.8894 59.599 17.4571 59.2987 17.2002C58.8215 16.7884 58.3443 16.3765 57.8671 15.9687C57.571 15.7118 57.1308 16.14 57.4311 16.401Z" fill="#46A358"/>
<path d="M57.6901 19.8058C57.9575 20.2829 58.229 20.7641 58.4964 21.2412C58.6898 21.5837 59.2246 21.2779 59.0312 20.9313C58.7638 20.4542 58.4923 19.973 58.2249 19.4959C58.0275 19.1534 57.4968 19.4633 57.6901 19.8058Z" fill="#46A358"/>
<path d="M60.1627 20.0056C60.4671 20.4174 60.7715 20.8293 61.0759 21.2371C61.3063 21.5511 61.8452 21.2452 61.6107 20.9272C61.3063 20.5153 61.0019 20.1034 60.6975 19.6957C60.463 19.3858 59.9282 19.6875 60.1627 20.0056Z" fill="#46A358"/>
<path d="M61.6846 25.3394C61.7874 26.053 61.8944 26.7666 61.9972 27.4802C62.0548 27.8676 62.6472 27.7045 62.5937 27.3171C62.4909 26.6035 62.3839 25.8899 62.2811 25.1763C62.2194 24.7889 61.627 24.9561 61.6846 25.3394Z" fill="#46A358"/>
<path d="M59.6114 23.5085C59.7142 23.8469 59.8171 24.1895 59.9199 24.5279C60.0351 24.9031 60.6275 24.744 60.5164 24.3648C60.4136 24.0263 60.3107 23.6838 60.2079 23.3453C60.0927 22.9702 59.4962 23.1292 59.6114 23.5085Z" fill="#46A358"/>
<path d="M62.8818 31.1747C62.9271 31.6599 62.9188 32.1452 62.8407 32.6264C62.779 33.0097 63.3714 33.1769 63.4372 32.7895C63.5236 32.2512 63.5524 31.717 63.503 31.1747C63.4619 30.7873 62.8448 30.7832 62.8818 31.1747Z" fill="#46A358"/>
<path d="M61.4502 33.1116C61.4502 33.4867 61.4502 33.8578 61.4502 34.2329C61.4502 34.6285 62.0673 34.6285 62.0673 34.2329C62.0673 33.8578 62.0673 33.4867 62.0673 33.1116C62.0673 32.716 61.4502 32.716 61.4502 33.1116Z" fill="#46A358"/>
<path d="M62.0879 22.8928C62.2565 23.3006 62.4293 23.7084 62.598 24.1162C62.6638 24.2711 62.8037 24.3771 62.9764 24.3282C63.1204 24.2915 63.2562 24.1039 63.1904 23.9531C63.0217 23.5453 62.8489 23.1375 62.6803 22.7297C62.6144 22.5748 62.4746 22.4687 62.3018 22.5177C62.1578 22.5544 62.0262 22.742 62.0879 22.8928Z" fill="#46A358"/>
<path d="M60.936 29.9513C60.936 30.1878 60.936 30.4284 60.936 30.6649C60.936 31.0605 61.5531 31.0605 61.5531 30.6649C61.5531 30.4284 61.5531 30.1878 61.5531 29.9513C61.5531 29.5558 60.936 29.5558 60.936 29.9513Z" fill="#46A358"/>
<path d="M62.1701 36.7817C62.1537 37.0712 62.0837 37.3485 61.9768 37.6176C61.9151 37.7726 62.0467 37.952 62.1907 37.9928C62.3676 38.0417 62.5075 37.9316 62.5692 37.7807C62.7008 37.4586 62.7666 37.1283 62.7872 36.7817C62.8119 36.3861 62.1948 36.3902 62.1701 36.7817Z" fill="#46A358"/>
<path d="M36.2905 18.8842C36.0807 19.186 35.8709 19.4877 35.657 19.7895C35.4307 20.1157 35.9655 20.4216 36.1918 20.0994C36.4016 19.7977 36.6114 19.4959 36.8253 19.1941C37.0474 18.8679 36.5126 18.5621 36.2905 18.8842Z" fill="#46A358"/>
<path d="M34.5297 23.3453C34.4515 23.7163 34.3775 24.0874 34.2993 24.4626C34.2212 24.8459 34.8135 25.0131 34.8958 24.6257C34.974 24.2546 35.048 23.8835 35.1262 23.5084C35.2044 23.1251 34.6079 22.9619 34.5297 23.3453Z" fill="#46A358"/>
<path d="M34.3322 21.1229C34.0072 21.5511 33.7645 22.0241 33.6 22.5338C33.4766 22.909 34.073 23.068 34.1965 22.6969C34.3487 22.2361 34.5749 21.8202 34.867 21.4328C35.1056 21.1147 34.5667 20.813 34.3322 21.1229Z" fill="#46A358"/>
<path d="M33.0776 25.1803C33.0035 25.69 32.9254 26.1956 32.8513 26.7054C32.7937 27.0887 33.3902 27.2559 33.4478 26.8685C33.5219 26.3588 33.6 25.8531 33.6741 25.3434C33.7317 24.956 33.1352 24.7888 33.0776 25.1803Z" fill="#46A358"/>
<path d="M33.6947 28.1163C33.6412 28.626 33.6741 29.1276 33.7728 29.6292C33.8469 30.0166 34.4434 29.8534 34.3693 29.4661C34.2829 29.0175 34.2665 28.5689 34.3158 28.1163C34.3488 27.7248 33.7317 27.7289 33.6947 28.1163Z" fill="#46A358"/>
<path d="M34.2006 31.9903C34.2335 32.2962 34.2705 32.602 34.3034 32.9078C34.3199 33.071 34.4309 33.2137 34.6119 33.2137C34.7641 33.2137 34.941 33.075 34.9205 32.9078C34.8876 32.602 34.8505 32.2962 34.8176 31.9903C34.8012 31.8272 34.6901 31.6845 34.5091 31.6845C34.3569 31.6845 34.1841 31.8232 34.2006 31.9903Z" fill="#46A358"/>
<path d="M33.2008 34.2902C33.4394 34.6776 33.6122 35.0854 33.7192 35.5298C33.8138 35.9132 34.4062 35.7501 34.3156 35.3667C34.1964 34.8774 33.9989 34.4125 33.7356 33.9803C33.5258 33.6459 32.9951 33.9558 33.2008 34.2902Z" fill="#46A358"/>
<path d="M34.5173 36.8633C34.5872 37.0345 34.6531 37.2017 34.723 37.373C34.7847 37.5239 34.9287 37.634 35.1015 37.585C35.2496 37.5443 35.3812 37.3648 35.3154 37.2099C35.2455 37.0386 35.1796 36.8714 35.1097 36.7002C35.048 36.5493 34.904 36.4392 34.7312 36.4881C34.5872 36.5248 34.4556 36.7083 34.5173 36.8633Z" fill="#46A358"/>
</g>
<defs>
<clipPath id="clip0_1_4598">
<rect width="68" height="49" fill="white" transform="translate(15 38)"/>
</clipPath>
<clipPath id="clip1_1_4598">
<rect width="35" height="39" fill="white" transform="translate(31)"/>
</clipPath>
</defs>
</svg>
